G04 EAGLE Gerber RS-274X export*
G75*
%MOMM*%
%FSLAX34Y34*%
%LPD*%
%INTop Copper*%
%IPPOS*%
%AMOC8*
5,1,8,0,0,1.08239X$1,22.5*%
G01*
%ADD10C,0.304800*%
%ADD11P,1.319650X8X112.500000*%
%ADD12C,1.219200*%
%ADD13R,1.418000X1.418000*%
%ADD14C,1.418000*%
%ADD15C,1.524000*%
%ADD16P,1.429621X8X112.500000*%
%ADD17C,1.108000*%
%ADD18R,1.108000X1.108000*%
%ADD19C,1.408000*%
%ADD20C,1.320800*%
%ADD21C,0.508000*%
%ADD22C,0.254000*%


D10*
X708152Y838200D02*
X708154Y838310D01*
X708160Y838420D01*
X708170Y838530D01*
X708184Y838639D01*
X708202Y838747D01*
X708223Y838855D01*
X708249Y838962D01*
X708278Y839068D01*
X708312Y839173D01*
X708349Y839277D01*
X708389Y839379D01*
X708434Y839480D01*
X708482Y839579D01*
X708533Y839676D01*
X708588Y839771D01*
X708647Y839865D01*
X708708Y839956D01*
X708774Y840045D01*
X708842Y840131D01*
X708913Y840215D01*
X708987Y840296D01*
X709064Y840375D01*
X709144Y840450D01*
X709227Y840523D01*
X709312Y840593D01*
X709400Y840659D01*
X709490Y840723D01*
X709582Y840783D01*
X709676Y840840D01*
X709772Y840893D01*
X709870Y840943D01*
X709970Y840989D01*
X710072Y841032D01*
X710175Y841070D01*
X710279Y841106D01*
X710385Y841137D01*
X710491Y841164D01*
X710599Y841188D01*
X710707Y841208D01*
X710816Y841224D01*
X710925Y841236D01*
X711035Y841244D01*
X711145Y841248D01*
X711255Y841248D01*
X711365Y841244D01*
X711475Y841236D01*
X711584Y841224D01*
X711693Y841208D01*
X711801Y841188D01*
X711909Y841164D01*
X712015Y841137D01*
X712121Y841106D01*
X712225Y841070D01*
X712328Y841032D01*
X712430Y840989D01*
X712530Y840943D01*
X712628Y840893D01*
X712724Y840840D01*
X712818Y840783D01*
X712910Y840723D01*
X713000Y840659D01*
X713088Y840593D01*
X713173Y840523D01*
X713256Y840450D01*
X713336Y840375D01*
X713413Y840296D01*
X713487Y840215D01*
X713558Y840131D01*
X713626Y840045D01*
X713692Y839956D01*
X713753Y839865D01*
X713812Y839771D01*
X713867Y839676D01*
X713918Y839579D01*
X713966Y839480D01*
X714011Y839379D01*
X714051Y839277D01*
X714088Y839173D01*
X714122Y839068D01*
X714151Y838962D01*
X714177Y838855D01*
X714198Y838747D01*
X714216Y838639D01*
X714230Y838530D01*
X714240Y838420D01*
X714246Y838310D01*
X714248Y838200D01*
X714246Y838090D01*
X714240Y837980D01*
X714230Y837870D01*
X714216Y837761D01*
X714198Y837653D01*
X714177Y837545D01*
X714151Y837438D01*
X714122Y837332D01*
X714088Y837227D01*
X714051Y837123D01*
X714011Y837021D01*
X713966Y836920D01*
X713918Y836821D01*
X713867Y836724D01*
X713812Y836629D01*
X713753Y836535D01*
X713692Y836444D01*
X713626Y836355D01*
X713558Y836269D01*
X713487Y836185D01*
X713413Y836104D01*
X713336Y836025D01*
X713256Y835950D01*
X713173Y835877D01*
X713088Y835807D01*
X713000Y835741D01*
X712910Y835677D01*
X712818Y835617D01*
X712724Y835560D01*
X712628Y835507D01*
X712530Y835457D01*
X712430Y835411D01*
X712328Y835368D01*
X712225Y835330D01*
X712121Y835294D01*
X712015Y835263D01*
X711909Y835236D01*
X711801Y835212D01*
X711693Y835192D01*
X711584Y835176D01*
X711475Y835164D01*
X711365Y835156D01*
X711255Y835152D01*
X711145Y835152D01*
X711035Y835156D01*
X710925Y835164D01*
X710816Y835176D01*
X710707Y835192D01*
X710599Y835212D01*
X710491Y835236D01*
X710385Y835263D01*
X710279Y835294D01*
X710175Y835330D01*
X710072Y835368D01*
X709970Y835411D01*
X709870Y835457D01*
X709772Y835507D01*
X709676Y835560D01*
X709582Y835617D01*
X709490Y835677D01*
X709400Y835741D01*
X709312Y835807D01*
X709227Y835877D01*
X709144Y835950D01*
X709064Y836025D01*
X708987Y836104D01*
X708913Y836185D01*
X708842Y836269D01*
X708774Y836355D01*
X708708Y836444D01*
X708647Y836535D01*
X708588Y836629D01*
X708533Y836724D01*
X708482Y836821D01*
X708434Y836920D01*
X708389Y837021D01*
X708349Y837123D01*
X708312Y837227D01*
X708278Y837332D01*
X708249Y837438D01*
X708223Y837545D01*
X708202Y837653D01*
X708184Y837761D01*
X708170Y837870D01*
X708160Y837980D01*
X708154Y838090D01*
X708152Y838200D01*
X162052Y190500D02*
X162054Y190610D01*
X162060Y190720D01*
X162070Y190830D01*
X162084Y190939D01*
X162102Y191047D01*
X162123Y191155D01*
X162149Y191262D01*
X162178Y191368D01*
X162212Y191473D01*
X162249Y191577D01*
X162289Y191679D01*
X162334Y191780D01*
X162382Y191879D01*
X162433Y191976D01*
X162488Y192071D01*
X162547Y192165D01*
X162608Y192256D01*
X162674Y192345D01*
X162742Y192431D01*
X162813Y192515D01*
X162887Y192596D01*
X162964Y192675D01*
X163044Y192750D01*
X163127Y192823D01*
X163212Y192893D01*
X163300Y192959D01*
X163390Y193023D01*
X163482Y193083D01*
X163576Y193140D01*
X163672Y193193D01*
X163770Y193243D01*
X163870Y193289D01*
X163972Y193332D01*
X164075Y193370D01*
X164179Y193406D01*
X164285Y193437D01*
X164391Y193464D01*
X164499Y193488D01*
X164607Y193508D01*
X164716Y193524D01*
X164825Y193536D01*
X164935Y193544D01*
X165045Y193548D01*
X165155Y193548D01*
X165265Y193544D01*
X165375Y193536D01*
X165484Y193524D01*
X165593Y193508D01*
X165701Y193488D01*
X165809Y193464D01*
X165915Y193437D01*
X166021Y193406D01*
X166125Y193370D01*
X166228Y193332D01*
X166330Y193289D01*
X166430Y193243D01*
X166528Y193193D01*
X166624Y193140D01*
X166718Y193083D01*
X166810Y193023D01*
X166900Y192959D01*
X166988Y192893D01*
X167073Y192823D01*
X167156Y192750D01*
X167236Y192675D01*
X167313Y192596D01*
X167387Y192515D01*
X167458Y192431D01*
X167526Y192345D01*
X167592Y192256D01*
X167653Y192165D01*
X167712Y192071D01*
X167767Y191976D01*
X167818Y191879D01*
X167866Y191780D01*
X167911Y191679D01*
X167951Y191577D01*
X167988Y191473D01*
X168022Y191368D01*
X168051Y191262D01*
X168077Y191155D01*
X168098Y191047D01*
X168116Y190939D01*
X168130Y190830D01*
X168140Y190720D01*
X168146Y190610D01*
X168148Y190500D01*
X168146Y190390D01*
X168140Y190280D01*
X168130Y190170D01*
X168116Y190061D01*
X168098Y189953D01*
X168077Y189845D01*
X168051Y189738D01*
X168022Y189632D01*
X167988Y189527D01*
X167951Y189423D01*
X167911Y189321D01*
X167866Y189220D01*
X167818Y189121D01*
X167767Y189024D01*
X167712Y188929D01*
X167653Y188835D01*
X167592Y188744D01*
X167526Y188655D01*
X167458Y188569D01*
X167387Y188485D01*
X167313Y188404D01*
X167236Y188325D01*
X167156Y188250D01*
X167073Y188177D01*
X166988Y188107D01*
X166900Y188041D01*
X166810Y187977D01*
X166718Y187917D01*
X166624Y187860D01*
X166528Y187807D01*
X166430Y187757D01*
X166330Y187711D01*
X166228Y187668D01*
X166125Y187630D01*
X166021Y187594D01*
X165915Y187563D01*
X165809Y187536D01*
X165701Y187512D01*
X165593Y187492D01*
X165484Y187476D01*
X165375Y187464D01*
X165265Y187456D01*
X165155Y187452D01*
X165045Y187452D01*
X164935Y187456D01*
X164825Y187464D01*
X164716Y187476D01*
X164607Y187492D01*
X164499Y187512D01*
X164391Y187536D01*
X164285Y187563D01*
X164179Y187594D01*
X164075Y187630D01*
X163972Y187668D01*
X163870Y187711D01*
X163770Y187757D01*
X163672Y187807D01*
X163576Y187860D01*
X163482Y187917D01*
X163390Y187977D01*
X163300Y188041D01*
X163212Y188107D01*
X163127Y188177D01*
X163044Y188250D01*
X162964Y188325D01*
X162887Y188404D01*
X162813Y188485D01*
X162742Y188569D01*
X162674Y188655D01*
X162608Y188744D01*
X162547Y188835D01*
X162488Y188929D01*
X162433Y189024D01*
X162382Y189121D01*
X162334Y189220D01*
X162289Y189321D01*
X162249Y189423D01*
X162212Y189527D01*
X162178Y189632D01*
X162149Y189738D01*
X162123Y189845D01*
X162102Y189953D01*
X162084Y190061D01*
X162070Y190170D01*
X162060Y190280D01*
X162054Y190390D01*
X162052Y190500D01*
D11*
X763270Y246380D03*
D12*
X763270Y228600D03*
D13*
X317500Y381000D03*
D14*
X342900Y381000D03*
X368300Y381000D03*
X393700Y381000D03*
X419100Y381000D03*
X444500Y381000D03*
X469900Y381000D03*
X469900Y533400D03*
X444500Y533400D03*
X419100Y533400D03*
X393700Y533400D03*
X368300Y533400D03*
X342900Y533400D03*
X317500Y533400D03*
D15*
X703580Y393700D02*
X718820Y393700D01*
X718820Y368300D02*
X703580Y368300D01*
X703580Y457200D02*
X718820Y457200D01*
X718820Y482600D02*
X703580Y482600D01*
X703580Y508000D02*
X718820Y508000D01*
X622300Y325120D02*
X622300Y309880D01*
X647700Y309880D02*
X647700Y325120D01*
D16*
X673100Y546100D03*
X673100Y673100D03*
D17*
X495300Y254000D03*
X495300Y228600D03*
D18*
X723900Y254000D03*
D17*
X723900Y228600D03*
D13*
X342900Y228600D03*
D14*
X368300Y228600D03*
X393700Y228600D03*
X419100Y228600D03*
X444500Y228600D03*
X444500Y330200D03*
X419100Y330200D03*
X393700Y330200D03*
X368300Y330200D03*
X342900Y330200D03*
D19*
X114300Y678760D02*
X114300Y692840D01*
X139700Y692840D02*
X139700Y678760D01*
X165100Y678760D02*
X165100Y692840D01*
X190500Y692840D02*
X190500Y678760D01*
X215900Y678760D02*
X215900Y692840D01*
X241300Y692840D02*
X241300Y678760D01*
X266700Y678760D02*
X266700Y692840D01*
X292100Y692840D02*
X292100Y678760D01*
X317500Y678760D02*
X317500Y692840D01*
X342900Y692840D02*
X342900Y678760D01*
X368300Y678760D02*
X368300Y692840D01*
X393700Y692840D02*
X393700Y678760D01*
X419100Y678760D02*
X419100Y692840D01*
X444500Y692840D02*
X444500Y678760D01*
X469900Y678760D02*
X469900Y692840D01*
X495300Y692840D02*
X495300Y678760D01*
X520700Y678760D02*
X520700Y692840D01*
X546100Y692840D02*
X546100Y678760D01*
X571500Y678760D02*
X571500Y692840D01*
X596900Y692840D02*
X596900Y678760D01*
X114300Y831160D02*
X114300Y845240D01*
X139700Y845240D02*
X139700Y831160D01*
X165100Y831160D02*
X165100Y845240D01*
X190500Y845240D02*
X190500Y831160D01*
X215900Y831160D02*
X215900Y845240D01*
X241300Y845240D02*
X241300Y831160D01*
X266700Y831160D02*
X266700Y845240D01*
X292100Y845240D02*
X292100Y831160D01*
X317500Y831160D02*
X317500Y845240D01*
X342900Y845240D02*
X342900Y831160D01*
X368300Y831160D02*
X368300Y845240D01*
X393700Y845240D02*
X393700Y831160D01*
X419100Y831160D02*
X419100Y845240D01*
X444500Y845240D02*
X444500Y831160D01*
X469900Y831160D02*
X469900Y845240D01*
X495300Y845240D02*
X495300Y831160D01*
X520700Y831160D02*
X520700Y845240D01*
X546100Y845240D02*
X546100Y831160D01*
X571500Y831160D02*
X571500Y845240D01*
X596900Y845240D02*
X596900Y831160D01*
D20*
X317500Y565404D02*
X317500Y552196D01*
X342900Y552196D02*
X342900Y565404D01*
X368300Y565404D02*
X368300Y552196D01*
X393700Y552196D02*
X393700Y565404D01*
X419100Y565404D02*
X419100Y552196D01*
X444500Y552196D02*
X444500Y565404D01*
X469900Y565404D02*
X469900Y552196D01*
X495300Y552196D02*
X495300Y565404D01*
X520700Y565404D02*
X520700Y552196D01*
X546100Y552196D02*
X546100Y565404D01*
X571500Y565404D02*
X571500Y552196D01*
X596900Y552196D02*
X596900Y565404D01*
X596900Y628396D02*
X596900Y641604D01*
X571500Y641604D02*
X571500Y628396D01*
X546100Y628396D02*
X546100Y641604D01*
X520700Y641604D02*
X520700Y628396D01*
X495300Y628396D02*
X495300Y641604D01*
X469900Y641604D02*
X469900Y628396D01*
X444500Y628396D02*
X444500Y641604D01*
X419100Y641604D02*
X419100Y628396D01*
X393700Y628396D02*
X393700Y641604D01*
X368300Y641604D02*
X368300Y628396D01*
X342900Y628396D02*
X342900Y641604D01*
X317500Y641604D02*
X317500Y628396D01*
D10*
X355600Y596900D02*
X317500Y558800D01*
X355600Y596900D02*
X355600Y800100D01*
X317500Y838200D01*
X406400Y546100D02*
X419100Y533400D01*
X406400Y546100D02*
X406400Y576681D01*
X384810Y584200D02*
X368300Y567690D01*
X368300Y558800D01*
X384810Y584200D02*
X398881Y584200D01*
X406400Y576681D01*
X422275Y520700D02*
X330200Y520700D01*
X317500Y533400D01*
X431800Y546100D02*
X444500Y558800D01*
X431800Y530225D02*
X422275Y520700D01*
X431800Y530225D02*
X431800Y546100D01*
X571500Y558800D02*
X571500Y355600D01*
X444500Y228600D01*
X457200Y368300D02*
X444500Y381000D01*
X457200Y368300D02*
X508000Y368300D01*
X546100Y406400D01*
X546100Y558800D01*
X571500Y581025D02*
X571500Y587375D01*
X571500Y635000D01*
X571500Y581025D02*
X558800Y568325D01*
X558800Y393700D01*
X393700Y228600D01*
X342900Y533400D02*
X355600Y546100D01*
X533400Y625475D02*
X571500Y587375D01*
X533400Y625475D02*
X533400Y643991D01*
X525119Y652272D01*
X490881Y652272D01*
X482600Y643991D01*
X482600Y626009D01*
X466191Y609600D01*
X396139Y609600D01*
X355600Y569061D01*
X355600Y546100D01*
X393700Y381000D02*
X393700Y330200D01*
X304800Y418824D02*
X304800Y596900D01*
X304800Y418824D02*
X342900Y381000D01*
X304800Y596900D02*
X342900Y635000D01*
X575919Y652272D02*
X584200Y643991D01*
X575919Y652272D02*
X563372Y652272D01*
X546100Y635000D01*
X419100Y228600D02*
X431800Y215900D01*
X558800Y215900D01*
X584200Y241300D01*
X584200Y643991D01*
X419100Y381000D02*
X419100Y346075D01*
X406400Y333375D01*
X406400Y292100D01*
X342900Y228600D01*
D21*
X444500Y635000D02*
X472440Y662940D01*
X523240Y662940D01*
X546100Y685800D01*
X673100Y594995D02*
X673100Y546100D01*
X605155Y662940D02*
X523240Y662940D01*
X673100Y279400D02*
X723900Y228600D01*
X673100Y279400D02*
X673100Y546100D01*
X673100Y594995D02*
X605155Y662940D01*
D10*
X469900Y635000D02*
X450850Y615950D01*
X441325Y615950D01*
X431800Y625475D01*
X469900Y736600D02*
X609600Y736600D01*
X469900Y736600D02*
X431800Y698500D01*
X431800Y625475D01*
X609600Y736600D02*
X673100Y673100D01*
X596900Y711200D02*
X495300Y711200D01*
X469900Y685800D01*
X685800Y508000D02*
X711200Y482600D01*
X685800Y508000D02*
X685800Y622300D01*
X596900Y711200D01*
X600710Y723900D02*
X482600Y723900D01*
X711200Y614045D02*
X711200Y508000D01*
X710565Y614045D02*
X600710Y723900D01*
X710565Y614045D02*
X711200Y614045D01*
X482600Y723900D02*
X444500Y685800D01*
X520700Y635000D02*
X457200Y571500D01*
X457200Y546100D01*
X444500Y533400D01*
X368300Y365125D02*
X368300Y330200D01*
X368300Y365125D02*
X355600Y377825D01*
X355600Y444500D01*
X444500Y533400D01*
X469900Y533400D02*
X469900Y482600D01*
X368300Y381000D01*
X381000Y368300D02*
X381000Y317500D01*
X381000Y368300D02*
X368300Y381000D01*
X381000Y317500D02*
X368300Y304800D01*
X355600Y304800D01*
X342900Y304800D01*
X330200Y292100D01*
X330200Y221373D01*
X355600Y215900D02*
X368300Y228600D01*
X355600Y215900D02*
X335673Y215900D01*
X330200Y221373D01*
D22*
X65000Y640000D02*
X135000Y640000D01*
X135000Y163000D01*
X825000Y163000D01*
X825000Y750000D01*
X745000Y750000D01*
X745000Y870000D01*
X65000Y870000D01*
X65000Y640000D01*
X801000Y287476D02*
X800932Y286431D01*
X800795Y285392D01*
X800590Y284365D01*
X800319Y283353D01*
X799983Y282361D01*
X799582Y281393D01*
X799118Y280454D01*
X798595Y279546D01*
X798013Y278675D01*
X797375Y277844D01*
X796684Y277057D01*
X795943Y276316D01*
X795156Y275625D01*
X794325Y274988D01*
X793454Y274406D01*
X792546Y273882D01*
X791607Y273418D01*
X790639Y273017D01*
X789647Y272681D01*
X788635Y272410D01*
X787608Y272205D01*
X786569Y272069D01*
X785524Y272000D01*
X784476Y272000D01*
X783431Y272069D01*
X782392Y272205D01*
X781365Y272410D01*
X780353Y272681D01*
X779361Y273017D01*
X778393Y273418D01*
X777454Y273882D01*
X776546Y274406D01*
X775675Y274988D01*
X774844Y275625D01*
X774057Y276316D01*
X773316Y277057D01*
X772625Y277844D01*
X771988Y278675D01*
X771406Y279546D01*
X770882Y280454D01*
X770418Y281393D01*
X770017Y282361D01*
X769681Y283353D01*
X769410Y284365D01*
X769205Y285392D01*
X769069Y286431D01*
X769000Y287476D01*
X769000Y288524D01*
X769069Y289569D01*
X769205Y290608D01*
X769410Y291635D01*
X769681Y292647D01*
X770017Y293639D01*
X770418Y294607D01*
X770882Y295546D01*
X771406Y296454D01*
X771988Y297325D01*
X772625Y298156D01*
X773316Y298943D01*
X774057Y299684D01*
X774844Y300375D01*
X775675Y301013D01*
X776546Y301595D01*
X777454Y302118D01*
X778393Y302582D01*
X779361Y302983D01*
X780353Y303319D01*
X781365Y303590D01*
X782392Y303795D01*
X783431Y303932D01*
X784476Y304000D01*
X785524Y304000D01*
X786569Y303932D01*
X787608Y303795D01*
X788635Y303590D01*
X789647Y303319D01*
X790639Y302983D01*
X791607Y302582D01*
X792546Y302118D01*
X793454Y301595D01*
X794325Y301013D01*
X795156Y300375D01*
X795943Y299684D01*
X796684Y298943D01*
X797375Y298156D01*
X798013Y297325D01*
X798595Y296454D01*
X799118Y295546D01*
X799582Y294607D01*
X799983Y293639D01*
X800319Y292647D01*
X800590Y291635D01*
X800795Y290608D01*
X800932Y289569D01*
X801000Y288524D01*
X801000Y287476D01*
X801000Y617476D02*
X800932Y616431D01*
X800795Y615392D01*
X800590Y614365D01*
X800319Y613353D01*
X799983Y612361D01*
X799582Y611393D01*
X799118Y610454D01*
X798595Y609546D01*
X798013Y608675D01*
X797375Y607844D01*
X796684Y607057D01*
X795943Y606316D01*
X795156Y605625D01*
X794325Y604988D01*
X793454Y604406D01*
X792546Y603882D01*
X791607Y603418D01*
X790639Y603017D01*
X789647Y602681D01*
X788635Y602410D01*
X787608Y602205D01*
X786569Y602069D01*
X785524Y602000D01*
X784476Y602000D01*
X783431Y602069D01*
X782392Y602205D01*
X781365Y602410D01*
X780353Y602681D01*
X779361Y603017D01*
X778393Y603418D01*
X777454Y603882D01*
X776546Y604406D01*
X775675Y604988D01*
X774844Y605625D01*
X774057Y606316D01*
X773316Y607057D01*
X772625Y607844D01*
X771988Y608675D01*
X771406Y609546D01*
X770882Y610454D01*
X770418Y611393D01*
X770017Y612361D01*
X769681Y613353D01*
X769410Y614365D01*
X769205Y615392D01*
X769069Y616431D01*
X769000Y617476D01*
X769000Y618524D01*
X769069Y619569D01*
X769205Y620608D01*
X769410Y621635D01*
X769681Y622647D01*
X770017Y623639D01*
X770418Y624607D01*
X770882Y625546D01*
X771406Y626454D01*
X771988Y627325D01*
X772625Y628156D01*
X773316Y628943D01*
X774057Y629684D01*
X774844Y630375D01*
X775675Y631013D01*
X776546Y631595D01*
X777454Y632118D01*
X778393Y632582D01*
X779361Y632983D01*
X780353Y633319D01*
X781365Y633590D01*
X782392Y633795D01*
X783431Y633932D01*
X784476Y634000D01*
X785524Y634000D01*
X786569Y633932D01*
X787608Y633795D01*
X788635Y633590D01*
X789647Y633319D01*
X790639Y632983D01*
X791607Y632582D01*
X792546Y632118D01*
X793454Y631595D01*
X794325Y631013D01*
X795156Y630375D01*
X795943Y629684D01*
X796684Y628943D01*
X797375Y628156D01*
X798013Y627325D01*
X798595Y626454D01*
X799118Y625546D01*
X799582Y624607D01*
X799983Y623639D01*
X800319Y622647D01*
X800590Y621635D01*
X800795Y620608D01*
X800932Y619569D01*
X801000Y618524D01*
X801000Y617476D01*
X211000Y287476D02*
X210932Y286431D01*
X210795Y285392D01*
X210590Y284365D01*
X210319Y283353D01*
X209983Y282361D01*
X209582Y281393D01*
X209118Y280454D01*
X208595Y279546D01*
X208013Y278675D01*
X207375Y277844D01*
X206684Y277057D01*
X205943Y276316D01*
X205156Y275625D01*
X204325Y274988D01*
X203454Y274406D01*
X202546Y273882D01*
X201607Y273418D01*
X200639Y273017D01*
X199647Y272681D01*
X198635Y272410D01*
X197608Y272205D01*
X196569Y272069D01*
X195524Y272000D01*
X194476Y272000D01*
X193431Y272069D01*
X192392Y272205D01*
X191365Y272410D01*
X190353Y272681D01*
X189361Y273017D01*
X188393Y273418D01*
X187454Y273882D01*
X186546Y274406D01*
X185675Y274988D01*
X184844Y275625D01*
X184057Y276316D01*
X183316Y277057D01*
X182625Y277844D01*
X181988Y278675D01*
X181406Y279546D01*
X180882Y280454D01*
X180418Y281393D01*
X180017Y282361D01*
X179681Y283353D01*
X179410Y284365D01*
X179205Y285392D01*
X179069Y286431D01*
X179000Y287476D01*
X179000Y288524D01*
X179069Y289569D01*
X179205Y290608D01*
X179410Y291635D01*
X179681Y292647D01*
X180017Y293639D01*
X180418Y294607D01*
X180882Y295546D01*
X181406Y296454D01*
X181988Y297325D01*
X182625Y298156D01*
X183316Y298943D01*
X184057Y299684D01*
X184844Y300375D01*
X185675Y301013D01*
X186546Y301595D01*
X187454Y302118D01*
X188393Y302582D01*
X189361Y302983D01*
X190353Y303319D01*
X191365Y303590D01*
X192392Y303795D01*
X193431Y303932D01*
X194476Y304000D01*
X195524Y304000D01*
X196569Y303932D01*
X197608Y303795D01*
X198635Y303590D01*
X199647Y303319D01*
X200639Y302983D01*
X201607Y302582D01*
X202546Y302118D01*
X203454Y301595D01*
X204325Y301013D01*
X205156Y300375D01*
X205943Y299684D01*
X206684Y298943D01*
X207375Y298156D01*
X208013Y297325D01*
X208595Y296454D01*
X209118Y295546D01*
X209582Y294607D01*
X209983Y293639D01*
X210319Y292647D01*
X210590Y291635D01*
X210795Y290608D01*
X210932Y289569D01*
X211000Y288524D01*
X211000Y287476D01*
X211000Y617476D02*
X210932Y616431D01*
X210795Y615392D01*
X210590Y614365D01*
X210319Y613353D01*
X209983Y612361D01*
X209582Y611393D01*
X209118Y610454D01*
X208595Y609546D01*
X208013Y608675D01*
X207375Y607844D01*
X206684Y607057D01*
X205943Y606316D01*
X205156Y605625D01*
X204325Y604988D01*
X203454Y604406D01*
X202546Y603882D01*
X201607Y603418D01*
X200639Y603017D01*
X199647Y602681D01*
X198635Y602410D01*
X197608Y602205D01*
X196569Y602069D01*
X195524Y602000D01*
X194476Y602000D01*
X193431Y602069D01*
X192392Y602205D01*
X191365Y602410D01*
X190353Y602681D01*
X189361Y603017D01*
X188393Y603418D01*
X187454Y603882D01*
X186546Y604406D01*
X185675Y604988D01*
X184844Y605625D01*
X184057Y606316D01*
X183316Y607057D01*
X182625Y607844D01*
X181988Y608675D01*
X181406Y609546D01*
X180882Y610454D01*
X180418Y611393D01*
X180017Y612361D01*
X179681Y613353D01*
X179410Y614365D01*
X179205Y615392D01*
X179069Y616431D01*
X179000Y617476D01*
X179000Y618524D01*
X179069Y619569D01*
X179205Y620608D01*
X179410Y621635D01*
X179681Y622647D01*
X180017Y623639D01*
X180418Y624607D01*
X180882Y625546D01*
X181406Y626454D01*
X181988Y627325D01*
X182625Y628156D01*
X183316Y628943D01*
X184057Y629684D01*
X184844Y630375D01*
X185675Y631013D01*
X186546Y631595D01*
X187454Y632118D01*
X188393Y632582D01*
X189361Y632983D01*
X190353Y633319D01*
X191365Y633590D01*
X192392Y633795D01*
X193431Y633932D01*
X194476Y634000D01*
X195524Y634000D01*
X196569Y633932D01*
X197608Y633795D01*
X198635Y633590D01*
X199647Y633319D01*
X200639Y632983D01*
X201607Y632582D01*
X202546Y632118D01*
X203454Y631595D01*
X204325Y631013D01*
X205156Y630375D01*
X205943Y629684D01*
X206684Y628943D01*
X207375Y628156D01*
X208013Y627325D01*
X208595Y626454D01*
X209118Y625546D01*
X209582Y624607D01*
X209983Y623639D01*
X210319Y622647D01*
X210590Y621635D01*
X210795Y620608D01*
X210932Y619569D01*
X211000Y618524D01*
X211000Y617476D01*
X712950Y838028D02*
X712883Y837690D01*
X712751Y837371D01*
X712559Y837084D01*
X712316Y836841D01*
X712029Y836649D01*
X711710Y836517D01*
X711372Y836450D01*
X711028Y836450D01*
X710690Y836517D01*
X710371Y836649D01*
X710084Y836841D01*
X709841Y837084D01*
X709649Y837371D01*
X709517Y837690D01*
X709450Y838028D01*
X709450Y838372D01*
X709517Y838710D01*
X709649Y839029D01*
X709841Y839316D01*
X710084Y839559D01*
X710371Y839751D01*
X710690Y839883D01*
X711028Y839950D01*
X711372Y839950D01*
X711710Y839883D01*
X712029Y839751D01*
X712316Y839559D01*
X712559Y839316D01*
X712751Y839029D01*
X712883Y838710D01*
X712950Y838372D01*
X712950Y838028D01*
X166850Y190328D02*
X166783Y189990D01*
X166651Y189671D01*
X166459Y189384D01*
X166216Y189141D01*
X165929Y188949D01*
X165610Y188817D01*
X165272Y188750D01*
X164928Y188750D01*
X164590Y188817D01*
X164271Y188949D01*
X163984Y189141D01*
X163741Y189384D01*
X163549Y189671D01*
X163417Y189990D01*
X163350Y190328D01*
X163350Y190672D01*
X163417Y191010D01*
X163549Y191329D01*
X163741Y191616D01*
X163984Y191859D01*
X164271Y192051D01*
X164590Y192183D01*
X164928Y192250D01*
X165272Y192250D01*
X165610Y192183D01*
X165929Y192051D01*
X166216Y191859D01*
X166459Y191616D01*
X166651Y191329D01*
X166783Y191010D01*
X166850Y190672D01*
X166850Y190328D01*
M02*
