G04 EAGLE Gerber RS-274X export*
G75*
%MOMM*%
%FSLAX34Y34*%
%LPD*%
%INTop Copper*%
%IPPOS*%
%AMOC8*
5,1,8,0,0,1.08239X$1,22.5*%
G01*
%ADD10P,1.319650X8X112.500000*%
%ADD11C,1.219200*%
%ADD12R,1.418000X1.418000*%
%ADD13C,1.418000*%
%ADD14C,1.524000*%
%ADD15P,1.429621X8X112.500000*%
%ADD16C,1.408000*%
%ADD17C,1.320800*%
%ADD18C,1.108000*%
%ADD19R,1.108000X1.108000*%
%ADD20C,0.406400*%
%ADD21C,1.016000*%
%ADD22C,0.609600*%
%ADD23C,0.254000*%


D10*
X774700Y250190D03*
D11*
X774700Y232410D03*
D12*
X330200Y381000D03*
D13*
X355600Y381000D03*
X381000Y381000D03*
X406400Y381000D03*
X431800Y381000D03*
X457200Y381000D03*
X482600Y381000D03*
X482600Y533400D03*
X457200Y533400D03*
X431800Y533400D03*
X406400Y533400D03*
X381000Y533400D03*
X355600Y533400D03*
X330200Y533400D03*
D12*
X355600Y228600D03*
D13*
X381000Y228600D03*
X406400Y228600D03*
X431800Y228600D03*
X457200Y228600D03*
X457200Y330200D03*
X431800Y330200D03*
X406400Y330200D03*
X381000Y330200D03*
X355600Y330200D03*
D14*
X728980Y406400D02*
X744220Y406400D01*
X744220Y381000D02*
X728980Y381000D01*
X728980Y495300D02*
X744220Y495300D01*
X744220Y520700D02*
X728980Y520700D01*
X728980Y546100D02*
X744220Y546100D01*
X609600Y325120D02*
X609600Y309880D01*
X635000Y309880D02*
X635000Y325120D01*
D15*
X685800Y533400D03*
X685800Y660400D03*
D16*
X127000Y672410D02*
X127000Y686490D01*
X152400Y686490D02*
X152400Y672410D01*
X177800Y672410D02*
X177800Y686490D01*
X203200Y686490D02*
X203200Y672410D01*
X228600Y672410D02*
X228600Y686490D01*
X254000Y686490D02*
X254000Y672410D01*
X279400Y672410D02*
X279400Y686490D01*
X304800Y686490D02*
X304800Y672410D01*
X330200Y672410D02*
X330200Y686490D01*
X355600Y686490D02*
X355600Y672410D01*
X381000Y672410D02*
X381000Y686490D01*
X406400Y686490D02*
X406400Y672410D01*
X431800Y672410D02*
X431800Y686490D01*
X457200Y686490D02*
X457200Y672410D01*
X482600Y672410D02*
X482600Y686490D01*
X508000Y686490D02*
X508000Y672410D01*
X533400Y672410D02*
X533400Y686490D01*
X558800Y686490D02*
X558800Y672410D01*
X584200Y672410D02*
X584200Y686490D01*
X609600Y686490D02*
X609600Y672410D01*
X127000Y824810D02*
X127000Y838890D01*
X152400Y838890D02*
X152400Y824810D01*
X177800Y824810D02*
X177800Y838890D01*
X203200Y838890D02*
X203200Y824810D01*
X228600Y824810D02*
X228600Y838890D01*
X254000Y838890D02*
X254000Y824810D01*
X279400Y824810D02*
X279400Y838890D01*
X304800Y838890D02*
X304800Y824810D01*
X330200Y824810D02*
X330200Y838890D01*
X355600Y838890D02*
X355600Y824810D01*
X381000Y824810D02*
X381000Y838890D01*
X406400Y838890D02*
X406400Y824810D01*
X431800Y824810D02*
X431800Y838890D01*
X457200Y838890D02*
X457200Y824810D01*
X482600Y824810D02*
X482600Y838890D01*
X508000Y838890D02*
X508000Y824810D01*
X533400Y824810D02*
X533400Y838890D01*
X558800Y838890D02*
X558800Y824810D01*
X584200Y824810D02*
X584200Y838890D01*
X609600Y838890D02*
X609600Y824810D01*
D17*
X330200Y565404D02*
X330200Y552196D01*
X355600Y552196D02*
X355600Y565404D01*
X381000Y565404D02*
X381000Y552196D01*
X406400Y552196D02*
X406400Y565404D01*
X431800Y565404D02*
X431800Y552196D01*
X457200Y552196D02*
X457200Y565404D01*
X482600Y565404D02*
X482600Y552196D01*
X508000Y552196D02*
X508000Y565404D01*
X533400Y565404D02*
X533400Y552196D01*
X558800Y552196D02*
X558800Y565404D01*
X584200Y565404D02*
X584200Y552196D01*
X609600Y552196D02*
X609600Y565404D01*
X609600Y628396D02*
X609600Y641604D01*
X584200Y641604D02*
X584200Y628396D01*
X558800Y628396D02*
X558800Y641604D01*
X533400Y641604D02*
X533400Y628396D01*
X508000Y628396D02*
X508000Y641604D01*
X482600Y641604D02*
X482600Y628396D01*
X457200Y628396D02*
X457200Y641604D01*
X431800Y641604D02*
X431800Y628396D01*
X406400Y628396D02*
X406400Y641604D01*
X381000Y641604D02*
X381000Y628396D01*
X355600Y628396D02*
X355600Y641604D01*
X330200Y641604D02*
X330200Y628396D01*
D18*
X508000Y254000D03*
X508000Y228600D03*
D19*
X736600Y254000D03*
D18*
X736600Y228600D03*
D20*
X336550Y655638D02*
X327025Y655638D01*
X287338Y615950D01*
X287338Y390525D01*
X347663Y330200D01*
X355600Y330200D01*
D21*
X336550Y655638D03*
D20*
X438150Y577850D02*
X457200Y558800D01*
X438150Y577850D02*
X376238Y577850D01*
X368300Y569913D01*
X368300Y528638D01*
X360363Y520700D01*
X342900Y520700D01*
X330200Y533400D01*
X422275Y517525D02*
X458788Y517525D01*
X422275Y517525D02*
X406400Y533400D01*
D21*
X458788Y517525D03*
D20*
X558800Y482600D02*
X558800Y558800D01*
X558800Y482600D02*
X457200Y381000D01*
X511175Y727075D02*
X633413Y727075D01*
X511175Y727075D02*
X406400Y831850D01*
D21*
X633413Y727075D03*
D20*
X447675Y509588D02*
X355600Y509588D01*
X447675Y509588D02*
X450850Y506413D01*
D21*
X355600Y509588D03*
X450850Y506413D03*
D20*
X449263Y330200D02*
X457200Y330200D01*
X449263Y330200D02*
X411163Y368300D01*
X368300Y368300D01*
X355600Y381000D01*
X349250Y577850D02*
X406400Y635000D01*
X349250Y577850D02*
X325438Y577850D01*
X317500Y569913D01*
X317500Y393700D01*
X330200Y381000D01*
X423863Y330200D02*
X431800Y330200D01*
X423863Y330200D02*
X393700Y360363D01*
X352425Y360363D01*
X331788Y381000D01*
X330200Y381000D01*
X558800Y582613D02*
X558800Y635000D01*
X558800Y582613D02*
X571500Y569913D01*
X571500Y368300D01*
X431800Y228600D01*
X508000Y582613D02*
X508000Y592138D01*
X508000Y582613D02*
X495300Y569913D01*
X495300Y444500D01*
X431800Y381000D01*
X363538Y228600D02*
X355600Y228600D01*
X363538Y228600D02*
X452438Y317500D01*
X461963Y317500D01*
X469900Y325438D01*
X469900Y341313D01*
X431800Y379413D01*
X431800Y381000D01*
D21*
X508000Y592138D03*
D22*
X736600Y254000D02*
X771525Y254000D01*
X774700Y250825D01*
X774700Y250190D01*
X736600Y254000D02*
X736600Y381000D01*
X736600Y434975D02*
X736600Y495300D01*
X736600Y434975D02*
X758825Y412750D01*
X758825Y400050D01*
X738188Y379413D01*
X736600Y381000D01*
X152400Y831850D02*
X127000Y831850D01*
X152400Y831850D02*
X165100Y819150D01*
X165100Y817563D01*
X263525Y719138D01*
X503238Y719138D01*
X731838Y496888D02*
X735013Y496888D01*
X731838Y496888D02*
X698500Y530225D01*
X698500Y571500D01*
X611188Y658813D01*
X603250Y658813D01*
X584200Y677863D01*
X584200Y679450D01*
X735013Y496888D02*
X736600Y495300D01*
D21*
X503238Y719138D03*
D22*
X736600Y228600D02*
X771525Y228600D01*
X774700Y231775D01*
X774700Y232410D01*
X685800Y533400D02*
X660400Y533400D01*
X571500Y622300D01*
X571500Y666750D01*
X558800Y679450D01*
X735013Y234950D02*
X735013Y230188D01*
X735013Y234950D02*
X687388Y282575D01*
X687388Y531813D01*
X735013Y230188D02*
X736600Y228600D01*
X687388Y531813D02*
X685800Y533400D01*
D20*
X506413Y658813D02*
X482600Y635000D01*
X506413Y658813D02*
X538163Y658813D01*
X546100Y666750D01*
X546100Y692150D01*
X554038Y700088D01*
X646113Y700088D01*
X685800Y660400D01*
X503238Y700088D02*
X482600Y679450D01*
X503238Y700088D02*
X542925Y700088D01*
X550863Y708025D01*
X655638Y708025D01*
X715963Y647700D01*
X715963Y539750D01*
X735013Y520700D01*
X736600Y520700D01*
X485775Y708025D02*
X457200Y679450D01*
X485775Y708025D02*
X539750Y708025D01*
X547688Y715963D01*
X658813Y715963D01*
X736600Y638175D01*
X736600Y546100D01*
D22*
X546100Y254000D02*
X508000Y254000D01*
X546100Y254000D02*
X609600Y317500D01*
X549275Y228600D02*
X508000Y228600D01*
X549275Y228600D02*
X635000Y314325D01*
X635000Y317500D01*
D20*
X469900Y571500D02*
X470694Y572294D01*
X533400Y635000D01*
X469900Y571500D02*
X469900Y546100D01*
X457200Y533400D01*
X381000Y330200D02*
X373063Y330200D01*
X354013Y349250D01*
X339725Y349250D01*
X295275Y393700D01*
X295275Y576263D01*
X342900Y623888D01*
X342900Y646113D01*
X350838Y654050D01*
X461963Y654050D01*
X469900Y646113D01*
X469900Y573088D01*
X470694Y572294D01*
X381000Y635000D02*
X331788Y585788D01*
X322263Y585788D01*
X306388Y569913D01*
X482600Y533400D02*
X482600Y482600D01*
X381000Y381000D01*
D21*
X306388Y569913D03*
D23*
X70000Y640000D02*
X150000Y640000D01*
X150000Y163000D01*
X825000Y163000D01*
X825000Y750000D01*
X745000Y750000D01*
X745000Y870000D01*
X70000Y870000D01*
X70000Y640000D01*
X211000Y617476D02*
X210932Y616431D01*
X210795Y615392D01*
X210590Y614365D01*
X210319Y613353D01*
X209983Y612361D01*
X209582Y611393D01*
X209118Y610454D01*
X208595Y609546D01*
X208013Y608675D01*
X207375Y607844D01*
X206684Y607057D01*
X205943Y606316D01*
X205156Y605625D01*
X204325Y604988D01*
X203454Y604406D01*
X202546Y603882D01*
X201607Y603418D01*
X200639Y603017D01*
X199647Y602681D01*
X198635Y602410D01*
X197608Y602205D01*
X196569Y602069D01*
X195524Y602000D01*
X194476Y602000D01*
X193431Y602069D01*
X192392Y602205D01*
X191365Y602410D01*
X190353Y602681D01*
X189361Y603017D01*
X188393Y603418D01*
X187454Y603882D01*
X186546Y604406D01*
X185675Y604988D01*
X184844Y605625D01*
X184057Y606316D01*
X183316Y607057D01*
X182625Y607844D01*
X181988Y608675D01*
X181406Y609546D01*
X180882Y610454D01*
X180418Y611393D01*
X180017Y612361D01*
X179681Y613353D01*
X179410Y614365D01*
X179205Y615392D01*
X179069Y616431D01*
X179000Y617476D01*
X179000Y618524D01*
X179069Y619569D01*
X179205Y620608D01*
X179410Y621635D01*
X179681Y622647D01*
X180017Y623639D01*
X180418Y624607D01*
X180882Y625546D01*
X181406Y626454D01*
X181988Y627325D01*
X182625Y628156D01*
X183316Y628943D01*
X184057Y629684D01*
X184844Y630375D01*
X185675Y631013D01*
X186546Y631595D01*
X187454Y632118D01*
X188393Y632582D01*
X189361Y632983D01*
X190353Y633319D01*
X191365Y633590D01*
X192392Y633795D01*
X193431Y633932D01*
X194476Y634000D01*
X195524Y634000D01*
X196569Y633932D01*
X197608Y633795D01*
X198635Y633590D01*
X199647Y633319D01*
X200639Y632983D01*
X201607Y632582D01*
X202546Y632118D01*
X203454Y631595D01*
X204325Y631013D01*
X205156Y630375D01*
X205943Y629684D01*
X206684Y628943D01*
X207375Y628156D01*
X208013Y627325D01*
X208595Y626454D01*
X209118Y625546D01*
X209582Y624607D01*
X209983Y623639D01*
X210319Y622647D01*
X210590Y621635D01*
X210795Y620608D01*
X210932Y619569D01*
X211000Y618524D01*
X211000Y617476D01*
X211000Y287476D02*
X210932Y286431D01*
X210795Y285392D01*
X210590Y284365D01*
X210319Y283353D01*
X209983Y282361D01*
X209582Y281393D01*
X209118Y280454D01*
X208595Y279546D01*
X208013Y278675D01*
X207375Y277844D01*
X206684Y277057D01*
X205943Y276316D01*
X205156Y275625D01*
X204325Y274988D01*
X203454Y274406D01*
X202546Y273882D01*
X201607Y273418D01*
X200639Y273017D01*
X199647Y272681D01*
X198635Y272410D01*
X197608Y272205D01*
X196569Y272069D01*
X195524Y272000D01*
X194476Y272000D01*
X193431Y272069D01*
X192392Y272205D01*
X191365Y272410D01*
X190353Y272681D01*
X189361Y273017D01*
X188393Y273418D01*
X187454Y273882D01*
X186546Y274406D01*
X185675Y274988D01*
X184844Y275625D01*
X184057Y276316D01*
X183316Y277057D01*
X182625Y277844D01*
X181988Y278675D01*
X181406Y279546D01*
X180882Y280454D01*
X180418Y281393D01*
X180017Y282361D01*
X179681Y283353D01*
X179410Y284365D01*
X179205Y285392D01*
X179069Y286431D01*
X179000Y287476D01*
X179000Y288524D01*
X179069Y289569D01*
X179205Y290608D01*
X179410Y291635D01*
X179681Y292647D01*
X180017Y293639D01*
X180418Y294607D01*
X180882Y295546D01*
X181406Y296454D01*
X181988Y297325D01*
X182625Y298156D01*
X183316Y298943D01*
X184057Y299684D01*
X184844Y300375D01*
X185675Y301013D01*
X186546Y301595D01*
X187454Y302118D01*
X188393Y302582D01*
X189361Y302983D01*
X190353Y303319D01*
X191365Y303590D01*
X192392Y303795D01*
X193431Y303932D01*
X194476Y304000D01*
X195524Y304000D01*
X196569Y303932D01*
X197608Y303795D01*
X198635Y303590D01*
X199647Y303319D01*
X200639Y302983D01*
X201607Y302582D01*
X202546Y302118D01*
X203454Y301595D01*
X204325Y301013D01*
X205156Y300375D01*
X205943Y299684D01*
X206684Y298943D01*
X207375Y298156D01*
X208013Y297325D01*
X208595Y296454D01*
X209118Y295546D01*
X209582Y294607D01*
X209983Y293639D01*
X210319Y292647D01*
X210590Y291635D01*
X210795Y290608D01*
X210932Y289569D01*
X211000Y288524D01*
X211000Y287476D01*
X801000Y617476D02*
X800932Y616431D01*
X800795Y615392D01*
X800590Y614365D01*
X800319Y613353D01*
X799983Y612361D01*
X799582Y611393D01*
X799118Y610454D01*
X798595Y609546D01*
X798013Y608675D01*
X797375Y607844D01*
X796684Y607057D01*
X795943Y606316D01*
X795156Y605625D01*
X794325Y604988D01*
X793454Y604406D01*
X792546Y603882D01*
X791607Y603418D01*
X790639Y603017D01*
X789647Y602681D01*
X788635Y602410D01*
X787608Y602205D01*
X786569Y602069D01*
X785524Y602000D01*
X784476Y602000D01*
X783431Y602069D01*
X782392Y602205D01*
X781365Y602410D01*
X780353Y602681D01*
X779361Y603017D01*
X778393Y603418D01*
X777454Y603882D01*
X776546Y604406D01*
X775675Y604988D01*
X774844Y605625D01*
X774057Y606316D01*
X773316Y607057D01*
X772625Y607844D01*
X771988Y608675D01*
X771406Y609546D01*
X770882Y610454D01*
X770418Y611393D01*
X770017Y612361D01*
X769681Y613353D01*
X769410Y614365D01*
X769205Y615392D01*
X769069Y616431D01*
X769000Y617476D01*
X769000Y618524D01*
X769069Y619569D01*
X769205Y620608D01*
X769410Y621635D01*
X769681Y622647D01*
X770017Y623639D01*
X770418Y624607D01*
X770882Y625546D01*
X771406Y626454D01*
X771988Y627325D01*
X772625Y628156D01*
X773316Y628943D01*
X774057Y629684D01*
X774844Y630375D01*
X775675Y631013D01*
X776546Y631595D01*
X777454Y632118D01*
X778393Y632582D01*
X779361Y632983D01*
X780353Y633319D01*
X781365Y633590D01*
X782392Y633795D01*
X783431Y633932D01*
X784476Y634000D01*
X785524Y634000D01*
X786569Y633932D01*
X787608Y633795D01*
X788635Y633590D01*
X789647Y633319D01*
X790639Y632983D01*
X791607Y632582D01*
X792546Y632118D01*
X793454Y631595D01*
X794325Y631013D01*
X795156Y630375D01*
X795943Y629684D01*
X796684Y628943D01*
X797375Y628156D01*
X798013Y627325D01*
X798595Y626454D01*
X799118Y625546D01*
X799582Y624607D01*
X799983Y623639D01*
X800319Y622647D01*
X800590Y621635D01*
X800795Y620608D01*
X800932Y619569D01*
X801000Y618524D01*
X801000Y617476D01*
X801000Y287476D02*
X800932Y286431D01*
X800795Y285392D01*
X800590Y284365D01*
X800319Y283353D01*
X799983Y282361D01*
X799582Y281393D01*
X799118Y280454D01*
X798595Y279546D01*
X798013Y278675D01*
X797375Y277844D01*
X796684Y277057D01*
X795943Y276316D01*
X795156Y275625D01*
X794325Y274988D01*
X793454Y274406D01*
X792546Y273882D01*
X791607Y273418D01*
X790639Y273017D01*
X789647Y272681D01*
X788635Y272410D01*
X787608Y272205D01*
X786569Y272069D01*
X785524Y272000D01*
X784476Y272000D01*
X783431Y272069D01*
X782392Y272205D01*
X781365Y272410D01*
X780353Y272681D01*
X779361Y273017D01*
X778393Y273418D01*
X777454Y273882D01*
X776546Y274406D01*
X775675Y274988D01*
X774844Y275625D01*
X774057Y276316D01*
X773316Y277057D01*
X772625Y277844D01*
X771988Y278675D01*
X771406Y279546D01*
X770882Y280454D01*
X770418Y281393D01*
X770017Y282361D01*
X769681Y283353D01*
X769410Y284365D01*
X769205Y285392D01*
X769069Y286431D01*
X769000Y287476D01*
X769000Y288524D01*
X769069Y289569D01*
X769205Y290608D01*
X769410Y291635D01*
X769681Y292647D01*
X770017Y293639D01*
X770418Y294607D01*
X770882Y295546D01*
X771406Y296454D01*
X771988Y297325D01*
X772625Y298156D01*
X773316Y298943D01*
X774057Y299684D01*
X774844Y300375D01*
X775675Y301013D01*
X776546Y301595D01*
X777454Y302118D01*
X778393Y302582D01*
X779361Y302983D01*
X780353Y303319D01*
X781365Y303590D01*
X782392Y303795D01*
X783431Y303932D01*
X784476Y304000D01*
X785524Y304000D01*
X786569Y303932D01*
X787608Y303795D01*
X788635Y303590D01*
X789647Y303319D01*
X790639Y302983D01*
X791607Y302582D01*
X792546Y302118D01*
X793454Y301595D01*
X794325Y301013D01*
X795156Y300375D01*
X795943Y299684D01*
X796684Y298943D01*
X797375Y298156D01*
X798013Y297325D01*
X798595Y296454D01*
X799118Y295546D01*
X799582Y294607D01*
X799983Y293639D01*
X800319Y292647D01*
X800590Y291635D01*
X800795Y290608D01*
X800932Y289569D01*
X801000Y288524D01*
X801000Y287476D01*
X725650Y850728D02*
X725583Y850390D01*
X725451Y850071D01*
X725259Y849784D01*
X725016Y849541D01*
X724729Y849349D01*
X724410Y849217D01*
X724072Y849150D01*
X723728Y849150D01*
X723390Y849217D01*
X723071Y849349D01*
X722784Y849541D01*
X722541Y849784D01*
X722349Y850071D01*
X722217Y850390D01*
X722150Y850728D01*
X722150Y851072D01*
X722217Y851410D01*
X722349Y851729D01*
X722541Y852016D01*
X722784Y852259D01*
X723071Y852451D01*
X723390Y852583D01*
X723728Y852650D01*
X724072Y852650D01*
X724410Y852583D01*
X724729Y852451D01*
X725016Y852259D01*
X725259Y852016D01*
X725451Y851729D01*
X725583Y851410D01*
X725650Y851072D01*
X725650Y850728D01*
X166850Y177628D02*
X166783Y177290D01*
X166651Y176971D01*
X166459Y176684D01*
X166216Y176441D01*
X165929Y176249D01*
X165610Y176117D01*
X165272Y176050D01*
X164928Y176050D01*
X164590Y176117D01*
X164271Y176249D01*
X163984Y176441D01*
X163741Y176684D01*
X163549Y176971D01*
X163417Y177290D01*
X163350Y177628D01*
X163350Y177972D01*
X163417Y178310D01*
X163549Y178629D01*
X163741Y178916D01*
X163984Y179159D01*
X164271Y179351D01*
X164590Y179483D01*
X164928Y179550D01*
X165272Y179550D01*
X165610Y179483D01*
X165929Y179351D01*
X166216Y179159D01*
X166459Y178916D01*
X166651Y178629D01*
X166783Y178310D01*
X166850Y177972D01*
X166850Y177628D01*
X814550Y177628D02*
X814483Y177290D01*
X814351Y176971D01*
X814159Y176684D01*
X813916Y176441D01*
X813629Y176249D01*
X813310Y176117D01*
X812972Y176050D01*
X812628Y176050D01*
X812290Y176117D01*
X811971Y176249D01*
X811684Y176441D01*
X811441Y176684D01*
X811249Y176971D01*
X811117Y177290D01*
X811050Y177628D01*
X811050Y177972D01*
X811117Y178310D01*
X811249Y178629D01*
X811441Y178916D01*
X811684Y179159D01*
X811971Y179351D01*
X812290Y179483D01*
X812628Y179550D01*
X812972Y179550D01*
X813310Y179483D01*
X813629Y179351D01*
X813916Y179159D01*
X814159Y178916D01*
X814351Y178629D01*
X814483Y178310D01*
X814550Y177972D01*
X814550Y177628D01*
X90650Y850728D02*
X90583Y850390D01*
X90451Y850071D01*
X90259Y849784D01*
X90016Y849541D01*
X89729Y849349D01*
X89410Y849217D01*
X89072Y849150D01*
X88728Y849150D01*
X88390Y849217D01*
X88071Y849349D01*
X87784Y849541D01*
X87541Y849784D01*
X87349Y850071D01*
X87217Y850390D01*
X87150Y850728D01*
X87150Y851072D01*
X87217Y851410D01*
X87349Y851729D01*
X87541Y852016D01*
X87784Y852259D01*
X88071Y852451D01*
X88390Y852583D01*
X88728Y852650D01*
X89072Y852650D01*
X89410Y852583D01*
X89729Y852451D01*
X90016Y852259D01*
X90259Y852016D01*
X90451Y851729D01*
X90583Y851410D01*
X90650Y851072D01*
X90650Y850728D01*
M02*
