G04 EAGLE Gerber RS-274X export*
G75*
%MOMM*%
%FSLAX34Y34*%
%LPD*%
%IN*%
%IPPOS*%
%AMOC8*
5,1,8,0,0,1.08239X$1,22.5*%
G01*
%ADD10C,0.254000*%


D10*
X65000Y640000D02*
X135000Y640000D01*
X135000Y163000D01*
X825000Y163000D01*
X825000Y750000D01*
X745000Y750000D01*
X745000Y870000D01*
X65000Y870000D01*
X65000Y640000D01*
X801000Y287476D02*
X800932Y286431D01*
X800795Y285392D01*
X800590Y284365D01*
X800319Y283353D01*
X799983Y282361D01*
X799582Y281393D01*
X799118Y280454D01*
X798595Y279546D01*
X798013Y278675D01*
X797375Y277844D01*
X796684Y277057D01*
X795943Y276316D01*
X795156Y275625D01*
X794325Y274988D01*
X793454Y274406D01*
X792546Y273882D01*
X791607Y273418D01*
X790639Y273017D01*
X789647Y272681D01*
X788635Y272410D01*
X787608Y272205D01*
X786569Y272069D01*
X785524Y272000D01*
X784476Y272000D01*
X783431Y272069D01*
X782392Y272205D01*
X781365Y272410D01*
X780353Y272681D01*
X779361Y273017D01*
X778393Y273418D01*
X777454Y273882D01*
X776546Y274406D01*
X775675Y274988D01*
X774844Y275625D01*
X774057Y276316D01*
X773316Y277057D01*
X772625Y277844D01*
X771988Y278675D01*
X771406Y279546D01*
X770882Y280454D01*
X770418Y281393D01*
X770017Y282361D01*
X769681Y283353D01*
X769410Y284365D01*
X769205Y285392D01*
X769069Y286431D01*
X769000Y287476D01*
X769000Y288524D01*
X769069Y289569D01*
X769205Y290608D01*
X769410Y291635D01*
X769681Y292647D01*
X770017Y293639D01*
X770418Y294607D01*
X770882Y295546D01*
X771406Y296454D01*
X771988Y297325D01*
X772625Y298156D01*
X773316Y298943D01*
X774057Y299684D01*
X774844Y300375D01*
X775675Y301013D01*
X776546Y301595D01*
X777454Y302118D01*
X778393Y302582D01*
X779361Y302983D01*
X780353Y303319D01*
X781365Y303590D01*
X782392Y303795D01*
X783431Y303932D01*
X784476Y304000D01*
X785524Y304000D01*
X786569Y303932D01*
X787608Y303795D01*
X788635Y303590D01*
X789647Y303319D01*
X790639Y302983D01*
X791607Y302582D01*
X792546Y302118D01*
X793454Y301595D01*
X794325Y301013D01*
X795156Y300375D01*
X795943Y299684D01*
X796684Y298943D01*
X797375Y298156D01*
X798013Y297325D01*
X798595Y296454D01*
X799118Y295546D01*
X799582Y294607D01*
X799983Y293639D01*
X800319Y292647D01*
X800590Y291635D01*
X800795Y290608D01*
X800932Y289569D01*
X801000Y288524D01*
X801000Y287476D01*
X801000Y617476D02*
X800932Y616431D01*
X800795Y615392D01*
X800590Y614365D01*
X800319Y613353D01*
X799983Y612361D01*
X799582Y611393D01*
X799118Y610454D01*
X798595Y609546D01*
X798013Y608675D01*
X797375Y607844D01*
X796684Y607057D01*
X795943Y606316D01*
X795156Y605625D01*
X794325Y604988D01*
X793454Y604406D01*
X792546Y603882D01*
X791607Y603418D01*
X790639Y603017D01*
X789647Y602681D01*
X788635Y602410D01*
X787608Y602205D01*
X786569Y602069D01*
X785524Y602000D01*
X784476Y602000D01*
X783431Y602069D01*
X782392Y602205D01*
X781365Y602410D01*
X780353Y602681D01*
X779361Y603017D01*
X778393Y603418D01*
X777454Y603882D01*
X776546Y604406D01*
X775675Y604988D01*
X774844Y605625D01*
X774057Y606316D01*
X773316Y607057D01*
X772625Y607844D01*
X771988Y608675D01*
X771406Y609546D01*
X770882Y610454D01*
X770418Y611393D01*
X770017Y612361D01*
X769681Y613353D01*
X769410Y614365D01*
X769205Y615392D01*
X769069Y616431D01*
X769000Y617476D01*
X769000Y618524D01*
X769069Y619569D01*
X769205Y620608D01*
X769410Y621635D01*
X769681Y622647D01*
X770017Y623639D01*
X770418Y624607D01*
X770882Y625546D01*
X771406Y626454D01*
X771988Y627325D01*
X772625Y628156D01*
X773316Y628943D01*
X774057Y629684D01*
X774844Y630375D01*
X775675Y631013D01*
X776546Y631595D01*
X777454Y632118D01*
X778393Y632582D01*
X779361Y632983D01*
X780353Y633319D01*
X781365Y633590D01*
X782392Y633795D01*
X783431Y633932D01*
X784476Y634000D01*
X785524Y634000D01*
X786569Y633932D01*
X787608Y633795D01*
X788635Y633590D01*
X789647Y633319D01*
X790639Y632983D01*
X791607Y632582D01*
X792546Y632118D01*
X793454Y631595D01*
X794325Y631013D01*
X795156Y630375D01*
X795943Y629684D01*
X796684Y628943D01*
X797375Y628156D01*
X798013Y627325D01*
X798595Y626454D01*
X799118Y625546D01*
X799582Y624607D01*
X799983Y623639D01*
X800319Y622647D01*
X800590Y621635D01*
X800795Y620608D01*
X800932Y619569D01*
X801000Y618524D01*
X801000Y617476D01*
X211000Y287476D02*
X210932Y286431D01*
X210795Y285392D01*
X210590Y284365D01*
X210319Y283353D01*
X209983Y282361D01*
X209582Y281393D01*
X209118Y280454D01*
X208595Y279546D01*
X208013Y278675D01*
X207375Y277844D01*
X206684Y277057D01*
X205943Y276316D01*
X205156Y275625D01*
X204325Y274988D01*
X203454Y274406D01*
X202546Y273882D01*
X201607Y273418D01*
X200639Y273017D01*
X199647Y272681D01*
X198635Y272410D01*
X197608Y272205D01*
X196569Y272069D01*
X195524Y272000D01*
X194476Y272000D01*
X193431Y272069D01*
X192392Y272205D01*
X191365Y272410D01*
X190353Y272681D01*
X189361Y273017D01*
X188393Y273418D01*
X187454Y273882D01*
X186546Y274406D01*
X185675Y274988D01*
X184844Y275625D01*
X184057Y276316D01*
X183316Y277057D01*
X182625Y277844D01*
X181988Y278675D01*
X181406Y279546D01*
X180882Y280454D01*
X180418Y281393D01*
X180017Y282361D01*
X179681Y283353D01*
X179410Y284365D01*
X179205Y285392D01*
X179069Y286431D01*
X179000Y287476D01*
X179000Y288524D01*
X179069Y289569D01*
X179205Y290608D01*
X179410Y291635D01*
X179681Y292647D01*
X180017Y293639D01*
X180418Y294607D01*
X180882Y295546D01*
X181406Y296454D01*
X181988Y297325D01*
X182625Y298156D01*
X183316Y298943D01*
X184057Y299684D01*
X184844Y300375D01*
X185675Y301013D01*
X186546Y301595D01*
X187454Y302118D01*
X188393Y302582D01*
X189361Y302983D01*
X190353Y303319D01*
X191365Y303590D01*
X192392Y303795D01*
X193431Y303932D01*
X194476Y304000D01*
X195524Y304000D01*
X196569Y303932D01*
X197608Y303795D01*
X198635Y303590D01*
X199647Y303319D01*
X200639Y302983D01*
X201607Y302582D01*
X202546Y302118D01*
X203454Y301595D01*
X204325Y301013D01*
X205156Y300375D01*
X205943Y299684D01*
X206684Y298943D01*
X207375Y298156D01*
X208013Y297325D01*
X208595Y296454D01*
X209118Y295546D01*
X209582Y294607D01*
X209983Y293639D01*
X210319Y292647D01*
X210590Y291635D01*
X210795Y290608D01*
X210932Y289569D01*
X211000Y288524D01*
X211000Y287476D01*
X211000Y617476D02*
X210932Y616431D01*
X210795Y615392D01*
X210590Y614365D01*
X210319Y613353D01*
X209983Y612361D01*
X209582Y611393D01*
X209118Y610454D01*
X208595Y609546D01*
X208013Y608675D01*
X207375Y607844D01*
X206684Y607057D01*
X205943Y606316D01*
X205156Y605625D01*
X204325Y604988D01*
X203454Y604406D01*
X202546Y603882D01*
X201607Y603418D01*
X200639Y603017D01*
X199647Y602681D01*
X198635Y602410D01*
X197608Y602205D01*
X196569Y602069D01*
X195524Y602000D01*
X194476Y602000D01*
X193431Y602069D01*
X192392Y602205D01*
X191365Y602410D01*
X190353Y602681D01*
X189361Y603017D01*
X188393Y603418D01*
X187454Y603882D01*
X186546Y604406D01*
X185675Y604988D01*
X184844Y605625D01*
X184057Y606316D01*
X183316Y607057D01*
X182625Y607844D01*
X181988Y608675D01*
X181406Y609546D01*
X180882Y610454D01*
X180418Y611393D01*
X180017Y612361D01*
X179681Y613353D01*
X179410Y614365D01*
X179205Y615392D01*
X179069Y616431D01*
X179000Y617476D01*
X179000Y618524D01*
X179069Y619569D01*
X179205Y620608D01*
X179410Y621635D01*
X179681Y622647D01*
X180017Y623639D01*
X180418Y624607D01*
X180882Y625546D01*
X181406Y626454D01*
X181988Y627325D01*
X182625Y628156D01*
X183316Y628943D01*
X184057Y629684D01*
X184844Y630375D01*
X185675Y631013D01*
X186546Y631595D01*
X187454Y632118D01*
X188393Y632582D01*
X189361Y632983D01*
X190353Y633319D01*
X191365Y633590D01*
X192392Y633795D01*
X193431Y633932D01*
X194476Y634000D01*
X195524Y634000D01*
X196569Y633932D01*
X197608Y633795D01*
X198635Y633590D01*
X199647Y633319D01*
X200639Y632983D01*
X201607Y632582D01*
X202546Y632118D01*
X203454Y631595D01*
X204325Y631013D01*
X205156Y630375D01*
X205943Y629684D01*
X206684Y628943D01*
X207375Y628156D01*
X208013Y627325D01*
X208595Y626454D01*
X209118Y625546D01*
X209582Y624607D01*
X209983Y623639D01*
X210319Y622647D01*
X210590Y621635D01*
X210795Y620608D01*
X210932Y619569D01*
X211000Y618524D01*
X211000Y617476D01*
X712950Y838028D02*
X712883Y837690D01*
X712751Y837371D01*
X712559Y837084D01*
X712316Y836841D01*
X712029Y836649D01*
X711710Y836517D01*
X711372Y836450D01*
X711028Y836450D01*
X710690Y836517D01*
X710371Y836649D01*
X710084Y836841D01*
X709841Y837084D01*
X709649Y837371D01*
X709517Y837690D01*
X709450Y838028D01*
X709450Y838372D01*
X709517Y838710D01*
X709649Y839029D01*
X709841Y839316D01*
X710084Y839559D01*
X710371Y839751D01*
X710690Y839883D01*
X711028Y839950D01*
X711372Y839950D01*
X711710Y839883D01*
X712029Y839751D01*
X712316Y839559D01*
X712559Y839316D01*
X712751Y839029D01*
X712883Y838710D01*
X712950Y838372D01*
X712950Y838028D01*
X166850Y190328D02*
X166783Y189990D01*
X166651Y189671D01*
X166459Y189384D01*
X166216Y189141D01*
X165929Y188949D01*
X165610Y188817D01*
X165272Y188750D01*
X164928Y188750D01*
X164590Y188817D01*
X164271Y188949D01*
X163984Y189141D01*
X163741Y189384D01*
X163549Y189671D01*
X163417Y189990D01*
X163350Y190328D01*
X163350Y190672D01*
X163417Y191010D01*
X163549Y191329D01*
X163741Y191616D01*
X163984Y191859D01*
X164271Y192051D01*
X164590Y192183D01*
X164928Y192250D01*
X165272Y192250D01*
X165610Y192183D01*
X165929Y192051D01*
X166216Y191859D01*
X166459Y191616D01*
X166651Y191329D01*
X166783Y191010D01*
X166850Y190672D01*
X166850Y190328D01*
M02*
