G04 EAGLE Gerber RS-274X export*
G75*
%MOMM*%
%FSLAX34Y34*%
%LPD*%
%INSilkscreen Bottom*%
%IPPOS*%
%AMOC8*
5,1,8,0,0,1.08239X$1,22.5*%
G01*
%ADD10C,0.076200*%
%ADD11C,0.101600*%
%ADD12C,0.152400*%
%ADD13C,0.127000*%
%ADD14C,0.254000*%


D10*
X769068Y547045D02*
X766880Y547045D01*
X766787Y547043D01*
X766695Y547037D01*
X766602Y547027D01*
X766510Y547014D01*
X766419Y546996D01*
X766329Y546974D01*
X766240Y546949D01*
X766151Y546920D01*
X766065Y546887D01*
X765979Y546851D01*
X765895Y546811D01*
X765813Y546767D01*
X765733Y546720D01*
X765655Y546670D01*
X765580Y546616D01*
X765506Y546560D01*
X765435Y546500D01*
X765367Y546437D01*
X765301Y546371D01*
X765238Y546303D01*
X765178Y546232D01*
X765122Y546158D01*
X765068Y546083D01*
X765018Y546005D01*
X764971Y545925D01*
X764927Y545843D01*
X764887Y545759D01*
X764851Y545673D01*
X764818Y545587D01*
X764789Y545498D01*
X764764Y545409D01*
X764742Y545319D01*
X764724Y545228D01*
X764711Y545136D01*
X764701Y545043D01*
X764695Y544951D01*
X764693Y544858D01*
X764695Y544765D01*
X764701Y544673D01*
X764711Y544580D01*
X764724Y544488D01*
X764742Y544397D01*
X764764Y544307D01*
X764789Y544218D01*
X764818Y544129D01*
X764851Y544043D01*
X764887Y543957D01*
X764927Y543873D01*
X764971Y543791D01*
X765018Y543711D01*
X765068Y543633D01*
X765122Y543558D01*
X765178Y543484D01*
X765238Y543413D01*
X765301Y543345D01*
X765367Y543279D01*
X765435Y543216D01*
X765506Y543156D01*
X765580Y543100D01*
X765655Y543046D01*
X765733Y542996D01*
X765813Y542949D01*
X765895Y542905D01*
X765979Y542865D01*
X766065Y542829D01*
X766151Y542796D01*
X766240Y542767D01*
X766329Y542742D01*
X766419Y542720D01*
X766510Y542702D01*
X766602Y542689D01*
X766695Y542679D01*
X766787Y542673D01*
X766880Y542671D01*
X769068Y542671D01*
X769068Y550545D01*
X766880Y550545D01*
X766798Y550543D01*
X766716Y550537D01*
X766635Y550528D01*
X766554Y550514D01*
X766473Y550497D01*
X766394Y550476D01*
X766316Y550452D01*
X766239Y550423D01*
X766163Y550391D01*
X766089Y550356D01*
X766017Y550317D01*
X765946Y550275D01*
X765878Y550230D01*
X765812Y550181D01*
X765748Y550130D01*
X765687Y550075D01*
X765628Y550018D01*
X765572Y549958D01*
X765519Y549895D01*
X765469Y549830D01*
X765422Y549763D01*
X765378Y549694D01*
X765338Y549622D01*
X765301Y549549D01*
X765267Y549474D01*
X765237Y549398D01*
X765211Y549320D01*
X765188Y549241D01*
X765169Y549162D01*
X765154Y549081D01*
X765142Y549000D01*
X765134Y548918D01*
X765130Y548836D01*
X765130Y548754D01*
X765134Y548672D01*
X765142Y548590D01*
X765154Y548509D01*
X765169Y548428D01*
X765188Y548349D01*
X765211Y548270D01*
X765237Y548192D01*
X765267Y548116D01*
X765301Y548041D01*
X765338Y547968D01*
X765378Y547896D01*
X765422Y547827D01*
X765469Y547760D01*
X765519Y547695D01*
X765572Y547632D01*
X765628Y547572D01*
X765687Y547515D01*
X765748Y547460D01*
X765812Y547409D01*
X765878Y547360D01*
X765946Y547315D01*
X766017Y547273D01*
X766089Y547234D01*
X766163Y547199D01*
X766239Y547167D01*
X766316Y547138D01*
X766394Y547114D01*
X766473Y547093D01*
X766554Y547076D01*
X766635Y547062D01*
X766716Y547053D01*
X766798Y547047D01*
X766880Y547045D01*
X761675Y548795D02*
X759488Y550545D01*
X759488Y542671D01*
X761675Y542671D02*
X757301Y542671D01*
X766880Y521137D02*
X769068Y521137D01*
X766880Y521137D02*
X766787Y521135D01*
X766695Y521129D01*
X766602Y521119D01*
X766510Y521106D01*
X766419Y521088D01*
X766329Y521066D01*
X766240Y521041D01*
X766151Y521012D01*
X766065Y520979D01*
X765979Y520943D01*
X765895Y520903D01*
X765813Y520859D01*
X765733Y520812D01*
X765655Y520762D01*
X765580Y520708D01*
X765506Y520652D01*
X765435Y520592D01*
X765367Y520529D01*
X765301Y520463D01*
X765238Y520395D01*
X765178Y520324D01*
X765122Y520250D01*
X765068Y520175D01*
X765018Y520097D01*
X764971Y520017D01*
X764927Y519935D01*
X764887Y519851D01*
X764851Y519765D01*
X764818Y519679D01*
X764789Y519590D01*
X764764Y519501D01*
X764742Y519411D01*
X764724Y519320D01*
X764711Y519228D01*
X764701Y519135D01*
X764695Y519043D01*
X764693Y518950D01*
X764695Y518857D01*
X764701Y518765D01*
X764711Y518672D01*
X764724Y518580D01*
X764742Y518489D01*
X764764Y518399D01*
X764789Y518310D01*
X764818Y518221D01*
X764851Y518135D01*
X764887Y518049D01*
X764927Y517965D01*
X764971Y517883D01*
X765018Y517803D01*
X765068Y517725D01*
X765122Y517650D01*
X765178Y517576D01*
X765238Y517505D01*
X765301Y517437D01*
X765367Y517371D01*
X765435Y517308D01*
X765506Y517248D01*
X765580Y517192D01*
X765655Y517138D01*
X765733Y517088D01*
X765813Y517041D01*
X765895Y516997D01*
X765979Y516957D01*
X766065Y516921D01*
X766151Y516888D01*
X766240Y516859D01*
X766329Y516834D01*
X766419Y516812D01*
X766510Y516794D01*
X766602Y516781D01*
X766695Y516771D01*
X766787Y516765D01*
X766880Y516763D01*
X769068Y516763D01*
X769068Y524637D01*
X766880Y524637D01*
X766798Y524635D01*
X766716Y524629D01*
X766635Y524620D01*
X766554Y524606D01*
X766473Y524589D01*
X766394Y524568D01*
X766316Y524544D01*
X766239Y524515D01*
X766163Y524483D01*
X766089Y524448D01*
X766017Y524409D01*
X765946Y524367D01*
X765878Y524322D01*
X765812Y524273D01*
X765748Y524222D01*
X765687Y524167D01*
X765628Y524110D01*
X765572Y524050D01*
X765519Y523987D01*
X765469Y523922D01*
X765422Y523855D01*
X765378Y523786D01*
X765338Y523714D01*
X765301Y523641D01*
X765267Y523566D01*
X765237Y523490D01*
X765211Y523412D01*
X765188Y523333D01*
X765169Y523254D01*
X765154Y523173D01*
X765142Y523092D01*
X765134Y523010D01*
X765130Y522928D01*
X765130Y522846D01*
X765134Y522764D01*
X765142Y522682D01*
X765154Y522601D01*
X765169Y522520D01*
X765188Y522441D01*
X765211Y522362D01*
X765237Y522284D01*
X765267Y522208D01*
X765301Y522133D01*
X765338Y522060D01*
X765378Y521988D01*
X765422Y521919D01*
X765469Y521852D01*
X765519Y521787D01*
X765572Y521724D01*
X765628Y521664D01*
X765687Y521607D01*
X765748Y521552D01*
X765812Y521501D01*
X765878Y521452D01*
X765946Y521407D01*
X766017Y521365D01*
X766089Y521326D01*
X766163Y521291D01*
X766239Y521259D01*
X766316Y521230D01*
X766394Y521206D01*
X766473Y521185D01*
X766554Y521168D01*
X766635Y521154D01*
X766716Y521145D01*
X766798Y521139D01*
X766880Y521137D01*
X759270Y524638D02*
X759184Y524636D01*
X759098Y524631D01*
X759013Y524621D01*
X758928Y524608D01*
X758844Y524591D01*
X758760Y524571D01*
X758678Y524547D01*
X758597Y524519D01*
X758516Y524488D01*
X758438Y524454D01*
X758361Y524416D01*
X758286Y524374D01*
X758212Y524330D01*
X758141Y524282D01*
X758071Y524231D01*
X758004Y524177D01*
X757940Y524121D01*
X757878Y524061D01*
X757818Y523999D01*
X757762Y523935D01*
X757708Y523868D01*
X757657Y523798D01*
X757609Y523727D01*
X757565Y523654D01*
X757523Y523578D01*
X757485Y523501D01*
X757451Y523423D01*
X757420Y523342D01*
X757392Y523261D01*
X757368Y523179D01*
X757348Y523095D01*
X757331Y523011D01*
X757318Y522926D01*
X757308Y522841D01*
X757303Y522755D01*
X757301Y522669D01*
X759270Y524637D02*
X759369Y524635D01*
X759469Y524629D01*
X759567Y524619D01*
X759666Y524606D01*
X759764Y524588D01*
X759861Y524567D01*
X759957Y524542D01*
X760052Y524513D01*
X760146Y524480D01*
X760239Y524444D01*
X760330Y524404D01*
X760419Y524361D01*
X760507Y524314D01*
X760592Y524264D01*
X760676Y524210D01*
X760757Y524153D01*
X760837Y524093D01*
X760913Y524030D01*
X760988Y523964D01*
X761059Y523895D01*
X761128Y523824D01*
X761194Y523749D01*
X761257Y523672D01*
X761317Y523593D01*
X761374Y523511D01*
X761427Y523428D01*
X761478Y523342D01*
X761524Y523254D01*
X761568Y523165D01*
X761607Y523074D01*
X761643Y522981D01*
X761676Y522887D01*
X757957Y521138D02*
X757893Y521202D01*
X757832Y521268D01*
X757774Y521337D01*
X757719Y521408D01*
X757666Y521481D01*
X757617Y521557D01*
X757572Y521634D01*
X757529Y521714D01*
X757490Y521795D01*
X757455Y521878D01*
X757423Y521962D01*
X757394Y522048D01*
X757370Y522134D01*
X757349Y522222D01*
X757332Y522310D01*
X757318Y522399D01*
X757309Y522489D01*
X757303Y522579D01*
X757301Y522669D01*
X757957Y521137D02*
X761675Y516763D01*
X757301Y516763D01*
X771589Y495229D02*
X772901Y495229D01*
X771589Y495229D02*
X771589Y490855D01*
X774214Y490855D01*
X774295Y490857D01*
X774375Y490862D01*
X774456Y490872D01*
X774536Y490885D01*
X774615Y490901D01*
X774693Y490922D01*
X774770Y490946D01*
X774846Y490973D01*
X774921Y491004D01*
X774994Y491038D01*
X775066Y491076D01*
X775135Y491117D01*
X775203Y491161D01*
X775269Y491208D01*
X775332Y491259D01*
X775393Y491312D01*
X775451Y491368D01*
X775507Y491426D01*
X775560Y491487D01*
X775611Y491550D01*
X775658Y491616D01*
X775702Y491684D01*
X775743Y491753D01*
X775781Y491825D01*
X775815Y491898D01*
X775846Y491973D01*
X775873Y492049D01*
X775897Y492126D01*
X775918Y492204D01*
X775934Y492283D01*
X775947Y492363D01*
X775957Y492444D01*
X775962Y492524D01*
X775964Y492605D01*
X775963Y492605D02*
X775963Y496979D01*
X775964Y496979D02*
X775962Y497060D01*
X775957Y497140D01*
X775947Y497221D01*
X775934Y497301D01*
X775918Y497380D01*
X775897Y497458D01*
X775873Y497535D01*
X775846Y497611D01*
X775815Y497686D01*
X775781Y497759D01*
X775743Y497831D01*
X775702Y497900D01*
X775658Y497968D01*
X775611Y498034D01*
X775560Y498097D01*
X775507Y498158D01*
X775451Y498216D01*
X775393Y498272D01*
X775332Y498325D01*
X775269Y498376D01*
X775203Y498423D01*
X775135Y498467D01*
X775066Y498508D01*
X774994Y498546D01*
X774921Y498580D01*
X774846Y498611D01*
X774770Y498638D01*
X774693Y498662D01*
X774615Y498683D01*
X774536Y498699D01*
X774456Y498712D01*
X774375Y498722D01*
X774295Y498727D01*
X774214Y498729D01*
X771589Y498729D01*
X767754Y496104D02*
X767754Y490855D01*
X767754Y496104D02*
X765566Y496104D01*
X765495Y496102D01*
X765424Y496096D01*
X765354Y496087D01*
X765284Y496073D01*
X765215Y496056D01*
X765147Y496035D01*
X765080Y496011D01*
X765015Y495983D01*
X764951Y495951D01*
X764890Y495916D01*
X764830Y495878D01*
X764772Y495836D01*
X764717Y495792D01*
X764664Y495745D01*
X764613Y495694D01*
X764566Y495641D01*
X764522Y495586D01*
X764480Y495528D01*
X764442Y495468D01*
X764407Y495407D01*
X764375Y495343D01*
X764347Y495278D01*
X764323Y495211D01*
X764302Y495143D01*
X764285Y495074D01*
X764271Y495004D01*
X764262Y494934D01*
X764256Y494863D01*
X764254Y494792D01*
X764254Y490855D01*
X757301Y490855D02*
X757301Y498729D01*
X757301Y490855D02*
X759488Y490855D01*
X759559Y490857D01*
X759630Y490863D01*
X759700Y490872D01*
X759770Y490886D01*
X759839Y490903D01*
X759907Y490924D01*
X759974Y490948D01*
X760039Y490976D01*
X760103Y491008D01*
X760164Y491043D01*
X760224Y491081D01*
X760282Y491123D01*
X760337Y491167D01*
X760390Y491214D01*
X760441Y491265D01*
X760488Y491318D01*
X760532Y491373D01*
X760574Y491431D01*
X760612Y491491D01*
X760647Y491552D01*
X760679Y491616D01*
X760707Y491681D01*
X760731Y491748D01*
X760752Y491816D01*
X760769Y491885D01*
X760783Y491955D01*
X760792Y492025D01*
X760798Y492096D01*
X760800Y492167D01*
X760801Y492167D02*
X760801Y494792D01*
X760800Y494792D02*
X760798Y494863D01*
X760792Y494934D01*
X760783Y495004D01*
X760769Y495074D01*
X760752Y495143D01*
X760731Y495211D01*
X760707Y495278D01*
X760679Y495343D01*
X760647Y495407D01*
X760612Y495468D01*
X760574Y495528D01*
X760532Y495586D01*
X760488Y495641D01*
X760441Y495694D01*
X760390Y495745D01*
X760337Y495792D01*
X760282Y495836D01*
X760224Y495878D01*
X760164Y495916D01*
X760103Y495951D01*
X760039Y495983D01*
X759974Y496011D01*
X759907Y496035D01*
X759839Y496056D01*
X759770Y496073D01*
X759700Y496087D01*
X759630Y496096D01*
X759559Y496102D01*
X759488Y496104D01*
X757301Y496104D01*
X786303Y410591D02*
X783678Y402717D01*
X781053Y410591D01*
X777872Y410591D02*
X777872Y402717D01*
X775685Y402717D01*
X775614Y402719D01*
X775543Y402725D01*
X775473Y402734D01*
X775403Y402748D01*
X775334Y402765D01*
X775266Y402786D01*
X775199Y402810D01*
X775134Y402838D01*
X775070Y402870D01*
X775009Y402905D01*
X774949Y402943D01*
X774891Y402985D01*
X774836Y403029D01*
X774783Y403076D01*
X774732Y403127D01*
X774685Y403180D01*
X774641Y403235D01*
X774599Y403293D01*
X774561Y403353D01*
X774526Y403414D01*
X774494Y403478D01*
X774466Y403543D01*
X774442Y403610D01*
X774421Y403678D01*
X774404Y403747D01*
X774390Y403817D01*
X774381Y403887D01*
X774375Y403958D01*
X774373Y404029D01*
X774373Y406654D01*
X774375Y406725D01*
X774381Y406796D01*
X774390Y406866D01*
X774404Y406936D01*
X774421Y407005D01*
X774442Y407073D01*
X774466Y407140D01*
X774494Y407205D01*
X774526Y407269D01*
X774561Y407330D01*
X774599Y407390D01*
X774641Y407448D01*
X774685Y407503D01*
X774732Y407556D01*
X774783Y407607D01*
X774836Y407654D01*
X774891Y407698D01*
X774949Y407740D01*
X775009Y407778D01*
X775070Y407813D01*
X775134Y407845D01*
X775199Y407873D01*
X775266Y407897D01*
X775334Y407918D01*
X775403Y407935D01*
X775473Y407949D01*
X775543Y407958D01*
X775614Y407964D01*
X775685Y407966D01*
X777872Y407966D01*
X769689Y405779D02*
X767721Y405779D01*
X769689Y405779D02*
X769767Y405777D01*
X769844Y405771D01*
X769921Y405761D01*
X769997Y405748D01*
X770073Y405730D01*
X770147Y405709D01*
X770221Y405684D01*
X770293Y405655D01*
X770363Y405623D01*
X770432Y405587D01*
X770499Y405547D01*
X770564Y405505D01*
X770626Y405459D01*
X770686Y405410D01*
X770744Y405358D01*
X770799Y405303D01*
X770851Y405245D01*
X770900Y405185D01*
X770946Y405123D01*
X770988Y405058D01*
X771028Y404991D01*
X771064Y404922D01*
X771096Y404852D01*
X771125Y404780D01*
X771150Y404706D01*
X771171Y404632D01*
X771189Y404556D01*
X771202Y404480D01*
X771212Y404403D01*
X771218Y404326D01*
X771220Y404248D01*
X771218Y404170D01*
X771212Y404093D01*
X771202Y404016D01*
X771189Y403940D01*
X771171Y403864D01*
X771150Y403790D01*
X771125Y403716D01*
X771096Y403644D01*
X771064Y403574D01*
X771028Y403505D01*
X770988Y403438D01*
X770946Y403373D01*
X770900Y403311D01*
X770851Y403251D01*
X770799Y403193D01*
X770744Y403138D01*
X770686Y403086D01*
X770626Y403037D01*
X770564Y402991D01*
X770499Y402949D01*
X770432Y402909D01*
X770363Y402873D01*
X770293Y402841D01*
X770221Y402812D01*
X770147Y402787D01*
X770073Y402766D01*
X769997Y402748D01*
X769921Y402735D01*
X769844Y402725D01*
X769767Y402719D01*
X769689Y402717D01*
X767721Y402717D01*
X767721Y406654D01*
X767723Y406725D01*
X767729Y406796D01*
X767738Y406866D01*
X767752Y406936D01*
X767769Y407005D01*
X767790Y407073D01*
X767814Y407140D01*
X767842Y407205D01*
X767874Y407269D01*
X767909Y407330D01*
X767947Y407390D01*
X767989Y407448D01*
X768033Y407503D01*
X768080Y407556D01*
X768131Y407607D01*
X768184Y407654D01*
X768239Y407698D01*
X768297Y407740D01*
X768357Y407778D01*
X768418Y407813D01*
X768482Y407845D01*
X768547Y407873D01*
X768614Y407897D01*
X768682Y407918D01*
X768751Y407935D01*
X768821Y407949D01*
X768891Y407958D01*
X768962Y407964D01*
X769033Y407966D01*
X770783Y407966D01*
X764848Y407966D02*
X762223Y407966D01*
X763973Y410591D02*
X763973Y404029D01*
X763971Y403958D01*
X763965Y403887D01*
X763956Y403817D01*
X763942Y403747D01*
X763925Y403678D01*
X763904Y403610D01*
X763880Y403543D01*
X763852Y403478D01*
X763820Y403414D01*
X763785Y403353D01*
X763747Y403293D01*
X763705Y403235D01*
X763661Y403180D01*
X763614Y403127D01*
X763563Y403076D01*
X763510Y403029D01*
X763455Y402985D01*
X763397Y402943D01*
X763337Y402905D01*
X763276Y402870D01*
X763212Y402838D01*
X763147Y402810D01*
X763080Y402786D01*
X763012Y402765D01*
X762943Y402748D01*
X762873Y402734D01*
X762803Y402725D01*
X762732Y402719D01*
X762661Y402717D01*
X762223Y402717D01*
X759926Y407966D02*
X757301Y407966D01*
X759051Y410591D02*
X759051Y404029D01*
X759050Y404029D02*
X759048Y403958D01*
X759042Y403887D01*
X759033Y403817D01*
X759019Y403747D01*
X759002Y403678D01*
X758981Y403610D01*
X758957Y403543D01*
X758929Y403478D01*
X758897Y403414D01*
X758862Y403353D01*
X758824Y403293D01*
X758782Y403235D01*
X758738Y403180D01*
X758691Y403127D01*
X758640Y403076D01*
X758587Y403029D01*
X758532Y402985D01*
X758474Y402943D01*
X758414Y402905D01*
X758353Y402870D01*
X758289Y402838D01*
X758224Y402810D01*
X758157Y402786D01*
X758089Y402765D01*
X758020Y402748D01*
X757950Y402734D01*
X757880Y402725D01*
X757809Y402719D01*
X757738Y402717D01*
X757301Y402717D01*
X771589Y381183D02*
X772901Y381183D01*
X771589Y381183D02*
X771589Y376809D01*
X774214Y376809D01*
X774295Y376811D01*
X774375Y376816D01*
X774456Y376826D01*
X774536Y376839D01*
X774615Y376855D01*
X774693Y376876D01*
X774770Y376900D01*
X774846Y376927D01*
X774921Y376958D01*
X774994Y376992D01*
X775066Y377030D01*
X775135Y377071D01*
X775203Y377115D01*
X775269Y377162D01*
X775332Y377213D01*
X775393Y377266D01*
X775451Y377322D01*
X775507Y377380D01*
X775560Y377441D01*
X775611Y377504D01*
X775658Y377570D01*
X775702Y377638D01*
X775743Y377707D01*
X775781Y377779D01*
X775815Y377852D01*
X775846Y377927D01*
X775873Y378003D01*
X775897Y378080D01*
X775918Y378158D01*
X775934Y378237D01*
X775947Y378317D01*
X775957Y378398D01*
X775962Y378478D01*
X775964Y378559D01*
X775963Y378559D02*
X775963Y382933D01*
X775964Y382933D02*
X775962Y383014D01*
X775957Y383094D01*
X775947Y383175D01*
X775934Y383255D01*
X775918Y383334D01*
X775897Y383412D01*
X775873Y383489D01*
X775846Y383565D01*
X775815Y383640D01*
X775781Y383713D01*
X775743Y383785D01*
X775702Y383854D01*
X775658Y383922D01*
X775611Y383988D01*
X775560Y384051D01*
X775507Y384112D01*
X775451Y384170D01*
X775393Y384226D01*
X775332Y384279D01*
X775269Y384330D01*
X775203Y384377D01*
X775135Y384421D01*
X775066Y384462D01*
X774994Y384500D01*
X774921Y384534D01*
X774846Y384565D01*
X774770Y384592D01*
X774693Y384616D01*
X774615Y384637D01*
X774536Y384653D01*
X774456Y384666D01*
X774375Y384676D01*
X774295Y384681D01*
X774214Y384683D01*
X771589Y384683D01*
X767754Y382058D02*
X767754Y376809D01*
X767754Y382058D02*
X765566Y382058D01*
X765495Y382056D01*
X765424Y382050D01*
X765354Y382041D01*
X765284Y382027D01*
X765215Y382010D01*
X765147Y381989D01*
X765080Y381965D01*
X765015Y381937D01*
X764951Y381905D01*
X764890Y381870D01*
X764830Y381832D01*
X764772Y381790D01*
X764717Y381746D01*
X764664Y381699D01*
X764613Y381648D01*
X764566Y381595D01*
X764522Y381540D01*
X764480Y381482D01*
X764442Y381422D01*
X764407Y381361D01*
X764375Y381297D01*
X764347Y381232D01*
X764323Y381165D01*
X764302Y381097D01*
X764285Y381028D01*
X764271Y380958D01*
X764262Y380888D01*
X764256Y380817D01*
X764254Y380746D01*
X764254Y376809D01*
X757301Y376809D02*
X757301Y384683D01*
X757301Y376809D02*
X759488Y376809D01*
X759559Y376811D01*
X759630Y376817D01*
X759700Y376826D01*
X759770Y376840D01*
X759839Y376857D01*
X759907Y376878D01*
X759974Y376902D01*
X760039Y376930D01*
X760103Y376962D01*
X760164Y376997D01*
X760224Y377035D01*
X760282Y377077D01*
X760337Y377121D01*
X760390Y377168D01*
X760441Y377219D01*
X760488Y377272D01*
X760532Y377327D01*
X760574Y377385D01*
X760612Y377445D01*
X760647Y377506D01*
X760679Y377570D01*
X760707Y377635D01*
X760731Y377702D01*
X760752Y377770D01*
X760769Y377839D01*
X760783Y377909D01*
X760792Y377979D01*
X760798Y378050D01*
X760800Y378121D01*
X760801Y378121D02*
X760801Y380746D01*
X760800Y380746D02*
X760798Y380817D01*
X760792Y380888D01*
X760783Y380958D01*
X760769Y381028D01*
X760752Y381097D01*
X760731Y381165D01*
X760707Y381232D01*
X760679Y381297D01*
X760647Y381361D01*
X760612Y381422D01*
X760574Y381482D01*
X760532Y381540D01*
X760488Y381595D01*
X760441Y381648D01*
X760390Y381699D01*
X760337Y381746D01*
X760282Y381790D01*
X760224Y381832D01*
X760164Y381870D01*
X760103Y381905D01*
X760039Y381937D01*
X759974Y381965D01*
X759907Y381989D01*
X759839Y382010D01*
X759770Y382027D01*
X759700Y382041D01*
X759630Y382050D01*
X759559Y382056D01*
X759488Y382058D01*
X757301Y382058D01*
X682540Y327914D02*
X679915Y320040D01*
X677290Y327914D01*
X674474Y325289D02*
X674474Y320040D01*
X674693Y327477D02*
X674693Y327914D01*
X674256Y327914D01*
X674256Y327477D01*
X674693Y327477D01*
X671043Y325289D02*
X671043Y320040D01*
X671043Y325289D02*
X668855Y325289D01*
X668784Y325287D01*
X668713Y325281D01*
X668643Y325272D01*
X668573Y325258D01*
X668504Y325241D01*
X668436Y325220D01*
X668369Y325196D01*
X668304Y325168D01*
X668240Y325136D01*
X668179Y325101D01*
X668119Y325063D01*
X668061Y325021D01*
X668006Y324977D01*
X667953Y324930D01*
X667902Y324879D01*
X667855Y324826D01*
X667811Y324771D01*
X667769Y324713D01*
X667731Y324653D01*
X667696Y324592D01*
X667664Y324528D01*
X667636Y324463D01*
X667612Y324396D01*
X667591Y324328D01*
X667574Y324259D01*
X667560Y324189D01*
X667551Y324119D01*
X667545Y324048D01*
X667543Y323977D01*
X667543Y320040D01*
X686520Y310148D02*
X691769Y310148D01*
X689144Y307523D02*
X689144Y312773D01*
X681291Y310586D02*
X678667Y310586D01*
X681291Y310585D02*
X681372Y310587D01*
X681452Y310592D01*
X681533Y310602D01*
X681613Y310615D01*
X681692Y310631D01*
X681770Y310652D01*
X681847Y310676D01*
X681923Y310703D01*
X681998Y310734D01*
X682071Y310768D01*
X682143Y310806D01*
X682212Y310847D01*
X682280Y310891D01*
X682346Y310938D01*
X682409Y310989D01*
X682470Y311042D01*
X682528Y311098D01*
X682584Y311156D01*
X682637Y311217D01*
X682688Y311280D01*
X682735Y311346D01*
X682779Y311414D01*
X682820Y311483D01*
X682858Y311555D01*
X682892Y311628D01*
X682923Y311703D01*
X682950Y311779D01*
X682974Y311856D01*
X682995Y311934D01*
X683011Y312013D01*
X683024Y312093D01*
X683034Y312174D01*
X683039Y312254D01*
X683041Y312335D01*
X683041Y312773D01*
X683039Y312866D01*
X683033Y312958D01*
X683023Y313051D01*
X683010Y313143D01*
X682992Y313234D01*
X682970Y313324D01*
X682945Y313413D01*
X682916Y313502D01*
X682883Y313588D01*
X682847Y313674D01*
X682807Y313758D01*
X682763Y313840D01*
X682716Y313920D01*
X682666Y313998D01*
X682612Y314073D01*
X682556Y314147D01*
X682496Y314218D01*
X682433Y314286D01*
X682367Y314352D01*
X682299Y314415D01*
X682228Y314475D01*
X682154Y314531D01*
X682079Y314585D01*
X682001Y314635D01*
X681921Y314682D01*
X681839Y314726D01*
X681755Y314766D01*
X681669Y314802D01*
X681583Y314835D01*
X681494Y314864D01*
X681405Y314889D01*
X681315Y314911D01*
X681224Y314929D01*
X681132Y314942D01*
X681039Y314952D01*
X680947Y314958D01*
X680854Y314960D01*
X680761Y314958D01*
X680669Y314952D01*
X680576Y314942D01*
X680484Y314929D01*
X680393Y314911D01*
X680303Y314889D01*
X680214Y314864D01*
X680125Y314835D01*
X680039Y314802D01*
X679953Y314766D01*
X679869Y314726D01*
X679787Y314682D01*
X679707Y314635D01*
X679629Y314585D01*
X679554Y314531D01*
X679480Y314475D01*
X679409Y314415D01*
X679341Y314352D01*
X679275Y314286D01*
X679212Y314218D01*
X679152Y314147D01*
X679096Y314073D01*
X679042Y313998D01*
X678992Y313920D01*
X678945Y313840D01*
X678901Y313758D01*
X678861Y313674D01*
X678825Y313588D01*
X678792Y313502D01*
X678763Y313413D01*
X678738Y313324D01*
X678716Y313234D01*
X678698Y313143D01*
X678685Y313051D01*
X678675Y312958D01*
X678669Y312866D01*
X678667Y312773D01*
X678667Y310586D01*
X678666Y310586D02*
X678668Y310469D01*
X678674Y310352D01*
X678684Y310236D01*
X678697Y310119D01*
X678715Y310004D01*
X678736Y309889D01*
X678761Y309775D01*
X678790Y309661D01*
X678823Y309549D01*
X678860Y309438D01*
X678900Y309328D01*
X678944Y309220D01*
X678991Y309113D01*
X679042Y309007D01*
X679097Y308904D01*
X679155Y308802D01*
X679216Y308703D01*
X679280Y308605D01*
X679348Y308510D01*
X679419Y308417D01*
X679493Y308326D01*
X679570Y308238D01*
X679650Y308153D01*
X679733Y308070D01*
X679818Y307990D01*
X679906Y307913D01*
X679997Y307839D01*
X680090Y307768D01*
X680185Y307700D01*
X680283Y307636D01*
X680382Y307575D01*
X680484Y307517D01*
X680587Y307462D01*
X680693Y307411D01*
X680800Y307364D01*
X680908Y307320D01*
X681018Y307280D01*
X681129Y307243D01*
X681241Y307210D01*
X681355Y307181D01*
X681469Y307156D01*
X681584Y307135D01*
X681699Y307117D01*
X681816Y307104D01*
X681932Y307094D01*
X682049Y307088D01*
X682166Y307086D01*
X673081Y307086D02*
X675706Y314960D01*
X670457Y314960D02*
X673081Y307086D01*
X667237Y307086D02*
X667237Y314960D01*
X665050Y314960D01*
X664957Y314958D01*
X664865Y314952D01*
X664772Y314942D01*
X664680Y314929D01*
X664589Y314911D01*
X664499Y314889D01*
X664410Y314864D01*
X664321Y314835D01*
X664235Y314802D01*
X664149Y314766D01*
X664065Y314726D01*
X663983Y314682D01*
X663903Y314635D01*
X663825Y314585D01*
X663750Y314531D01*
X663676Y314475D01*
X663605Y314415D01*
X663537Y314352D01*
X663471Y314286D01*
X663408Y314218D01*
X663348Y314147D01*
X663292Y314073D01*
X663238Y313998D01*
X663188Y313920D01*
X663141Y313840D01*
X663097Y313758D01*
X663057Y313674D01*
X663021Y313588D01*
X662988Y313502D01*
X662959Y313413D01*
X662934Y313324D01*
X662912Y313234D01*
X662894Y313143D01*
X662881Y313051D01*
X662871Y312958D01*
X662865Y312866D01*
X662863Y312773D01*
X662863Y309273D01*
X662865Y309180D01*
X662871Y309088D01*
X662881Y308995D01*
X662894Y308903D01*
X662912Y308812D01*
X662934Y308722D01*
X662959Y308633D01*
X662988Y308544D01*
X663021Y308458D01*
X663057Y308372D01*
X663097Y308288D01*
X663141Y308206D01*
X663188Y308126D01*
X663238Y308048D01*
X663292Y307973D01*
X663348Y307899D01*
X663408Y307828D01*
X663471Y307760D01*
X663537Y307694D01*
X663605Y307631D01*
X663676Y307571D01*
X663750Y307515D01*
X663825Y307461D01*
X663903Y307411D01*
X663983Y307364D01*
X664065Y307320D01*
X664149Y307280D01*
X664235Y307244D01*
X664321Y307211D01*
X664410Y307182D01*
X664499Y307157D01*
X664589Y307135D01*
X664680Y307117D01*
X664772Y307104D01*
X664865Y307094D01*
X664957Y307088D01*
X665050Y307086D01*
X667237Y307086D01*
X657480Y307086D02*
X655730Y307086D01*
X657480Y307086D02*
X657561Y307088D01*
X657641Y307093D01*
X657722Y307103D01*
X657802Y307116D01*
X657881Y307132D01*
X657959Y307153D01*
X658036Y307177D01*
X658112Y307204D01*
X658187Y307235D01*
X658260Y307269D01*
X658332Y307307D01*
X658401Y307348D01*
X658469Y307392D01*
X658535Y307439D01*
X658598Y307490D01*
X658659Y307543D01*
X658717Y307599D01*
X658773Y307657D01*
X658826Y307718D01*
X658877Y307781D01*
X658924Y307847D01*
X658968Y307915D01*
X659009Y307984D01*
X659047Y308056D01*
X659081Y308129D01*
X659112Y308204D01*
X659139Y308280D01*
X659163Y308357D01*
X659184Y308435D01*
X659200Y308514D01*
X659213Y308594D01*
X659223Y308675D01*
X659228Y308755D01*
X659230Y308836D01*
X659230Y313210D01*
X659228Y313291D01*
X659223Y313371D01*
X659213Y313452D01*
X659200Y313532D01*
X659184Y313611D01*
X659163Y313689D01*
X659139Y313766D01*
X659112Y313842D01*
X659081Y313917D01*
X659047Y313990D01*
X659009Y314062D01*
X658968Y314131D01*
X658924Y314199D01*
X658877Y314265D01*
X658826Y314328D01*
X658773Y314389D01*
X658717Y314447D01*
X658659Y314503D01*
X658598Y314556D01*
X658535Y314607D01*
X658469Y314654D01*
X658401Y314698D01*
X658332Y314739D01*
X658260Y314777D01*
X658187Y314811D01*
X658112Y314842D01*
X658036Y314869D01*
X657959Y314893D01*
X657881Y314914D01*
X657802Y314930D01*
X657722Y314943D01*
X657641Y314953D01*
X657561Y314958D01*
X657480Y314960D01*
X655730Y314960D01*
X587107Y317937D02*
X585795Y317937D01*
X585795Y313563D01*
X588419Y313563D01*
X588500Y313565D01*
X588580Y313570D01*
X588661Y313580D01*
X588741Y313593D01*
X588820Y313609D01*
X588898Y313630D01*
X588975Y313654D01*
X589051Y313681D01*
X589126Y313712D01*
X589199Y313746D01*
X589271Y313784D01*
X589340Y313825D01*
X589408Y313869D01*
X589474Y313916D01*
X589537Y313967D01*
X589598Y314020D01*
X589656Y314076D01*
X589712Y314134D01*
X589765Y314195D01*
X589816Y314258D01*
X589863Y314324D01*
X589907Y314392D01*
X589948Y314461D01*
X589986Y314533D01*
X590020Y314606D01*
X590051Y314681D01*
X590078Y314757D01*
X590102Y314834D01*
X590123Y314912D01*
X590139Y314991D01*
X590152Y315071D01*
X590162Y315152D01*
X590167Y315232D01*
X590169Y315313D01*
X590169Y319687D01*
X590167Y319768D01*
X590162Y319848D01*
X590152Y319929D01*
X590139Y320009D01*
X590123Y320088D01*
X590102Y320166D01*
X590078Y320243D01*
X590051Y320319D01*
X590020Y320394D01*
X589986Y320467D01*
X589948Y320539D01*
X589907Y320608D01*
X589863Y320676D01*
X589816Y320742D01*
X589765Y320805D01*
X589712Y320866D01*
X589656Y320924D01*
X589598Y320980D01*
X589537Y321033D01*
X589474Y321084D01*
X589408Y321131D01*
X589340Y321175D01*
X589271Y321216D01*
X589199Y321254D01*
X589126Y321288D01*
X589051Y321319D01*
X588975Y321346D01*
X588898Y321370D01*
X588820Y321391D01*
X588741Y321407D01*
X588661Y321420D01*
X588580Y321430D01*
X588500Y321435D01*
X588419Y321437D01*
X585795Y321437D01*
X581959Y318812D02*
X581959Y313563D01*
X581959Y318812D02*
X579772Y318812D01*
X579701Y318810D01*
X579630Y318804D01*
X579560Y318795D01*
X579490Y318781D01*
X579421Y318764D01*
X579353Y318743D01*
X579286Y318719D01*
X579221Y318691D01*
X579157Y318659D01*
X579096Y318624D01*
X579036Y318586D01*
X578978Y318544D01*
X578923Y318500D01*
X578870Y318453D01*
X578819Y318402D01*
X578772Y318349D01*
X578728Y318294D01*
X578686Y318236D01*
X578648Y318176D01*
X578613Y318115D01*
X578581Y318051D01*
X578553Y317986D01*
X578529Y317919D01*
X578508Y317851D01*
X578491Y317782D01*
X578477Y317712D01*
X578468Y317642D01*
X578462Y317571D01*
X578460Y317500D01*
X578460Y313563D01*
X571507Y313563D02*
X571507Y321437D01*
X571507Y313563D02*
X573694Y313563D01*
X573765Y313565D01*
X573836Y313571D01*
X573906Y313580D01*
X573976Y313594D01*
X574045Y313611D01*
X574113Y313632D01*
X574180Y313656D01*
X574245Y313684D01*
X574309Y313716D01*
X574370Y313751D01*
X574430Y313789D01*
X574488Y313831D01*
X574543Y313875D01*
X574596Y313922D01*
X574647Y313973D01*
X574694Y314026D01*
X574738Y314081D01*
X574780Y314139D01*
X574818Y314199D01*
X574853Y314260D01*
X574885Y314324D01*
X574913Y314389D01*
X574937Y314456D01*
X574958Y314524D01*
X574975Y314593D01*
X574989Y314663D01*
X574998Y314733D01*
X575004Y314804D01*
X575006Y314875D01*
X575006Y317500D01*
X575004Y317571D01*
X574998Y317642D01*
X574989Y317712D01*
X574975Y317782D01*
X574958Y317851D01*
X574937Y317919D01*
X574913Y317986D01*
X574885Y318051D01*
X574853Y318115D01*
X574818Y318176D01*
X574780Y318236D01*
X574738Y318294D01*
X574694Y318349D01*
X574647Y318402D01*
X574596Y318453D01*
X574543Y318500D01*
X574488Y318544D01*
X574430Y318586D01*
X574370Y318624D01*
X574309Y318659D01*
X574245Y318691D01*
X574180Y318719D01*
X574113Y318743D01*
X574045Y318764D01*
X573976Y318781D01*
X573906Y318795D01*
X573836Y318804D01*
X573765Y318810D01*
X573694Y318812D01*
X571507Y318812D01*
D11*
X214602Y363756D02*
X213304Y367002D01*
X214601Y363756D02*
X214634Y363681D01*
X214670Y363607D01*
X214709Y363535D01*
X214752Y363465D01*
X214798Y363398D01*
X214848Y363332D01*
X214900Y363270D01*
X214956Y363209D01*
X215014Y363152D01*
X215075Y363097D01*
X215139Y363046D01*
X215205Y362998D01*
X215274Y362953D01*
X215344Y362911D01*
X215417Y362873D01*
X215491Y362838D01*
X215567Y362807D01*
X215644Y362780D01*
X215723Y362757D01*
X215802Y362737D01*
X215883Y362722D01*
X215964Y362710D01*
X216046Y362702D01*
X216127Y362698D01*
X216209Y362699D01*
X216291Y362703D01*
X216373Y362711D01*
X216454Y362723D01*
X216534Y362739D01*
X216614Y362759D01*
X216692Y362783D01*
X216769Y362811D01*
X216845Y362842D01*
X216919Y362877D01*
X216991Y362915D01*
X217062Y362957D01*
X217130Y363003D01*
X217196Y363051D01*
X217259Y363103D01*
X217320Y363158D01*
X217378Y363216D01*
X217434Y363276D01*
X217486Y363339D01*
X217535Y363405D01*
X217581Y363473D01*
X217623Y363543D01*
X217663Y363615D01*
X217698Y363689D01*
X217730Y363764D01*
X217758Y363841D01*
X217782Y363919D01*
X217803Y363999D01*
X217820Y364079D01*
X217832Y364160D01*
X217841Y364241D01*
X217846Y364323D01*
X217847Y364405D01*
X217843Y364582D01*
X217834Y364759D01*
X217820Y364936D01*
X217803Y365113D01*
X217781Y365288D01*
X217756Y365464D01*
X217725Y365638D01*
X217691Y365812D01*
X217653Y365985D01*
X217610Y366157D01*
X217563Y366328D01*
X217513Y366498D01*
X217458Y366667D01*
X217399Y366834D01*
X217336Y366999D01*
X217269Y367164D01*
X217198Y367326D01*
X213304Y367002D02*
X213271Y367077D01*
X213235Y367151D01*
X213196Y367223D01*
X213153Y367293D01*
X213107Y367360D01*
X213057Y367426D01*
X213005Y367488D01*
X212949Y367549D01*
X212891Y367606D01*
X212830Y367661D01*
X212766Y367712D01*
X212700Y367760D01*
X212631Y367805D01*
X212561Y367847D01*
X212488Y367885D01*
X212414Y367920D01*
X212338Y367951D01*
X212261Y367978D01*
X212182Y368001D01*
X212103Y368021D01*
X212022Y368036D01*
X211941Y368048D01*
X211859Y368056D01*
X211778Y368060D01*
X211696Y368059D01*
X211614Y368055D01*
X211532Y368047D01*
X211451Y368035D01*
X211371Y368019D01*
X211291Y367999D01*
X211213Y367975D01*
X211136Y367947D01*
X211060Y367916D01*
X210986Y367881D01*
X210914Y367843D01*
X210843Y367801D01*
X210775Y367755D01*
X210709Y367707D01*
X210646Y367655D01*
X210585Y367600D01*
X210527Y367542D01*
X210471Y367482D01*
X210419Y367419D01*
X210370Y367353D01*
X210324Y367285D01*
X210282Y367215D01*
X210242Y367143D01*
X210207Y367069D01*
X210175Y366994D01*
X210147Y366917D01*
X210123Y366839D01*
X210102Y366759D01*
X210085Y366679D01*
X210073Y366598D01*
X210064Y366517D01*
X210059Y366435D01*
X210058Y366353D01*
X210065Y366093D01*
X210078Y365833D01*
X210097Y365573D01*
X210122Y365314D01*
X210154Y365055D01*
X210191Y364798D01*
X210235Y364541D01*
X210284Y364285D01*
X210340Y364031D01*
X210401Y363778D01*
X210469Y363527D01*
X210543Y363277D01*
X210622Y363029D01*
X210707Y362783D01*
X210058Y372618D02*
X217847Y372618D01*
X221093Y372293D02*
X221742Y372293D01*
X221742Y372943D01*
X221093Y372943D01*
X221093Y372293D01*
X217847Y377867D02*
X210058Y377867D01*
X217847Y377867D02*
X217847Y383709D01*
X217845Y383796D01*
X217839Y383884D01*
X217829Y383970D01*
X217816Y384057D01*
X217798Y384142D01*
X217777Y384227D01*
X217752Y384311D01*
X217723Y384393D01*
X217690Y384474D01*
X217654Y384554D01*
X217615Y384632D01*
X217571Y384708D01*
X217525Y384782D01*
X217475Y384853D01*
X217422Y384923D01*
X217366Y384990D01*
X217307Y385054D01*
X217245Y385116D01*
X217181Y385175D01*
X217114Y385231D01*
X217044Y385284D01*
X216973Y385334D01*
X216899Y385380D01*
X216823Y385424D01*
X216745Y385463D01*
X216665Y385499D01*
X216584Y385532D01*
X216502Y385561D01*
X216418Y385586D01*
X216333Y385607D01*
X216248Y385625D01*
X216161Y385638D01*
X216075Y385648D01*
X215987Y385654D01*
X215900Y385656D01*
X215900Y385657D02*
X210058Y385657D01*
X210058Y381762D02*
X217847Y381762D01*
X217847Y391416D02*
X206163Y391416D01*
X217847Y391416D02*
X217847Y394662D01*
X217845Y394749D01*
X217839Y394837D01*
X217829Y394923D01*
X217816Y395010D01*
X217798Y395095D01*
X217777Y395180D01*
X217752Y395264D01*
X217723Y395346D01*
X217690Y395427D01*
X217654Y395507D01*
X217615Y395585D01*
X217571Y395661D01*
X217525Y395735D01*
X217475Y395806D01*
X217422Y395876D01*
X217366Y395943D01*
X217307Y396007D01*
X217245Y396069D01*
X217181Y396128D01*
X217114Y396184D01*
X217044Y396237D01*
X216973Y396287D01*
X216899Y396333D01*
X216823Y396377D01*
X216745Y396416D01*
X216665Y396452D01*
X216584Y396485D01*
X216502Y396514D01*
X216418Y396539D01*
X216333Y396560D01*
X216248Y396578D01*
X216161Y396591D01*
X216075Y396601D01*
X215987Y396607D01*
X215900Y396609D01*
X212005Y396609D01*
X211918Y396607D01*
X211830Y396601D01*
X211744Y396591D01*
X211657Y396578D01*
X211572Y396560D01*
X211487Y396539D01*
X211403Y396514D01*
X211321Y396485D01*
X211240Y396452D01*
X211160Y396416D01*
X211082Y396377D01*
X211006Y396333D01*
X210932Y396287D01*
X210861Y396237D01*
X210791Y396184D01*
X210724Y396128D01*
X210660Y396069D01*
X210598Y396007D01*
X210539Y395943D01*
X210483Y395876D01*
X210430Y395806D01*
X210380Y395735D01*
X210334Y395661D01*
X210290Y395585D01*
X210251Y395507D01*
X210215Y395427D01*
X210182Y395346D01*
X210153Y395264D01*
X210128Y395180D01*
X210107Y395095D01*
X210089Y395010D01*
X210076Y394923D01*
X210066Y394837D01*
X210060Y394749D01*
X210058Y394662D01*
X210058Y391416D01*
X212005Y401413D02*
X221742Y401413D01*
X212005Y401413D02*
X211918Y401415D01*
X211830Y401421D01*
X211744Y401431D01*
X211657Y401444D01*
X211572Y401462D01*
X211487Y401483D01*
X211403Y401508D01*
X211321Y401537D01*
X211240Y401570D01*
X211160Y401606D01*
X211082Y401645D01*
X211006Y401689D01*
X210932Y401735D01*
X210861Y401785D01*
X210791Y401838D01*
X210724Y401894D01*
X210660Y401953D01*
X210598Y402015D01*
X210539Y402079D01*
X210483Y402146D01*
X210430Y402216D01*
X210380Y402287D01*
X210334Y402361D01*
X210290Y402437D01*
X210251Y402515D01*
X210215Y402595D01*
X210182Y402676D01*
X210153Y402758D01*
X210128Y402842D01*
X210107Y402927D01*
X210089Y403012D01*
X210076Y403099D01*
X210066Y403185D01*
X210060Y403273D01*
X210058Y403360D01*
X210058Y409307D02*
X210058Y412552D01*
X210058Y409307D02*
X210060Y409220D01*
X210066Y409132D01*
X210076Y409046D01*
X210089Y408959D01*
X210107Y408874D01*
X210128Y408789D01*
X210153Y408705D01*
X210182Y408623D01*
X210215Y408542D01*
X210251Y408462D01*
X210290Y408384D01*
X210334Y408308D01*
X210380Y408234D01*
X210430Y408163D01*
X210483Y408093D01*
X210539Y408026D01*
X210598Y407962D01*
X210660Y407900D01*
X210724Y407841D01*
X210791Y407785D01*
X210861Y407732D01*
X210932Y407682D01*
X211006Y407636D01*
X211082Y407592D01*
X211160Y407553D01*
X211240Y407517D01*
X211321Y407484D01*
X211403Y407455D01*
X211487Y407430D01*
X211572Y407409D01*
X211657Y407391D01*
X211744Y407378D01*
X211830Y407368D01*
X211918Y407362D01*
X212005Y407360D01*
X212005Y407359D02*
X215251Y407359D01*
X215251Y407360D02*
X215352Y407362D01*
X215452Y407368D01*
X215552Y407378D01*
X215652Y407391D01*
X215751Y407409D01*
X215850Y407430D01*
X215947Y407455D01*
X216044Y407484D01*
X216139Y407517D01*
X216233Y407553D01*
X216325Y407593D01*
X216416Y407636D01*
X216505Y407683D01*
X216592Y407733D01*
X216678Y407787D01*
X216761Y407844D01*
X216841Y407904D01*
X216920Y407967D01*
X216996Y408034D01*
X217069Y408103D01*
X217139Y408175D01*
X217207Y408249D01*
X217272Y408326D01*
X217333Y408406D01*
X217392Y408488D01*
X217447Y408572D01*
X217499Y408658D01*
X217548Y408746D01*
X217593Y408836D01*
X217635Y408928D01*
X217673Y409021D01*
X217707Y409116D01*
X217738Y409211D01*
X217765Y409308D01*
X217788Y409406D01*
X217808Y409505D01*
X217823Y409605D01*
X217835Y409705D01*
X217843Y409805D01*
X217847Y409906D01*
X217847Y410006D01*
X217843Y410107D01*
X217835Y410207D01*
X217823Y410307D01*
X217808Y410407D01*
X217788Y410506D01*
X217765Y410604D01*
X217738Y410701D01*
X217707Y410796D01*
X217673Y410891D01*
X217635Y410984D01*
X217593Y411076D01*
X217548Y411166D01*
X217499Y411254D01*
X217447Y411340D01*
X217392Y411424D01*
X217333Y411506D01*
X217272Y411586D01*
X217207Y411663D01*
X217139Y411737D01*
X217069Y411809D01*
X216996Y411878D01*
X216920Y411945D01*
X216841Y412008D01*
X216761Y412068D01*
X216678Y412125D01*
X216592Y412179D01*
X216505Y412229D01*
X216416Y412276D01*
X216325Y412319D01*
X216233Y412359D01*
X216139Y412395D01*
X216044Y412428D01*
X215947Y412457D01*
X215850Y412482D01*
X215751Y412503D01*
X215652Y412521D01*
X215552Y412534D01*
X215452Y412544D01*
X215352Y412550D01*
X215251Y412552D01*
X213953Y412552D01*
X213953Y407359D01*
X208760Y416884D02*
X208760Y422077D01*
X210058Y428370D02*
X210058Y430967D01*
X210058Y428370D02*
X210060Y428283D01*
X210066Y428195D01*
X210076Y428109D01*
X210089Y428022D01*
X210107Y427937D01*
X210128Y427852D01*
X210153Y427768D01*
X210182Y427686D01*
X210215Y427605D01*
X210251Y427525D01*
X210290Y427447D01*
X210334Y427371D01*
X210380Y427297D01*
X210430Y427226D01*
X210483Y427156D01*
X210539Y427089D01*
X210598Y427025D01*
X210660Y426963D01*
X210724Y426904D01*
X210791Y426848D01*
X210861Y426795D01*
X210932Y426745D01*
X211006Y426699D01*
X211082Y426655D01*
X211160Y426616D01*
X211240Y426580D01*
X211321Y426547D01*
X211403Y426518D01*
X211487Y426493D01*
X211572Y426472D01*
X211657Y426454D01*
X211744Y426441D01*
X211830Y426431D01*
X211918Y426425D01*
X212005Y426423D01*
X215900Y426423D01*
X215987Y426425D01*
X216075Y426431D01*
X216161Y426441D01*
X216248Y426454D01*
X216333Y426472D01*
X216418Y426493D01*
X216502Y426518D01*
X216584Y426547D01*
X216665Y426580D01*
X216745Y426616D01*
X216823Y426655D01*
X216899Y426699D01*
X216973Y426745D01*
X217044Y426795D01*
X217114Y426848D01*
X217181Y426904D01*
X217245Y426963D01*
X217307Y427025D01*
X217366Y427089D01*
X217422Y427156D01*
X217475Y427226D01*
X217525Y427297D01*
X217571Y427371D01*
X217615Y427447D01*
X217654Y427525D01*
X217690Y427605D01*
X217723Y427686D01*
X217752Y427768D01*
X217777Y427852D01*
X217798Y427937D01*
X217816Y428022D01*
X217829Y428109D01*
X217839Y428195D01*
X217845Y428283D01*
X217847Y428370D01*
X217847Y430967D01*
X221742Y435322D02*
X212005Y435322D01*
X211918Y435324D01*
X211830Y435330D01*
X211744Y435340D01*
X211657Y435353D01*
X211572Y435371D01*
X211487Y435392D01*
X211403Y435417D01*
X211321Y435446D01*
X211240Y435479D01*
X211160Y435515D01*
X211082Y435554D01*
X211006Y435598D01*
X210932Y435644D01*
X210861Y435694D01*
X210791Y435747D01*
X210724Y435803D01*
X210660Y435862D01*
X210598Y435924D01*
X210539Y435988D01*
X210483Y436055D01*
X210430Y436125D01*
X210380Y436196D01*
X210334Y436270D01*
X210290Y436346D01*
X210251Y436424D01*
X210215Y436504D01*
X210182Y436585D01*
X210153Y436667D01*
X210128Y436751D01*
X210107Y436836D01*
X210089Y436921D01*
X210076Y437008D01*
X210066Y437094D01*
X210060Y437182D01*
X210058Y437269D01*
X212654Y441268D02*
X215251Y441268D01*
X215251Y441269D02*
X215352Y441271D01*
X215452Y441277D01*
X215552Y441287D01*
X215652Y441300D01*
X215751Y441318D01*
X215850Y441339D01*
X215947Y441364D01*
X216044Y441393D01*
X216139Y441426D01*
X216233Y441462D01*
X216325Y441502D01*
X216416Y441545D01*
X216505Y441592D01*
X216592Y441642D01*
X216678Y441696D01*
X216761Y441753D01*
X216841Y441813D01*
X216920Y441876D01*
X216996Y441943D01*
X217069Y442012D01*
X217139Y442084D01*
X217207Y442158D01*
X217272Y442235D01*
X217333Y442315D01*
X217392Y442397D01*
X217447Y442481D01*
X217499Y442567D01*
X217548Y442655D01*
X217593Y442745D01*
X217635Y442837D01*
X217673Y442930D01*
X217707Y443025D01*
X217738Y443120D01*
X217765Y443217D01*
X217788Y443315D01*
X217808Y443414D01*
X217823Y443514D01*
X217835Y443614D01*
X217843Y443714D01*
X217847Y443815D01*
X217847Y443915D01*
X217843Y444016D01*
X217835Y444116D01*
X217823Y444216D01*
X217808Y444316D01*
X217788Y444415D01*
X217765Y444513D01*
X217738Y444610D01*
X217707Y444705D01*
X217673Y444800D01*
X217635Y444893D01*
X217593Y444985D01*
X217548Y445075D01*
X217499Y445163D01*
X217447Y445249D01*
X217392Y445333D01*
X217333Y445415D01*
X217272Y445495D01*
X217207Y445572D01*
X217139Y445646D01*
X217069Y445718D01*
X216996Y445787D01*
X216920Y445854D01*
X216841Y445917D01*
X216761Y445977D01*
X216678Y446034D01*
X216592Y446088D01*
X216505Y446138D01*
X216416Y446185D01*
X216325Y446228D01*
X216233Y446268D01*
X216139Y446304D01*
X216044Y446337D01*
X215947Y446366D01*
X215850Y446391D01*
X215751Y446412D01*
X215652Y446430D01*
X215552Y446443D01*
X215452Y446453D01*
X215352Y446459D01*
X215251Y446461D01*
X212654Y446461D01*
X212553Y446459D01*
X212453Y446453D01*
X212353Y446443D01*
X212253Y446430D01*
X212154Y446412D01*
X212055Y446391D01*
X211958Y446366D01*
X211861Y446337D01*
X211766Y446304D01*
X211672Y446268D01*
X211580Y446228D01*
X211489Y446185D01*
X211400Y446138D01*
X211313Y446088D01*
X211227Y446034D01*
X211144Y445977D01*
X211064Y445917D01*
X210985Y445854D01*
X210909Y445787D01*
X210836Y445718D01*
X210766Y445646D01*
X210698Y445572D01*
X210633Y445495D01*
X210572Y445415D01*
X210513Y445333D01*
X210458Y445249D01*
X210406Y445163D01*
X210357Y445075D01*
X210312Y444985D01*
X210270Y444893D01*
X210232Y444800D01*
X210198Y444705D01*
X210167Y444610D01*
X210140Y444513D01*
X210117Y444415D01*
X210097Y444316D01*
X210082Y444216D01*
X210070Y444116D01*
X210062Y444016D01*
X210058Y443915D01*
X210058Y443815D01*
X210062Y443714D01*
X210070Y443614D01*
X210082Y443514D01*
X210097Y443414D01*
X210117Y443315D01*
X210140Y443217D01*
X210167Y443120D01*
X210198Y443025D01*
X210232Y442930D01*
X210270Y442837D01*
X210312Y442745D01*
X210357Y442655D01*
X210406Y442567D01*
X210458Y442481D01*
X210513Y442397D01*
X210572Y442315D01*
X210633Y442235D01*
X210698Y442158D01*
X210766Y442084D01*
X210836Y442012D01*
X210909Y441943D01*
X210985Y441876D01*
X211064Y441813D01*
X211144Y441753D01*
X211227Y441696D01*
X211313Y441642D01*
X211400Y441592D01*
X211489Y441545D01*
X211580Y441502D01*
X211672Y441462D01*
X211766Y441426D01*
X211861Y441393D01*
X211958Y441364D01*
X212055Y441339D01*
X212154Y441318D01*
X212253Y441300D01*
X212353Y441287D01*
X212453Y441277D01*
X212553Y441271D01*
X212654Y441269D01*
X210058Y453135D02*
X210058Y455731D01*
X210058Y453135D02*
X210060Y453048D01*
X210066Y452960D01*
X210076Y452874D01*
X210089Y452787D01*
X210107Y452702D01*
X210128Y452617D01*
X210153Y452533D01*
X210182Y452451D01*
X210215Y452370D01*
X210251Y452290D01*
X210290Y452212D01*
X210334Y452136D01*
X210380Y452062D01*
X210430Y451991D01*
X210483Y451921D01*
X210539Y451854D01*
X210598Y451790D01*
X210660Y451728D01*
X210724Y451669D01*
X210791Y451613D01*
X210861Y451560D01*
X210932Y451510D01*
X211006Y451464D01*
X211082Y451420D01*
X211160Y451381D01*
X211240Y451345D01*
X211321Y451312D01*
X211403Y451283D01*
X211487Y451258D01*
X211572Y451237D01*
X211657Y451219D01*
X211744Y451206D01*
X211830Y451196D01*
X211918Y451190D01*
X212005Y451188D01*
X215900Y451188D01*
X215987Y451190D01*
X216075Y451196D01*
X216161Y451206D01*
X216248Y451219D01*
X216333Y451237D01*
X216418Y451258D01*
X216502Y451283D01*
X216584Y451312D01*
X216665Y451345D01*
X216745Y451381D01*
X216823Y451420D01*
X216899Y451464D01*
X216973Y451510D01*
X217044Y451560D01*
X217114Y451613D01*
X217181Y451669D01*
X217245Y451728D01*
X217307Y451790D01*
X217366Y451854D01*
X217422Y451921D01*
X217475Y451991D01*
X217525Y452062D01*
X217571Y452136D01*
X217615Y452212D01*
X217654Y452290D01*
X217690Y452370D01*
X217723Y452451D01*
X217752Y452533D01*
X217777Y452617D01*
X217798Y452702D01*
X217816Y452787D01*
X217829Y452874D01*
X217839Y452960D01*
X217845Y453048D01*
X217847Y453135D01*
X217847Y455731D01*
X221742Y460454D02*
X210058Y460454D01*
X213953Y460454D02*
X217847Y465647D01*
X215575Y462726D02*
X210058Y465647D01*
X210058Y478155D02*
X217847Y475558D01*
X217847Y480751D02*
X210058Y478155D01*
X210058Y484688D02*
X210707Y484688D01*
X210707Y485337D01*
X210058Y485337D01*
X210058Y484688D01*
X218821Y496259D02*
X218928Y496257D01*
X219034Y496251D01*
X219140Y496241D01*
X219246Y496228D01*
X219352Y496210D01*
X219456Y496189D01*
X219560Y496164D01*
X219663Y496135D01*
X219764Y496103D01*
X219864Y496066D01*
X219963Y496026D01*
X220061Y495983D01*
X220157Y495936D01*
X220251Y495885D01*
X220343Y495831D01*
X220433Y495774D01*
X220521Y495714D01*
X220606Y495650D01*
X220689Y495583D01*
X220770Y495513D01*
X220848Y495441D01*
X220924Y495365D01*
X220996Y495287D01*
X221066Y495206D01*
X221133Y495123D01*
X221197Y495038D01*
X221257Y494950D01*
X221314Y494860D01*
X221368Y494768D01*
X221419Y494674D01*
X221466Y494578D01*
X221509Y494480D01*
X221549Y494381D01*
X221586Y494281D01*
X221618Y494180D01*
X221647Y494077D01*
X221672Y493973D01*
X221693Y493869D01*
X221711Y493763D01*
X221724Y493657D01*
X221734Y493551D01*
X221740Y493445D01*
X221742Y493338D01*
X221740Y493217D01*
X221734Y493096D01*
X221724Y492976D01*
X221711Y492855D01*
X221693Y492736D01*
X221672Y492616D01*
X221647Y492498D01*
X221618Y492381D01*
X221585Y492264D01*
X221549Y492149D01*
X221508Y492035D01*
X221465Y491922D01*
X221417Y491810D01*
X221366Y491701D01*
X221311Y491593D01*
X221253Y491486D01*
X221192Y491382D01*
X221127Y491280D01*
X221059Y491180D01*
X220988Y491082D01*
X220914Y490986D01*
X220837Y490893D01*
X220756Y490803D01*
X220673Y490715D01*
X220587Y490630D01*
X220498Y490547D01*
X220407Y490468D01*
X220313Y490391D01*
X220217Y490318D01*
X220119Y490248D01*
X220018Y490181D01*
X219915Y490117D01*
X219810Y490057D01*
X219703Y490000D01*
X219595Y489946D01*
X219485Y489896D01*
X219373Y489850D01*
X219260Y489807D01*
X219145Y489768D01*
X216549Y495286D02*
X216626Y495365D01*
X216707Y495441D01*
X216790Y495514D01*
X216875Y495584D01*
X216963Y495651D01*
X217053Y495715D01*
X217145Y495775D01*
X217240Y495832D01*
X217336Y495886D01*
X217434Y495937D01*
X217534Y495984D01*
X217636Y496028D01*
X217739Y496068D01*
X217843Y496104D01*
X217949Y496136D01*
X218055Y496165D01*
X218163Y496190D01*
X218271Y496212D01*
X218381Y496229D01*
X218490Y496243D01*
X218600Y496252D01*
X218711Y496258D01*
X218821Y496260D01*
X216549Y495286D02*
X210058Y489768D01*
X210058Y496259D01*
X202692Y362458D02*
X191008Y362458D01*
X191008Y365704D01*
X191010Y365791D01*
X191016Y365879D01*
X191026Y365965D01*
X191039Y366052D01*
X191057Y366137D01*
X191078Y366222D01*
X191103Y366306D01*
X191132Y366388D01*
X191165Y366469D01*
X191201Y366549D01*
X191240Y366627D01*
X191284Y366703D01*
X191330Y366777D01*
X191380Y366848D01*
X191433Y366918D01*
X191489Y366985D01*
X191548Y367049D01*
X191609Y367111D01*
X191674Y367170D01*
X191741Y367226D01*
X191811Y367279D01*
X191882Y367329D01*
X191956Y367375D01*
X192032Y367419D01*
X192110Y367458D01*
X192190Y367494D01*
X192271Y367527D01*
X192353Y367556D01*
X192437Y367581D01*
X192522Y367602D01*
X192607Y367620D01*
X192694Y367633D01*
X192780Y367643D01*
X192868Y367649D01*
X192955Y367651D01*
X196850Y367651D01*
X196937Y367649D01*
X197025Y367643D01*
X197111Y367633D01*
X197198Y367620D01*
X197283Y367602D01*
X197368Y367581D01*
X197452Y367556D01*
X197534Y367527D01*
X197615Y367494D01*
X197695Y367458D01*
X197773Y367419D01*
X197849Y367375D01*
X197923Y367329D01*
X197994Y367279D01*
X198064Y367226D01*
X198131Y367170D01*
X198195Y367111D01*
X198257Y367049D01*
X198316Y366985D01*
X198372Y366918D01*
X198425Y366848D01*
X198475Y366777D01*
X198521Y366703D01*
X198565Y366627D01*
X198604Y366549D01*
X198640Y366469D01*
X198673Y366388D01*
X198702Y366306D01*
X198727Y366222D01*
X198748Y366137D01*
X198766Y366052D01*
X198779Y365965D01*
X198789Y365879D01*
X198795Y365791D01*
X198797Y365704D01*
X198797Y362458D01*
X187113Y371924D02*
X187113Y373222D01*
X198797Y377117D01*
X198797Y371924D02*
X191008Y374521D01*
X191008Y388208D02*
X202692Y388208D01*
X202692Y391454D01*
X202690Y391567D01*
X202684Y391680D01*
X202674Y391793D01*
X202660Y391906D01*
X202643Y392018D01*
X202621Y392129D01*
X202596Y392239D01*
X202566Y392349D01*
X202533Y392457D01*
X202496Y392564D01*
X202456Y392670D01*
X202411Y392774D01*
X202363Y392877D01*
X202312Y392978D01*
X202257Y393077D01*
X202199Y393174D01*
X202137Y393269D01*
X202072Y393362D01*
X202004Y393452D01*
X201933Y393540D01*
X201858Y393626D01*
X201781Y393709D01*
X201701Y393789D01*
X201618Y393866D01*
X201532Y393941D01*
X201444Y394012D01*
X201354Y394080D01*
X201261Y394145D01*
X201166Y394207D01*
X201069Y394265D01*
X200970Y394320D01*
X200869Y394371D01*
X200766Y394419D01*
X200662Y394464D01*
X200556Y394504D01*
X200449Y394541D01*
X200341Y394574D01*
X200231Y394604D01*
X200121Y394629D01*
X200010Y394651D01*
X199898Y394668D01*
X199785Y394682D01*
X199672Y394692D01*
X199559Y394698D01*
X199446Y394700D01*
X199333Y394698D01*
X199220Y394692D01*
X199107Y394682D01*
X198994Y394668D01*
X198882Y394651D01*
X198771Y394629D01*
X198661Y394604D01*
X198551Y394574D01*
X198443Y394541D01*
X198336Y394504D01*
X198230Y394464D01*
X198126Y394419D01*
X198023Y394371D01*
X197922Y394320D01*
X197823Y394265D01*
X197726Y394207D01*
X197631Y394145D01*
X197538Y394080D01*
X197448Y394012D01*
X197360Y393941D01*
X197274Y393866D01*
X197191Y393789D01*
X197111Y393709D01*
X197034Y393626D01*
X196959Y393540D01*
X196888Y393452D01*
X196820Y393362D01*
X196755Y393269D01*
X196693Y393174D01*
X196635Y393077D01*
X196580Y392978D01*
X196529Y392877D01*
X196481Y392774D01*
X196436Y392670D01*
X196396Y392564D01*
X196359Y392457D01*
X196326Y392349D01*
X196296Y392239D01*
X196271Y392129D01*
X196249Y392018D01*
X196232Y391906D01*
X196218Y391793D01*
X196208Y391680D01*
X196202Y391567D01*
X196200Y391454D01*
X196201Y391454D02*
X196201Y388208D01*
X195552Y401188D02*
X195552Y404109D01*
X195552Y401188D02*
X195550Y401094D01*
X195544Y401000D01*
X195535Y400907D01*
X195521Y400814D01*
X195504Y400722D01*
X195482Y400630D01*
X195458Y400540D01*
X195429Y400450D01*
X195397Y400362D01*
X195361Y400275D01*
X195321Y400190D01*
X195278Y400107D01*
X195232Y400025D01*
X195182Y399945D01*
X195129Y399868D01*
X195073Y399793D01*
X195014Y399720D01*
X194952Y399649D01*
X194887Y399581D01*
X194819Y399516D01*
X194748Y399454D01*
X194675Y399395D01*
X194600Y399339D01*
X194523Y399286D01*
X194443Y399236D01*
X194361Y399190D01*
X194278Y399147D01*
X194193Y399107D01*
X194106Y399071D01*
X194018Y399039D01*
X193928Y399010D01*
X193838Y398986D01*
X193746Y398964D01*
X193654Y398947D01*
X193561Y398933D01*
X193468Y398924D01*
X193374Y398918D01*
X193280Y398916D01*
X193186Y398918D01*
X193092Y398924D01*
X192999Y398933D01*
X192906Y398947D01*
X192814Y398964D01*
X192722Y398986D01*
X192632Y399010D01*
X192542Y399039D01*
X192454Y399071D01*
X192367Y399107D01*
X192282Y399147D01*
X192199Y399190D01*
X192117Y399236D01*
X192037Y399286D01*
X191960Y399339D01*
X191885Y399395D01*
X191812Y399454D01*
X191741Y399516D01*
X191673Y399581D01*
X191608Y399649D01*
X191546Y399720D01*
X191487Y399793D01*
X191431Y399868D01*
X191378Y399945D01*
X191328Y400025D01*
X191282Y400107D01*
X191239Y400190D01*
X191199Y400275D01*
X191163Y400362D01*
X191131Y400450D01*
X191102Y400540D01*
X191078Y400630D01*
X191056Y400722D01*
X191039Y400814D01*
X191025Y400907D01*
X191016Y401000D01*
X191010Y401094D01*
X191008Y401188D01*
X191008Y404109D01*
X196850Y404109D01*
X196937Y404107D01*
X197025Y404101D01*
X197111Y404091D01*
X197198Y404078D01*
X197283Y404060D01*
X197368Y404039D01*
X197452Y404014D01*
X197534Y403985D01*
X197615Y403952D01*
X197695Y403916D01*
X197773Y403877D01*
X197849Y403833D01*
X197923Y403787D01*
X197994Y403737D01*
X198064Y403684D01*
X198131Y403628D01*
X198195Y403569D01*
X198257Y403507D01*
X198316Y403443D01*
X198372Y403376D01*
X198425Y403306D01*
X198475Y403235D01*
X198521Y403161D01*
X198565Y403085D01*
X198604Y403007D01*
X198640Y402927D01*
X198673Y402846D01*
X198702Y402764D01*
X198727Y402680D01*
X198748Y402595D01*
X198766Y402510D01*
X198779Y402423D01*
X198789Y402337D01*
X198795Y402249D01*
X198797Y402162D01*
X198797Y399565D01*
X202692Y409412D02*
X192955Y409412D01*
X192868Y409414D01*
X192780Y409420D01*
X192694Y409430D01*
X192607Y409443D01*
X192522Y409461D01*
X192437Y409482D01*
X192353Y409507D01*
X192271Y409536D01*
X192190Y409569D01*
X192110Y409605D01*
X192032Y409644D01*
X191956Y409688D01*
X191882Y409734D01*
X191811Y409784D01*
X191741Y409837D01*
X191674Y409893D01*
X191610Y409952D01*
X191548Y410014D01*
X191489Y410078D01*
X191433Y410145D01*
X191380Y410215D01*
X191330Y410286D01*
X191284Y410360D01*
X191240Y410436D01*
X191201Y410514D01*
X191165Y410594D01*
X191132Y410675D01*
X191103Y410757D01*
X191078Y410841D01*
X191057Y410926D01*
X191039Y411011D01*
X191026Y411098D01*
X191016Y411184D01*
X191010Y411272D01*
X191008Y411359D01*
X191008Y415287D02*
X198797Y415287D01*
X202043Y414963D02*
X202692Y414963D01*
X202692Y415612D01*
X202043Y415612D01*
X202043Y414963D01*
X195552Y420904D02*
X194254Y424149D01*
X195551Y420904D02*
X195584Y420829D01*
X195620Y420755D01*
X195659Y420683D01*
X195702Y420613D01*
X195748Y420546D01*
X195798Y420480D01*
X195850Y420418D01*
X195906Y420357D01*
X195964Y420300D01*
X196025Y420245D01*
X196089Y420194D01*
X196155Y420146D01*
X196224Y420101D01*
X196294Y420059D01*
X196367Y420021D01*
X196441Y419986D01*
X196517Y419955D01*
X196594Y419928D01*
X196673Y419905D01*
X196752Y419885D01*
X196833Y419870D01*
X196914Y419858D01*
X196996Y419850D01*
X197077Y419846D01*
X197159Y419847D01*
X197241Y419851D01*
X197323Y419859D01*
X197404Y419871D01*
X197484Y419887D01*
X197564Y419907D01*
X197642Y419931D01*
X197719Y419959D01*
X197795Y419990D01*
X197869Y420025D01*
X197941Y420063D01*
X198012Y420105D01*
X198080Y420151D01*
X198146Y420199D01*
X198209Y420251D01*
X198270Y420306D01*
X198328Y420364D01*
X198384Y420424D01*
X198436Y420487D01*
X198485Y420553D01*
X198531Y420621D01*
X198573Y420691D01*
X198613Y420763D01*
X198648Y420837D01*
X198680Y420912D01*
X198708Y420989D01*
X198732Y421067D01*
X198753Y421147D01*
X198770Y421227D01*
X198782Y421308D01*
X198791Y421389D01*
X198796Y421471D01*
X198797Y421553D01*
X198797Y421552D02*
X198793Y421729D01*
X198784Y421906D01*
X198770Y422083D01*
X198753Y422260D01*
X198731Y422435D01*
X198706Y422611D01*
X198675Y422785D01*
X198641Y422959D01*
X198603Y423132D01*
X198560Y423304D01*
X198513Y423475D01*
X198463Y423645D01*
X198408Y423814D01*
X198349Y423981D01*
X198286Y424146D01*
X198219Y424311D01*
X198148Y424473D01*
X194254Y424149D02*
X194221Y424224D01*
X194185Y424298D01*
X194146Y424370D01*
X194103Y424440D01*
X194057Y424507D01*
X194007Y424573D01*
X193955Y424635D01*
X193899Y424696D01*
X193841Y424753D01*
X193780Y424808D01*
X193716Y424859D01*
X193650Y424907D01*
X193581Y424952D01*
X193511Y424994D01*
X193438Y425032D01*
X193364Y425067D01*
X193288Y425098D01*
X193211Y425125D01*
X193132Y425148D01*
X193053Y425168D01*
X192972Y425183D01*
X192891Y425195D01*
X192809Y425203D01*
X192728Y425207D01*
X192646Y425206D01*
X192564Y425202D01*
X192482Y425194D01*
X192401Y425182D01*
X192321Y425166D01*
X192241Y425146D01*
X192163Y425122D01*
X192086Y425094D01*
X192010Y425063D01*
X191936Y425028D01*
X191864Y424990D01*
X191793Y424948D01*
X191725Y424902D01*
X191659Y424854D01*
X191596Y424802D01*
X191535Y424747D01*
X191477Y424689D01*
X191421Y424629D01*
X191369Y424566D01*
X191320Y424500D01*
X191274Y424432D01*
X191232Y424362D01*
X191192Y424290D01*
X191157Y424216D01*
X191125Y424141D01*
X191097Y424064D01*
X191073Y423986D01*
X191052Y423906D01*
X191035Y423826D01*
X191023Y423745D01*
X191014Y423664D01*
X191009Y423582D01*
X191008Y423500D01*
X191015Y423240D01*
X191028Y422980D01*
X191047Y422720D01*
X191072Y422461D01*
X191104Y422202D01*
X191141Y421945D01*
X191185Y421688D01*
X191234Y421432D01*
X191290Y421178D01*
X191351Y420925D01*
X191419Y420674D01*
X191493Y420424D01*
X191572Y420176D01*
X191657Y419930D01*
X191008Y436499D02*
X202692Y436499D01*
X202692Y439745D01*
X202690Y439858D01*
X202684Y439971D01*
X202674Y440084D01*
X202660Y440197D01*
X202643Y440309D01*
X202621Y440420D01*
X202596Y440530D01*
X202566Y440640D01*
X202533Y440748D01*
X202496Y440855D01*
X202456Y440961D01*
X202411Y441065D01*
X202363Y441168D01*
X202312Y441269D01*
X202257Y441368D01*
X202199Y441465D01*
X202137Y441560D01*
X202072Y441653D01*
X202004Y441743D01*
X201933Y441831D01*
X201858Y441917D01*
X201781Y442000D01*
X201701Y442080D01*
X201618Y442157D01*
X201532Y442232D01*
X201444Y442303D01*
X201354Y442371D01*
X201261Y442436D01*
X201166Y442498D01*
X201069Y442556D01*
X200970Y442611D01*
X200869Y442662D01*
X200766Y442710D01*
X200662Y442755D01*
X200556Y442795D01*
X200449Y442832D01*
X200341Y442865D01*
X200231Y442895D01*
X200121Y442920D01*
X200010Y442942D01*
X199898Y442959D01*
X199785Y442973D01*
X199672Y442983D01*
X199559Y442989D01*
X199446Y442991D01*
X199333Y442989D01*
X199220Y442983D01*
X199107Y442973D01*
X198994Y442959D01*
X198882Y442942D01*
X198771Y442920D01*
X198661Y442895D01*
X198551Y442865D01*
X198443Y442832D01*
X198336Y442795D01*
X198230Y442755D01*
X198126Y442710D01*
X198023Y442662D01*
X197922Y442611D01*
X197823Y442556D01*
X197726Y442498D01*
X197631Y442436D01*
X197538Y442371D01*
X197448Y442303D01*
X197360Y442232D01*
X197274Y442157D01*
X197191Y442080D01*
X197111Y442000D01*
X197034Y441917D01*
X196959Y441831D01*
X196888Y441743D01*
X196820Y441653D01*
X196755Y441560D01*
X196693Y441465D01*
X196635Y441368D01*
X196580Y441269D01*
X196529Y441168D01*
X196481Y441065D01*
X196436Y440961D01*
X196396Y440855D01*
X196359Y440748D01*
X196326Y440640D01*
X196296Y440530D01*
X196271Y440420D01*
X196249Y440309D01*
X196232Y440197D01*
X196218Y440084D01*
X196208Y439971D01*
X196202Y439858D01*
X196200Y439745D01*
X196201Y439745D02*
X196201Y436499D01*
X196201Y440394D02*
X191008Y442991D01*
X195552Y449956D02*
X195552Y452877D01*
X195552Y449956D02*
X195550Y449862D01*
X195544Y449768D01*
X195535Y449675D01*
X195521Y449582D01*
X195504Y449490D01*
X195482Y449398D01*
X195458Y449308D01*
X195429Y449218D01*
X195397Y449130D01*
X195361Y449043D01*
X195321Y448958D01*
X195278Y448875D01*
X195232Y448793D01*
X195182Y448713D01*
X195129Y448636D01*
X195073Y448561D01*
X195014Y448488D01*
X194952Y448417D01*
X194887Y448349D01*
X194819Y448284D01*
X194748Y448222D01*
X194675Y448163D01*
X194600Y448107D01*
X194523Y448054D01*
X194443Y448004D01*
X194361Y447958D01*
X194278Y447915D01*
X194193Y447875D01*
X194106Y447839D01*
X194018Y447807D01*
X193928Y447778D01*
X193838Y447754D01*
X193746Y447732D01*
X193654Y447715D01*
X193561Y447701D01*
X193468Y447692D01*
X193374Y447686D01*
X193280Y447684D01*
X193186Y447686D01*
X193092Y447692D01*
X192999Y447701D01*
X192906Y447715D01*
X192814Y447732D01*
X192722Y447754D01*
X192632Y447778D01*
X192542Y447807D01*
X192454Y447839D01*
X192367Y447875D01*
X192282Y447915D01*
X192199Y447958D01*
X192117Y448004D01*
X192037Y448054D01*
X191960Y448107D01*
X191885Y448163D01*
X191812Y448222D01*
X191741Y448284D01*
X191673Y448349D01*
X191608Y448417D01*
X191546Y448488D01*
X191487Y448561D01*
X191431Y448636D01*
X191378Y448713D01*
X191328Y448793D01*
X191282Y448875D01*
X191239Y448958D01*
X191199Y449043D01*
X191163Y449130D01*
X191131Y449218D01*
X191102Y449308D01*
X191078Y449398D01*
X191056Y449490D01*
X191039Y449582D01*
X191025Y449675D01*
X191016Y449768D01*
X191010Y449862D01*
X191008Y449956D01*
X191008Y452877D01*
X196850Y452877D01*
X196937Y452875D01*
X197025Y452869D01*
X197111Y452859D01*
X197198Y452846D01*
X197283Y452828D01*
X197368Y452807D01*
X197452Y452782D01*
X197534Y452753D01*
X197615Y452720D01*
X197695Y452684D01*
X197773Y452645D01*
X197849Y452601D01*
X197923Y452555D01*
X197994Y452505D01*
X198064Y452452D01*
X198131Y452396D01*
X198195Y452337D01*
X198257Y452275D01*
X198316Y452211D01*
X198372Y452144D01*
X198425Y452074D01*
X198475Y452003D01*
X198521Y451929D01*
X198565Y451853D01*
X198604Y451775D01*
X198640Y451695D01*
X198673Y451614D01*
X198702Y451532D01*
X198727Y451448D01*
X198748Y451363D01*
X198766Y451278D01*
X198779Y451191D01*
X198789Y451105D01*
X198795Y451017D01*
X198797Y450930D01*
X198797Y448333D01*
X198797Y457063D02*
X198797Y460957D01*
X202692Y458361D02*
X192955Y458361D01*
X192868Y458363D01*
X192780Y458369D01*
X192694Y458379D01*
X192607Y458392D01*
X192522Y458410D01*
X192437Y458431D01*
X192353Y458456D01*
X192271Y458485D01*
X192190Y458518D01*
X192110Y458554D01*
X192032Y458593D01*
X191956Y458637D01*
X191882Y458683D01*
X191811Y458733D01*
X191741Y458786D01*
X191674Y458842D01*
X191610Y458901D01*
X191548Y458963D01*
X191489Y459027D01*
X191433Y459094D01*
X191380Y459164D01*
X191330Y459235D01*
X191284Y459309D01*
X191240Y459385D01*
X191201Y459463D01*
X191165Y459543D01*
X191132Y459624D01*
X191103Y459706D01*
X191078Y459790D01*
X191057Y459875D01*
X191039Y459960D01*
X191026Y460047D01*
X191016Y460133D01*
X191010Y460221D01*
X191008Y460308D01*
X191008Y460957D01*
X195552Y467482D02*
X195552Y470403D01*
X195552Y467482D02*
X195550Y467388D01*
X195544Y467294D01*
X195535Y467201D01*
X195521Y467108D01*
X195504Y467016D01*
X195482Y466924D01*
X195458Y466834D01*
X195429Y466744D01*
X195397Y466656D01*
X195361Y466569D01*
X195321Y466484D01*
X195278Y466401D01*
X195232Y466319D01*
X195182Y466239D01*
X195129Y466162D01*
X195073Y466087D01*
X195014Y466014D01*
X194952Y465943D01*
X194887Y465875D01*
X194819Y465810D01*
X194748Y465748D01*
X194675Y465689D01*
X194600Y465633D01*
X194523Y465580D01*
X194443Y465530D01*
X194361Y465484D01*
X194278Y465441D01*
X194193Y465401D01*
X194106Y465365D01*
X194018Y465333D01*
X193928Y465304D01*
X193838Y465280D01*
X193746Y465258D01*
X193654Y465241D01*
X193561Y465227D01*
X193468Y465218D01*
X193374Y465212D01*
X193280Y465210D01*
X193186Y465212D01*
X193092Y465218D01*
X192999Y465227D01*
X192906Y465241D01*
X192814Y465258D01*
X192722Y465280D01*
X192632Y465304D01*
X192542Y465333D01*
X192454Y465365D01*
X192367Y465401D01*
X192282Y465441D01*
X192199Y465484D01*
X192117Y465530D01*
X192037Y465580D01*
X191960Y465633D01*
X191885Y465689D01*
X191812Y465748D01*
X191741Y465810D01*
X191673Y465875D01*
X191608Y465943D01*
X191546Y466014D01*
X191487Y466087D01*
X191431Y466162D01*
X191378Y466239D01*
X191328Y466319D01*
X191282Y466401D01*
X191239Y466484D01*
X191199Y466569D01*
X191163Y466656D01*
X191131Y466744D01*
X191102Y466834D01*
X191078Y466924D01*
X191056Y467016D01*
X191039Y467108D01*
X191025Y467201D01*
X191016Y467294D01*
X191010Y467388D01*
X191008Y467482D01*
X191008Y470403D01*
X196850Y470403D01*
X196937Y470401D01*
X197025Y470395D01*
X197111Y470385D01*
X197198Y470372D01*
X197283Y470354D01*
X197368Y470333D01*
X197452Y470308D01*
X197534Y470279D01*
X197615Y470246D01*
X197695Y470210D01*
X197773Y470171D01*
X197849Y470127D01*
X197923Y470081D01*
X197994Y470031D01*
X198064Y469978D01*
X198131Y469922D01*
X198195Y469863D01*
X198257Y469801D01*
X198316Y469737D01*
X198372Y469670D01*
X198425Y469600D01*
X198475Y469529D01*
X198521Y469455D01*
X198565Y469379D01*
X198604Y469301D01*
X198640Y469221D01*
X198673Y469140D01*
X198702Y469058D01*
X198727Y468974D01*
X198748Y468889D01*
X198766Y468804D01*
X198779Y468717D01*
X198789Y468631D01*
X198795Y468543D01*
X198797Y468456D01*
X198797Y465859D01*
X198797Y475937D02*
X191008Y475937D01*
X198797Y475937D02*
X198797Y479182D01*
X198795Y479269D01*
X198789Y479357D01*
X198779Y479443D01*
X198766Y479530D01*
X198748Y479615D01*
X198727Y479700D01*
X198702Y479784D01*
X198673Y479866D01*
X198640Y479947D01*
X198604Y480027D01*
X198565Y480105D01*
X198521Y480181D01*
X198475Y480255D01*
X198425Y480326D01*
X198372Y480396D01*
X198316Y480463D01*
X198257Y480527D01*
X198195Y480589D01*
X198131Y480648D01*
X198064Y480704D01*
X197994Y480757D01*
X197923Y480807D01*
X197849Y480853D01*
X197773Y480897D01*
X197695Y480936D01*
X197615Y480972D01*
X197534Y481005D01*
X197452Y481034D01*
X197368Y481059D01*
X197283Y481080D01*
X197198Y481098D01*
X197111Y481111D01*
X197025Y481121D01*
X196937Y481127D01*
X196850Y481129D01*
X196850Y481130D02*
X191008Y481130D01*
X195552Y488437D02*
X195552Y491358D01*
X195552Y488437D02*
X195550Y488343D01*
X195544Y488249D01*
X195535Y488156D01*
X195521Y488063D01*
X195504Y487971D01*
X195482Y487879D01*
X195458Y487789D01*
X195429Y487699D01*
X195397Y487611D01*
X195361Y487524D01*
X195321Y487439D01*
X195278Y487356D01*
X195232Y487274D01*
X195182Y487194D01*
X195129Y487117D01*
X195073Y487042D01*
X195014Y486969D01*
X194952Y486898D01*
X194887Y486830D01*
X194819Y486765D01*
X194748Y486703D01*
X194675Y486644D01*
X194600Y486588D01*
X194523Y486535D01*
X194443Y486485D01*
X194361Y486439D01*
X194278Y486396D01*
X194193Y486356D01*
X194106Y486320D01*
X194018Y486288D01*
X193928Y486259D01*
X193838Y486235D01*
X193746Y486213D01*
X193654Y486196D01*
X193561Y486182D01*
X193468Y486173D01*
X193374Y486167D01*
X193280Y486165D01*
X193186Y486167D01*
X193092Y486173D01*
X192999Y486182D01*
X192906Y486196D01*
X192814Y486213D01*
X192722Y486235D01*
X192632Y486259D01*
X192542Y486288D01*
X192454Y486320D01*
X192367Y486356D01*
X192282Y486396D01*
X192199Y486439D01*
X192117Y486485D01*
X192037Y486535D01*
X191960Y486588D01*
X191885Y486644D01*
X191812Y486703D01*
X191741Y486765D01*
X191673Y486830D01*
X191608Y486898D01*
X191546Y486969D01*
X191487Y487042D01*
X191431Y487117D01*
X191378Y487194D01*
X191328Y487274D01*
X191282Y487356D01*
X191239Y487439D01*
X191199Y487524D01*
X191163Y487611D01*
X191131Y487699D01*
X191102Y487789D01*
X191078Y487879D01*
X191056Y487971D01*
X191039Y488063D01*
X191025Y488156D01*
X191016Y488249D01*
X191010Y488343D01*
X191008Y488437D01*
X191008Y491358D01*
X196850Y491358D01*
X196850Y491357D02*
X196937Y491355D01*
X197025Y491349D01*
X197111Y491339D01*
X197198Y491326D01*
X197283Y491308D01*
X197368Y491287D01*
X197452Y491262D01*
X197534Y491233D01*
X197615Y491200D01*
X197695Y491164D01*
X197773Y491125D01*
X197849Y491081D01*
X197923Y491035D01*
X197994Y490985D01*
X198064Y490932D01*
X198131Y490876D01*
X198195Y490817D01*
X198257Y490755D01*
X198316Y490691D01*
X198372Y490624D01*
X198425Y490554D01*
X198475Y490483D01*
X198521Y490409D01*
X198565Y490333D01*
X198604Y490255D01*
X198640Y490175D01*
X198673Y490094D01*
X198702Y490012D01*
X198727Y489928D01*
X198748Y489843D01*
X198766Y489758D01*
X198779Y489671D01*
X198789Y489585D01*
X198795Y489497D01*
X198797Y489410D01*
X198797Y486814D01*
X195552Y497484D02*
X194254Y500730D01*
X195551Y497485D02*
X195584Y497410D01*
X195620Y497336D01*
X195659Y497264D01*
X195702Y497194D01*
X195748Y497127D01*
X195798Y497061D01*
X195850Y496999D01*
X195906Y496938D01*
X195964Y496881D01*
X196025Y496826D01*
X196089Y496775D01*
X196155Y496727D01*
X196224Y496682D01*
X196294Y496640D01*
X196367Y496602D01*
X196441Y496567D01*
X196517Y496536D01*
X196594Y496509D01*
X196673Y496486D01*
X196752Y496466D01*
X196833Y496451D01*
X196914Y496439D01*
X196996Y496431D01*
X197077Y496427D01*
X197159Y496428D01*
X197241Y496432D01*
X197323Y496440D01*
X197404Y496452D01*
X197484Y496468D01*
X197564Y496488D01*
X197642Y496512D01*
X197719Y496540D01*
X197795Y496571D01*
X197869Y496606D01*
X197941Y496644D01*
X198012Y496686D01*
X198080Y496732D01*
X198146Y496780D01*
X198209Y496832D01*
X198270Y496887D01*
X198328Y496945D01*
X198384Y497005D01*
X198436Y497068D01*
X198485Y497134D01*
X198531Y497202D01*
X198573Y497272D01*
X198613Y497344D01*
X198648Y497418D01*
X198680Y497493D01*
X198708Y497570D01*
X198732Y497648D01*
X198753Y497728D01*
X198770Y497808D01*
X198782Y497889D01*
X198791Y497970D01*
X198796Y498052D01*
X198797Y498134D01*
X198797Y498133D02*
X198793Y498310D01*
X198784Y498487D01*
X198770Y498664D01*
X198753Y498841D01*
X198731Y499016D01*
X198706Y499192D01*
X198675Y499366D01*
X198641Y499540D01*
X198603Y499713D01*
X198560Y499885D01*
X198513Y500056D01*
X198463Y500226D01*
X198408Y500395D01*
X198349Y500562D01*
X198286Y500727D01*
X198219Y500892D01*
X198148Y501054D01*
X194254Y500730D02*
X194221Y500805D01*
X194185Y500879D01*
X194146Y500951D01*
X194103Y501021D01*
X194057Y501088D01*
X194007Y501154D01*
X193955Y501216D01*
X193899Y501277D01*
X193841Y501334D01*
X193780Y501389D01*
X193716Y501440D01*
X193650Y501488D01*
X193581Y501533D01*
X193511Y501575D01*
X193438Y501613D01*
X193364Y501648D01*
X193288Y501679D01*
X193211Y501706D01*
X193132Y501729D01*
X193053Y501749D01*
X192972Y501764D01*
X192891Y501776D01*
X192809Y501784D01*
X192728Y501788D01*
X192646Y501787D01*
X192564Y501783D01*
X192482Y501775D01*
X192401Y501763D01*
X192321Y501747D01*
X192241Y501727D01*
X192163Y501703D01*
X192086Y501675D01*
X192010Y501644D01*
X191936Y501609D01*
X191864Y501571D01*
X191793Y501529D01*
X191725Y501483D01*
X191659Y501435D01*
X191596Y501383D01*
X191535Y501328D01*
X191477Y501270D01*
X191421Y501210D01*
X191369Y501147D01*
X191320Y501081D01*
X191274Y501013D01*
X191232Y500943D01*
X191192Y500871D01*
X191157Y500797D01*
X191125Y500722D01*
X191097Y500645D01*
X191073Y500567D01*
X191052Y500487D01*
X191035Y500407D01*
X191023Y500326D01*
X191014Y500245D01*
X191009Y500163D01*
X191008Y500081D01*
X191015Y499821D01*
X191028Y499561D01*
X191047Y499301D01*
X191072Y499042D01*
X191104Y498783D01*
X191141Y498526D01*
X191185Y498269D01*
X191234Y498013D01*
X191290Y497759D01*
X191351Y497506D01*
X191419Y497255D01*
X191493Y497005D01*
X191572Y496757D01*
X191657Y496511D01*
X191008Y508209D02*
X198797Y506262D01*
X196201Y510156D02*
X191008Y508209D01*
X191008Y512104D02*
X196201Y510156D01*
X198797Y514051D02*
X191008Y512104D01*
X195552Y520822D02*
X195552Y523743D01*
X195552Y520822D02*
X195550Y520728D01*
X195544Y520634D01*
X195535Y520541D01*
X195521Y520448D01*
X195504Y520356D01*
X195482Y520264D01*
X195458Y520174D01*
X195429Y520084D01*
X195397Y519996D01*
X195361Y519909D01*
X195321Y519824D01*
X195278Y519741D01*
X195232Y519659D01*
X195182Y519579D01*
X195129Y519502D01*
X195073Y519427D01*
X195014Y519354D01*
X194952Y519283D01*
X194887Y519215D01*
X194819Y519150D01*
X194748Y519088D01*
X194675Y519029D01*
X194600Y518973D01*
X194523Y518920D01*
X194443Y518870D01*
X194361Y518824D01*
X194278Y518781D01*
X194193Y518741D01*
X194106Y518705D01*
X194018Y518673D01*
X193928Y518644D01*
X193838Y518620D01*
X193746Y518598D01*
X193654Y518581D01*
X193561Y518567D01*
X193468Y518558D01*
X193374Y518552D01*
X193280Y518550D01*
X193186Y518552D01*
X193092Y518558D01*
X192999Y518567D01*
X192906Y518581D01*
X192814Y518598D01*
X192722Y518620D01*
X192632Y518644D01*
X192542Y518673D01*
X192454Y518705D01*
X192367Y518741D01*
X192282Y518781D01*
X192199Y518824D01*
X192117Y518870D01*
X192037Y518920D01*
X191960Y518973D01*
X191885Y519029D01*
X191812Y519088D01*
X191741Y519150D01*
X191673Y519215D01*
X191608Y519283D01*
X191546Y519354D01*
X191487Y519427D01*
X191431Y519502D01*
X191378Y519579D01*
X191328Y519659D01*
X191282Y519741D01*
X191239Y519824D01*
X191199Y519909D01*
X191163Y519996D01*
X191131Y520084D01*
X191102Y520174D01*
X191078Y520264D01*
X191056Y520356D01*
X191039Y520448D01*
X191025Y520541D01*
X191016Y520634D01*
X191010Y520728D01*
X191008Y520822D01*
X191008Y523743D01*
X196850Y523743D01*
X196850Y523742D02*
X196937Y523740D01*
X197025Y523734D01*
X197111Y523724D01*
X197198Y523711D01*
X197283Y523693D01*
X197368Y523672D01*
X197452Y523647D01*
X197534Y523618D01*
X197615Y523585D01*
X197695Y523549D01*
X197773Y523510D01*
X197849Y523466D01*
X197923Y523420D01*
X197994Y523370D01*
X198064Y523317D01*
X198131Y523261D01*
X198195Y523202D01*
X198257Y523140D01*
X198316Y523076D01*
X198372Y523009D01*
X198425Y522939D01*
X198475Y522868D01*
X198521Y522794D01*
X198565Y522718D01*
X198604Y522640D01*
X198640Y522560D01*
X198673Y522479D01*
X198702Y522397D01*
X198727Y522313D01*
X198748Y522228D01*
X198766Y522143D01*
X198779Y522056D01*
X198789Y521970D01*
X198795Y521882D01*
X198797Y521795D01*
X198797Y519199D01*
X195552Y529869D02*
X194254Y533115D01*
X195551Y529870D02*
X195584Y529795D01*
X195620Y529721D01*
X195659Y529649D01*
X195702Y529579D01*
X195748Y529512D01*
X195798Y529446D01*
X195850Y529384D01*
X195906Y529323D01*
X195964Y529266D01*
X196025Y529211D01*
X196089Y529160D01*
X196155Y529112D01*
X196224Y529067D01*
X196294Y529025D01*
X196367Y528987D01*
X196441Y528952D01*
X196517Y528921D01*
X196594Y528894D01*
X196673Y528871D01*
X196752Y528851D01*
X196833Y528836D01*
X196914Y528824D01*
X196996Y528816D01*
X197077Y528812D01*
X197159Y528813D01*
X197241Y528817D01*
X197323Y528825D01*
X197404Y528837D01*
X197484Y528853D01*
X197564Y528873D01*
X197642Y528897D01*
X197719Y528925D01*
X197795Y528956D01*
X197869Y528991D01*
X197941Y529029D01*
X198012Y529071D01*
X198080Y529117D01*
X198146Y529165D01*
X198209Y529217D01*
X198270Y529272D01*
X198328Y529330D01*
X198384Y529390D01*
X198436Y529453D01*
X198485Y529519D01*
X198531Y529587D01*
X198573Y529657D01*
X198613Y529729D01*
X198648Y529803D01*
X198680Y529878D01*
X198708Y529955D01*
X198732Y530033D01*
X198753Y530113D01*
X198770Y530193D01*
X198782Y530274D01*
X198791Y530355D01*
X198796Y530437D01*
X198797Y530519D01*
X198797Y530518D02*
X198793Y530695D01*
X198784Y530872D01*
X198770Y531049D01*
X198753Y531226D01*
X198731Y531401D01*
X198706Y531577D01*
X198675Y531751D01*
X198641Y531925D01*
X198603Y532098D01*
X198560Y532270D01*
X198513Y532441D01*
X198463Y532611D01*
X198408Y532780D01*
X198349Y532947D01*
X198286Y533112D01*
X198219Y533277D01*
X198148Y533439D01*
X194254Y533115D02*
X194221Y533190D01*
X194185Y533264D01*
X194146Y533336D01*
X194103Y533406D01*
X194057Y533473D01*
X194007Y533539D01*
X193955Y533601D01*
X193899Y533662D01*
X193841Y533719D01*
X193780Y533774D01*
X193716Y533825D01*
X193650Y533873D01*
X193581Y533918D01*
X193511Y533960D01*
X193438Y533998D01*
X193364Y534033D01*
X193288Y534064D01*
X193211Y534091D01*
X193132Y534114D01*
X193053Y534134D01*
X192972Y534149D01*
X192891Y534161D01*
X192809Y534169D01*
X192728Y534173D01*
X192646Y534172D01*
X192564Y534168D01*
X192482Y534160D01*
X192401Y534148D01*
X192321Y534132D01*
X192241Y534112D01*
X192163Y534088D01*
X192086Y534060D01*
X192010Y534029D01*
X191936Y533994D01*
X191864Y533956D01*
X191793Y533914D01*
X191725Y533868D01*
X191659Y533820D01*
X191596Y533768D01*
X191535Y533713D01*
X191477Y533655D01*
X191421Y533595D01*
X191369Y533532D01*
X191320Y533466D01*
X191274Y533398D01*
X191232Y533328D01*
X191192Y533256D01*
X191157Y533182D01*
X191125Y533107D01*
X191097Y533030D01*
X191073Y532952D01*
X191052Y532872D01*
X191035Y532792D01*
X191023Y532711D01*
X191014Y532630D01*
X191009Y532548D01*
X191008Y532466D01*
X191015Y532206D01*
X191028Y531946D01*
X191047Y531686D01*
X191072Y531427D01*
X191104Y531168D01*
X191141Y530911D01*
X191185Y530654D01*
X191234Y530398D01*
X191290Y530144D01*
X191351Y529891D01*
X191419Y529640D01*
X191493Y529390D01*
X191572Y529142D01*
X191657Y528896D01*
X191008Y543936D02*
X202692Y543936D01*
X191008Y543936D02*
X191008Y540690D01*
X191010Y540603D01*
X191016Y540515D01*
X191026Y540429D01*
X191039Y540342D01*
X191057Y540257D01*
X191078Y540172D01*
X191103Y540088D01*
X191132Y540006D01*
X191165Y539925D01*
X191201Y539845D01*
X191240Y539767D01*
X191284Y539691D01*
X191330Y539617D01*
X191380Y539546D01*
X191433Y539476D01*
X191489Y539409D01*
X191548Y539345D01*
X191610Y539283D01*
X191674Y539224D01*
X191741Y539168D01*
X191811Y539115D01*
X191882Y539065D01*
X191956Y539019D01*
X192032Y538975D01*
X192110Y538936D01*
X192190Y538900D01*
X192271Y538867D01*
X192353Y538838D01*
X192437Y538813D01*
X192522Y538792D01*
X192607Y538774D01*
X192694Y538761D01*
X192780Y538751D01*
X192868Y538745D01*
X192955Y538743D01*
X196850Y538743D01*
X196937Y538745D01*
X197025Y538751D01*
X197111Y538761D01*
X197198Y538774D01*
X197283Y538792D01*
X197368Y538813D01*
X197452Y538838D01*
X197534Y538867D01*
X197615Y538900D01*
X197695Y538936D01*
X197773Y538975D01*
X197849Y539019D01*
X197923Y539065D01*
X197994Y539115D01*
X198064Y539168D01*
X198131Y539224D01*
X198195Y539283D01*
X198257Y539345D01*
X198316Y539409D01*
X198372Y539476D01*
X198425Y539546D01*
X198475Y539617D01*
X198521Y539691D01*
X198565Y539767D01*
X198604Y539845D01*
X198640Y539925D01*
X198673Y540006D01*
X198702Y540088D01*
X198727Y540172D01*
X198748Y540257D01*
X198766Y540342D01*
X198779Y540429D01*
X198789Y540515D01*
X198795Y540603D01*
X198797Y540690D01*
X198797Y543936D01*
D12*
X711200Y412750D02*
X711200Y400050D01*
X717550Y393700D01*
X730250Y393700D01*
X736600Y400050D01*
X730250Y419100D02*
X717550Y419100D01*
X711200Y412750D01*
X730250Y419100D02*
X736600Y412750D01*
X736600Y400050D01*
X717550Y393700D02*
X711200Y387350D01*
X711200Y374650D01*
X717550Y368300D01*
X730250Y368300D01*
X736600Y374650D01*
X736600Y387350D01*
X730250Y393700D01*
D13*
X735457Y426593D02*
X735457Y435483D01*
X735457Y426593D02*
X735459Y426493D01*
X735465Y426394D01*
X735475Y426294D01*
X735488Y426196D01*
X735506Y426097D01*
X735527Y426000D01*
X735552Y425904D01*
X735581Y425808D01*
X735614Y425714D01*
X735650Y425621D01*
X735690Y425530D01*
X735734Y425440D01*
X735781Y425352D01*
X735831Y425266D01*
X735885Y425182D01*
X735942Y425100D01*
X736002Y425021D01*
X736066Y424943D01*
X736132Y424869D01*
X736201Y424797D01*
X736273Y424728D01*
X736347Y424662D01*
X736425Y424598D01*
X736504Y424538D01*
X736586Y424481D01*
X736670Y424427D01*
X736756Y424377D01*
X736844Y424330D01*
X736934Y424286D01*
X737025Y424246D01*
X737118Y424210D01*
X737212Y424177D01*
X737308Y424148D01*
X737404Y424123D01*
X737501Y424102D01*
X737600Y424084D01*
X737698Y424071D01*
X737798Y424061D01*
X737897Y424055D01*
X737997Y424053D01*
X739267Y424053D01*
X729477Y424053D02*
X729477Y435483D01*
X726302Y435483D01*
X726191Y435481D01*
X726081Y435475D01*
X725970Y435466D01*
X725860Y435452D01*
X725751Y435435D01*
X725642Y435414D01*
X725534Y435389D01*
X725427Y435360D01*
X725321Y435328D01*
X725216Y435292D01*
X725113Y435252D01*
X725011Y435209D01*
X724910Y435162D01*
X724811Y435111D01*
X724715Y435058D01*
X724620Y435001D01*
X724527Y434940D01*
X724436Y434877D01*
X724347Y434810D01*
X724261Y434740D01*
X724178Y434667D01*
X724096Y434592D01*
X724018Y434514D01*
X723943Y434432D01*
X723870Y434349D01*
X723800Y434263D01*
X723733Y434174D01*
X723670Y434083D01*
X723609Y433990D01*
X723552Y433896D01*
X723499Y433799D01*
X723448Y433700D01*
X723401Y433599D01*
X723358Y433497D01*
X723318Y433394D01*
X723282Y433289D01*
X723250Y433183D01*
X723221Y433076D01*
X723196Y432968D01*
X723175Y432859D01*
X723158Y432750D01*
X723144Y432640D01*
X723135Y432529D01*
X723129Y432419D01*
X723127Y432308D01*
X723129Y432197D01*
X723135Y432087D01*
X723144Y431976D01*
X723158Y431866D01*
X723175Y431757D01*
X723196Y431648D01*
X723221Y431540D01*
X723250Y431433D01*
X723282Y431327D01*
X723318Y431222D01*
X723358Y431119D01*
X723401Y431017D01*
X723448Y430916D01*
X723499Y430817D01*
X723552Y430721D01*
X723609Y430626D01*
X723670Y430533D01*
X723733Y430442D01*
X723800Y430353D01*
X723870Y430267D01*
X723943Y430184D01*
X724018Y430102D01*
X724096Y430024D01*
X724178Y429949D01*
X724261Y429876D01*
X724347Y429806D01*
X724436Y429739D01*
X724527Y429676D01*
X724620Y429615D01*
X724715Y429558D01*
X724811Y429505D01*
X724910Y429454D01*
X725011Y429407D01*
X725113Y429364D01*
X725216Y429324D01*
X725321Y429288D01*
X725427Y429256D01*
X725534Y429227D01*
X725642Y429202D01*
X725751Y429181D01*
X725860Y429164D01*
X725970Y429150D01*
X726081Y429141D01*
X726191Y429135D01*
X726302Y429133D01*
X729477Y429133D01*
X718618Y432943D02*
X715443Y435483D01*
X715443Y424053D01*
X718618Y424053D02*
X712268Y424053D01*
D12*
X749300Y488950D02*
X749300Y501650D01*
X742950Y508000D01*
X730250Y508000D01*
X723900Y501650D01*
X742950Y508000D02*
X749300Y514350D01*
X749300Y527050D01*
X742950Y533400D01*
X730250Y533400D01*
X723900Y527050D01*
X723900Y514350D01*
X730250Y508000D01*
X730250Y482600D02*
X742950Y482600D01*
X749300Y488950D01*
X730250Y482600D02*
X723900Y488950D01*
X723900Y501650D01*
X742950Y533400D02*
X749300Y539750D01*
X749300Y552450D01*
X742950Y558800D01*
X730250Y558800D01*
X723900Y552450D01*
X723900Y539750D01*
X730250Y533400D01*
D13*
X746887Y565023D02*
X746887Y573913D01*
X746887Y565023D02*
X746889Y564923D01*
X746895Y564824D01*
X746905Y564724D01*
X746918Y564626D01*
X746936Y564527D01*
X746957Y564430D01*
X746982Y564334D01*
X747011Y564238D01*
X747044Y564144D01*
X747080Y564051D01*
X747120Y563960D01*
X747164Y563870D01*
X747211Y563782D01*
X747261Y563696D01*
X747315Y563612D01*
X747372Y563530D01*
X747432Y563451D01*
X747496Y563373D01*
X747562Y563299D01*
X747631Y563227D01*
X747703Y563158D01*
X747777Y563092D01*
X747855Y563028D01*
X747934Y562968D01*
X748016Y562911D01*
X748100Y562857D01*
X748186Y562807D01*
X748274Y562760D01*
X748364Y562716D01*
X748455Y562676D01*
X748548Y562640D01*
X748642Y562607D01*
X748738Y562578D01*
X748834Y562553D01*
X748931Y562532D01*
X749030Y562514D01*
X749128Y562501D01*
X749228Y562491D01*
X749327Y562485D01*
X749427Y562483D01*
X750697Y562483D01*
X740907Y562483D02*
X740907Y573913D01*
X737732Y573913D01*
X737621Y573911D01*
X737511Y573905D01*
X737400Y573896D01*
X737290Y573882D01*
X737181Y573865D01*
X737072Y573844D01*
X736964Y573819D01*
X736857Y573790D01*
X736751Y573758D01*
X736646Y573722D01*
X736543Y573682D01*
X736441Y573639D01*
X736340Y573592D01*
X736241Y573541D01*
X736145Y573488D01*
X736050Y573431D01*
X735957Y573370D01*
X735866Y573307D01*
X735777Y573240D01*
X735691Y573170D01*
X735608Y573097D01*
X735526Y573022D01*
X735448Y572944D01*
X735373Y572862D01*
X735300Y572779D01*
X735230Y572693D01*
X735163Y572604D01*
X735100Y572513D01*
X735039Y572420D01*
X734982Y572326D01*
X734929Y572229D01*
X734878Y572130D01*
X734831Y572029D01*
X734788Y571927D01*
X734748Y571824D01*
X734712Y571719D01*
X734680Y571613D01*
X734651Y571506D01*
X734626Y571398D01*
X734605Y571289D01*
X734588Y571180D01*
X734574Y571070D01*
X734565Y570959D01*
X734559Y570849D01*
X734557Y570738D01*
X734559Y570627D01*
X734565Y570517D01*
X734574Y570406D01*
X734588Y570296D01*
X734605Y570187D01*
X734626Y570078D01*
X734651Y569970D01*
X734680Y569863D01*
X734712Y569757D01*
X734748Y569652D01*
X734788Y569549D01*
X734831Y569447D01*
X734878Y569346D01*
X734929Y569247D01*
X734982Y569151D01*
X735039Y569056D01*
X735100Y568963D01*
X735163Y568872D01*
X735230Y568783D01*
X735300Y568697D01*
X735373Y568614D01*
X735448Y568532D01*
X735526Y568454D01*
X735608Y568379D01*
X735691Y568306D01*
X735777Y568236D01*
X735866Y568169D01*
X735957Y568106D01*
X736050Y568045D01*
X736145Y567988D01*
X736241Y567935D01*
X736340Y567884D01*
X736441Y567837D01*
X736543Y567794D01*
X736646Y567754D01*
X736751Y567718D01*
X736857Y567686D01*
X736964Y567657D01*
X737072Y567632D01*
X737181Y567611D01*
X737290Y567594D01*
X737400Y567580D01*
X737511Y567571D01*
X737621Y567565D01*
X737732Y567563D01*
X740907Y567563D01*
X726556Y573914D02*
X726452Y573912D01*
X726347Y573906D01*
X726243Y573897D01*
X726140Y573884D01*
X726037Y573866D01*
X725935Y573846D01*
X725833Y573821D01*
X725733Y573793D01*
X725633Y573761D01*
X725535Y573725D01*
X725438Y573686D01*
X725343Y573644D01*
X725249Y573598D01*
X725157Y573548D01*
X725067Y573496D01*
X724979Y573440D01*
X724893Y573380D01*
X724809Y573318D01*
X724728Y573253D01*
X724649Y573185D01*
X724572Y573113D01*
X724499Y573040D01*
X724427Y572963D01*
X724359Y572884D01*
X724294Y572803D01*
X724232Y572719D01*
X724172Y572633D01*
X724116Y572545D01*
X724064Y572455D01*
X724014Y572363D01*
X723968Y572269D01*
X723926Y572174D01*
X723887Y572077D01*
X723851Y571979D01*
X723819Y571879D01*
X723791Y571779D01*
X723766Y571677D01*
X723746Y571575D01*
X723728Y571472D01*
X723715Y571369D01*
X723706Y571265D01*
X723700Y571160D01*
X723698Y571056D01*
X726556Y573913D02*
X726674Y573911D01*
X726793Y573905D01*
X726911Y573896D01*
X727028Y573883D01*
X727145Y573865D01*
X727262Y573845D01*
X727378Y573820D01*
X727493Y573792D01*
X727606Y573759D01*
X727719Y573724D01*
X727831Y573684D01*
X727941Y573642D01*
X728050Y573595D01*
X728158Y573545D01*
X728263Y573492D01*
X728367Y573435D01*
X728469Y573375D01*
X728569Y573312D01*
X728667Y573245D01*
X728763Y573176D01*
X728856Y573103D01*
X728947Y573027D01*
X729036Y572949D01*
X729122Y572867D01*
X729205Y572783D01*
X729286Y572697D01*
X729363Y572607D01*
X729438Y572516D01*
X729510Y572422D01*
X729579Y572325D01*
X729644Y572227D01*
X729707Y572126D01*
X729766Y572023D01*
X729822Y571919D01*
X729874Y571813D01*
X729923Y571705D01*
X729968Y571596D01*
X730010Y571485D01*
X730048Y571373D01*
X724650Y568834D02*
X724574Y568909D01*
X724499Y568988D01*
X724428Y569069D01*
X724359Y569153D01*
X724294Y569239D01*
X724232Y569327D01*
X724172Y569417D01*
X724116Y569509D01*
X724063Y569604D01*
X724014Y569700D01*
X723968Y569798D01*
X723925Y569897D01*
X723886Y569998D01*
X723851Y570100D01*
X723819Y570203D01*
X723791Y570307D01*
X723766Y570412D01*
X723745Y570519D01*
X723728Y570625D01*
X723715Y570732D01*
X723706Y570840D01*
X723700Y570948D01*
X723698Y571056D01*
X724651Y568833D02*
X730048Y562483D01*
X723698Y562483D01*
D12*
X615950Y304800D02*
X603250Y304800D01*
X615950Y304800D02*
X622300Y311150D01*
X622300Y323850D01*
X615950Y330200D01*
X596900Y323850D02*
X596900Y311150D01*
X603250Y304800D01*
X596900Y323850D02*
X603250Y330200D01*
X615950Y330200D01*
X622300Y311150D02*
X628650Y304800D01*
X641350Y304800D01*
X647700Y311150D01*
X647700Y323850D01*
X641350Y330200D01*
X628650Y330200D01*
X622300Y323850D01*
D13*
X632662Y337947D02*
X632662Y346837D01*
X632662Y337947D02*
X632664Y337847D01*
X632670Y337748D01*
X632680Y337648D01*
X632693Y337550D01*
X632711Y337451D01*
X632732Y337354D01*
X632757Y337258D01*
X632786Y337162D01*
X632819Y337068D01*
X632855Y336975D01*
X632895Y336884D01*
X632939Y336794D01*
X632986Y336706D01*
X633036Y336620D01*
X633090Y336536D01*
X633147Y336454D01*
X633207Y336375D01*
X633271Y336297D01*
X633337Y336223D01*
X633406Y336151D01*
X633478Y336082D01*
X633552Y336016D01*
X633630Y335952D01*
X633709Y335892D01*
X633791Y335835D01*
X633875Y335781D01*
X633961Y335731D01*
X634049Y335684D01*
X634139Y335640D01*
X634230Y335600D01*
X634323Y335564D01*
X634417Y335531D01*
X634513Y335502D01*
X634609Y335477D01*
X634706Y335456D01*
X634805Y335438D01*
X634903Y335425D01*
X635003Y335415D01*
X635102Y335409D01*
X635202Y335407D01*
X636472Y335407D01*
X626682Y335407D02*
X626682Y346837D01*
X623507Y346837D01*
X623396Y346835D01*
X623286Y346829D01*
X623175Y346820D01*
X623065Y346806D01*
X622956Y346789D01*
X622847Y346768D01*
X622739Y346743D01*
X622632Y346714D01*
X622526Y346682D01*
X622421Y346646D01*
X622318Y346606D01*
X622216Y346563D01*
X622115Y346516D01*
X622016Y346465D01*
X621920Y346412D01*
X621825Y346355D01*
X621732Y346294D01*
X621641Y346231D01*
X621552Y346164D01*
X621466Y346094D01*
X621383Y346021D01*
X621301Y345946D01*
X621223Y345868D01*
X621148Y345786D01*
X621075Y345703D01*
X621005Y345617D01*
X620938Y345528D01*
X620875Y345437D01*
X620814Y345344D01*
X620757Y345250D01*
X620704Y345153D01*
X620653Y345054D01*
X620606Y344953D01*
X620563Y344851D01*
X620523Y344748D01*
X620487Y344643D01*
X620455Y344537D01*
X620426Y344430D01*
X620401Y344322D01*
X620380Y344213D01*
X620363Y344104D01*
X620349Y343994D01*
X620340Y343883D01*
X620334Y343773D01*
X620332Y343662D01*
X620334Y343551D01*
X620340Y343441D01*
X620349Y343330D01*
X620363Y343220D01*
X620380Y343111D01*
X620401Y343002D01*
X620426Y342894D01*
X620455Y342787D01*
X620487Y342681D01*
X620523Y342576D01*
X620563Y342473D01*
X620606Y342371D01*
X620653Y342270D01*
X620704Y342171D01*
X620757Y342075D01*
X620814Y341980D01*
X620875Y341887D01*
X620938Y341796D01*
X621005Y341707D01*
X621075Y341621D01*
X621148Y341538D01*
X621223Y341456D01*
X621301Y341378D01*
X621383Y341303D01*
X621466Y341230D01*
X621552Y341160D01*
X621641Y341093D01*
X621732Y341030D01*
X621825Y340969D01*
X621920Y340912D01*
X622016Y340859D01*
X622115Y340808D01*
X622216Y340761D01*
X622318Y340718D01*
X622421Y340678D01*
X622526Y340642D01*
X622632Y340610D01*
X622739Y340581D01*
X622847Y340556D01*
X622956Y340535D01*
X623065Y340518D01*
X623175Y340504D01*
X623286Y340495D01*
X623396Y340489D01*
X623507Y340487D01*
X626682Y340487D01*
X615823Y335407D02*
X612648Y335407D01*
X612537Y335409D01*
X612427Y335415D01*
X612316Y335424D01*
X612206Y335438D01*
X612097Y335455D01*
X611988Y335476D01*
X611880Y335501D01*
X611773Y335530D01*
X611667Y335562D01*
X611562Y335598D01*
X611459Y335638D01*
X611357Y335681D01*
X611256Y335728D01*
X611157Y335779D01*
X611061Y335832D01*
X610966Y335889D01*
X610873Y335950D01*
X610782Y336013D01*
X610693Y336080D01*
X610607Y336150D01*
X610524Y336223D01*
X610442Y336298D01*
X610364Y336376D01*
X610289Y336458D01*
X610216Y336541D01*
X610146Y336627D01*
X610079Y336716D01*
X610016Y336807D01*
X609955Y336900D01*
X609898Y336995D01*
X609845Y337091D01*
X609794Y337190D01*
X609747Y337291D01*
X609704Y337393D01*
X609664Y337496D01*
X609628Y337601D01*
X609596Y337707D01*
X609567Y337814D01*
X609542Y337922D01*
X609521Y338031D01*
X609504Y338140D01*
X609490Y338250D01*
X609481Y338361D01*
X609475Y338471D01*
X609473Y338582D01*
X609475Y338693D01*
X609481Y338803D01*
X609490Y338914D01*
X609504Y339024D01*
X609521Y339133D01*
X609542Y339242D01*
X609567Y339350D01*
X609596Y339457D01*
X609628Y339563D01*
X609664Y339668D01*
X609704Y339771D01*
X609747Y339873D01*
X609794Y339974D01*
X609845Y340073D01*
X609898Y340170D01*
X609955Y340264D01*
X610016Y340357D01*
X610079Y340448D01*
X610146Y340537D01*
X610216Y340623D01*
X610289Y340706D01*
X610364Y340788D01*
X610442Y340866D01*
X610524Y340941D01*
X610607Y341014D01*
X610693Y341084D01*
X610782Y341151D01*
X610873Y341214D01*
X610966Y341275D01*
X611061Y341332D01*
X611157Y341385D01*
X611256Y341436D01*
X611357Y341483D01*
X611459Y341526D01*
X611562Y341566D01*
X611667Y341602D01*
X611773Y341634D01*
X611880Y341663D01*
X611988Y341688D01*
X612097Y341709D01*
X612206Y341726D01*
X612316Y341740D01*
X612427Y341749D01*
X612537Y341755D01*
X612648Y341757D01*
X612013Y346837D02*
X615823Y346837D01*
X612013Y346837D02*
X611913Y346835D01*
X611814Y346829D01*
X611714Y346819D01*
X611616Y346806D01*
X611517Y346788D01*
X611420Y346767D01*
X611324Y346742D01*
X611228Y346713D01*
X611134Y346680D01*
X611041Y346644D01*
X610950Y346604D01*
X610860Y346560D01*
X610772Y346513D01*
X610686Y346463D01*
X610602Y346409D01*
X610520Y346352D01*
X610441Y346292D01*
X610363Y346228D01*
X610289Y346162D01*
X610217Y346093D01*
X610148Y346021D01*
X610082Y345947D01*
X610018Y345869D01*
X609958Y345790D01*
X609901Y345708D01*
X609847Y345624D01*
X609797Y345538D01*
X609750Y345450D01*
X609706Y345360D01*
X609666Y345269D01*
X609630Y345176D01*
X609597Y345082D01*
X609568Y344986D01*
X609543Y344890D01*
X609522Y344793D01*
X609504Y344694D01*
X609491Y344596D01*
X609481Y344496D01*
X609475Y344397D01*
X609473Y344297D01*
X609475Y344197D01*
X609481Y344098D01*
X609491Y343998D01*
X609504Y343900D01*
X609522Y343801D01*
X609543Y343704D01*
X609568Y343608D01*
X609597Y343512D01*
X609630Y343418D01*
X609666Y343325D01*
X609706Y343234D01*
X609750Y343144D01*
X609797Y343056D01*
X609847Y342970D01*
X609901Y342886D01*
X609958Y342804D01*
X610018Y342725D01*
X610082Y342647D01*
X610148Y342573D01*
X610217Y342501D01*
X610289Y342432D01*
X610363Y342366D01*
X610441Y342302D01*
X610520Y342242D01*
X610602Y342185D01*
X610686Y342131D01*
X610772Y342081D01*
X610860Y342034D01*
X610950Y341990D01*
X611041Y341950D01*
X611134Y341914D01*
X611228Y341881D01*
X611324Y341852D01*
X611420Y341827D01*
X611517Y341806D01*
X611616Y341788D01*
X611714Y341775D01*
X611814Y341765D01*
X611913Y341759D01*
X612013Y341757D01*
X614553Y341757D01*
D14*
X211000Y617476D02*
X210932Y616431D01*
X210795Y615392D01*
X210590Y614365D01*
X210319Y613353D01*
X209983Y612361D01*
X209582Y611393D01*
X209118Y610454D01*
X208595Y609546D01*
X208013Y608675D01*
X207375Y607844D01*
X206684Y607057D01*
X205943Y606316D01*
X205156Y605625D01*
X204325Y604988D01*
X203454Y604406D01*
X202546Y603882D01*
X201607Y603418D01*
X200639Y603017D01*
X199647Y602681D01*
X198635Y602410D01*
X197608Y602205D01*
X196569Y602069D01*
X195524Y602000D01*
X194476Y602000D01*
X193431Y602069D01*
X192392Y602205D01*
X191365Y602410D01*
X190353Y602681D01*
X189361Y603017D01*
X188393Y603418D01*
X187454Y603882D01*
X186546Y604406D01*
X185675Y604988D01*
X184844Y605625D01*
X184057Y606316D01*
X183316Y607057D01*
X182625Y607844D01*
X181988Y608675D01*
X181406Y609546D01*
X180882Y610454D01*
X180418Y611393D01*
X180017Y612361D01*
X179681Y613353D01*
X179410Y614365D01*
X179205Y615392D01*
X179069Y616431D01*
X179000Y617476D01*
X179000Y618524D01*
X179069Y619569D01*
X179205Y620608D01*
X179410Y621635D01*
X179681Y622647D01*
X180017Y623639D01*
X180418Y624607D01*
X180882Y625546D01*
X181406Y626454D01*
X181988Y627325D01*
X182625Y628156D01*
X183316Y628943D01*
X184057Y629684D01*
X184844Y630375D01*
X185675Y631013D01*
X186546Y631595D01*
X187454Y632118D01*
X188393Y632582D01*
X189361Y632983D01*
X190353Y633319D01*
X191365Y633590D01*
X192392Y633795D01*
X193431Y633932D01*
X194476Y634000D01*
X195524Y634000D01*
X196569Y633932D01*
X197608Y633795D01*
X198635Y633590D01*
X199647Y633319D01*
X200639Y632983D01*
X201607Y632582D01*
X202546Y632118D01*
X203454Y631595D01*
X204325Y631013D01*
X205156Y630375D01*
X205943Y629684D01*
X206684Y628943D01*
X207375Y628156D01*
X208013Y627325D01*
X208595Y626454D01*
X209118Y625546D01*
X209582Y624607D01*
X209983Y623639D01*
X210319Y622647D01*
X210590Y621635D01*
X210795Y620608D01*
X210932Y619569D01*
X211000Y618524D01*
X211000Y617476D01*
X211000Y287476D02*
X210932Y286431D01*
X210795Y285392D01*
X210590Y284365D01*
X210319Y283353D01*
X209983Y282361D01*
X209582Y281393D01*
X209118Y280454D01*
X208595Y279546D01*
X208013Y278675D01*
X207375Y277844D01*
X206684Y277057D01*
X205943Y276316D01*
X205156Y275625D01*
X204325Y274988D01*
X203454Y274406D01*
X202546Y273882D01*
X201607Y273418D01*
X200639Y273017D01*
X199647Y272681D01*
X198635Y272410D01*
X197608Y272205D01*
X196569Y272069D01*
X195524Y272000D01*
X194476Y272000D01*
X193431Y272069D01*
X192392Y272205D01*
X191365Y272410D01*
X190353Y272681D01*
X189361Y273017D01*
X188393Y273418D01*
X187454Y273882D01*
X186546Y274406D01*
X185675Y274988D01*
X184844Y275625D01*
X184057Y276316D01*
X183316Y277057D01*
X182625Y277844D01*
X181988Y278675D01*
X181406Y279546D01*
X180882Y280454D01*
X180418Y281393D01*
X180017Y282361D01*
X179681Y283353D01*
X179410Y284365D01*
X179205Y285392D01*
X179069Y286431D01*
X179000Y287476D01*
X179000Y288524D01*
X179069Y289569D01*
X179205Y290608D01*
X179410Y291635D01*
X179681Y292647D01*
X180017Y293639D01*
X180418Y294607D01*
X180882Y295546D01*
X181406Y296454D01*
X181988Y297325D01*
X182625Y298156D01*
X183316Y298943D01*
X184057Y299684D01*
X184844Y300375D01*
X185675Y301013D01*
X186546Y301595D01*
X187454Y302118D01*
X188393Y302582D01*
X189361Y302983D01*
X190353Y303319D01*
X191365Y303590D01*
X192392Y303795D01*
X193431Y303932D01*
X194476Y304000D01*
X195524Y304000D01*
X196569Y303932D01*
X197608Y303795D01*
X198635Y303590D01*
X199647Y303319D01*
X200639Y302983D01*
X201607Y302582D01*
X202546Y302118D01*
X203454Y301595D01*
X204325Y301013D01*
X205156Y300375D01*
X205943Y299684D01*
X206684Y298943D01*
X207375Y298156D01*
X208013Y297325D01*
X208595Y296454D01*
X209118Y295546D01*
X209582Y294607D01*
X209983Y293639D01*
X210319Y292647D01*
X210590Y291635D01*
X210795Y290608D01*
X210932Y289569D01*
X211000Y288524D01*
X211000Y287476D01*
X801000Y617476D02*
X800932Y616431D01*
X800795Y615392D01*
X800590Y614365D01*
X800319Y613353D01*
X799983Y612361D01*
X799582Y611393D01*
X799118Y610454D01*
X798595Y609546D01*
X798013Y608675D01*
X797375Y607844D01*
X796684Y607057D01*
X795943Y606316D01*
X795156Y605625D01*
X794325Y604988D01*
X793454Y604406D01*
X792546Y603882D01*
X791607Y603418D01*
X790639Y603017D01*
X789647Y602681D01*
X788635Y602410D01*
X787608Y602205D01*
X786569Y602069D01*
X785524Y602000D01*
X784476Y602000D01*
X783431Y602069D01*
X782392Y602205D01*
X781365Y602410D01*
X780353Y602681D01*
X779361Y603017D01*
X778393Y603418D01*
X777454Y603882D01*
X776546Y604406D01*
X775675Y604988D01*
X774844Y605625D01*
X774057Y606316D01*
X773316Y607057D01*
X772625Y607844D01*
X771988Y608675D01*
X771406Y609546D01*
X770882Y610454D01*
X770418Y611393D01*
X770017Y612361D01*
X769681Y613353D01*
X769410Y614365D01*
X769205Y615392D01*
X769069Y616431D01*
X769000Y617476D01*
X769000Y618524D01*
X769069Y619569D01*
X769205Y620608D01*
X769410Y621635D01*
X769681Y622647D01*
X770017Y623639D01*
X770418Y624607D01*
X770882Y625546D01*
X771406Y626454D01*
X771988Y627325D01*
X772625Y628156D01*
X773316Y628943D01*
X774057Y629684D01*
X774844Y630375D01*
X775675Y631013D01*
X776546Y631595D01*
X777454Y632118D01*
X778393Y632582D01*
X779361Y632983D01*
X780353Y633319D01*
X781365Y633590D01*
X782392Y633795D01*
X783431Y633932D01*
X784476Y634000D01*
X785524Y634000D01*
X786569Y633932D01*
X787608Y633795D01*
X788635Y633590D01*
X789647Y633319D01*
X790639Y632983D01*
X791607Y632582D01*
X792546Y632118D01*
X793454Y631595D01*
X794325Y631013D01*
X795156Y630375D01*
X795943Y629684D01*
X796684Y628943D01*
X797375Y628156D01*
X798013Y627325D01*
X798595Y626454D01*
X799118Y625546D01*
X799582Y624607D01*
X799983Y623639D01*
X800319Y622647D01*
X800590Y621635D01*
X800795Y620608D01*
X800932Y619569D01*
X801000Y618524D01*
X801000Y617476D01*
X801000Y287476D02*
X800932Y286431D01*
X800795Y285392D01*
X800590Y284365D01*
X800319Y283353D01*
X799983Y282361D01*
X799582Y281393D01*
X799118Y280454D01*
X798595Y279546D01*
X798013Y278675D01*
X797375Y277844D01*
X796684Y277057D01*
X795943Y276316D01*
X795156Y275625D01*
X794325Y274988D01*
X793454Y274406D01*
X792546Y273882D01*
X791607Y273418D01*
X790639Y273017D01*
X789647Y272681D01*
X788635Y272410D01*
X787608Y272205D01*
X786569Y272069D01*
X785524Y272000D01*
X784476Y272000D01*
X783431Y272069D01*
X782392Y272205D01*
X781365Y272410D01*
X780353Y272681D01*
X779361Y273017D01*
X778393Y273418D01*
X777454Y273882D01*
X776546Y274406D01*
X775675Y274988D01*
X774844Y275625D01*
X774057Y276316D01*
X773316Y277057D01*
X772625Y277844D01*
X771988Y278675D01*
X771406Y279546D01*
X770882Y280454D01*
X770418Y281393D01*
X770017Y282361D01*
X769681Y283353D01*
X769410Y284365D01*
X769205Y285392D01*
X769069Y286431D01*
X769000Y287476D01*
X769000Y288524D01*
X769069Y289569D01*
X769205Y290608D01*
X769410Y291635D01*
X769681Y292647D01*
X770017Y293639D01*
X770418Y294607D01*
X770882Y295546D01*
X771406Y296454D01*
X771988Y297325D01*
X772625Y298156D01*
X773316Y298943D01*
X774057Y299684D01*
X774844Y300375D01*
X775675Y301013D01*
X776546Y301595D01*
X777454Y302118D01*
X778393Y302582D01*
X779361Y302983D01*
X780353Y303319D01*
X781365Y303590D01*
X782392Y303795D01*
X783431Y303932D01*
X784476Y304000D01*
X785524Y304000D01*
X786569Y303932D01*
X787608Y303795D01*
X788635Y303590D01*
X789647Y303319D01*
X790639Y302983D01*
X791607Y302582D01*
X792546Y302118D01*
X793454Y301595D01*
X794325Y301013D01*
X795156Y300375D01*
X795943Y299684D01*
X796684Y298943D01*
X797375Y298156D01*
X798013Y297325D01*
X798595Y296454D01*
X799118Y295546D01*
X799582Y294607D01*
X799983Y293639D01*
X800319Y292647D01*
X800590Y291635D01*
X800795Y290608D01*
X800932Y289569D01*
X801000Y288524D01*
X801000Y287476D01*
X725650Y850728D02*
X725583Y850390D01*
X725451Y850071D01*
X725259Y849784D01*
X725016Y849541D01*
X724729Y849349D01*
X724410Y849217D01*
X724072Y849150D01*
X723728Y849150D01*
X723390Y849217D01*
X723071Y849349D01*
X722784Y849541D01*
X722541Y849784D01*
X722349Y850071D01*
X722217Y850390D01*
X722150Y850728D01*
X722150Y851072D01*
X722217Y851410D01*
X722349Y851729D01*
X722541Y852016D01*
X722784Y852259D01*
X723071Y852451D01*
X723390Y852583D01*
X723728Y852650D01*
X724072Y852650D01*
X724410Y852583D01*
X724729Y852451D01*
X725016Y852259D01*
X725259Y852016D01*
X725451Y851729D01*
X725583Y851410D01*
X725650Y851072D01*
X725650Y850728D01*
X166850Y177628D02*
X166783Y177290D01*
X166651Y176971D01*
X166459Y176684D01*
X166216Y176441D01*
X165929Y176249D01*
X165610Y176117D01*
X165272Y176050D01*
X164928Y176050D01*
X164590Y176117D01*
X164271Y176249D01*
X163984Y176441D01*
X163741Y176684D01*
X163549Y176971D01*
X163417Y177290D01*
X163350Y177628D01*
X163350Y177972D01*
X163417Y178310D01*
X163549Y178629D01*
X163741Y178916D01*
X163984Y179159D01*
X164271Y179351D01*
X164590Y179483D01*
X164928Y179550D01*
X165272Y179550D01*
X165610Y179483D01*
X165929Y179351D01*
X166216Y179159D01*
X166459Y178916D01*
X166651Y178629D01*
X166783Y178310D01*
X166850Y177972D01*
X166850Y177628D01*
X814550Y177628D02*
X814483Y177290D01*
X814351Y176971D01*
X814159Y176684D01*
X813916Y176441D01*
X813629Y176249D01*
X813310Y176117D01*
X812972Y176050D01*
X812628Y176050D01*
X812290Y176117D01*
X811971Y176249D01*
X811684Y176441D01*
X811441Y176684D01*
X811249Y176971D01*
X811117Y177290D01*
X811050Y177628D01*
X811050Y177972D01*
X811117Y178310D01*
X811249Y178629D01*
X811441Y178916D01*
X811684Y179159D01*
X811971Y179351D01*
X812290Y179483D01*
X812628Y179550D01*
X812972Y179550D01*
X813310Y179483D01*
X813629Y179351D01*
X813916Y179159D01*
X814159Y178916D01*
X814351Y178629D01*
X814483Y178310D01*
X814550Y177972D01*
X814550Y177628D01*
X90650Y850728D02*
X90583Y850390D01*
X90451Y850071D01*
X90259Y849784D01*
X90016Y849541D01*
X89729Y849349D01*
X89410Y849217D01*
X89072Y849150D01*
X88728Y849150D01*
X88390Y849217D01*
X88071Y849349D01*
X87784Y849541D01*
X87541Y849784D01*
X87349Y850071D01*
X87217Y850390D01*
X87150Y850728D01*
X87150Y851072D01*
X87217Y851410D01*
X87349Y851729D01*
X87541Y852016D01*
X87784Y852259D01*
X88071Y852451D01*
X88390Y852583D01*
X88728Y852650D01*
X89072Y852650D01*
X89410Y852583D01*
X89729Y852451D01*
X90016Y852259D01*
X90259Y852016D01*
X90451Y851729D01*
X90583Y851410D01*
X90650Y851072D01*
X90650Y850728D01*
M02*
