G04 EAGLE Gerber RS-274X export*
G75*
%MOMM*%
%FSLAX34Y34*%
%LPD*%
%INSilkscreen Top*%
%IPPOS*%
%AMOC8*
5,1,8,0,0,1.08239X$1,22.5*%
G01*
%ADD10C,0.152400*%
%ADD11C,0.127000*%
%ADD12C,0.100000*%
%ADD13C,0.101600*%
%ADD14C,0.609600*%
%ADD15R,0.609600X0.863600*%
%ADD16C,0.812800*%
%ADD17C,0.254000*%


D10*
X760730Y231140D02*
X760730Y236220D01*
X763270Y233680D02*
X758190Y233680D01*
X754380Y241300D02*
X754386Y241799D01*
X754404Y242297D01*
X754435Y242795D01*
X754478Y243292D01*
X754533Y243787D01*
X754600Y244282D01*
X754679Y244774D01*
X754770Y245264D01*
X754874Y245752D01*
X754989Y246237D01*
X755116Y246720D01*
X755255Y247199D01*
X755406Y247674D01*
X755568Y248146D01*
X755742Y248613D01*
X755927Y249076D01*
X756123Y249535D01*
X756331Y249988D01*
X756550Y250436D01*
X756779Y250879D01*
X757020Y251316D01*
X757271Y251747D01*
X757533Y252171D01*
X757805Y252589D01*
X758087Y253000D01*
X758379Y253405D01*
X758681Y253802D01*
X758992Y254191D01*
X759314Y254572D01*
X759644Y254946D01*
X759983Y255311D01*
X760332Y255668D01*
X760689Y256017D01*
X761054Y256356D01*
X761428Y256686D01*
X761809Y257008D01*
X762198Y257319D01*
X762595Y257621D01*
X763000Y257913D01*
X763411Y258195D01*
X763829Y258467D01*
X764253Y258729D01*
X764684Y258980D01*
X765121Y259221D01*
X765564Y259450D01*
X766012Y259669D01*
X766465Y259877D01*
X766924Y260073D01*
X767387Y260258D01*
X767854Y260432D01*
X768326Y260594D01*
X768801Y260745D01*
X769280Y260884D01*
X769763Y261011D01*
X770248Y261126D01*
X770736Y261230D01*
X771226Y261321D01*
X771718Y261400D01*
X772213Y261467D01*
X772708Y261522D01*
X773205Y261565D01*
X773703Y261596D01*
X774201Y261614D01*
X774700Y261620D01*
X775199Y261614D01*
X775697Y261596D01*
X776195Y261565D01*
X776692Y261522D01*
X777187Y261467D01*
X777682Y261400D01*
X778174Y261321D01*
X778664Y261230D01*
X779152Y261126D01*
X779637Y261011D01*
X780120Y260884D01*
X780599Y260745D01*
X781074Y260594D01*
X781546Y260432D01*
X782013Y260258D01*
X782476Y260073D01*
X782935Y259877D01*
X783388Y259669D01*
X783836Y259450D01*
X784279Y259221D01*
X784716Y258980D01*
X785147Y258729D01*
X785571Y258467D01*
X785989Y258195D01*
X786400Y257913D01*
X786805Y257621D01*
X787202Y257319D01*
X787591Y257008D01*
X787972Y256686D01*
X788346Y256356D01*
X788711Y256017D01*
X789068Y255668D01*
X789417Y255311D01*
X789756Y254946D01*
X790086Y254572D01*
X790408Y254191D01*
X790719Y253802D01*
X791021Y253405D01*
X791313Y253000D01*
X791595Y252589D01*
X791867Y252171D01*
X792129Y251747D01*
X792380Y251316D01*
X792621Y250879D01*
X792850Y250436D01*
X793069Y249988D01*
X793277Y249535D01*
X793473Y249076D01*
X793658Y248613D01*
X793832Y248146D01*
X793994Y247674D01*
X794145Y247199D01*
X794284Y246720D01*
X794411Y246237D01*
X794526Y245752D01*
X794630Y245264D01*
X794721Y244774D01*
X794800Y244282D01*
X794867Y243787D01*
X794922Y243292D01*
X794965Y242795D01*
X794996Y242297D01*
X795014Y241799D01*
X795020Y241300D01*
X795014Y240801D01*
X794996Y240303D01*
X794965Y239805D01*
X794922Y239308D01*
X794867Y238813D01*
X794800Y238318D01*
X794721Y237826D01*
X794630Y237336D01*
X794526Y236848D01*
X794411Y236363D01*
X794284Y235880D01*
X794145Y235401D01*
X793994Y234926D01*
X793832Y234454D01*
X793658Y233987D01*
X793473Y233524D01*
X793277Y233065D01*
X793069Y232612D01*
X792850Y232164D01*
X792621Y231721D01*
X792380Y231284D01*
X792129Y230853D01*
X791867Y230429D01*
X791595Y230011D01*
X791313Y229600D01*
X791021Y229195D01*
X790719Y228798D01*
X790408Y228409D01*
X790086Y228028D01*
X789756Y227654D01*
X789417Y227289D01*
X789068Y226932D01*
X788711Y226583D01*
X788346Y226244D01*
X787972Y225914D01*
X787591Y225592D01*
X787202Y225281D01*
X786805Y224979D01*
X786400Y224687D01*
X785989Y224405D01*
X785571Y224133D01*
X785147Y223871D01*
X784716Y223620D01*
X784279Y223379D01*
X783836Y223150D01*
X783388Y222931D01*
X782935Y222723D01*
X782476Y222527D01*
X782013Y222342D01*
X781546Y222168D01*
X781074Y222006D01*
X780599Y221855D01*
X780120Y221716D01*
X779637Y221589D01*
X779152Y221474D01*
X778664Y221370D01*
X778174Y221279D01*
X777682Y221200D01*
X777187Y221133D01*
X776692Y221078D01*
X776195Y221035D01*
X775697Y221004D01*
X775199Y220986D01*
X774700Y220980D01*
X774201Y220986D01*
X773703Y221004D01*
X773205Y221035D01*
X772708Y221078D01*
X772213Y221133D01*
X771718Y221200D01*
X771226Y221279D01*
X770736Y221370D01*
X770248Y221474D01*
X769763Y221589D01*
X769280Y221716D01*
X768801Y221855D01*
X768326Y222006D01*
X767854Y222168D01*
X767387Y222342D01*
X766924Y222527D01*
X766465Y222723D01*
X766012Y222931D01*
X765564Y223150D01*
X765121Y223379D01*
X764684Y223620D01*
X764253Y223871D01*
X763829Y224133D01*
X763411Y224405D01*
X763000Y224687D01*
X762595Y224979D01*
X762198Y225281D01*
X761809Y225592D01*
X761428Y225914D01*
X761054Y226244D01*
X760689Y226583D01*
X760332Y226932D01*
X759983Y227289D01*
X759644Y227654D01*
X759314Y228028D01*
X758992Y228409D01*
X758681Y228798D01*
X758379Y229195D01*
X758087Y229600D01*
X757805Y230011D01*
X757533Y230429D01*
X757271Y230853D01*
X757020Y231284D01*
X756779Y231721D01*
X756550Y232164D01*
X756331Y232612D01*
X756123Y233065D01*
X755927Y233524D01*
X755742Y233987D01*
X755568Y234454D01*
X755406Y234926D01*
X755255Y235401D01*
X755116Y235880D01*
X754989Y236363D01*
X754874Y236848D01*
X754770Y237336D01*
X754679Y237826D01*
X754600Y238318D01*
X754533Y238813D01*
X754478Y239308D01*
X754435Y239805D01*
X754404Y240303D01*
X754386Y240801D01*
X754380Y241300D01*
D11*
X773393Y203835D02*
X775933Y203835D01*
X773393Y203835D02*
X773293Y203837D01*
X773194Y203843D01*
X773094Y203853D01*
X772996Y203866D01*
X772897Y203884D01*
X772800Y203905D01*
X772704Y203930D01*
X772608Y203959D01*
X772514Y203992D01*
X772421Y204028D01*
X772330Y204068D01*
X772240Y204112D01*
X772152Y204159D01*
X772066Y204209D01*
X771982Y204263D01*
X771900Y204320D01*
X771821Y204380D01*
X771743Y204444D01*
X771669Y204510D01*
X771597Y204579D01*
X771528Y204651D01*
X771462Y204725D01*
X771398Y204803D01*
X771338Y204882D01*
X771281Y204964D01*
X771227Y205048D01*
X771177Y205134D01*
X771130Y205222D01*
X771086Y205312D01*
X771046Y205403D01*
X771010Y205496D01*
X770977Y205590D01*
X770948Y205686D01*
X770923Y205782D01*
X770902Y205879D01*
X770884Y205978D01*
X770871Y206076D01*
X770861Y206176D01*
X770855Y206275D01*
X770853Y206375D01*
X770853Y212725D01*
X770855Y212825D01*
X770861Y212924D01*
X770871Y213024D01*
X770884Y213122D01*
X770902Y213221D01*
X770923Y213318D01*
X770948Y213414D01*
X770977Y213510D01*
X771010Y213604D01*
X771046Y213697D01*
X771086Y213788D01*
X771130Y213878D01*
X771177Y213966D01*
X771227Y214052D01*
X771281Y214136D01*
X771338Y214218D01*
X771398Y214297D01*
X771462Y214375D01*
X771528Y214449D01*
X771597Y214521D01*
X771669Y214590D01*
X771743Y214656D01*
X771821Y214720D01*
X771900Y214780D01*
X771982Y214837D01*
X772066Y214891D01*
X772152Y214941D01*
X772240Y214988D01*
X772330Y215032D01*
X772421Y215072D01*
X772514Y215108D01*
X772608Y215141D01*
X772704Y215170D01*
X772800Y215195D01*
X772897Y215216D01*
X772996Y215234D01*
X773094Y215247D01*
X773194Y215257D01*
X773293Y215263D01*
X773393Y215265D01*
X775933Y215265D01*
X780415Y212725D02*
X783590Y215265D01*
X783590Y203835D01*
X780415Y203835D02*
X786765Y203835D01*
D12*
X662400Y552700D02*
X150400Y552700D01*
X662400Y552700D02*
X662400Y361700D01*
X150400Y361700D01*
X150400Y552700D01*
D13*
X155695Y569468D02*
X155695Y581152D01*
X158941Y581152D01*
X159054Y581150D01*
X159167Y581144D01*
X159280Y581134D01*
X159393Y581120D01*
X159505Y581103D01*
X159616Y581081D01*
X159726Y581056D01*
X159836Y581026D01*
X159944Y580993D01*
X160051Y580956D01*
X160157Y580916D01*
X160261Y580871D01*
X160364Y580823D01*
X160465Y580772D01*
X160564Y580717D01*
X160661Y580659D01*
X160756Y580597D01*
X160849Y580532D01*
X160939Y580464D01*
X161027Y580393D01*
X161113Y580318D01*
X161196Y580241D01*
X161276Y580161D01*
X161353Y580078D01*
X161428Y579992D01*
X161499Y579904D01*
X161567Y579814D01*
X161632Y579721D01*
X161694Y579626D01*
X161752Y579529D01*
X161807Y579430D01*
X161858Y579329D01*
X161906Y579226D01*
X161951Y579122D01*
X161991Y579016D01*
X162028Y578909D01*
X162061Y578801D01*
X162091Y578691D01*
X162116Y578581D01*
X162138Y578470D01*
X162155Y578358D01*
X162169Y578245D01*
X162179Y578132D01*
X162185Y578019D01*
X162187Y577906D01*
X162186Y577906D02*
X162186Y572714D01*
X162187Y572714D02*
X162185Y572601D01*
X162179Y572488D01*
X162169Y572375D01*
X162155Y572262D01*
X162138Y572150D01*
X162116Y572039D01*
X162091Y571929D01*
X162061Y571819D01*
X162028Y571711D01*
X161991Y571604D01*
X161951Y571498D01*
X161906Y571394D01*
X161858Y571291D01*
X161807Y571190D01*
X161752Y571091D01*
X161694Y570994D01*
X161632Y570899D01*
X161567Y570806D01*
X161499Y570716D01*
X161428Y570628D01*
X161353Y570542D01*
X161276Y570459D01*
X161196Y570379D01*
X161113Y570302D01*
X161027Y570227D01*
X160939Y570156D01*
X160849Y570088D01*
X160756Y570023D01*
X160661Y569961D01*
X160564Y569903D01*
X160465Y569848D01*
X160364Y569797D01*
X160261Y569749D01*
X160157Y569704D01*
X160051Y569664D01*
X159944Y569627D01*
X159836Y569594D01*
X159726Y569564D01*
X159616Y569539D01*
X159505Y569517D01*
X159393Y569500D01*
X159280Y569486D01*
X159167Y569476D01*
X159054Y569470D01*
X158941Y569468D01*
X155695Y569468D01*
X171020Y569468D02*
X171119Y569470D01*
X171219Y569476D01*
X171318Y569485D01*
X171416Y569498D01*
X171514Y569515D01*
X171612Y569536D01*
X171708Y569561D01*
X171803Y569589D01*
X171897Y569621D01*
X171990Y569656D01*
X172082Y569695D01*
X172172Y569738D01*
X172260Y569783D01*
X172347Y569833D01*
X172431Y569885D01*
X172514Y569941D01*
X172594Y569999D01*
X172672Y570061D01*
X172747Y570126D01*
X172820Y570194D01*
X172890Y570264D01*
X172958Y570337D01*
X173023Y570412D01*
X173085Y570490D01*
X173143Y570570D01*
X173199Y570653D01*
X173251Y570737D01*
X173301Y570824D01*
X173346Y570912D01*
X173389Y571002D01*
X173428Y571094D01*
X173463Y571187D01*
X173495Y571281D01*
X173523Y571376D01*
X173548Y571472D01*
X173569Y571570D01*
X173586Y571668D01*
X173599Y571766D01*
X173608Y571865D01*
X173614Y571965D01*
X173616Y572064D01*
X171020Y569468D02*
X170876Y569470D01*
X170731Y569476D01*
X170587Y569485D01*
X170444Y569498D01*
X170300Y569515D01*
X170157Y569536D01*
X170015Y569561D01*
X169874Y569589D01*
X169733Y569621D01*
X169593Y569657D01*
X169454Y569696D01*
X169316Y569739D01*
X169180Y569786D01*
X169044Y569836D01*
X168910Y569890D01*
X168778Y569947D01*
X168647Y570008D01*
X168518Y570072D01*
X168390Y570140D01*
X168264Y570210D01*
X168140Y570285D01*
X168019Y570362D01*
X167899Y570443D01*
X167781Y570526D01*
X167666Y570613D01*
X167553Y570703D01*
X167442Y570796D01*
X167334Y570891D01*
X167228Y570990D01*
X167125Y571091D01*
X167450Y578556D02*
X167452Y578655D01*
X167458Y578755D01*
X167467Y578854D01*
X167480Y578952D01*
X167497Y579050D01*
X167518Y579148D01*
X167543Y579244D01*
X167571Y579339D01*
X167603Y579433D01*
X167638Y579526D01*
X167677Y579618D01*
X167720Y579708D01*
X167765Y579796D01*
X167815Y579883D01*
X167867Y579967D01*
X167923Y580050D01*
X167981Y580130D01*
X168043Y580208D01*
X168108Y580283D01*
X168176Y580356D01*
X168246Y580426D01*
X168319Y580494D01*
X168394Y580559D01*
X168472Y580621D01*
X168552Y580679D01*
X168635Y580735D01*
X168719Y580787D01*
X168806Y580837D01*
X168894Y580882D01*
X168984Y580925D01*
X169076Y580964D01*
X169169Y580999D01*
X169263Y581031D01*
X169358Y581059D01*
X169455Y581084D01*
X169552Y581105D01*
X169650Y581122D01*
X169748Y581135D01*
X169847Y581144D01*
X169947Y581150D01*
X170046Y581152D01*
X170182Y581150D01*
X170318Y581144D01*
X170454Y581135D01*
X170590Y581122D01*
X170725Y581104D01*
X170859Y581084D01*
X170993Y581059D01*
X171127Y581031D01*
X171259Y580998D01*
X171390Y580963D01*
X171521Y580923D01*
X171650Y580880D01*
X171778Y580834D01*
X171904Y580783D01*
X172030Y580730D01*
X172153Y580672D01*
X172275Y580612D01*
X172395Y580548D01*
X172514Y580480D01*
X172630Y580410D01*
X172744Y580336D01*
X172857Y580259D01*
X172967Y580178D01*
X168747Y576284D02*
X168661Y576337D01*
X168577Y576394D01*
X168495Y576453D01*
X168415Y576516D01*
X168338Y576582D01*
X168263Y576650D01*
X168191Y576722D01*
X168122Y576796D01*
X168056Y576873D01*
X167993Y576952D01*
X167933Y577034D01*
X167876Y577118D01*
X167822Y577204D01*
X167772Y577292D01*
X167725Y577382D01*
X167681Y577473D01*
X167642Y577567D01*
X167605Y577661D01*
X167573Y577757D01*
X167544Y577855D01*
X167519Y577953D01*
X167498Y578052D01*
X167480Y578152D01*
X167467Y578252D01*
X167457Y578353D01*
X167451Y578455D01*
X167449Y578556D01*
X172318Y574336D02*
X172404Y574283D01*
X172488Y574226D01*
X172570Y574167D01*
X172650Y574104D01*
X172727Y574038D01*
X172802Y573970D01*
X172874Y573898D01*
X172943Y573824D01*
X173009Y573747D01*
X173072Y573668D01*
X173132Y573586D01*
X173189Y573502D01*
X173243Y573416D01*
X173293Y573328D01*
X173340Y573238D01*
X173384Y573147D01*
X173423Y573053D01*
X173460Y572959D01*
X173492Y572863D01*
X173521Y572765D01*
X173546Y572667D01*
X173567Y572568D01*
X173585Y572468D01*
X173598Y572368D01*
X173608Y572267D01*
X173614Y572165D01*
X173616Y572064D01*
X172318Y574336D02*
X168748Y576284D01*
X178174Y578556D02*
X181419Y581152D01*
X181419Y569468D01*
X178174Y569468D02*
X184665Y569468D01*
D12*
X331400Y349400D02*
X481400Y349400D01*
X481400Y209400D01*
X331400Y209400D01*
X331400Y349400D01*
D13*
X283965Y343662D02*
X283965Y331978D01*
X283965Y343662D02*
X287211Y343662D01*
X287324Y343660D01*
X287437Y343654D01*
X287550Y343644D01*
X287663Y343630D01*
X287775Y343613D01*
X287886Y343591D01*
X287996Y343566D01*
X288106Y343536D01*
X288214Y343503D01*
X288321Y343466D01*
X288427Y343426D01*
X288531Y343381D01*
X288634Y343333D01*
X288735Y343282D01*
X288834Y343227D01*
X288931Y343169D01*
X289026Y343107D01*
X289119Y343042D01*
X289209Y342974D01*
X289297Y342903D01*
X289383Y342828D01*
X289466Y342751D01*
X289546Y342671D01*
X289623Y342588D01*
X289698Y342502D01*
X289769Y342414D01*
X289837Y342324D01*
X289902Y342231D01*
X289964Y342136D01*
X290022Y342039D01*
X290077Y341940D01*
X290128Y341839D01*
X290176Y341736D01*
X290221Y341632D01*
X290261Y341526D01*
X290298Y341419D01*
X290331Y341311D01*
X290361Y341201D01*
X290386Y341091D01*
X290408Y340980D01*
X290425Y340868D01*
X290439Y340755D01*
X290449Y340642D01*
X290455Y340529D01*
X290457Y340416D01*
X290456Y340416D02*
X290456Y335224D01*
X290457Y335224D02*
X290455Y335111D01*
X290449Y334998D01*
X290439Y334885D01*
X290425Y334772D01*
X290408Y334660D01*
X290386Y334549D01*
X290361Y334439D01*
X290331Y334329D01*
X290298Y334221D01*
X290261Y334114D01*
X290221Y334008D01*
X290176Y333904D01*
X290128Y333801D01*
X290077Y333700D01*
X290022Y333601D01*
X289964Y333504D01*
X289902Y333409D01*
X289837Y333316D01*
X289769Y333226D01*
X289698Y333138D01*
X289623Y333052D01*
X289546Y332969D01*
X289466Y332889D01*
X289383Y332812D01*
X289297Y332737D01*
X289209Y332666D01*
X289119Y332598D01*
X289026Y332533D01*
X288931Y332471D01*
X288834Y332413D01*
X288735Y332358D01*
X288634Y332307D01*
X288531Y332259D01*
X288427Y332214D01*
X288321Y332174D01*
X288214Y332137D01*
X288106Y332104D01*
X287996Y332074D01*
X287886Y332049D01*
X287775Y332027D01*
X287663Y332010D01*
X287550Y331996D01*
X287437Y331986D01*
X287324Y331980D01*
X287211Y331978D01*
X283965Y331978D01*
X299290Y331978D02*
X299389Y331980D01*
X299489Y331986D01*
X299588Y331995D01*
X299686Y332008D01*
X299784Y332025D01*
X299882Y332046D01*
X299978Y332071D01*
X300073Y332099D01*
X300167Y332131D01*
X300260Y332166D01*
X300352Y332205D01*
X300442Y332248D01*
X300530Y332293D01*
X300617Y332343D01*
X300701Y332395D01*
X300784Y332451D01*
X300864Y332509D01*
X300942Y332571D01*
X301017Y332636D01*
X301090Y332704D01*
X301160Y332774D01*
X301228Y332847D01*
X301293Y332922D01*
X301355Y333000D01*
X301413Y333080D01*
X301469Y333163D01*
X301521Y333247D01*
X301571Y333334D01*
X301616Y333422D01*
X301659Y333512D01*
X301698Y333604D01*
X301733Y333697D01*
X301765Y333791D01*
X301793Y333886D01*
X301818Y333982D01*
X301839Y334080D01*
X301856Y334178D01*
X301869Y334276D01*
X301878Y334375D01*
X301884Y334475D01*
X301886Y334574D01*
X299290Y331978D02*
X299146Y331980D01*
X299001Y331986D01*
X298857Y331995D01*
X298714Y332008D01*
X298570Y332025D01*
X298427Y332046D01*
X298285Y332071D01*
X298144Y332099D01*
X298003Y332131D01*
X297863Y332167D01*
X297724Y332206D01*
X297586Y332249D01*
X297450Y332296D01*
X297314Y332346D01*
X297180Y332400D01*
X297048Y332457D01*
X296917Y332518D01*
X296788Y332582D01*
X296660Y332650D01*
X296534Y332720D01*
X296410Y332795D01*
X296289Y332872D01*
X296169Y332953D01*
X296051Y333036D01*
X295936Y333123D01*
X295823Y333213D01*
X295712Y333306D01*
X295604Y333401D01*
X295498Y333500D01*
X295395Y333601D01*
X295720Y341066D02*
X295722Y341165D01*
X295728Y341265D01*
X295737Y341364D01*
X295750Y341462D01*
X295767Y341560D01*
X295788Y341658D01*
X295813Y341754D01*
X295841Y341849D01*
X295873Y341943D01*
X295908Y342036D01*
X295947Y342128D01*
X295990Y342218D01*
X296035Y342306D01*
X296085Y342393D01*
X296137Y342477D01*
X296193Y342560D01*
X296251Y342640D01*
X296313Y342718D01*
X296378Y342793D01*
X296446Y342866D01*
X296516Y342936D01*
X296589Y343004D01*
X296664Y343069D01*
X296742Y343131D01*
X296822Y343189D01*
X296905Y343245D01*
X296989Y343297D01*
X297076Y343347D01*
X297164Y343392D01*
X297254Y343435D01*
X297346Y343474D01*
X297439Y343509D01*
X297533Y343541D01*
X297628Y343569D01*
X297725Y343594D01*
X297822Y343615D01*
X297920Y343632D01*
X298018Y343645D01*
X298117Y343654D01*
X298217Y343660D01*
X298316Y343662D01*
X298452Y343660D01*
X298588Y343654D01*
X298724Y343645D01*
X298860Y343632D01*
X298995Y343614D01*
X299129Y343594D01*
X299263Y343569D01*
X299397Y343541D01*
X299529Y343508D01*
X299660Y343473D01*
X299791Y343433D01*
X299920Y343390D01*
X300048Y343344D01*
X300174Y343293D01*
X300300Y343240D01*
X300423Y343182D01*
X300545Y343122D01*
X300665Y343058D01*
X300784Y342990D01*
X300900Y342920D01*
X301014Y342846D01*
X301127Y342769D01*
X301237Y342688D01*
X297017Y338794D02*
X296931Y338847D01*
X296847Y338904D01*
X296765Y338963D01*
X296685Y339026D01*
X296608Y339092D01*
X296533Y339160D01*
X296461Y339232D01*
X296392Y339306D01*
X296326Y339383D01*
X296263Y339462D01*
X296203Y339544D01*
X296146Y339628D01*
X296092Y339714D01*
X296042Y339802D01*
X295995Y339892D01*
X295951Y339983D01*
X295912Y340077D01*
X295875Y340171D01*
X295843Y340267D01*
X295814Y340365D01*
X295789Y340463D01*
X295768Y340562D01*
X295750Y340662D01*
X295737Y340762D01*
X295727Y340863D01*
X295721Y340965D01*
X295719Y341066D01*
X300588Y336846D02*
X300674Y336793D01*
X300758Y336736D01*
X300840Y336677D01*
X300920Y336614D01*
X300997Y336548D01*
X301072Y336480D01*
X301144Y336408D01*
X301213Y336334D01*
X301279Y336257D01*
X301342Y336178D01*
X301402Y336096D01*
X301459Y336012D01*
X301513Y335926D01*
X301563Y335838D01*
X301610Y335748D01*
X301654Y335657D01*
X301693Y335563D01*
X301730Y335469D01*
X301762Y335373D01*
X301791Y335275D01*
X301816Y335177D01*
X301837Y335078D01*
X301855Y334978D01*
X301868Y334878D01*
X301878Y334777D01*
X301884Y334675D01*
X301886Y334574D01*
X300588Y336846D02*
X297018Y338794D01*
X310014Y343662D02*
X310121Y343660D01*
X310227Y343654D01*
X310333Y343644D01*
X310439Y343631D01*
X310545Y343613D01*
X310649Y343592D01*
X310753Y343567D01*
X310856Y343538D01*
X310957Y343506D01*
X311057Y343469D01*
X311156Y343429D01*
X311254Y343386D01*
X311350Y343339D01*
X311444Y343288D01*
X311536Y343234D01*
X311626Y343177D01*
X311714Y343117D01*
X311799Y343053D01*
X311882Y342986D01*
X311963Y342916D01*
X312041Y342844D01*
X312117Y342768D01*
X312189Y342690D01*
X312259Y342609D01*
X312326Y342526D01*
X312390Y342441D01*
X312450Y342353D01*
X312507Y342263D01*
X312561Y342171D01*
X312612Y342077D01*
X312659Y341981D01*
X312702Y341883D01*
X312742Y341784D01*
X312779Y341684D01*
X312811Y341583D01*
X312840Y341480D01*
X312865Y341376D01*
X312886Y341272D01*
X312904Y341166D01*
X312917Y341060D01*
X312927Y340954D01*
X312933Y340848D01*
X312935Y340741D01*
X310014Y343662D02*
X309893Y343660D01*
X309772Y343654D01*
X309652Y343644D01*
X309531Y343631D01*
X309412Y343613D01*
X309292Y343592D01*
X309174Y343567D01*
X309057Y343538D01*
X308940Y343505D01*
X308825Y343469D01*
X308711Y343428D01*
X308598Y343385D01*
X308486Y343337D01*
X308377Y343286D01*
X308269Y343231D01*
X308162Y343173D01*
X308058Y343112D01*
X307956Y343047D01*
X307856Y342979D01*
X307758Y342908D01*
X307662Y342834D01*
X307569Y342757D01*
X307479Y342676D01*
X307391Y342593D01*
X307306Y342507D01*
X307223Y342418D01*
X307144Y342327D01*
X307067Y342233D01*
X306994Y342137D01*
X306924Y342039D01*
X306857Y341938D01*
X306793Y341835D01*
X306733Y341730D01*
X306676Y341623D01*
X306622Y341515D01*
X306572Y341405D01*
X306526Y341293D01*
X306483Y341180D01*
X306444Y341065D01*
X311962Y338469D02*
X312041Y338546D01*
X312117Y338627D01*
X312190Y338710D01*
X312260Y338795D01*
X312327Y338883D01*
X312391Y338973D01*
X312451Y339065D01*
X312508Y339160D01*
X312562Y339256D01*
X312613Y339354D01*
X312660Y339454D01*
X312704Y339556D01*
X312744Y339659D01*
X312780Y339763D01*
X312812Y339869D01*
X312841Y339975D01*
X312866Y340083D01*
X312888Y340191D01*
X312905Y340301D01*
X312919Y340410D01*
X312928Y340520D01*
X312934Y340631D01*
X312936Y340741D01*
X311961Y338469D02*
X306444Y331978D01*
X312935Y331978D01*
D10*
X674370Y567690D02*
X674372Y567590D01*
X674378Y567491D01*
X674388Y567391D01*
X674401Y567293D01*
X674419Y567194D01*
X674440Y567097D01*
X674465Y567001D01*
X674494Y566905D01*
X674527Y566811D01*
X674563Y566718D01*
X674603Y566627D01*
X674647Y566537D01*
X674694Y566449D01*
X674744Y566363D01*
X674798Y566279D01*
X674855Y566197D01*
X674915Y566118D01*
X674979Y566040D01*
X675045Y565966D01*
X675114Y565894D01*
X675186Y565825D01*
X675260Y565759D01*
X675338Y565695D01*
X675417Y565635D01*
X675499Y565578D01*
X675583Y565524D01*
X675669Y565474D01*
X675757Y565427D01*
X675847Y565383D01*
X675938Y565343D01*
X676031Y565307D01*
X676125Y565274D01*
X676221Y565245D01*
X676317Y565220D01*
X676414Y565199D01*
X676513Y565181D01*
X676611Y565168D01*
X676711Y565158D01*
X676810Y565152D01*
X676910Y565150D01*
X694690Y565150D02*
X694790Y565152D01*
X694889Y565158D01*
X694989Y565168D01*
X695087Y565181D01*
X695186Y565199D01*
X695283Y565220D01*
X695379Y565245D01*
X695475Y565274D01*
X695569Y565307D01*
X695662Y565343D01*
X695753Y565383D01*
X695843Y565427D01*
X695931Y565474D01*
X696017Y565524D01*
X696101Y565578D01*
X696183Y565635D01*
X696262Y565695D01*
X696340Y565759D01*
X696414Y565825D01*
X696486Y565894D01*
X696555Y565966D01*
X696621Y566040D01*
X696685Y566118D01*
X696745Y566197D01*
X696802Y566279D01*
X696856Y566363D01*
X696906Y566449D01*
X696953Y566537D01*
X696997Y566627D01*
X697037Y566718D01*
X697073Y566811D01*
X697106Y566905D01*
X697135Y567001D01*
X697160Y567097D01*
X697181Y567194D01*
X697199Y567293D01*
X697212Y567391D01*
X697222Y567491D01*
X697228Y567590D01*
X697230Y567690D01*
X697230Y626110D02*
X697228Y626210D01*
X697222Y626309D01*
X697212Y626409D01*
X697199Y626507D01*
X697181Y626606D01*
X697160Y626703D01*
X697135Y626799D01*
X697106Y626895D01*
X697073Y626989D01*
X697037Y627082D01*
X696997Y627173D01*
X696953Y627263D01*
X696906Y627351D01*
X696856Y627437D01*
X696802Y627521D01*
X696745Y627603D01*
X696685Y627682D01*
X696621Y627760D01*
X696555Y627834D01*
X696486Y627906D01*
X696414Y627975D01*
X696340Y628041D01*
X696262Y628105D01*
X696183Y628165D01*
X696101Y628222D01*
X696017Y628276D01*
X695931Y628326D01*
X695843Y628373D01*
X695753Y628417D01*
X695662Y628457D01*
X695569Y628493D01*
X695475Y628526D01*
X695379Y628555D01*
X695283Y628580D01*
X695186Y628601D01*
X695087Y628619D01*
X694989Y628632D01*
X694889Y628642D01*
X694790Y628648D01*
X694690Y628650D01*
X676910Y628650D02*
X676810Y628648D01*
X676711Y628642D01*
X676611Y628632D01*
X676513Y628619D01*
X676414Y628601D01*
X676317Y628580D01*
X676221Y628555D01*
X676125Y628526D01*
X676031Y628493D01*
X675938Y628457D01*
X675847Y628417D01*
X675757Y628373D01*
X675669Y628326D01*
X675583Y628276D01*
X675499Y628222D01*
X675417Y628165D01*
X675338Y628105D01*
X675260Y628041D01*
X675186Y627975D01*
X675114Y627906D01*
X675045Y627834D01*
X674979Y627760D01*
X674915Y627682D01*
X674855Y627603D01*
X674798Y627521D01*
X674744Y627437D01*
X674694Y627351D01*
X674647Y627263D01*
X674603Y627173D01*
X674563Y627082D01*
X674527Y626989D01*
X674494Y626895D01*
X674465Y626799D01*
X674440Y626703D01*
X674419Y626606D01*
X674401Y626507D01*
X674388Y626409D01*
X674378Y626309D01*
X674372Y626210D01*
X674370Y626110D01*
X676910Y565150D02*
X694690Y565150D01*
X674370Y567690D02*
X674370Y571500D01*
X675640Y572770D01*
X697230Y571500D02*
X697230Y567690D01*
X697230Y571500D02*
X695960Y572770D01*
X675640Y621030D02*
X674370Y622300D01*
X675640Y621030D02*
X675640Y572770D01*
X695960Y621030D02*
X697230Y622300D01*
X695960Y621030D02*
X695960Y572770D01*
X674370Y622300D02*
X674370Y626110D01*
X697230Y626110D02*
X697230Y622300D01*
X694690Y628650D02*
X676910Y628650D01*
D14*
X685800Y637540D02*
X685800Y641350D01*
X685800Y556260D02*
X685800Y552450D01*
D15*
X685800Y632968D03*
X685800Y560832D03*
X685800Y645668D03*
X685800Y548132D03*
D11*
X705568Y594995D02*
X705568Y606425D01*
X708743Y606425D01*
X708854Y606423D01*
X708964Y606417D01*
X709075Y606408D01*
X709185Y606394D01*
X709294Y606377D01*
X709403Y606356D01*
X709511Y606331D01*
X709618Y606302D01*
X709724Y606270D01*
X709829Y606234D01*
X709932Y606194D01*
X710034Y606151D01*
X710135Y606104D01*
X710234Y606053D01*
X710331Y606000D01*
X710425Y605943D01*
X710518Y605882D01*
X710609Y605819D01*
X710698Y605752D01*
X710784Y605682D01*
X710867Y605609D01*
X710949Y605534D01*
X711027Y605456D01*
X711102Y605374D01*
X711175Y605291D01*
X711245Y605205D01*
X711312Y605116D01*
X711375Y605025D01*
X711436Y604932D01*
X711493Y604837D01*
X711546Y604741D01*
X711597Y604642D01*
X711644Y604541D01*
X711687Y604439D01*
X711727Y604336D01*
X711763Y604231D01*
X711795Y604125D01*
X711824Y604018D01*
X711849Y603910D01*
X711870Y603801D01*
X711887Y603692D01*
X711901Y603582D01*
X711910Y603471D01*
X711916Y603361D01*
X711918Y603250D01*
X711916Y603139D01*
X711910Y603029D01*
X711901Y602918D01*
X711887Y602808D01*
X711870Y602699D01*
X711849Y602590D01*
X711824Y602482D01*
X711795Y602375D01*
X711763Y602269D01*
X711727Y602164D01*
X711687Y602061D01*
X711644Y601959D01*
X711597Y601858D01*
X711546Y601759D01*
X711493Y601663D01*
X711436Y601568D01*
X711375Y601475D01*
X711312Y601384D01*
X711245Y601295D01*
X711175Y601209D01*
X711102Y601126D01*
X711027Y601044D01*
X710949Y600966D01*
X710867Y600891D01*
X710784Y600818D01*
X710698Y600748D01*
X710609Y600681D01*
X710518Y600618D01*
X710425Y600557D01*
X710331Y600500D01*
X710234Y600447D01*
X710135Y600396D01*
X710034Y600349D01*
X709932Y600306D01*
X709829Y600266D01*
X709724Y600230D01*
X709618Y600198D01*
X709511Y600169D01*
X709403Y600144D01*
X709294Y600123D01*
X709185Y600106D01*
X709075Y600092D01*
X708964Y600083D01*
X708854Y600077D01*
X708743Y600075D01*
X705568Y600075D01*
X709378Y600075D02*
X711918Y594995D01*
X716915Y603885D02*
X720090Y606425D01*
X720090Y594995D01*
X716915Y594995D02*
X723265Y594995D01*
X101600Y641350D02*
X101600Y723900D01*
X101600Y787400D01*
X101600Y869950D01*
X635000Y869950D01*
X635000Y641350D01*
X101600Y641350D01*
X101600Y787400D02*
X114300Y787400D01*
X127000Y787400D01*
X152400Y787400D01*
X165100Y787400D01*
X177800Y787400D01*
X177800Y723900D01*
X165100Y723900D01*
X152400Y723900D01*
X127000Y723900D01*
X114300Y723900D01*
X101600Y723900D01*
X114300Y787400D02*
X114300Y800100D01*
X127000Y800100D01*
X127000Y787400D01*
X152400Y787400D02*
X152400Y800100D01*
X165100Y800100D01*
X165100Y787400D01*
X114300Y723900D02*
X114300Y711200D01*
X127000Y711200D01*
X127000Y723900D01*
X152400Y723900D02*
X152400Y711200D01*
X165100Y711200D01*
X165100Y723900D01*
X577850Y806450D02*
X590550Y806450D01*
X590550Y781050D01*
X590550Y755650D01*
X590550Y730250D01*
X590550Y704850D01*
X577850Y704850D01*
X577850Y730250D01*
X577850Y755650D01*
X577850Y781050D01*
X577850Y806450D01*
X577850Y781050D02*
X590550Y781050D01*
X590550Y755650D02*
X577850Y755650D01*
X577850Y730250D02*
X590550Y730250D01*
D16*
X571500Y793750D02*
X654050Y793750D01*
X654050Y768350D02*
X571500Y768350D01*
X571500Y742950D02*
X654050Y742950D01*
X654050Y717550D02*
X571500Y717550D01*
D13*
X128722Y753054D02*
X128722Y761492D01*
X128721Y753054D02*
X128723Y752941D01*
X128729Y752828D01*
X128739Y752715D01*
X128753Y752602D01*
X128770Y752490D01*
X128792Y752379D01*
X128817Y752269D01*
X128847Y752159D01*
X128880Y752051D01*
X128917Y751944D01*
X128957Y751838D01*
X129002Y751734D01*
X129050Y751631D01*
X129101Y751530D01*
X129156Y751431D01*
X129214Y751334D01*
X129276Y751239D01*
X129341Y751146D01*
X129409Y751056D01*
X129480Y750968D01*
X129555Y750882D01*
X129632Y750799D01*
X129712Y750719D01*
X129795Y750642D01*
X129881Y750567D01*
X129969Y750496D01*
X130059Y750428D01*
X130152Y750363D01*
X130247Y750301D01*
X130344Y750243D01*
X130443Y750188D01*
X130544Y750137D01*
X130647Y750089D01*
X130751Y750044D01*
X130857Y750004D01*
X130964Y749967D01*
X131072Y749934D01*
X131182Y749904D01*
X131292Y749879D01*
X131403Y749857D01*
X131515Y749840D01*
X131628Y749826D01*
X131741Y749816D01*
X131854Y749810D01*
X131967Y749808D01*
X132080Y749810D01*
X132193Y749816D01*
X132306Y749826D01*
X132419Y749840D01*
X132531Y749857D01*
X132642Y749879D01*
X132752Y749904D01*
X132862Y749934D01*
X132970Y749967D01*
X133077Y750004D01*
X133183Y750044D01*
X133287Y750089D01*
X133390Y750137D01*
X133491Y750188D01*
X133590Y750243D01*
X133687Y750301D01*
X133782Y750363D01*
X133875Y750428D01*
X133965Y750496D01*
X134053Y750567D01*
X134139Y750642D01*
X134222Y750719D01*
X134302Y750799D01*
X134379Y750882D01*
X134454Y750968D01*
X134525Y751056D01*
X134593Y751146D01*
X134658Y751239D01*
X134720Y751334D01*
X134778Y751431D01*
X134833Y751530D01*
X134884Y751631D01*
X134932Y751734D01*
X134977Y751838D01*
X135017Y751944D01*
X135054Y752051D01*
X135087Y752159D01*
X135117Y752269D01*
X135142Y752379D01*
X135164Y752490D01*
X135181Y752602D01*
X135195Y752715D01*
X135205Y752828D01*
X135211Y752941D01*
X135213Y753054D01*
X135213Y761492D01*
X146642Y752404D02*
X146640Y752305D01*
X146634Y752205D01*
X146625Y752106D01*
X146612Y752008D01*
X146595Y751910D01*
X146574Y751812D01*
X146549Y751716D01*
X146521Y751621D01*
X146489Y751527D01*
X146454Y751434D01*
X146415Y751342D01*
X146372Y751252D01*
X146327Y751164D01*
X146277Y751077D01*
X146225Y750993D01*
X146169Y750910D01*
X146111Y750830D01*
X146049Y750752D01*
X145984Y750677D01*
X145916Y750604D01*
X145846Y750534D01*
X145773Y750466D01*
X145698Y750401D01*
X145620Y750339D01*
X145540Y750281D01*
X145457Y750225D01*
X145373Y750173D01*
X145286Y750123D01*
X145198Y750078D01*
X145108Y750035D01*
X145016Y749996D01*
X144923Y749961D01*
X144829Y749929D01*
X144734Y749901D01*
X144638Y749876D01*
X144540Y749855D01*
X144442Y749838D01*
X144344Y749825D01*
X144245Y749816D01*
X144145Y749810D01*
X144046Y749808D01*
X143902Y749810D01*
X143757Y749816D01*
X143613Y749825D01*
X143470Y749838D01*
X143326Y749855D01*
X143183Y749876D01*
X143041Y749901D01*
X142900Y749929D01*
X142759Y749961D01*
X142619Y749997D01*
X142480Y750036D01*
X142342Y750079D01*
X142206Y750126D01*
X142070Y750176D01*
X141936Y750230D01*
X141804Y750287D01*
X141673Y750348D01*
X141544Y750412D01*
X141416Y750480D01*
X141290Y750550D01*
X141166Y750625D01*
X141045Y750702D01*
X140925Y750783D01*
X140807Y750866D01*
X140692Y750953D01*
X140579Y751043D01*
X140468Y751136D01*
X140360Y751231D01*
X140254Y751330D01*
X140151Y751431D01*
X140477Y758896D02*
X140479Y758995D01*
X140485Y759095D01*
X140494Y759194D01*
X140507Y759292D01*
X140524Y759390D01*
X140545Y759488D01*
X140570Y759584D01*
X140598Y759679D01*
X140630Y759773D01*
X140665Y759866D01*
X140704Y759958D01*
X140747Y760048D01*
X140792Y760136D01*
X140842Y760223D01*
X140894Y760307D01*
X140950Y760390D01*
X141008Y760470D01*
X141070Y760548D01*
X141135Y760623D01*
X141203Y760696D01*
X141273Y760766D01*
X141346Y760834D01*
X141421Y760899D01*
X141499Y760961D01*
X141579Y761019D01*
X141662Y761075D01*
X141746Y761127D01*
X141833Y761177D01*
X141921Y761222D01*
X142011Y761265D01*
X142103Y761304D01*
X142196Y761339D01*
X142290Y761371D01*
X142385Y761399D01*
X142482Y761424D01*
X142579Y761445D01*
X142677Y761462D01*
X142775Y761475D01*
X142874Y761484D01*
X142974Y761490D01*
X143073Y761492D01*
X143209Y761490D01*
X143345Y761484D01*
X143481Y761475D01*
X143617Y761462D01*
X143752Y761444D01*
X143886Y761424D01*
X144020Y761399D01*
X144154Y761371D01*
X144286Y761338D01*
X144417Y761303D01*
X144548Y761263D01*
X144677Y761220D01*
X144805Y761174D01*
X144931Y761123D01*
X145057Y761070D01*
X145180Y761012D01*
X145302Y760952D01*
X145422Y760888D01*
X145541Y760820D01*
X145657Y760750D01*
X145771Y760676D01*
X145884Y760599D01*
X145994Y760518D01*
X141774Y756624D02*
X141688Y756677D01*
X141604Y756734D01*
X141522Y756793D01*
X141442Y756856D01*
X141365Y756922D01*
X141290Y756990D01*
X141218Y757062D01*
X141149Y757136D01*
X141083Y757213D01*
X141020Y757292D01*
X140960Y757374D01*
X140903Y757458D01*
X140849Y757544D01*
X140799Y757632D01*
X140752Y757722D01*
X140708Y757813D01*
X140669Y757907D01*
X140632Y758001D01*
X140600Y758097D01*
X140571Y758195D01*
X140546Y758293D01*
X140525Y758392D01*
X140507Y758492D01*
X140494Y758592D01*
X140484Y758693D01*
X140478Y758795D01*
X140476Y758896D01*
X145345Y754676D02*
X145431Y754623D01*
X145515Y754566D01*
X145597Y754507D01*
X145677Y754444D01*
X145754Y754378D01*
X145829Y754310D01*
X145901Y754238D01*
X145970Y754164D01*
X146036Y754087D01*
X146099Y754008D01*
X146159Y753926D01*
X146216Y753842D01*
X146270Y753756D01*
X146320Y753668D01*
X146367Y753578D01*
X146411Y753487D01*
X146450Y753393D01*
X146487Y753299D01*
X146519Y753203D01*
X146548Y753105D01*
X146573Y753007D01*
X146594Y752908D01*
X146612Y752808D01*
X146625Y752708D01*
X146635Y752607D01*
X146641Y752505D01*
X146643Y752404D01*
X145344Y754676D02*
X141774Y756624D01*
X151751Y756299D02*
X154996Y756299D01*
X154996Y756300D02*
X155109Y756298D01*
X155222Y756292D01*
X155335Y756282D01*
X155448Y756268D01*
X155560Y756251D01*
X155671Y756229D01*
X155781Y756204D01*
X155891Y756174D01*
X155999Y756141D01*
X156106Y756104D01*
X156212Y756064D01*
X156316Y756019D01*
X156419Y755971D01*
X156520Y755920D01*
X156619Y755865D01*
X156716Y755807D01*
X156811Y755745D01*
X156904Y755680D01*
X156994Y755612D01*
X157082Y755541D01*
X157168Y755466D01*
X157251Y755389D01*
X157331Y755309D01*
X157408Y755226D01*
X157483Y755140D01*
X157554Y755052D01*
X157622Y754962D01*
X157687Y754869D01*
X157749Y754774D01*
X157807Y754677D01*
X157862Y754578D01*
X157913Y754477D01*
X157961Y754374D01*
X158006Y754270D01*
X158046Y754164D01*
X158083Y754057D01*
X158116Y753949D01*
X158146Y753839D01*
X158171Y753729D01*
X158193Y753618D01*
X158210Y753506D01*
X158224Y753393D01*
X158234Y753280D01*
X158240Y753167D01*
X158242Y753054D01*
X158240Y752941D01*
X158234Y752828D01*
X158224Y752715D01*
X158210Y752602D01*
X158193Y752490D01*
X158171Y752379D01*
X158146Y752269D01*
X158116Y752159D01*
X158083Y752051D01*
X158046Y751944D01*
X158006Y751838D01*
X157961Y751734D01*
X157913Y751631D01*
X157862Y751530D01*
X157807Y751431D01*
X157749Y751334D01*
X157687Y751239D01*
X157622Y751146D01*
X157554Y751056D01*
X157483Y750968D01*
X157408Y750882D01*
X157331Y750799D01*
X157251Y750719D01*
X157168Y750642D01*
X157082Y750567D01*
X156994Y750496D01*
X156904Y750428D01*
X156811Y750363D01*
X156716Y750301D01*
X156619Y750243D01*
X156520Y750188D01*
X156419Y750137D01*
X156316Y750089D01*
X156212Y750044D01*
X156106Y750004D01*
X155999Y749967D01*
X155891Y749934D01*
X155781Y749904D01*
X155671Y749879D01*
X155560Y749857D01*
X155448Y749840D01*
X155335Y749826D01*
X155222Y749816D01*
X155109Y749810D01*
X154996Y749808D01*
X151751Y749808D01*
X151751Y761492D01*
X154996Y761492D01*
X155097Y761490D01*
X155197Y761484D01*
X155297Y761474D01*
X155397Y761461D01*
X155496Y761443D01*
X155595Y761422D01*
X155692Y761397D01*
X155789Y761368D01*
X155884Y761335D01*
X155978Y761299D01*
X156070Y761259D01*
X156161Y761216D01*
X156250Y761169D01*
X156337Y761119D01*
X156423Y761065D01*
X156506Y761008D01*
X156586Y760948D01*
X156665Y760885D01*
X156741Y760818D01*
X156814Y760749D01*
X156884Y760677D01*
X156952Y760603D01*
X157017Y760526D01*
X157078Y760446D01*
X157137Y760364D01*
X157192Y760280D01*
X157244Y760194D01*
X157293Y760106D01*
X157338Y760016D01*
X157380Y759924D01*
X157418Y759831D01*
X157452Y759736D01*
X157483Y759641D01*
X157510Y759544D01*
X157533Y759446D01*
X157553Y759347D01*
X157568Y759247D01*
X157580Y759147D01*
X157588Y759047D01*
X157592Y758946D01*
X157592Y758846D01*
X157588Y758745D01*
X157580Y758645D01*
X157568Y758545D01*
X157553Y758445D01*
X157533Y758346D01*
X157510Y758248D01*
X157483Y758151D01*
X157452Y758056D01*
X157418Y757961D01*
X157380Y757868D01*
X157338Y757776D01*
X157293Y757686D01*
X157244Y757598D01*
X157192Y757512D01*
X157137Y757428D01*
X157078Y757346D01*
X157017Y757266D01*
X156952Y757189D01*
X156884Y757115D01*
X156814Y757043D01*
X156741Y756974D01*
X156665Y756907D01*
X156586Y756844D01*
X156506Y756784D01*
X156423Y756727D01*
X156337Y756673D01*
X156250Y756623D01*
X156161Y756576D01*
X156070Y756533D01*
X155978Y756493D01*
X155884Y756457D01*
X155789Y756424D01*
X155692Y756395D01*
X155595Y756370D01*
X155496Y756349D01*
X155397Y756331D01*
X155297Y756318D01*
X155197Y756308D01*
X155097Y756302D01*
X154996Y756300D01*
D10*
X320040Y590550D02*
X320040Y568960D01*
X320040Y590550D02*
X320198Y590552D01*
X320357Y590558D01*
X320515Y590568D01*
X320672Y590582D01*
X320830Y590599D01*
X320986Y590621D01*
X321143Y590646D01*
X321298Y590676D01*
X321453Y590709D01*
X321607Y590746D01*
X321760Y590787D01*
X321912Y590832D01*
X322062Y590881D01*
X322212Y590933D01*
X322360Y590989D01*
X322507Y591049D01*
X322652Y591112D01*
X322795Y591179D01*
X322937Y591249D01*
X323077Y591323D01*
X323215Y591401D01*
X323351Y591482D01*
X323485Y591566D01*
X323617Y591653D01*
X323747Y591744D01*
X323874Y591838D01*
X323999Y591935D01*
X324122Y592036D01*
X324242Y592139D01*
X324359Y592245D01*
X324474Y592354D01*
X324586Y592466D01*
X324695Y592581D01*
X324801Y592698D01*
X324904Y592818D01*
X325005Y592941D01*
X325102Y593066D01*
X325196Y593193D01*
X325287Y593323D01*
X325374Y593455D01*
X325458Y593589D01*
X325539Y593725D01*
X325617Y593863D01*
X325691Y594003D01*
X325761Y594145D01*
X325828Y594288D01*
X325891Y594433D01*
X325951Y594580D01*
X326007Y594728D01*
X326059Y594878D01*
X326108Y595028D01*
X326153Y595180D01*
X326194Y595333D01*
X326231Y595487D01*
X326264Y595642D01*
X326294Y595797D01*
X326319Y595954D01*
X326341Y596110D01*
X326358Y596268D01*
X326372Y596425D01*
X326382Y596583D01*
X326388Y596742D01*
X326390Y596900D01*
X326388Y597058D01*
X326382Y597217D01*
X326372Y597375D01*
X326358Y597532D01*
X326341Y597690D01*
X326319Y597846D01*
X326294Y598003D01*
X326264Y598158D01*
X326231Y598313D01*
X326194Y598467D01*
X326153Y598620D01*
X326108Y598772D01*
X326059Y598922D01*
X326007Y599072D01*
X325951Y599220D01*
X325891Y599367D01*
X325828Y599512D01*
X325761Y599655D01*
X325691Y599797D01*
X325617Y599937D01*
X325539Y600075D01*
X325458Y600211D01*
X325374Y600345D01*
X325287Y600477D01*
X325196Y600607D01*
X325102Y600734D01*
X325005Y600859D01*
X324904Y600982D01*
X324801Y601102D01*
X324695Y601219D01*
X324586Y601334D01*
X324474Y601446D01*
X324359Y601555D01*
X324242Y601661D01*
X324122Y601764D01*
X323999Y601865D01*
X323874Y601962D01*
X323747Y602056D01*
X323617Y602147D01*
X323485Y602234D01*
X323351Y602318D01*
X323215Y602399D01*
X323077Y602477D01*
X322937Y602551D01*
X322795Y602621D01*
X322652Y602688D01*
X322507Y602751D01*
X322360Y602811D01*
X322212Y602867D01*
X322062Y602919D01*
X321912Y602968D01*
X321760Y603013D01*
X321607Y603054D01*
X321453Y603091D01*
X321298Y603124D01*
X321143Y603154D01*
X320986Y603179D01*
X320830Y603201D01*
X320672Y603218D01*
X320515Y603232D01*
X320357Y603242D01*
X320198Y603248D01*
X320040Y603250D01*
X619760Y624840D02*
X619760Y568960D01*
X320040Y568960D01*
X320040Y624840D02*
X619760Y624840D01*
X320040Y624840D02*
X320040Y603250D01*
D11*
X294894Y616712D02*
X294894Y624967D01*
X294894Y616712D02*
X294896Y616601D01*
X294902Y616491D01*
X294911Y616380D01*
X294925Y616270D01*
X294942Y616161D01*
X294963Y616052D01*
X294988Y615944D01*
X295017Y615837D01*
X295049Y615731D01*
X295085Y615626D01*
X295125Y615523D01*
X295168Y615421D01*
X295215Y615320D01*
X295266Y615221D01*
X295319Y615125D01*
X295376Y615030D01*
X295437Y614937D01*
X295500Y614846D01*
X295567Y614757D01*
X295637Y614671D01*
X295710Y614588D01*
X295785Y614506D01*
X295863Y614428D01*
X295945Y614353D01*
X296028Y614280D01*
X296114Y614210D01*
X296203Y614143D01*
X296294Y614080D01*
X296387Y614019D01*
X296482Y613962D01*
X296578Y613909D01*
X296677Y613858D01*
X296778Y613811D01*
X296880Y613768D01*
X296983Y613728D01*
X297088Y613692D01*
X297194Y613660D01*
X297301Y613631D01*
X297409Y613606D01*
X297518Y613585D01*
X297627Y613568D01*
X297737Y613554D01*
X297848Y613545D01*
X297958Y613539D01*
X298069Y613537D01*
X298180Y613539D01*
X298290Y613545D01*
X298401Y613554D01*
X298511Y613568D01*
X298620Y613585D01*
X298729Y613606D01*
X298837Y613631D01*
X298944Y613660D01*
X299050Y613692D01*
X299155Y613728D01*
X299258Y613768D01*
X299360Y613811D01*
X299461Y613858D01*
X299560Y613909D01*
X299656Y613962D01*
X299751Y614019D01*
X299844Y614080D01*
X299935Y614143D01*
X300024Y614210D01*
X300110Y614280D01*
X300193Y614353D01*
X300275Y614428D01*
X300353Y614506D01*
X300428Y614588D01*
X300501Y614671D01*
X300571Y614757D01*
X300638Y614846D01*
X300701Y614937D01*
X300762Y615030D01*
X300819Y615125D01*
X300872Y615221D01*
X300923Y615320D01*
X300970Y615421D01*
X301013Y615523D01*
X301053Y615626D01*
X301089Y615731D01*
X301121Y615837D01*
X301150Y615944D01*
X301175Y616052D01*
X301196Y616161D01*
X301213Y616270D01*
X301227Y616380D01*
X301236Y616491D01*
X301242Y616601D01*
X301244Y616712D01*
X301244Y624967D01*
X310198Y624968D02*
X310302Y624966D01*
X310407Y624960D01*
X310511Y624951D01*
X310614Y624938D01*
X310717Y624920D01*
X310819Y624900D01*
X310921Y624875D01*
X311021Y624847D01*
X311121Y624815D01*
X311219Y624779D01*
X311316Y624740D01*
X311411Y624698D01*
X311505Y624652D01*
X311597Y624602D01*
X311687Y624550D01*
X311775Y624494D01*
X311861Y624434D01*
X311945Y624372D01*
X312026Y624307D01*
X312105Y624239D01*
X312182Y624167D01*
X312255Y624094D01*
X312327Y624017D01*
X312395Y623938D01*
X312460Y623857D01*
X312522Y623773D01*
X312582Y623687D01*
X312638Y623599D01*
X312690Y623509D01*
X312740Y623417D01*
X312786Y623323D01*
X312828Y623228D01*
X312867Y623131D01*
X312903Y623033D01*
X312935Y622933D01*
X312963Y622833D01*
X312988Y622731D01*
X313008Y622629D01*
X313026Y622526D01*
X313039Y622423D01*
X313048Y622319D01*
X313054Y622214D01*
X313056Y622110D01*
X310198Y624967D02*
X310080Y624965D01*
X309961Y624959D01*
X309843Y624950D01*
X309726Y624937D01*
X309609Y624919D01*
X309492Y624899D01*
X309376Y624874D01*
X309261Y624846D01*
X309148Y624813D01*
X309035Y624778D01*
X308923Y624738D01*
X308813Y624696D01*
X308704Y624649D01*
X308596Y624599D01*
X308491Y624546D01*
X308387Y624489D01*
X308285Y624429D01*
X308185Y624366D01*
X308087Y624299D01*
X307991Y624230D01*
X307898Y624157D01*
X307807Y624081D01*
X307718Y624003D01*
X307632Y623921D01*
X307549Y623837D01*
X307468Y623751D01*
X307391Y623661D01*
X307316Y623570D01*
X307244Y623476D01*
X307175Y623379D01*
X307110Y623281D01*
X307047Y623180D01*
X306988Y623077D01*
X306932Y622973D01*
X306880Y622867D01*
X306831Y622759D01*
X306786Y622650D01*
X306744Y622539D01*
X306706Y622427D01*
X312103Y619888D02*
X312179Y619963D01*
X312254Y620042D01*
X312325Y620123D01*
X312394Y620207D01*
X312459Y620293D01*
X312521Y620381D01*
X312581Y620471D01*
X312637Y620563D01*
X312690Y620658D01*
X312739Y620754D01*
X312785Y620852D01*
X312828Y620951D01*
X312867Y621052D01*
X312902Y621154D01*
X312934Y621257D01*
X312962Y621361D01*
X312987Y621466D01*
X313008Y621573D01*
X313025Y621679D01*
X313038Y621786D01*
X313047Y621894D01*
X313053Y622002D01*
X313055Y622110D01*
X312103Y619887D02*
X306705Y613537D01*
X313055Y613537D01*
D10*
X492300Y301300D02*
X752300Y301300D01*
X752300Y181300D01*
X492300Y181300D01*
X492300Y301300D01*
D13*
X499618Y308554D02*
X499618Y316992D01*
X499618Y308554D02*
X499620Y308441D01*
X499626Y308328D01*
X499636Y308215D01*
X499650Y308102D01*
X499667Y307990D01*
X499689Y307879D01*
X499714Y307769D01*
X499744Y307659D01*
X499777Y307551D01*
X499814Y307444D01*
X499854Y307338D01*
X499899Y307234D01*
X499947Y307131D01*
X499998Y307030D01*
X500053Y306931D01*
X500111Y306834D01*
X500173Y306739D01*
X500238Y306646D01*
X500306Y306556D01*
X500377Y306468D01*
X500452Y306382D01*
X500529Y306299D01*
X500609Y306219D01*
X500692Y306142D01*
X500778Y306067D01*
X500866Y305996D01*
X500956Y305928D01*
X501049Y305863D01*
X501144Y305801D01*
X501241Y305743D01*
X501340Y305688D01*
X501441Y305637D01*
X501544Y305589D01*
X501648Y305544D01*
X501754Y305504D01*
X501861Y305467D01*
X501969Y305434D01*
X502079Y305404D01*
X502189Y305379D01*
X502300Y305357D01*
X502412Y305340D01*
X502525Y305326D01*
X502638Y305316D01*
X502751Y305310D01*
X502864Y305308D01*
X502977Y305310D01*
X503090Y305316D01*
X503203Y305326D01*
X503316Y305340D01*
X503428Y305357D01*
X503539Y305379D01*
X503649Y305404D01*
X503759Y305434D01*
X503867Y305467D01*
X503974Y305504D01*
X504080Y305544D01*
X504184Y305589D01*
X504287Y305637D01*
X504388Y305688D01*
X504487Y305743D01*
X504584Y305801D01*
X504679Y305863D01*
X504772Y305928D01*
X504862Y305996D01*
X504950Y306067D01*
X505036Y306142D01*
X505119Y306219D01*
X505199Y306299D01*
X505276Y306382D01*
X505351Y306468D01*
X505422Y306556D01*
X505490Y306646D01*
X505555Y306739D01*
X505617Y306834D01*
X505675Y306931D01*
X505730Y307030D01*
X505781Y307131D01*
X505829Y307234D01*
X505874Y307338D01*
X505914Y307444D01*
X505951Y307551D01*
X505984Y307659D01*
X506014Y307769D01*
X506039Y307879D01*
X506061Y307990D01*
X506078Y308102D01*
X506092Y308215D01*
X506102Y308328D01*
X506108Y308441D01*
X506110Y308554D01*
X506109Y308554D02*
X506109Y316992D01*
X511429Y305308D02*
X514675Y305308D01*
X514788Y305310D01*
X514901Y305316D01*
X515014Y305326D01*
X515127Y305340D01*
X515239Y305357D01*
X515350Y305379D01*
X515460Y305404D01*
X515570Y305434D01*
X515678Y305467D01*
X515785Y305504D01*
X515891Y305544D01*
X515995Y305589D01*
X516098Y305637D01*
X516199Y305688D01*
X516298Y305743D01*
X516395Y305801D01*
X516490Y305863D01*
X516583Y305928D01*
X516673Y305996D01*
X516761Y306067D01*
X516847Y306142D01*
X516930Y306219D01*
X517010Y306299D01*
X517087Y306382D01*
X517162Y306468D01*
X517233Y306556D01*
X517301Y306646D01*
X517366Y306739D01*
X517428Y306834D01*
X517486Y306931D01*
X517541Y307030D01*
X517592Y307131D01*
X517640Y307234D01*
X517685Y307338D01*
X517725Y307444D01*
X517762Y307551D01*
X517795Y307659D01*
X517825Y307769D01*
X517850Y307879D01*
X517872Y307990D01*
X517889Y308102D01*
X517903Y308215D01*
X517913Y308328D01*
X517919Y308441D01*
X517921Y308554D01*
X517919Y308667D01*
X517913Y308780D01*
X517903Y308893D01*
X517889Y309006D01*
X517872Y309118D01*
X517850Y309229D01*
X517825Y309339D01*
X517795Y309449D01*
X517762Y309557D01*
X517725Y309664D01*
X517685Y309770D01*
X517640Y309874D01*
X517592Y309977D01*
X517541Y310078D01*
X517486Y310177D01*
X517428Y310274D01*
X517366Y310369D01*
X517301Y310462D01*
X517233Y310552D01*
X517162Y310640D01*
X517087Y310726D01*
X517010Y310809D01*
X516930Y310889D01*
X516847Y310966D01*
X516761Y311041D01*
X516673Y311112D01*
X516583Y311180D01*
X516490Y311245D01*
X516395Y311307D01*
X516298Y311365D01*
X516199Y311420D01*
X516098Y311471D01*
X515995Y311519D01*
X515891Y311564D01*
X515785Y311604D01*
X515678Y311641D01*
X515570Y311674D01*
X515460Y311704D01*
X515350Y311729D01*
X515239Y311751D01*
X515127Y311768D01*
X515014Y311782D01*
X514901Y311792D01*
X514788Y311798D01*
X514675Y311800D01*
X515324Y316992D02*
X511429Y316992D01*
X515324Y316992D02*
X515425Y316990D01*
X515525Y316984D01*
X515625Y316974D01*
X515725Y316961D01*
X515824Y316943D01*
X515923Y316922D01*
X516020Y316897D01*
X516117Y316868D01*
X516212Y316835D01*
X516306Y316799D01*
X516398Y316759D01*
X516489Y316716D01*
X516578Y316669D01*
X516665Y316619D01*
X516751Y316565D01*
X516834Y316508D01*
X516914Y316448D01*
X516993Y316385D01*
X517069Y316318D01*
X517142Y316249D01*
X517212Y316177D01*
X517280Y316103D01*
X517345Y316026D01*
X517406Y315946D01*
X517465Y315864D01*
X517520Y315780D01*
X517572Y315694D01*
X517621Y315606D01*
X517666Y315516D01*
X517708Y315424D01*
X517746Y315331D01*
X517780Y315236D01*
X517811Y315141D01*
X517838Y315044D01*
X517861Y314946D01*
X517881Y314847D01*
X517896Y314747D01*
X517908Y314647D01*
X517916Y314547D01*
X517920Y314446D01*
X517920Y314346D01*
X517916Y314245D01*
X517908Y314145D01*
X517896Y314045D01*
X517881Y313945D01*
X517861Y313846D01*
X517838Y313748D01*
X517811Y313651D01*
X517780Y313556D01*
X517746Y313461D01*
X517708Y313368D01*
X517666Y313276D01*
X517621Y313186D01*
X517572Y313098D01*
X517520Y313012D01*
X517465Y312928D01*
X517406Y312846D01*
X517345Y312766D01*
X517280Y312689D01*
X517212Y312615D01*
X517142Y312543D01*
X517069Y312474D01*
X516993Y312407D01*
X516914Y312344D01*
X516834Y312284D01*
X516751Y312227D01*
X516665Y312173D01*
X516578Y312123D01*
X516489Y312076D01*
X516398Y312033D01*
X516306Y311993D01*
X516212Y311957D01*
X516117Y311924D01*
X516020Y311895D01*
X515923Y311870D01*
X515824Y311849D01*
X515725Y311831D01*
X515625Y311818D01*
X515525Y311808D01*
X515425Y311802D01*
X515324Y311800D01*
X515324Y311799D02*
X512727Y311799D01*
D17*
X211000Y617476D02*
X210932Y616431D01*
X210795Y615392D01*
X210590Y614365D01*
X210319Y613353D01*
X209983Y612361D01*
X209582Y611393D01*
X209118Y610454D01*
X208595Y609546D01*
X208013Y608675D01*
X207375Y607844D01*
X206684Y607057D01*
X205943Y606316D01*
X205156Y605625D01*
X204325Y604988D01*
X203454Y604406D01*
X202546Y603882D01*
X201607Y603418D01*
X200639Y603017D01*
X199647Y602681D01*
X198635Y602410D01*
X197608Y602205D01*
X196569Y602069D01*
X195524Y602000D01*
X194476Y602000D01*
X193431Y602069D01*
X192392Y602205D01*
X191365Y602410D01*
X190353Y602681D01*
X189361Y603017D01*
X188393Y603418D01*
X187454Y603882D01*
X186546Y604406D01*
X185675Y604988D01*
X184844Y605625D01*
X184057Y606316D01*
X183316Y607057D01*
X182625Y607844D01*
X181988Y608675D01*
X181406Y609546D01*
X180882Y610454D01*
X180418Y611393D01*
X180017Y612361D01*
X179681Y613353D01*
X179410Y614365D01*
X179205Y615392D01*
X179069Y616431D01*
X179000Y617476D01*
X179000Y618524D01*
X179069Y619569D01*
X179205Y620608D01*
X179410Y621635D01*
X179681Y622647D01*
X180017Y623639D01*
X180418Y624607D01*
X180882Y625546D01*
X181406Y626454D01*
X181988Y627325D01*
X182625Y628156D01*
X183316Y628943D01*
X184057Y629684D01*
X184844Y630375D01*
X185675Y631013D01*
X186546Y631595D01*
X187454Y632118D01*
X188393Y632582D01*
X189361Y632983D01*
X190353Y633319D01*
X191365Y633590D01*
X192392Y633795D01*
X193431Y633932D01*
X194476Y634000D01*
X195524Y634000D01*
X196569Y633932D01*
X197608Y633795D01*
X198635Y633590D01*
X199647Y633319D01*
X200639Y632983D01*
X201607Y632582D01*
X202546Y632118D01*
X203454Y631595D01*
X204325Y631013D01*
X205156Y630375D01*
X205943Y629684D01*
X206684Y628943D01*
X207375Y628156D01*
X208013Y627325D01*
X208595Y626454D01*
X209118Y625546D01*
X209582Y624607D01*
X209983Y623639D01*
X210319Y622647D01*
X210590Y621635D01*
X210795Y620608D01*
X210932Y619569D01*
X211000Y618524D01*
X211000Y617476D01*
X211000Y287476D02*
X210932Y286431D01*
X210795Y285392D01*
X210590Y284365D01*
X210319Y283353D01*
X209983Y282361D01*
X209582Y281393D01*
X209118Y280454D01*
X208595Y279546D01*
X208013Y278675D01*
X207375Y277844D01*
X206684Y277057D01*
X205943Y276316D01*
X205156Y275625D01*
X204325Y274988D01*
X203454Y274406D01*
X202546Y273882D01*
X201607Y273418D01*
X200639Y273017D01*
X199647Y272681D01*
X198635Y272410D01*
X197608Y272205D01*
X196569Y272069D01*
X195524Y272000D01*
X194476Y272000D01*
X193431Y272069D01*
X192392Y272205D01*
X191365Y272410D01*
X190353Y272681D01*
X189361Y273017D01*
X188393Y273418D01*
X187454Y273882D01*
X186546Y274406D01*
X185675Y274988D01*
X184844Y275625D01*
X184057Y276316D01*
X183316Y277057D01*
X182625Y277844D01*
X181988Y278675D01*
X181406Y279546D01*
X180882Y280454D01*
X180418Y281393D01*
X180017Y282361D01*
X179681Y283353D01*
X179410Y284365D01*
X179205Y285392D01*
X179069Y286431D01*
X179000Y287476D01*
X179000Y288524D01*
X179069Y289569D01*
X179205Y290608D01*
X179410Y291635D01*
X179681Y292647D01*
X180017Y293639D01*
X180418Y294607D01*
X180882Y295546D01*
X181406Y296454D01*
X181988Y297325D01*
X182625Y298156D01*
X183316Y298943D01*
X184057Y299684D01*
X184844Y300375D01*
X185675Y301013D01*
X186546Y301595D01*
X187454Y302118D01*
X188393Y302582D01*
X189361Y302983D01*
X190353Y303319D01*
X191365Y303590D01*
X192392Y303795D01*
X193431Y303932D01*
X194476Y304000D01*
X195524Y304000D01*
X196569Y303932D01*
X197608Y303795D01*
X198635Y303590D01*
X199647Y303319D01*
X200639Y302983D01*
X201607Y302582D01*
X202546Y302118D01*
X203454Y301595D01*
X204325Y301013D01*
X205156Y300375D01*
X205943Y299684D01*
X206684Y298943D01*
X207375Y298156D01*
X208013Y297325D01*
X208595Y296454D01*
X209118Y295546D01*
X209582Y294607D01*
X209983Y293639D01*
X210319Y292647D01*
X210590Y291635D01*
X210795Y290608D01*
X210932Y289569D01*
X211000Y288524D01*
X211000Y287476D01*
X801000Y617476D02*
X800932Y616431D01*
X800795Y615392D01*
X800590Y614365D01*
X800319Y613353D01*
X799983Y612361D01*
X799582Y611393D01*
X799118Y610454D01*
X798595Y609546D01*
X798013Y608675D01*
X797375Y607844D01*
X796684Y607057D01*
X795943Y606316D01*
X795156Y605625D01*
X794325Y604988D01*
X793454Y604406D01*
X792546Y603882D01*
X791607Y603418D01*
X790639Y603017D01*
X789647Y602681D01*
X788635Y602410D01*
X787608Y602205D01*
X786569Y602069D01*
X785524Y602000D01*
X784476Y602000D01*
X783431Y602069D01*
X782392Y602205D01*
X781365Y602410D01*
X780353Y602681D01*
X779361Y603017D01*
X778393Y603418D01*
X777454Y603882D01*
X776546Y604406D01*
X775675Y604988D01*
X774844Y605625D01*
X774057Y606316D01*
X773316Y607057D01*
X772625Y607844D01*
X771988Y608675D01*
X771406Y609546D01*
X770882Y610454D01*
X770418Y611393D01*
X770017Y612361D01*
X769681Y613353D01*
X769410Y614365D01*
X769205Y615392D01*
X769069Y616431D01*
X769000Y617476D01*
X769000Y618524D01*
X769069Y619569D01*
X769205Y620608D01*
X769410Y621635D01*
X769681Y622647D01*
X770017Y623639D01*
X770418Y624607D01*
X770882Y625546D01*
X771406Y626454D01*
X771988Y627325D01*
X772625Y628156D01*
X773316Y628943D01*
X774057Y629684D01*
X774844Y630375D01*
X775675Y631013D01*
X776546Y631595D01*
X777454Y632118D01*
X778393Y632582D01*
X779361Y632983D01*
X780353Y633319D01*
X781365Y633590D01*
X782392Y633795D01*
X783431Y633932D01*
X784476Y634000D01*
X785524Y634000D01*
X786569Y633932D01*
X787608Y633795D01*
X788635Y633590D01*
X789647Y633319D01*
X790639Y632983D01*
X791607Y632582D01*
X792546Y632118D01*
X793454Y631595D01*
X794325Y631013D01*
X795156Y630375D01*
X795943Y629684D01*
X796684Y628943D01*
X797375Y628156D01*
X798013Y627325D01*
X798595Y626454D01*
X799118Y625546D01*
X799582Y624607D01*
X799983Y623639D01*
X800319Y622647D01*
X800590Y621635D01*
X800795Y620608D01*
X800932Y619569D01*
X801000Y618524D01*
X801000Y617476D01*
X801000Y287476D02*
X800932Y286431D01*
X800795Y285392D01*
X800590Y284365D01*
X800319Y283353D01*
X799983Y282361D01*
X799582Y281393D01*
X799118Y280454D01*
X798595Y279546D01*
X798013Y278675D01*
X797375Y277844D01*
X796684Y277057D01*
X795943Y276316D01*
X795156Y275625D01*
X794325Y274988D01*
X793454Y274406D01*
X792546Y273882D01*
X791607Y273418D01*
X790639Y273017D01*
X789647Y272681D01*
X788635Y272410D01*
X787608Y272205D01*
X786569Y272069D01*
X785524Y272000D01*
X784476Y272000D01*
X783431Y272069D01*
X782392Y272205D01*
X781365Y272410D01*
X780353Y272681D01*
X779361Y273017D01*
X778393Y273418D01*
X777454Y273882D01*
X776546Y274406D01*
X775675Y274988D01*
X774844Y275625D01*
X774057Y276316D01*
X773316Y277057D01*
X772625Y277844D01*
X771988Y278675D01*
X771406Y279546D01*
X770882Y280454D01*
X770418Y281393D01*
X770017Y282361D01*
X769681Y283353D01*
X769410Y284365D01*
X769205Y285392D01*
X769069Y286431D01*
X769000Y287476D01*
X769000Y288524D01*
X769069Y289569D01*
X769205Y290608D01*
X769410Y291635D01*
X769681Y292647D01*
X770017Y293639D01*
X770418Y294607D01*
X770882Y295546D01*
X771406Y296454D01*
X771988Y297325D01*
X772625Y298156D01*
X773316Y298943D01*
X774057Y299684D01*
X774844Y300375D01*
X775675Y301013D01*
X776546Y301595D01*
X777454Y302118D01*
X778393Y302582D01*
X779361Y302983D01*
X780353Y303319D01*
X781365Y303590D01*
X782392Y303795D01*
X783431Y303932D01*
X784476Y304000D01*
X785524Y304000D01*
X786569Y303932D01*
X787608Y303795D01*
X788635Y303590D01*
X789647Y303319D01*
X790639Y302983D01*
X791607Y302582D01*
X792546Y302118D01*
X793454Y301595D01*
X794325Y301013D01*
X795156Y300375D01*
X795943Y299684D01*
X796684Y298943D01*
X797375Y298156D01*
X798013Y297325D01*
X798595Y296454D01*
X799118Y295546D01*
X799582Y294607D01*
X799983Y293639D01*
X800319Y292647D01*
X800590Y291635D01*
X800795Y290608D01*
X800932Y289569D01*
X801000Y288524D01*
X801000Y287476D01*
X725650Y850728D02*
X725583Y850390D01*
X725451Y850071D01*
X725259Y849784D01*
X725016Y849541D01*
X724729Y849349D01*
X724410Y849217D01*
X724072Y849150D01*
X723728Y849150D01*
X723390Y849217D01*
X723071Y849349D01*
X722784Y849541D01*
X722541Y849784D01*
X722349Y850071D01*
X722217Y850390D01*
X722150Y850728D01*
X722150Y851072D01*
X722217Y851410D01*
X722349Y851729D01*
X722541Y852016D01*
X722784Y852259D01*
X723071Y852451D01*
X723390Y852583D01*
X723728Y852650D01*
X724072Y852650D01*
X724410Y852583D01*
X724729Y852451D01*
X725016Y852259D01*
X725259Y852016D01*
X725451Y851729D01*
X725583Y851410D01*
X725650Y851072D01*
X725650Y850728D01*
X166850Y177628D02*
X166783Y177290D01*
X166651Y176971D01*
X166459Y176684D01*
X166216Y176441D01*
X165929Y176249D01*
X165610Y176117D01*
X165272Y176050D01*
X164928Y176050D01*
X164590Y176117D01*
X164271Y176249D01*
X163984Y176441D01*
X163741Y176684D01*
X163549Y176971D01*
X163417Y177290D01*
X163350Y177628D01*
X163350Y177972D01*
X163417Y178310D01*
X163549Y178629D01*
X163741Y178916D01*
X163984Y179159D01*
X164271Y179351D01*
X164590Y179483D01*
X164928Y179550D01*
X165272Y179550D01*
X165610Y179483D01*
X165929Y179351D01*
X166216Y179159D01*
X166459Y178916D01*
X166651Y178629D01*
X166783Y178310D01*
X166850Y177972D01*
X166850Y177628D01*
X814550Y177628D02*
X814483Y177290D01*
X814351Y176971D01*
X814159Y176684D01*
X813916Y176441D01*
X813629Y176249D01*
X813310Y176117D01*
X812972Y176050D01*
X812628Y176050D01*
X812290Y176117D01*
X811971Y176249D01*
X811684Y176441D01*
X811441Y176684D01*
X811249Y176971D01*
X811117Y177290D01*
X811050Y177628D01*
X811050Y177972D01*
X811117Y178310D01*
X811249Y178629D01*
X811441Y178916D01*
X811684Y179159D01*
X811971Y179351D01*
X812290Y179483D01*
X812628Y179550D01*
X812972Y179550D01*
X813310Y179483D01*
X813629Y179351D01*
X813916Y179159D01*
X814159Y178916D01*
X814351Y178629D01*
X814483Y178310D01*
X814550Y177972D01*
X814550Y177628D01*
X90650Y850728D02*
X90583Y850390D01*
X90451Y850071D01*
X90259Y849784D01*
X90016Y849541D01*
X89729Y849349D01*
X89410Y849217D01*
X89072Y849150D01*
X88728Y849150D01*
X88390Y849217D01*
X88071Y849349D01*
X87784Y849541D01*
X87541Y849784D01*
X87349Y850071D01*
X87217Y850390D01*
X87150Y850728D01*
X87150Y851072D01*
X87217Y851410D01*
X87349Y851729D01*
X87541Y852016D01*
X87784Y852259D01*
X88071Y852451D01*
X88390Y852583D01*
X88728Y852650D01*
X89072Y852650D01*
X89410Y852583D01*
X89729Y852451D01*
X90016Y852259D01*
X90259Y852016D01*
X90451Y851729D01*
X90583Y851410D01*
X90650Y851072D01*
X90650Y850728D01*
M02*
