G04 EAGLE Gerber RS-274X export*
G75*
%MOMM*%
%FSLAX34Y34*%
%LPD*%
%INSilkscreen Top*%
%IPPOS*%
%AMOC8*
5,1,8,0,0,1.08239X$1,22.5*%
G01*
%ADD10C,0.127000*%
%ADD11C,0.152400*%
%ADD12C,0.100000*%
%ADD13C,0.101600*%
%ADD14C,0.609600*%
%ADD15R,0.609600X0.863600*%
%ADD16C,0.812800*%
%ADD17C,0.254000*%


D10*
X160020Y190500D02*
X160022Y190642D01*
X160028Y190785D01*
X160038Y190927D01*
X160052Y191069D01*
X160070Y191210D01*
X160092Y191351D01*
X160118Y191491D01*
X160147Y191630D01*
X160181Y191769D01*
X160219Y191906D01*
X160260Y192043D01*
X160305Y192178D01*
X160354Y192312D01*
X160407Y192444D01*
X160463Y192575D01*
X160523Y192704D01*
X160587Y192832D01*
X160654Y192957D01*
X160725Y193081D01*
X160799Y193203D01*
X160876Y193322D01*
X160957Y193440D01*
X161041Y193555D01*
X161128Y193667D01*
X161219Y193777D01*
X161312Y193885D01*
X161409Y193990D01*
X161508Y194092D01*
X161610Y194191D01*
X161715Y194288D01*
X161823Y194381D01*
X161933Y194472D01*
X162045Y194559D01*
X162160Y194643D01*
X162278Y194724D01*
X162397Y194801D01*
X162519Y194875D01*
X162643Y194946D01*
X162768Y195013D01*
X162896Y195077D01*
X163025Y195137D01*
X163156Y195193D01*
X163288Y195246D01*
X163422Y195295D01*
X163557Y195340D01*
X163694Y195381D01*
X163831Y195419D01*
X163970Y195453D01*
X164109Y195482D01*
X164249Y195508D01*
X164390Y195530D01*
X164531Y195548D01*
X164673Y195562D01*
X164815Y195572D01*
X164958Y195578D01*
X165100Y195580D01*
X165242Y195578D01*
X165385Y195572D01*
X165527Y195562D01*
X165669Y195548D01*
X165810Y195530D01*
X165951Y195508D01*
X166091Y195482D01*
X166230Y195453D01*
X166369Y195419D01*
X166506Y195381D01*
X166643Y195340D01*
X166778Y195295D01*
X166912Y195246D01*
X167044Y195193D01*
X167175Y195137D01*
X167304Y195077D01*
X167432Y195013D01*
X167557Y194946D01*
X167681Y194875D01*
X167803Y194801D01*
X167922Y194724D01*
X168040Y194643D01*
X168155Y194559D01*
X168267Y194472D01*
X168377Y194381D01*
X168485Y194288D01*
X168590Y194191D01*
X168692Y194092D01*
X168791Y193990D01*
X168888Y193885D01*
X168981Y193777D01*
X169072Y193667D01*
X169159Y193555D01*
X169243Y193440D01*
X169324Y193322D01*
X169401Y193203D01*
X169475Y193081D01*
X169546Y192957D01*
X169613Y192832D01*
X169677Y192704D01*
X169737Y192575D01*
X169793Y192444D01*
X169846Y192312D01*
X169895Y192178D01*
X169940Y192043D01*
X169981Y191906D01*
X170019Y191769D01*
X170053Y191630D01*
X170082Y191491D01*
X170108Y191351D01*
X170130Y191210D01*
X170148Y191069D01*
X170162Y190927D01*
X170172Y190785D01*
X170178Y190642D01*
X170180Y190500D01*
X170178Y190358D01*
X170172Y190215D01*
X170162Y190073D01*
X170148Y189931D01*
X170130Y189790D01*
X170108Y189649D01*
X170082Y189509D01*
X170053Y189370D01*
X170019Y189231D01*
X169981Y189094D01*
X169940Y188957D01*
X169895Y188822D01*
X169846Y188688D01*
X169793Y188556D01*
X169737Y188425D01*
X169677Y188296D01*
X169613Y188168D01*
X169546Y188043D01*
X169475Y187919D01*
X169401Y187797D01*
X169324Y187678D01*
X169243Y187560D01*
X169159Y187445D01*
X169072Y187333D01*
X168981Y187223D01*
X168888Y187115D01*
X168791Y187010D01*
X168692Y186908D01*
X168590Y186809D01*
X168485Y186712D01*
X168377Y186619D01*
X168267Y186528D01*
X168155Y186441D01*
X168040Y186357D01*
X167922Y186276D01*
X167803Y186199D01*
X167681Y186125D01*
X167557Y186054D01*
X167432Y185987D01*
X167304Y185923D01*
X167175Y185863D01*
X167044Y185807D01*
X166912Y185754D01*
X166778Y185705D01*
X166643Y185660D01*
X166506Y185619D01*
X166369Y185581D01*
X166230Y185547D01*
X166091Y185518D01*
X165951Y185492D01*
X165810Y185470D01*
X165669Y185452D01*
X165527Y185438D01*
X165385Y185428D01*
X165242Y185422D01*
X165100Y185420D01*
X164958Y185422D01*
X164815Y185428D01*
X164673Y185438D01*
X164531Y185452D01*
X164390Y185470D01*
X164249Y185492D01*
X164109Y185518D01*
X163970Y185547D01*
X163831Y185581D01*
X163694Y185619D01*
X163557Y185660D01*
X163422Y185705D01*
X163288Y185754D01*
X163156Y185807D01*
X163025Y185863D01*
X162896Y185923D01*
X162768Y185987D01*
X162643Y186054D01*
X162519Y186125D01*
X162397Y186199D01*
X162278Y186276D01*
X162160Y186357D01*
X162045Y186441D01*
X161933Y186528D01*
X161823Y186619D01*
X161715Y186712D01*
X161610Y186809D01*
X161508Y186908D01*
X161409Y187010D01*
X161312Y187115D01*
X161219Y187223D01*
X161128Y187333D01*
X161041Y187445D01*
X160957Y187560D01*
X160876Y187678D01*
X160799Y187797D01*
X160725Y187919D01*
X160654Y188043D01*
X160587Y188168D01*
X160523Y188296D01*
X160463Y188425D01*
X160407Y188556D01*
X160354Y188688D01*
X160305Y188822D01*
X160260Y188957D01*
X160219Y189094D01*
X160181Y189231D01*
X160147Y189370D01*
X160118Y189509D01*
X160092Y189649D01*
X160070Y189790D01*
X160052Y189931D01*
X160038Y190073D01*
X160028Y190215D01*
X160022Y190358D01*
X160020Y190500D01*
X706120Y838200D02*
X706122Y838342D01*
X706128Y838485D01*
X706138Y838627D01*
X706152Y838769D01*
X706170Y838910D01*
X706192Y839051D01*
X706218Y839191D01*
X706247Y839330D01*
X706281Y839469D01*
X706319Y839606D01*
X706360Y839743D01*
X706405Y839878D01*
X706454Y840012D01*
X706507Y840144D01*
X706563Y840275D01*
X706623Y840404D01*
X706687Y840532D01*
X706754Y840657D01*
X706825Y840781D01*
X706899Y840903D01*
X706976Y841022D01*
X707057Y841140D01*
X707141Y841255D01*
X707228Y841367D01*
X707319Y841477D01*
X707412Y841585D01*
X707509Y841690D01*
X707608Y841792D01*
X707710Y841891D01*
X707815Y841988D01*
X707923Y842081D01*
X708033Y842172D01*
X708145Y842259D01*
X708260Y842343D01*
X708378Y842424D01*
X708497Y842501D01*
X708619Y842575D01*
X708743Y842646D01*
X708868Y842713D01*
X708996Y842777D01*
X709125Y842837D01*
X709256Y842893D01*
X709388Y842946D01*
X709522Y842995D01*
X709657Y843040D01*
X709794Y843081D01*
X709931Y843119D01*
X710070Y843153D01*
X710209Y843182D01*
X710349Y843208D01*
X710490Y843230D01*
X710631Y843248D01*
X710773Y843262D01*
X710915Y843272D01*
X711058Y843278D01*
X711200Y843280D01*
X711342Y843278D01*
X711485Y843272D01*
X711627Y843262D01*
X711769Y843248D01*
X711910Y843230D01*
X712051Y843208D01*
X712191Y843182D01*
X712330Y843153D01*
X712469Y843119D01*
X712606Y843081D01*
X712743Y843040D01*
X712878Y842995D01*
X713012Y842946D01*
X713144Y842893D01*
X713275Y842837D01*
X713404Y842777D01*
X713532Y842713D01*
X713657Y842646D01*
X713781Y842575D01*
X713903Y842501D01*
X714022Y842424D01*
X714140Y842343D01*
X714255Y842259D01*
X714367Y842172D01*
X714477Y842081D01*
X714585Y841988D01*
X714690Y841891D01*
X714792Y841792D01*
X714891Y841690D01*
X714988Y841585D01*
X715081Y841477D01*
X715172Y841367D01*
X715259Y841255D01*
X715343Y841140D01*
X715424Y841022D01*
X715501Y840903D01*
X715575Y840781D01*
X715646Y840657D01*
X715713Y840532D01*
X715777Y840404D01*
X715837Y840275D01*
X715893Y840144D01*
X715946Y840012D01*
X715995Y839878D01*
X716040Y839743D01*
X716081Y839606D01*
X716119Y839469D01*
X716153Y839330D01*
X716182Y839191D01*
X716208Y839051D01*
X716230Y838910D01*
X716248Y838769D01*
X716262Y838627D01*
X716272Y838485D01*
X716278Y838342D01*
X716280Y838200D01*
X716278Y838058D01*
X716272Y837915D01*
X716262Y837773D01*
X716248Y837631D01*
X716230Y837490D01*
X716208Y837349D01*
X716182Y837209D01*
X716153Y837070D01*
X716119Y836931D01*
X716081Y836794D01*
X716040Y836657D01*
X715995Y836522D01*
X715946Y836388D01*
X715893Y836256D01*
X715837Y836125D01*
X715777Y835996D01*
X715713Y835868D01*
X715646Y835743D01*
X715575Y835619D01*
X715501Y835497D01*
X715424Y835378D01*
X715343Y835260D01*
X715259Y835145D01*
X715172Y835033D01*
X715081Y834923D01*
X714988Y834815D01*
X714891Y834710D01*
X714792Y834608D01*
X714690Y834509D01*
X714585Y834412D01*
X714477Y834319D01*
X714367Y834228D01*
X714255Y834141D01*
X714140Y834057D01*
X714022Y833976D01*
X713903Y833899D01*
X713781Y833825D01*
X713657Y833754D01*
X713532Y833687D01*
X713404Y833623D01*
X713275Y833563D01*
X713144Y833507D01*
X713012Y833454D01*
X712878Y833405D01*
X712743Y833360D01*
X712606Y833319D01*
X712469Y833281D01*
X712330Y833247D01*
X712191Y833218D01*
X712051Y833192D01*
X711910Y833170D01*
X711769Y833152D01*
X711627Y833138D01*
X711485Y833128D01*
X711342Y833122D01*
X711200Y833120D01*
X711058Y833122D01*
X710915Y833128D01*
X710773Y833138D01*
X710631Y833152D01*
X710490Y833170D01*
X710349Y833192D01*
X710209Y833218D01*
X710070Y833247D01*
X709931Y833281D01*
X709794Y833319D01*
X709657Y833360D01*
X709522Y833405D01*
X709388Y833454D01*
X709256Y833507D01*
X709125Y833563D01*
X708996Y833623D01*
X708868Y833687D01*
X708743Y833754D01*
X708619Y833825D01*
X708497Y833899D01*
X708378Y833976D01*
X708260Y834057D01*
X708145Y834141D01*
X708033Y834228D01*
X707923Y834319D01*
X707815Y834412D01*
X707710Y834509D01*
X707608Y834608D01*
X707509Y834710D01*
X707412Y834815D01*
X707319Y834923D01*
X707228Y835033D01*
X707141Y835145D01*
X707057Y835260D01*
X706976Y835378D01*
X706899Y835497D01*
X706825Y835619D01*
X706754Y835743D01*
X706687Y835868D01*
X706623Y835996D01*
X706563Y836125D01*
X706507Y836256D01*
X706454Y836388D01*
X706405Y836522D01*
X706360Y836657D01*
X706319Y836794D01*
X706281Y836931D01*
X706247Y837070D01*
X706218Y837209D01*
X706192Y837349D01*
X706170Y837490D01*
X706152Y837631D01*
X706138Y837773D01*
X706128Y837915D01*
X706122Y838058D01*
X706120Y838200D01*
D11*
X749300Y232410D02*
X749300Y227330D01*
X751840Y229870D02*
X746760Y229870D01*
X742950Y237490D02*
X742956Y237989D01*
X742974Y238487D01*
X743005Y238985D01*
X743048Y239482D01*
X743103Y239977D01*
X743170Y240472D01*
X743249Y240964D01*
X743340Y241454D01*
X743444Y241942D01*
X743559Y242427D01*
X743686Y242910D01*
X743825Y243389D01*
X743976Y243864D01*
X744138Y244336D01*
X744312Y244803D01*
X744497Y245266D01*
X744693Y245725D01*
X744901Y246178D01*
X745120Y246626D01*
X745349Y247069D01*
X745590Y247506D01*
X745841Y247937D01*
X746103Y248361D01*
X746375Y248779D01*
X746657Y249190D01*
X746949Y249595D01*
X747251Y249992D01*
X747562Y250381D01*
X747884Y250762D01*
X748214Y251136D01*
X748553Y251501D01*
X748902Y251858D01*
X749259Y252207D01*
X749624Y252546D01*
X749998Y252876D01*
X750379Y253198D01*
X750768Y253509D01*
X751165Y253811D01*
X751570Y254103D01*
X751981Y254385D01*
X752399Y254657D01*
X752823Y254919D01*
X753254Y255170D01*
X753691Y255411D01*
X754134Y255640D01*
X754582Y255859D01*
X755035Y256067D01*
X755494Y256263D01*
X755957Y256448D01*
X756424Y256622D01*
X756896Y256784D01*
X757371Y256935D01*
X757850Y257074D01*
X758333Y257201D01*
X758818Y257316D01*
X759306Y257420D01*
X759796Y257511D01*
X760288Y257590D01*
X760783Y257657D01*
X761278Y257712D01*
X761775Y257755D01*
X762273Y257786D01*
X762771Y257804D01*
X763270Y257810D01*
X763769Y257804D01*
X764267Y257786D01*
X764765Y257755D01*
X765262Y257712D01*
X765757Y257657D01*
X766252Y257590D01*
X766744Y257511D01*
X767234Y257420D01*
X767722Y257316D01*
X768207Y257201D01*
X768690Y257074D01*
X769169Y256935D01*
X769644Y256784D01*
X770116Y256622D01*
X770583Y256448D01*
X771046Y256263D01*
X771505Y256067D01*
X771958Y255859D01*
X772406Y255640D01*
X772849Y255411D01*
X773286Y255170D01*
X773717Y254919D01*
X774141Y254657D01*
X774559Y254385D01*
X774970Y254103D01*
X775375Y253811D01*
X775772Y253509D01*
X776161Y253198D01*
X776542Y252876D01*
X776916Y252546D01*
X777281Y252207D01*
X777638Y251858D01*
X777987Y251501D01*
X778326Y251136D01*
X778656Y250762D01*
X778978Y250381D01*
X779289Y249992D01*
X779591Y249595D01*
X779883Y249190D01*
X780165Y248779D01*
X780437Y248361D01*
X780699Y247937D01*
X780950Y247506D01*
X781191Y247069D01*
X781420Y246626D01*
X781639Y246178D01*
X781847Y245725D01*
X782043Y245266D01*
X782228Y244803D01*
X782402Y244336D01*
X782564Y243864D01*
X782715Y243389D01*
X782854Y242910D01*
X782981Y242427D01*
X783096Y241942D01*
X783200Y241454D01*
X783291Y240964D01*
X783370Y240472D01*
X783437Y239977D01*
X783492Y239482D01*
X783535Y238985D01*
X783566Y238487D01*
X783584Y237989D01*
X783590Y237490D01*
X783584Y236991D01*
X783566Y236493D01*
X783535Y235995D01*
X783492Y235498D01*
X783437Y235003D01*
X783370Y234508D01*
X783291Y234016D01*
X783200Y233526D01*
X783096Y233038D01*
X782981Y232553D01*
X782854Y232070D01*
X782715Y231591D01*
X782564Y231116D01*
X782402Y230644D01*
X782228Y230177D01*
X782043Y229714D01*
X781847Y229255D01*
X781639Y228802D01*
X781420Y228354D01*
X781191Y227911D01*
X780950Y227474D01*
X780699Y227043D01*
X780437Y226619D01*
X780165Y226201D01*
X779883Y225790D01*
X779591Y225385D01*
X779289Y224988D01*
X778978Y224599D01*
X778656Y224218D01*
X778326Y223844D01*
X777987Y223479D01*
X777638Y223122D01*
X777281Y222773D01*
X776916Y222434D01*
X776542Y222104D01*
X776161Y221782D01*
X775772Y221471D01*
X775375Y221169D01*
X774970Y220877D01*
X774559Y220595D01*
X774141Y220323D01*
X773717Y220061D01*
X773286Y219810D01*
X772849Y219569D01*
X772406Y219340D01*
X771958Y219121D01*
X771505Y218913D01*
X771046Y218717D01*
X770583Y218532D01*
X770116Y218358D01*
X769644Y218196D01*
X769169Y218045D01*
X768690Y217906D01*
X768207Y217779D01*
X767722Y217664D01*
X767234Y217560D01*
X766744Y217469D01*
X766252Y217390D01*
X765757Y217323D01*
X765262Y217268D01*
X764765Y217225D01*
X764267Y217194D01*
X763769Y217176D01*
X763270Y217170D01*
X762771Y217176D01*
X762273Y217194D01*
X761775Y217225D01*
X761278Y217268D01*
X760783Y217323D01*
X760288Y217390D01*
X759796Y217469D01*
X759306Y217560D01*
X758818Y217664D01*
X758333Y217779D01*
X757850Y217906D01*
X757371Y218045D01*
X756896Y218196D01*
X756424Y218358D01*
X755957Y218532D01*
X755494Y218717D01*
X755035Y218913D01*
X754582Y219121D01*
X754134Y219340D01*
X753691Y219569D01*
X753254Y219810D01*
X752823Y220061D01*
X752399Y220323D01*
X751981Y220595D01*
X751570Y220877D01*
X751165Y221169D01*
X750768Y221471D01*
X750379Y221782D01*
X749998Y222104D01*
X749624Y222434D01*
X749259Y222773D01*
X748902Y223122D01*
X748553Y223479D01*
X748214Y223844D01*
X747884Y224218D01*
X747562Y224599D01*
X747251Y224988D01*
X746949Y225385D01*
X746657Y225790D01*
X746375Y226201D01*
X746103Y226619D01*
X745841Y227043D01*
X745590Y227474D01*
X745349Y227911D01*
X745120Y228354D01*
X744901Y228802D01*
X744693Y229255D01*
X744497Y229714D01*
X744312Y230177D01*
X744138Y230644D01*
X743976Y231116D01*
X743825Y231591D01*
X743686Y232070D01*
X743559Y232553D01*
X743444Y233038D01*
X743340Y233526D01*
X743249Y234016D01*
X743170Y234508D01*
X743103Y235003D01*
X743048Y235498D01*
X743005Y235995D01*
X742974Y236493D01*
X742956Y236991D01*
X742950Y237490D01*
X758993Y263398D02*
X761815Y263398D01*
X758993Y263398D02*
X758887Y263400D01*
X758782Y263406D01*
X758677Y263416D01*
X758572Y263430D01*
X758468Y263447D01*
X758365Y263469D01*
X758263Y263494D01*
X758161Y263523D01*
X758061Y263556D01*
X757962Y263593D01*
X757865Y263633D01*
X757769Y263677D01*
X757674Y263725D01*
X757582Y263776D01*
X757492Y263831D01*
X757403Y263888D01*
X757317Y263949D01*
X757234Y264014D01*
X757152Y264081D01*
X757074Y264151D01*
X756998Y264225D01*
X756924Y264301D01*
X756854Y264379D01*
X756787Y264461D01*
X756722Y264544D01*
X756661Y264630D01*
X756604Y264719D01*
X756549Y264809D01*
X756498Y264901D01*
X756450Y264996D01*
X756406Y265092D01*
X756366Y265189D01*
X756329Y265288D01*
X756296Y265388D01*
X756267Y265490D01*
X756242Y265592D01*
X756220Y265695D01*
X756203Y265799D01*
X756189Y265904D01*
X756179Y266009D01*
X756173Y266114D01*
X756171Y266220D01*
X756171Y273276D01*
X756173Y273382D01*
X756179Y273487D01*
X756189Y273592D01*
X756203Y273697D01*
X756220Y273801D01*
X756242Y273904D01*
X756267Y274006D01*
X756296Y274108D01*
X756329Y274208D01*
X756366Y274307D01*
X756406Y274404D01*
X756450Y274500D01*
X756498Y274595D01*
X756549Y274687D01*
X756604Y274777D01*
X756661Y274866D01*
X756722Y274952D01*
X756787Y275035D01*
X756854Y275117D01*
X756924Y275195D01*
X756998Y275271D01*
X757074Y275345D01*
X757152Y275415D01*
X757233Y275482D01*
X757317Y275547D01*
X757403Y275608D01*
X757492Y275665D01*
X757582Y275720D01*
X757674Y275771D01*
X757769Y275819D01*
X757864Y275863D01*
X757962Y275903D01*
X758061Y275940D01*
X758161Y275973D01*
X758263Y276002D01*
X758365Y276027D01*
X758468Y276049D01*
X758572Y276066D01*
X758677Y276080D01*
X758782Y276090D01*
X758887Y276096D01*
X758993Y276098D01*
X761815Y276098D01*
X766882Y273276D02*
X770410Y276098D01*
X770410Y263398D01*
X766882Y263398D02*
X773938Y263398D01*
D12*
X649700Y552700D02*
X137700Y552700D01*
X649700Y552700D02*
X649700Y361700D01*
X137700Y361700D01*
X137700Y552700D01*
D13*
X142493Y564896D02*
X142493Y578104D01*
X146162Y578104D01*
X146282Y578102D01*
X146402Y578096D01*
X146522Y578086D01*
X146641Y578073D01*
X146760Y578055D01*
X146878Y578034D01*
X146995Y578008D01*
X147112Y577979D01*
X147227Y577946D01*
X147341Y577909D01*
X147454Y577869D01*
X147566Y577825D01*
X147676Y577777D01*
X147785Y577726D01*
X147892Y577671D01*
X147997Y577612D01*
X148099Y577551D01*
X148200Y577486D01*
X148299Y577417D01*
X148396Y577346D01*
X148490Y577271D01*
X148581Y577194D01*
X148670Y577113D01*
X148756Y577029D01*
X148840Y576943D01*
X148921Y576854D01*
X148998Y576763D01*
X149073Y576669D01*
X149144Y576572D01*
X149213Y576473D01*
X149278Y576372D01*
X149339Y576270D01*
X149398Y576165D01*
X149453Y576058D01*
X149504Y575949D01*
X149552Y575839D01*
X149596Y575727D01*
X149636Y575614D01*
X149673Y575500D01*
X149706Y575385D01*
X149735Y575268D01*
X149761Y575151D01*
X149782Y575033D01*
X149800Y574914D01*
X149813Y574795D01*
X149823Y574675D01*
X149829Y574555D01*
X149831Y574435D01*
X149831Y568565D01*
X149829Y568445D01*
X149823Y568325D01*
X149813Y568205D01*
X149800Y568086D01*
X149782Y567967D01*
X149761Y567849D01*
X149735Y567732D01*
X149706Y567615D01*
X149673Y567500D01*
X149636Y567386D01*
X149596Y567273D01*
X149552Y567161D01*
X149504Y567051D01*
X149453Y566942D01*
X149398Y566835D01*
X149339Y566731D01*
X149278Y566628D01*
X149213Y566527D01*
X149144Y566428D01*
X149073Y566331D01*
X148998Y566237D01*
X148921Y566146D01*
X148840Y566057D01*
X148756Y565971D01*
X148670Y565887D01*
X148581Y565806D01*
X148490Y565729D01*
X148396Y565654D01*
X148299Y565583D01*
X148200Y565514D01*
X148099Y565449D01*
X147997Y565388D01*
X147892Y565329D01*
X147785Y565274D01*
X147676Y565223D01*
X147566Y565175D01*
X147454Y565131D01*
X147341Y565091D01*
X147227Y565054D01*
X147112Y565021D01*
X146995Y564992D01*
X146878Y564966D01*
X146760Y564945D01*
X146641Y564927D01*
X146522Y564914D01*
X146402Y564904D01*
X146282Y564898D01*
X146162Y564896D01*
X142493Y564896D01*
X159697Y564896D02*
X159804Y564898D01*
X159911Y564904D01*
X160018Y564914D01*
X160124Y564927D01*
X160230Y564945D01*
X160335Y564966D01*
X160439Y564991D01*
X160543Y565020D01*
X160645Y565053D01*
X160745Y565090D01*
X160845Y565130D01*
X160943Y565174D01*
X161039Y565221D01*
X161133Y565272D01*
X161226Y565326D01*
X161316Y565383D01*
X161405Y565444D01*
X161491Y565508D01*
X161574Y565575D01*
X161656Y565645D01*
X161734Y565718D01*
X161810Y565794D01*
X161883Y565872D01*
X161953Y565954D01*
X162020Y566037D01*
X162084Y566123D01*
X162145Y566212D01*
X162202Y566302D01*
X162256Y566395D01*
X162307Y566489D01*
X162354Y566585D01*
X162398Y566683D01*
X162438Y566783D01*
X162475Y566883D01*
X162508Y566985D01*
X162537Y567089D01*
X162562Y567193D01*
X162583Y567298D01*
X162601Y567404D01*
X162614Y567510D01*
X162624Y567617D01*
X162630Y567724D01*
X162632Y567831D01*
X159697Y564896D02*
X159544Y564898D01*
X159391Y564904D01*
X159239Y564913D01*
X159086Y564926D01*
X158934Y564943D01*
X158783Y564964D01*
X158631Y564988D01*
X158481Y565016D01*
X158331Y565048D01*
X158183Y565084D01*
X158035Y565123D01*
X157888Y565166D01*
X157742Y565212D01*
X157598Y565262D01*
X157454Y565316D01*
X157312Y565373D01*
X157172Y565433D01*
X157033Y565498D01*
X156896Y565565D01*
X156760Y565636D01*
X156626Y565710D01*
X156494Y565787D01*
X156364Y565868D01*
X156236Y565952D01*
X156110Y566039D01*
X155987Y566129D01*
X155865Y566222D01*
X155746Y566318D01*
X155630Y566417D01*
X155515Y566518D01*
X155404Y566623D01*
X155295Y566730D01*
X155662Y575169D02*
X155664Y575276D01*
X155670Y575383D01*
X155680Y575490D01*
X155693Y575596D01*
X155711Y575702D01*
X155732Y575807D01*
X155757Y575911D01*
X155786Y576015D01*
X155819Y576117D01*
X155856Y576217D01*
X155896Y576317D01*
X155940Y576415D01*
X155987Y576511D01*
X156038Y576605D01*
X156092Y576698D01*
X156149Y576788D01*
X156210Y576877D01*
X156274Y576963D01*
X156341Y577046D01*
X156411Y577128D01*
X156484Y577206D01*
X156560Y577282D01*
X156638Y577355D01*
X156720Y577425D01*
X156803Y577492D01*
X156889Y577556D01*
X156978Y577617D01*
X157068Y577674D01*
X157161Y577728D01*
X157255Y577779D01*
X157351Y577826D01*
X157449Y577870D01*
X157549Y577910D01*
X157649Y577947D01*
X157751Y577980D01*
X157855Y578009D01*
X157959Y578034D01*
X158064Y578055D01*
X158170Y578073D01*
X158276Y578086D01*
X158383Y578096D01*
X158490Y578102D01*
X158597Y578104D01*
X158745Y578102D01*
X158892Y578096D01*
X159039Y578086D01*
X159186Y578072D01*
X159333Y578055D01*
X159478Y578033D01*
X159624Y578007D01*
X159768Y577978D01*
X159912Y577945D01*
X160055Y577907D01*
X160197Y577866D01*
X160337Y577822D01*
X160477Y577773D01*
X160615Y577721D01*
X160751Y577665D01*
X160886Y577605D01*
X161019Y577542D01*
X161151Y577475D01*
X161281Y577405D01*
X161409Y577332D01*
X161534Y577254D01*
X161658Y577174D01*
X161780Y577090D01*
X161899Y577003D01*
X157129Y572601D02*
X157038Y572657D01*
X156949Y572716D01*
X156862Y572778D01*
X156778Y572843D01*
X156695Y572911D01*
X156616Y572982D01*
X156539Y573056D01*
X156465Y573133D01*
X156393Y573212D01*
X156325Y573294D01*
X156259Y573378D01*
X156196Y573465D01*
X156137Y573553D01*
X156081Y573644D01*
X156028Y573737D01*
X155978Y573831D01*
X155932Y573927D01*
X155889Y574025D01*
X155850Y574124D01*
X155814Y574225D01*
X155782Y574327D01*
X155754Y574430D01*
X155730Y574534D01*
X155709Y574638D01*
X155692Y574744D01*
X155678Y574849D01*
X155669Y574956D01*
X155663Y575062D01*
X155661Y575169D01*
X161164Y570399D02*
X161255Y570343D01*
X161344Y570284D01*
X161431Y570222D01*
X161515Y570157D01*
X161598Y570089D01*
X161677Y570018D01*
X161754Y569944D01*
X161828Y569867D01*
X161900Y569788D01*
X161968Y569706D01*
X162034Y569622D01*
X162097Y569535D01*
X162156Y569447D01*
X162212Y569356D01*
X162265Y569263D01*
X162315Y569169D01*
X162361Y569073D01*
X162404Y568975D01*
X162443Y568876D01*
X162479Y568775D01*
X162511Y568673D01*
X162539Y568570D01*
X162563Y568466D01*
X162584Y568362D01*
X162601Y568256D01*
X162615Y568151D01*
X162624Y568044D01*
X162630Y567938D01*
X162632Y567831D01*
X161165Y570399D02*
X157129Y572601D01*
X167669Y575169D02*
X171338Y578104D01*
X171338Y564896D01*
X167669Y564896D02*
X175007Y564896D01*
D11*
X723900Y400050D02*
X723900Y387350D01*
X717550Y381000D01*
X704850Y381000D01*
X698500Y387350D01*
X704850Y406400D02*
X717550Y406400D01*
X723900Y400050D01*
X704850Y406400D02*
X698500Y400050D01*
X698500Y387350D01*
X717550Y381000D02*
X723900Y374650D01*
X723900Y361950D01*
X717550Y355600D01*
X704850Y355600D01*
X698500Y361950D01*
X698500Y374650D01*
X704850Y381000D01*
X697653Y348234D02*
X697653Y338356D01*
X697651Y338250D01*
X697645Y338145D01*
X697635Y338040D01*
X697621Y337935D01*
X697604Y337831D01*
X697582Y337728D01*
X697557Y337626D01*
X697528Y337524D01*
X697495Y337424D01*
X697458Y337325D01*
X697418Y337228D01*
X697374Y337132D01*
X697326Y337037D01*
X697275Y336945D01*
X697220Y336855D01*
X697163Y336766D01*
X697102Y336680D01*
X697037Y336597D01*
X696970Y336515D01*
X696900Y336437D01*
X696826Y336361D01*
X696750Y336287D01*
X696672Y336217D01*
X696591Y336150D01*
X696507Y336085D01*
X696421Y336024D01*
X696332Y335967D01*
X696242Y335912D01*
X696150Y335861D01*
X696055Y335813D01*
X695960Y335769D01*
X695862Y335729D01*
X695763Y335692D01*
X695663Y335659D01*
X695561Y335630D01*
X695459Y335605D01*
X695356Y335583D01*
X695252Y335566D01*
X695147Y335552D01*
X695042Y335542D01*
X694937Y335536D01*
X694831Y335534D01*
X693420Y335534D01*
X704414Y335534D02*
X704414Y348234D01*
X707941Y348234D01*
X708059Y348232D01*
X708177Y348226D01*
X708294Y348216D01*
X708411Y348203D01*
X708528Y348185D01*
X708644Y348163D01*
X708759Y348138D01*
X708873Y348109D01*
X708986Y348076D01*
X709098Y348039D01*
X709209Y347998D01*
X709318Y347954D01*
X709426Y347906D01*
X709532Y347855D01*
X709636Y347800D01*
X709739Y347741D01*
X709839Y347680D01*
X709938Y347615D01*
X710034Y347546D01*
X710127Y347475D01*
X710219Y347400D01*
X710308Y347323D01*
X710394Y347242D01*
X710477Y347159D01*
X710558Y347073D01*
X710635Y346984D01*
X710710Y346892D01*
X710781Y346799D01*
X710850Y346703D01*
X710915Y346604D01*
X710976Y346504D01*
X711035Y346401D01*
X711090Y346297D01*
X711141Y346191D01*
X711189Y346083D01*
X711233Y345974D01*
X711274Y345863D01*
X711311Y345751D01*
X711344Y345638D01*
X711373Y345524D01*
X711398Y345409D01*
X711420Y345293D01*
X711438Y345176D01*
X711451Y345059D01*
X711461Y344942D01*
X711467Y344824D01*
X711469Y344706D01*
X711467Y344588D01*
X711461Y344470D01*
X711451Y344353D01*
X711438Y344236D01*
X711420Y344119D01*
X711398Y344003D01*
X711373Y343888D01*
X711344Y343774D01*
X711311Y343661D01*
X711274Y343549D01*
X711233Y343438D01*
X711189Y343329D01*
X711141Y343221D01*
X711090Y343115D01*
X711035Y343011D01*
X710976Y342908D01*
X710915Y342808D01*
X710850Y342709D01*
X710781Y342613D01*
X710710Y342520D01*
X710635Y342428D01*
X710558Y342339D01*
X710477Y342253D01*
X710394Y342170D01*
X710308Y342089D01*
X710219Y342012D01*
X710127Y341937D01*
X710034Y341866D01*
X709938Y341797D01*
X709839Y341732D01*
X709739Y341671D01*
X709636Y341612D01*
X709532Y341557D01*
X709426Y341506D01*
X709318Y341458D01*
X709209Y341414D01*
X709098Y341373D01*
X708986Y341336D01*
X708873Y341303D01*
X708759Y341274D01*
X708644Y341249D01*
X708528Y341227D01*
X708411Y341209D01*
X708294Y341196D01*
X708177Y341186D01*
X708059Y341180D01*
X707941Y341178D01*
X704414Y341178D01*
X716567Y345412D02*
X720095Y348234D01*
X720095Y335534D01*
X723622Y335534D02*
X716567Y335534D01*
X698500Y450850D02*
X698500Y463550D01*
X704850Y469900D01*
X717550Y469900D01*
X723900Y463550D01*
X704850Y469900D02*
X698500Y476250D01*
X698500Y488950D01*
X704850Y495300D01*
X717550Y495300D01*
X723900Y488950D01*
X723900Y476250D01*
X717550Y469900D01*
X717550Y444500D02*
X704850Y444500D01*
X698500Y450850D01*
X717550Y444500D02*
X723900Y450850D01*
X723900Y463550D01*
X704850Y495300D02*
X698500Y501650D01*
X698500Y514350D01*
X704850Y520700D01*
X717550Y520700D01*
X723900Y514350D01*
X723900Y501650D01*
X717550Y495300D01*
X700471Y435356D02*
X700471Y425478D01*
X700469Y425372D01*
X700463Y425267D01*
X700453Y425162D01*
X700439Y425057D01*
X700422Y424953D01*
X700400Y424850D01*
X700375Y424748D01*
X700346Y424646D01*
X700313Y424546D01*
X700276Y424447D01*
X700236Y424350D01*
X700192Y424254D01*
X700144Y424159D01*
X700093Y424067D01*
X700038Y423977D01*
X699981Y423888D01*
X699920Y423802D01*
X699855Y423719D01*
X699788Y423637D01*
X699718Y423559D01*
X699644Y423483D01*
X699568Y423409D01*
X699490Y423339D01*
X699409Y423272D01*
X699325Y423207D01*
X699239Y423146D01*
X699150Y423089D01*
X699060Y423034D01*
X698968Y422983D01*
X698873Y422935D01*
X698778Y422891D01*
X698680Y422851D01*
X698581Y422814D01*
X698481Y422781D01*
X698379Y422752D01*
X698277Y422727D01*
X698174Y422705D01*
X698070Y422688D01*
X697965Y422674D01*
X697860Y422664D01*
X697755Y422658D01*
X697649Y422656D01*
X696238Y422656D01*
X707231Y422656D02*
X707231Y435356D01*
X710759Y435356D01*
X710877Y435354D01*
X710995Y435348D01*
X711112Y435338D01*
X711229Y435325D01*
X711346Y435307D01*
X711462Y435285D01*
X711577Y435260D01*
X711691Y435231D01*
X711804Y435198D01*
X711916Y435161D01*
X712027Y435120D01*
X712136Y435076D01*
X712244Y435028D01*
X712350Y434977D01*
X712454Y434922D01*
X712557Y434863D01*
X712657Y434802D01*
X712756Y434737D01*
X712852Y434668D01*
X712945Y434597D01*
X713037Y434522D01*
X713126Y434445D01*
X713212Y434364D01*
X713295Y434281D01*
X713376Y434195D01*
X713453Y434106D01*
X713528Y434014D01*
X713599Y433921D01*
X713668Y433825D01*
X713733Y433726D01*
X713794Y433626D01*
X713853Y433523D01*
X713908Y433419D01*
X713959Y433313D01*
X714007Y433205D01*
X714051Y433096D01*
X714092Y432985D01*
X714129Y432873D01*
X714162Y432760D01*
X714191Y432646D01*
X714216Y432531D01*
X714238Y432415D01*
X714256Y432298D01*
X714269Y432181D01*
X714279Y432064D01*
X714285Y431946D01*
X714287Y431828D01*
X714285Y431710D01*
X714279Y431592D01*
X714269Y431475D01*
X714256Y431358D01*
X714238Y431241D01*
X714216Y431125D01*
X714191Y431010D01*
X714162Y430896D01*
X714129Y430783D01*
X714092Y430671D01*
X714051Y430560D01*
X714007Y430451D01*
X713959Y430343D01*
X713908Y430237D01*
X713853Y430133D01*
X713794Y430030D01*
X713733Y429930D01*
X713668Y429831D01*
X713599Y429735D01*
X713528Y429642D01*
X713453Y429550D01*
X713376Y429461D01*
X713295Y429375D01*
X713212Y429292D01*
X713126Y429211D01*
X713037Y429134D01*
X712945Y429059D01*
X712852Y428988D01*
X712756Y428919D01*
X712657Y428854D01*
X712557Y428793D01*
X712454Y428734D01*
X712350Y428679D01*
X712244Y428628D01*
X712136Y428580D01*
X712027Y428536D01*
X711916Y428495D01*
X711804Y428458D01*
X711691Y428425D01*
X711577Y428396D01*
X711462Y428371D01*
X711346Y428349D01*
X711229Y428331D01*
X711112Y428318D01*
X710995Y428308D01*
X710877Y428302D01*
X710759Y428300D01*
X707231Y428300D01*
X723265Y435356D02*
X723376Y435354D01*
X723486Y435348D01*
X723597Y435339D01*
X723707Y435325D01*
X723816Y435308D01*
X723925Y435287D01*
X724033Y435262D01*
X724140Y435233D01*
X724246Y435201D01*
X724351Y435165D01*
X724454Y435125D01*
X724556Y435082D01*
X724657Y435035D01*
X724756Y434984D01*
X724853Y434931D01*
X724947Y434874D01*
X725040Y434813D01*
X725131Y434750D01*
X725220Y434683D01*
X725306Y434613D01*
X725389Y434540D01*
X725471Y434465D01*
X725549Y434387D01*
X725624Y434305D01*
X725697Y434222D01*
X725767Y434136D01*
X725834Y434047D01*
X725897Y433956D01*
X725958Y433863D01*
X726015Y433769D01*
X726068Y433672D01*
X726119Y433573D01*
X726166Y433472D01*
X726209Y433370D01*
X726249Y433267D01*
X726285Y433162D01*
X726317Y433056D01*
X726346Y432949D01*
X726371Y432841D01*
X726392Y432732D01*
X726409Y432623D01*
X726423Y432513D01*
X726432Y432402D01*
X726438Y432292D01*
X726440Y432181D01*
X723265Y435356D02*
X723140Y435354D01*
X723015Y435348D01*
X722890Y435339D01*
X722766Y435325D01*
X722642Y435308D01*
X722519Y435287D01*
X722396Y435262D01*
X722274Y435234D01*
X722153Y435202D01*
X722033Y435166D01*
X721915Y435126D01*
X721797Y435083D01*
X721681Y435036D01*
X721567Y434986D01*
X721454Y434932D01*
X721343Y434875D01*
X721233Y434814D01*
X721126Y434750D01*
X721020Y434683D01*
X720917Y434612D01*
X720816Y434539D01*
X720717Y434462D01*
X720620Y434382D01*
X720526Y434300D01*
X720435Y434214D01*
X720346Y434126D01*
X720260Y434035D01*
X720177Y433942D01*
X720097Y433846D01*
X720019Y433748D01*
X719945Y433647D01*
X719874Y433544D01*
X719806Y433439D01*
X719741Y433332D01*
X719680Y433223D01*
X719622Y433112D01*
X719567Y432999D01*
X719516Y432885D01*
X719469Y432769D01*
X719425Y432652D01*
X719384Y432534D01*
X725382Y429712D02*
X725464Y429792D01*
X725543Y429876D01*
X725619Y429962D01*
X725693Y430051D01*
X725763Y430142D01*
X725830Y430235D01*
X725894Y430331D01*
X725955Y430428D01*
X726013Y430528D01*
X726067Y430629D01*
X726117Y430733D01*
X726164Y430838D01*
X726208Y430944D01*
X726248Y431052D01*
X726284Y431161D01*
X726317Y431272D01*
X726345Y431383D01*
X726370Y431495D01*
X726392Y431608D01*
X726409Y431722D01*
X726423Y431836D01*
X726432Y431951D01*
X726438Y432066D01*
X726440Y432181D01*
X725382Y429712D02*
X719384Y422656D01*
X726440Y422656D01*
X628650Y330200D02*
X615950Y330200D01*
X628650Y330200D02*
X635000Y323850D01*
X635000Y311150D01*
X628650Y304800D01*
X609600Y311150D02*
X609600Y323850D01*
X615950Y330200D01*
X609600Y311150D02*
X615950Y304800D01*
X628650Y304800D01*
X635000Y323850D02*
X641350Y330200D01*
X654050Y330200D01*
X660400Y323850D01*
X660400Y311150D01*
X654050Y304800D01*
X641350Y304800D01*
X635000Y311150D01*
X623993Y341912D02*
X623993Y351790D01*
X623993Y341912D02*
X623991Y341806D01*
X623985Y341701D01*
X623975Y341596D01*
X623961Y341491D01*
X623944Y341387D01*
X623922Y341284D01*
X623897Y341182D01*
X623868Y341080D01*
X623835Y340980D01*
X623798Y340881D01*
X623758Y340784D01*
X623714Y340688D01*
X623666Y340593D01*
X623615Y340501D01*
X623560Y340411D01*
X623503Y340322D01*
X623442Y340236D01*
X623377Y340153D01*
X623310Y340071D01*
X623240Y339993D01*
X623166Y339917D01*
X623090Y339843D01*
X623012Y339773D01*
X622931Y339706D01*
X622847Y339641D01*
X622761Y339580D01*
X622672Y339523D01*
X622582Y339468D01*
X622490Y339417D01*
X622395Y339369D01*
X622300Y339325D01*
X622202Y339285D01*
X622103Y339248D01*
X622003Y339215D01*
X621901Y339186D01*
X621799Y339161D01*
X621696Y339139D01*
X621592Y339122D01*
X621487Y339108D01*
X621382Y339098D01*
X621277Y339092D01*
X621171Y339090D01*
X619760Y339090D01*
X630754Y339090D02*
X630754Y351790D01*
X634281Y351790D01*
X634399Y351788D01*
X634517Y351782D01*
X634634Y351772D01*
X634751Y351759D01*
X634868Y351741D01*
X634984Y351719D01*
X635099Y351694D01*
X635213Y351665D01*
X635326Y351632D01*
X635438Y351595D01*
X635549Y351554D01*
X635658Y351510D01*
X635766Y351462D01*
X635872Y351411D01*
X635976Y351356D01*
X636079Y351297D01*
X636179Y351236D01*
X636278Y351171D01*
X636374Y351102D01*
X636467Y351031D01*
X636559Y350956D01*
X636648Y350879D01*
X636734Y350798D01*
X636817Y350715D01*
X636898Y350629D01*
X636975Y350540D01*
X637050Y350448D01*
X637121Y350355D01*
X637190Y350259D01*
X637255Y350160D01*
X637316Y350060D01*
X637375Y349957D01*
X637430Y349853D01*
X637481Y349747D01*
X637529Y349639D01*
X637573Y349530D01*
X637614Y349419D01*
X637651Y349307D01*
X637684Y349194D01*
X637713Y349080D01*
X637738Y348965D01*
X637760Y348849D01*
X637778Y348732D01*
X637791Y348615D01*
X637801Y348498D01*
X637807Y348380D01*
X637809Y348262D01*
X637807Y348144D01*
X637801Y348026D01*
X637791Y347909D01*
X637778Y347792D01*
X637760Y347675D01*
X637738Y347559D01*
X637713Y347444D01*
X637684Y347330D01*
X637651Y347217D01*
X637614Y347105D01*
X637573Y346994D01*
X637529Y346885D01*
X637481Y346777D01*
X637430Y346671D01*
X637375Y346567D01*
X637316Y346464D01*
X637255Y346364D01*
X637190Y346265D01*
X637121Y346169D01*
X637050Y346076D01*
X636975Y345984D01*
X636898Y345895D01*
X636817Y345809D01*
X636734Y345726D01*
X636648Y345645D01*
X636559Y345568D01*
X636467Y345493D01*
X636374Y345422D01*
X636278Y345353D01*
X636179Y345288D01*
X636079Y345227D01*
X635976Y345168D01*
X635872Y345113D01*
X635766Y345062D01*
X635658Y345014D01*
X635549Y344970D01*
X635438Y344929D01*
X635326Y344892D01*
X635213Y344859D01*
X635099Y344830D01*
X634984Y344805D01*
X634868Y344783D01*
X634751Y344765D01*
X634634Y344752D01*
X634517Y344742D01*
X634399Y344736D01*
X634281Y344734D01*
X630754Y344734D01*
X642907Y339090D02*
X646435Y339090D01*
X646553Y339092D01*
X646671Y339098D01*
X646788Y339108D01*
X646905Y339121D01*
X647022Y339139D01*
X647138Y339161D01*
X647253Y339186D01*
X647367Y339215D01*
X647480Y339248D01*
X647592Y339285D01*
X647703Y339326D01*
X647812Y339370D01*
X647920Y339418D01*
X648026Y339469D01*
X648130Y339524D01*
X648233Y339583D01*
X648333Y339644D01*
X648432Y339709D01*
X648528Y339778D01*
X648621Y339849D01*
X648713Y339924D01*
X648802Y340001D01*
X648888Y340082D01*
X648971Y340165D01*
X649052Y340251D01*
X649129Y340340D01*
X649204Y340432D01*
X649275Y340525D01*
X649344Y340621D01*
X649409Y340720D01*
X649470Y340820D01*
X649529Y340923D01*
X649584Y341027D01*
X649635Y341133D01*
X649683Y341241D01*
X649727Y341350D01*
X649768Y341461D01*
X649805Y341573D01*
X649838Y341686D01*
X649867Y341800D01*
X649892Y341915D01*
X649914Y342031D01*
X649932Y342148D01*
X649945Y342265D01*
X649955Y342382D01*
X649961Y342500D01*
X649963Y342618D01*
X649961Y342736D01*
X649955Y342854D01*
X649945Y342971D01*
X649932Y343088D01*
X649914Y343205D01*
X649892Y343321D01*
X649867Y343436D01*
X649838Y343550D01*
X649805Y343663D01*
X649768Y343775D01*
X649727Y343886D01*
X649683Y343995D01*
X649635Y344103D01*
X649584Y344209D01*
X649529Y344313D01*
X649470Y344416D01*
X649409Y344516D01*
X649344Y344615D01*
X649275Y344711D01*
X649204Y344804D01*
X649129Y344896D01*
X649052Y344985D01*
X648971Y345071D01*
X648888Y345154D01*
X648802Y345235D01*
X648713Y345312D01*
X648621Y345387D01*
X648528Y345458D01*
X648432Y345527D01*
X648333Y345592D01*
X648233Y345653D01*
X648130Y345712D01*
X648026Y345767D01*
X647920Y345818D01*
X647812Y345866D01*
X647703Y345910D01*
X647592Y345951D01*
X647480Y345988D01*
X647367Y346021D01*
X647253Y346050D01*
X647138Y346075D01*
X647022Y346097D01*
X646905Y346115D01*
X646788Y346128D01*
X646671Y346138D01*
X646553Y346144D01*
X646435Y346146D01*
X647140Y351790D02*
X642907Y351790D01*
X647140Y351790D02*
X647246Y351788D01*
X647351Y351782D01*
X647456Y351772D01*
X647561Y351758D01*
X647665Y351741D01*
X647768Y351719D01*
X647870Y351694D01*
X647972Y351665D01*
X648072Y351632D01*
X648171Y351595D01*
X648268Y351555D01*
X648364Y351511D01*
X648459Y351463D01*
X648551Y351412D01*
X648641Y351357D01*
X648730Y351300D01*
X648816Y351239D01*
X648899Y351174D01*
X648981Y351107D01*
X649059Y351037D01*
X649135Y350963D01*
X649209Y350887D01*
X649279Y350809D01*
X649346Y350727D01*
X649411Y350644D01*
X649472Y350558D01*
X649529Y350469D01*
X649584Y350379D01*
X649635Y350287D01*
X649683Y350192D01*
X649727Y350096D01*
X649767Y349999D01*
X649804Y349900D01*
X649837Y349800D01*
X649866Y349698D01*
X649891Y349596D01*
X649913Y349493D01*
X649930Y349389D01*
X649944Y349284D01*
X649954Y349179D01*
X649960Y349074D01*
X649962Y348968D01*
X649960Y348862D01*
X649954Y348757D01*
X649944Y348652D01*
X649930Y348547D01*
X649913Y348443D01*
X649891Y348340D01*
X649866Y348238D01*
X649837Y348136D01*
X649804Y348036D01*
X649767Y347937D01*
X649727Y347840D01*
X649683Y347744D01*
X649635Y347649D01*
X649584Y347557D01*
X649529Y347467D01*
X649472Y347378D01*
X649411Y347292D01*
X649346Y347209D01*
X649279Y347127D01*
X649209Y347049D01*
X649135Y346973D01*
X649059Y346899D01*
X648981Y346829D01*
X648899Y346762D01*
X648816Y346697D01*
X648730Y346636D01*
X648641Y346579D01*
X648551Y346524D01*
X648459Y346473D01*
X648364Y346425D01*
X648268Y346381D01*
X648171Y346341D01*
X648072Y346304D01*
X647972Y346271D01*
X647870Y346242D01*
X647768Y346217D01*
X647665Y346195D01*
X647561Y346178D01*
X647456Y346164D01*
X647351Y346154D01*
X647246Y346148D01*
X647140Y346146D01*
X644318Y346146D01*
X664210Y577850D02*
X664110Y577852D01*
X664011Y577858D01*
X663911Y577868D01*
X663813Y577881D01*
X663714Y577899D01*
X663617Y577920D01*
X663521Y577945D01*
X663425Y577974D01*
X663331Y578007D01*
X663238Y578043D01*
X663147Y578083D01*
X663057Y578127D01*
X662969Y578174D01*
X662883Y578224D01*
X662799Y578278D01*
X662717Y578335D01*
X662638Y578395D01*
X662560Y578459D01*
X662486Y578525D01*
X662414Y578594D01*
X662345Y578666D01*
X662279Y578740D01*
X662215Y578818D01*
X662155Y578897D01*
X662098Y578979D01*
X662044Y579063D01*
X661994Y579149D01*
X661947Y579237D01*
X661903Y579327D01*
X661863Y579418D01*
X661827Y579511D01*
X661794Y579605D01*
X661765Y579701D01*
X661740Y579797D01*
X661719Y579894D01*
X661701Y579993D01*
X661688Y580091D01*
X661678Y580191D01*
X661672Y580290D01*
X661670Y580390D01*
X681990Y577850D02*
X682090Y577852D01*
X682189Y577858D01*
X682289Y577868D01*
X682387Y577881D01*
X682486Y577899D01*
X682583Y577920D01*
X682679Y577945D01*
X682775Y577974D01*
X682869Y578007D01*
X682962Y578043D01*
X683053Y578083D01*
X683143Y578127D01*
X683231Y578174D01*
X683317Y578224D01*
X683401Y578278D01*
X683483Y578335D01*
X683562Y578395D01*
X683640Y578459D01*
X683714Y578525D01*
X683786Y578594D01*
X683855Y578666D01*
X683921Y578740D01*
X683985Y578818D01*
X684045Y578897D01*
X684102Y578979D01*
X684156Y579063D01*
X684206Y579149D01*
X684253Y579237D01*
X684297Y579327D01*
X684337Y579418D01*
X684373Y579511D01*
X684406Y579605D01*
X684435Y579701D01*
X684460Y579797D01*
X684481Y579894D01*
X684499Y579993D01*
X684512Y580091D01*
X684522Y580191D01*
X684528Y580290D01*
X684530Y580390D01*
X684530Y638810D02*
X684528Y638910D01*
X684522Y639009D01*
X684512Y639109D01*
X684499Y639207D01*
X684481Y639306D01*
X684460Y639403D01*
X684435Y639499D01*
X684406Y639595D01*
X684373Y639689D01*
X684337Y639782D01*
X684297Y639873D01*
X684253Y639963D01*
X684206Y640051D01*
X684156Y640137D01*
X684102Y640221D01*
X684045Y640303D01*
X683985Y640382D01*
X683921Y640460D01*
X683855Y640534D01*
X683786Y640606D01*
X683714Y640675D01*
X683640Y640741D01*
X683562Y640805D01*
X683483Y640865D01*
X683401Y640922D01*
X683317Y640976D01*
X683231Y641026D01*
X683143Y641073D01*
X683053Y641117D01*
X682962Y641157D01*
X682869Y641193D01*
X682775Y641226D01*
X682679Y641255D01*
X682583Y641280D01*
X682486Y641301D01*
X682387Y641319D01*
X682289Y641332D01*
X682189Y641342D01*
X682090Y641348D01*
X681990Y641350D01*
X664210Y641350D02*
X664110Y641348D01*
X664011Y641342D01*
X663911Y641332D01*
X663813Y641319D01*
X663714Y641301D01*
X663617Y641280D01*
X663521Y641255D01*
X663425Y641226D01*
X663331Y641193D01*
X663238Y641157D01*
X663147Y641117D01*
X663057Y641073D01*
X662969Y641026D01*
X662883Y640976D01*
X662799Y640922D01*
X662717Y640865D01*
X662638Y640805D01*
X662560Y640741D01*
X662486Y640675D01*
X662414Y640606D01*
X662345Y640534D01*
X662279Y640460D01*
X662215Y640382D01*
X662155Y640303D01*
X662098Y640221D01*
X662044Y640137D01*
X661994Y640051D01*
X661947Y639963D01*
X661903Y639873D01*
X661863Y639782D01*
X661827Y639689D01*
X661794Y639595D01*
X661765Y639499D01*
X661740Y639403D01*
X661719Y639306D01*
X661701Y639207D01*
X661688Y639109D01*
X661678Y639009D01*
X661672Y638910D01*
X661670Y638810D01*
X664210Y577850D02*
X681990Y577850D01*
X661670Y580390D02*
X661670Y584200D01*
X662940Y585470D01*
X684530Y584200D02*
X684530Y580390D01*
X684530Y584200D02*
X683260Y585470D01*
X662940Y633730D02*
X661670Y635000D01*
X662940Y633730D02*
X662940Y585470D01*
X683260Y633730D02*
X684530Y635000D01*
X683260Y633730D02*
X683260Y585470D01*
X661670Y635000D02*
X661670Y638810D01*
X684530Y638810D02*
X684530Y635000D01*
X681990Y641350D02*
X664210Y641350D01*
D14*
X673100Y650240D02*
X673100Y654050D01*
X673100Y568960D02*
X673100Y565150D01*
D15*
X673100Y645668D03*
X673100Y573532D03*
X673100Y658368D03*
X673100Y560832D03*
D11*
X636067Y606298D02*
X636067Y618998D01*
X639595Y618998D01*
X639713Y618996D01*
X639831Y618990D01*
X639948Y618980D01*
X640065Y618967D01*
X640182Y618949D01*
X640298Y618927D01*
X640413Y618902D01*
X640527Y618873D01*
X640640Y618840D01*
X640752Y618803D01*
X640863Y618762D01*
X640972Y618718D01*
X641080Y618670D01*
X641186Y618619D01*
X641290Y618564D01*
X641393Y618505D01*
X641493Y618444D01*
X641592Y618379D01*
X641688Y618310D01*
X641781Y618239D01*
X641873Y618164D01*
X641962Y618087D01*
X642048Y618006D01*
X642131Y617923D01*
X642212Y617837D01*
X642289Y617748D01*
X642364Y617656D01*
X642435Y617563D01*
X642504Y617467D01*
X642569Y617368D01*
X642630Y617268D01*
X642689Y617165D01*
X642744Y617061D01*
X642795Y616955D01*
X642843Y616847D01*
X642887Y616738D01*
X642928Y616627D01*
X642965Y616515D01*
X642998Y616402D01*
X643027Y616288D01*
X643052Y616173D01*
X643074Y616057D01*
X643092Y615940D01*
X643105Y615823D01*
X643115Y615706D01*
X643121Y615588D01*
X643123Y615470D01*
X643121Y615352D01*
X643115Y615234D01*
X643105Y615117D01*
X643092Y615000D01*
X643074Y614883D01*
X643052Y614767D01*
X643027Y614652D01*
X642998Y614538D01*
X642965Y614425D01*
X642928Y614313D01*
X642887Y614202D01*
X642843Y614093D01*
X642795Y613985D01*
X642744Y613879D01*
X642689Y613775D01*
X642630Y613672D01*
X642569Y613572D01*
X642504Y613473D01*
X642435Y613377D01*
X642364Y613284D01*
X642289Y613192D01*
X642212Y613103D01*
X642131Y613017D01*
X642048Y612934D01*
X641962Y612853D01*
X641873Y612776D01*
X641781Y612701D01*
X641688Y612630D01*
X641592Y612561D01*
X641493Y612496D01*
X641393Y612435D01*
X641290Y612376D01*
X641186Y612321D01*
X641080Y612270D01*
X640972Y612222D01*
X640863Y612178D01*
X640752Y612137D01*
X640640Y612100D01*
X640527Y612067D01*
X640413Y612038D01*
X640298Y612013D01*
X640182Y611991D01*
X640065Y611973D01*
X639948Y611960D01*
X639831Y611950D01*
X639713Y611944D01*
X639595Y611942D01*
X636067Y611942D01*
X640301Y611942D02*
X643123Y606298D01*
X648772Y616176D02*
X652300Y618998D01*
X652300Y606298D01*
X648772Y606298D02*
X655828Y606298D01*
X739600Y301300D02*
X479600Y301300D01*
X739600Y301300D02*
X739600Y181300D01*
X479600Y181300D01*
X479600Y301300D01*
D13*
X486918Y312787D02*
X486918Y322326D01*
X486918Y312787D02*
X486920Y312667D01*
X486926Y312547D01*
X486936Y312427D01*
X486949Y312308D01*
X486967Y312189D01*
X486988Y312071D01*
X487014Y311954D01*
X487043Y311837D01*
X487076Y311722D01*
X487113Y311608D01*
X487153Y311495D01*
X487197Y311383D01*
X487245Y311273D01*
X487296Y311164D01*
X487351Y311057D01*
X487410Y310953D01*
X487471Y310850D01*
X487536Y310749D01*
X487605Y310650D01*
X487676Y310553D01*
X487751Y310459D01*
X487828Y310368D01*
X487909Y310279D01*
X487993Y310193D01*
X488079Y310109D01*
X488168Y310028D01*
X488259Y309951D01*
X488353Y309876D01*
X488450Y309805D01*
X488549Y309736D01*
X488650Y309671D01*
X488753Y309610D01*
X488857Y309551D01*
X488964Y309496D01*
X489073Y309445D01*
X489183Y309397D01*
X489295Y309353D01*
X489408Y309313D01*
X489522Y309276D01*
X489637Y309243D01*
X489754Y309214D01*
X489871Y309188D01*
X489989Y309167D01*
X490108Y309149D01*
X490227Y309136D01*
X490347Y309126D01*
X490467Y309120D01*
X490587Y309118D01*
X490707Y309120D01*
X490827Y309126D01*
X490947Y309136D01*
X491066Y309149D01*
X491185Y309167D01*
X491303Y309188D01*
X491420Y309214D01*
X491537Y309243D01*
X491652Y309276D01*
X491766Y309313D01*
X491879Y309353D01*
X491991Y309397D01*
X492101Y309445D01*
X492210Y309496D01*
X492317Y309551D01*
X492422Y309610D01*
X492524Y309671D01*
X492625Y309736D01*
X492724Y309805D01*
X492821Y309876D01*
X492915Y309951D01*
X493006Y310028D01*
X493095Y310109D01*
X493181Y310193D01*
X493265Y310279D01*
X493346Y310368D01*
X493423Y310459D01*
X493498Y310553D01*
X493569Y310650D01*
X493638Y310749D01*
X493703Y310850D01*
X493764Y310953D01*
X493823Y311057D01*
X493878Y311164D01*
X493929Y311273D01*
X493977Y311383D01*
X494021Y311495D01*
X494061Y311608D01*
X494098Y311722D01*
X494131Y311837D01*
X494160Y311954D01*
X494186Y312071D01*
X494207Y312189D01*
X494225Y312308D01*
X494238Y312427D01*
X494248Y312547D01*
X494254Y312667D01*
X494256Y312787D01*
X494256Y322326D01*
X500146Y309118D02*
X503815Y309118D01*
X503935Y309120D01*
X504055Y309126D01*
X504175Y309136D01*
X504294Y309149D01*
X504413Y309167D01*
X504531Y309188D01*
X504648Y309214D01*
X504765Y309243D01*
X504880Y309276D01*
X504994Y309313D01*
X505107Y309353D01*
X505219Y309397D01*
X505329Y309445D01*
X505438Y309496D01*
X505545Y309551D01*
X505650Y309610D01*
X505752Y309671D01*
X505853Y309736D01*
X505952Y309805D01*
X506049Y309876D01*
X506143Y309951D01*
X506234Y310028D01*
X506323Y310109D01*
X506409Y310193D01*
X506493Y310279D01*
X506574Y310368D01*
X506651Y310459D01*
X506726Y310553D01*
X506797Y310650D01*
X506866Y310749D01*
X506931Y310850D01*
X506992Y310953D01*
X507051Y311057D01*
X507106Y311164D01*
X507157Y311273D01*
X507205Y311383D01*
X507249Y311495D01*
X507289Y311608D01*
X507326Y311722D01*
X507359Y311837D01*
X507388Y311954D01*
X507414Y312071D01*
X507435Y312189D01*
X507453Y312308D01*
X507466Y312427D01*
X507476Y312547D01*
X507482Y312667D01*
X507484Y312787D01*
X507482Y312907D01*
X507476Y313027D01*
X507466Y313147D01*
X507453Y313266D01*
X507435Y313385D01*
X507414Y313503D01*
X507388Y313620D01*
X507359Y313737D01*
X507326Y313852D01*
X507289Y313966D01*
X507249Y314079D01*
X507205Y314191D01*
X507157Y314301D01*
X507106Y314410D01*
X507051Y314517D01*
X506992Y314622D01*
X506931Y314724D01*
X506866Y314825D01*
X506797Y314924D01*
X506726Y315021D01*
X506651Y315115D01*
X506574Y315206D01*
X506493Y315295D01*
X506409Y315381D01*
X506323Y315465D01*
X506234Y315546D01*
X506143Y315623D01*
X506049Y315698D01*
X505952Y315769D01*
X505853Y315838D01*
X505752Y315903D01*
X505649Y315964D01*
X505545Y316023D01*
X505438Y316078D01*
X505329Y316129D01*
X505219Y316177D01*
X505107Y316221D01*
X504994Y316261D01*
X504880Y316298D01*
X504765Y316331D01*
X504648Y316360D01*
X504531Y316386D01*
X504413Y316407D01*
X504294Y316425D01*
X504175Y316438D01*
X504055Y316448D01*
X503935Y316454D01*
X503815Y316456D01*
X504549Y322326D02*
X500146Y322326D01*
X504549Y322326D02*
X504656Y322324D01*
X504763Y322318D01*
X504870Y322308D01*
X504976Y322295D01*
X505082Y322277D01*
X505187Y322256D01*
X505291Y322231D01*
X505395Y322202D01*
X505497Y322169D01*
X505597Y322132D01*
X505697Y322092D01*
X505795Y322048D01*
X505891Y322001D01*
X505985Y321950D01*
X506078Y321896D01*
X506168Y321839D01*
X506257Y321778D01*
X506343Y321714D01*
X506426Y321647D01*
X506508Y321577D01*
X506586Y321504D01*
X506662Y321428D01*
X506735Y321350D01*
X506805Y321268D01*
X506872Y321185D01*
X506936Y321099D01*
X506997Y321010D01*
X507054Y320920D01*
X507108Y320827D01*
X507159Y320733D01*
X507206Y320637D01*
X507250Y320539D01*
X507290Y320439D01*
X507327Y320339D01*
X507360Y320237D01*
X507389Y320133D01*
X507414Y320029D01*
X507435Y319924D01*
X507453Y319818D01*
X507466Y319712D01*
X507476Y319605D01*
X507482Y319498D01*
X507484Y319391D01*
X507482Y319284D01*
X507476Y319177D01*
X507466Y319070D01*
X507453Y318964D01*
X507435Y318858D01*
X507414Y318753D01*
X507389Y318649D01*
X507360Y318545D01*
X507327Y318443D01*
X507290Y318343D01*
X507250Y318243D01*
X507206Y318145D01*
X507159Y318049D01*
X507108Y317955D01*
X507054Y317862D01*
X506997Y317772D01*
X506936Y317683D01*
X506872Y317597D01*
X506805Y317514D01*
X506735Y317432D01*
X506662Y317354D01*
X506586Y317278D01*
X506508Y317205D01*
X506426Y317135D01*
X506343Y317068D01*
X506257Y317004D01*
X506168Y316943D01*
X506078Y316886D01*
X505985Y316832D01*
X505891Y316781D01*
X505795Y316734D01*
X505697Y316690D01*
X505597Y316650D01*
X505497Y316613D01*
X505395Y316580D01*
X505291Y316551D01*
X505187Y316526D01*
X505082Y316505D01*
X504976Y316487D01*
X504870Y316474D01*
X504763Y316464D01*
X504656Y316458D01*
X504549Y316456D01*
X501614Y316456D01*
D12*
X468700Y349400D02*
X318700Y349400D01*
X468700Y349400D02*
X468700Y209400D01*
X318700Y209400D01*
X318700Y349400D01*
D13*
X270763Y345694D02*
X270763Y332486D01*
X270763Y345694D02*
X274432Y345694D01*
X274552Y345692D01*
X274672Y345686D01*
X274792Y345676D01*
X274911Y345663D01*
X275030Y345645D01*
X275148Y345624D01*
X275265Y345598D01*
X275382Y345569D01*
X275497Y345536D01*
X275611Y345499D01*
X275724Y345459D01*
X275836Y345415D01*
X275946Y345367D01*
X276055Y345316D01*
X276162Y345261D01*
X276267Y345202D01*
X276369Y345141D01*
X276470Y345076D01*
X276569Y345007D01*
X276666Y344936D01*
X276760Y344861D01*
X276851Y344784D01*
X276940Y344703D01*
X277026Y344619D01*
X277110Y344533D01*
X277191Y344444D01*
X277268Y344353D01*
X277343Y344259D01*
X277414Y344162D01*
X277483Y344063D01*
X277548Y343962D01*
X277609Y343860D01*
X277668Y343755D01*
X277723Y343648D01*
X277774Y343539D01*
X277822Y343429D01*
X277866Y343317D01*
X277906Y343204D01*
X277943Y343090D01*
X277976Y342975D01*
X278005Y342858D01*
X278031Y342741D01*
X278052Y342623D01*
X278070Y342504D01*
X278083Y342385D01*
X278093Y342265D01*
X278099Y342145D01*
X278101Y342025D01*
X278101Y336155D01*
X278099Y336035D01*
X278093Y335915D01*
X278083Y335795D01*
X278070Y335676D01*
X278052Y335557D01*
X278031Y335439D01*
X278005Y335322D01*
X277976Y335205D01*
X277943Y335090D01*
X277906Y334976D01*
X277866Y334863D01*
X277822Y334751D01*
X277774Y334641D01*
X277723Y334532D01*
X277668Y334425D01*
X277609Y334321D01*
X277548Y334218D01*
X277483Y334117D01*
X277414Y334018D01*
X277343Y333921D01*
X277268Y333827D01*
X277191Y333736D01*
X277110Y333647D01*
X277026Y333561D01*
X276940Y333477D01*
X276851Y333396D01*
X276760Y333319D01*
X276666Y333244D01*
X276569Y333173D01*
X276470Y333104D01*
X276369Y333039D01*
X276267Y332978D01*
X276162Y332919D01*
X276055Y332864D01*
X275946Y332813D01*
X275836Y332765D01*
X275724Y332721D01*
X275611Y332681D01*
X275497Y332644D01*
X275382Y332611D01*
X275265Y332582D01*
X275148Y332556D01*
X275030Y332535D01*
X274911Y332517D01*
X274792Y332504D01*
X274672Y332494D01*
X274552Y332488D01*
X274432Y332486D01*
X270763Y332486D01*
X287967Y332486D02*
X288074Y332488D01*
X288181Y332494D01*
X288288Y332504D01*
X288394Y332517D01*
X288500Y332535D01*
X288605Y332556D01*
X288709Y332581D01*
X288813Y332610D01*
X288915Y332643D01*
X289015Y332680D01*
X289115Y332720D01*
X289213Y332764D01*
X289309Y332811D01*
X289403Y332862D01*
X289496Y332916D01*
X289586Y332973D01*
X289675Y333034D01*
X289761Y333098D01*
X289844Y333165D01*
X289926Y333235D01*
X290004Y333308D01*
X290080Y333384D01*
X290153Y333462D01*
X290223Y333544D01*
X290290Y333627D01*
X290354Y333713D01*
X290415Y333802D01*
X290472Y333892D01*
X290526Y333985D01*
X290577Y334079D01*
X290624Y334175D01*
X290668Y334273D01*
X290708Y334373D01*
X290745Y334473D01*
X290778Y334575D01*
X290807Y334679D01*
X290832Y334783D01*
X290853Y334888D01*
X290871Y334994D01*
X290884Y335100D01*
X290894Y335207D01*
X290900Y335314D01*
X290902Y335421D01*
X287967Y332486D02*
X287814Y332488D01*
X287661Y332494D01*
X287509Y332503D01*
X287356Y332516D01*
X287204Y332533D01*
X287053Y332554D01*
X286901Y332578D01*
X286751Y332606D01*
X286601Y332638D01*
X286453Y332674D01*
X286305Y332713D01*
X286158Y332756D01*
X286012Y332802D01*
X285868Y332852D01*
X285724Y332906D01*
X285582Y332963D01*
X285442Y333023D01*
X285303Y333088D01*
X285166Y333155D01*
X285030Y333226D01*
X284896Y333300D01*
X284764Y333377D01*
X284634Y333458D01*
X284506Y333542D01*
X284380Y333629D01*
X284257Y333719D01*
X284135Y333812D01*
X284016Y333908D01*
X283900Y334007D01*
X283785Y334108D01*
X283674Y334213D01*
X283565Y334320D01*
X283932Y342759D02*
X283934Y342866D01*
X283940Y342973D01*
X283950Y343080D01*
X283963Y343186D01*
X283981Y343292D01*
X284002Y343397D01*
X284027Y343501D01*
X284056Y343605D01*
X284089Y343707D01*
X284126Y343807D01*
X284166Y343907D01*
X284210Y344005D01*
X284257Y344101D01*
X284308Y344195D01*
X284362Y344288D01*
X284419Y344378D01*
X284480Y344467D01*
X284544Y344553D01*
X284611Y344636D01*
X284681Y344718D01*
X284754Y344796D01*
X284830Y344872D01*
X284908Y344945D01*
X284990Y345015D01*
X285073Y345082D01*
X285159Y345146D01*
X285248Y345207D01*
X285338Y345264D01*
X285431Y345318D01*
X285525Y345369D01*
X285621Y345416D01*
X285719Y345460D01*
X285819Y345500D01*
X285919Y345537D01*
X286021Y345570D01*
X286125Y345599D01*
X286229Y345624D01*
X286334Y345645D01*
X286440Y345663D01*
X286546Y345676D01*
X286653Y345686D01*
X286760Y345692D01*
X286867Y345694D01*
X287015Y345692D01*
X287162Y345686D01*
X287309Y345676D01*
X287456Y345662D01*
X287603Y345645D01*
X287748Y345623D01*
X287894Y345597D01*
X288038Y345568D01*
X288182Y345535D01*
X288325Y345497D01*
X288467Y345456D01*
X288607Y345412D01*
X288747Y345363D01*
X288885Y345311D01*
X289021Y345255D01*
X289156Y345195D01*
X289289Y345132D01*
X289421Y345065D01*
X289551Y344995D01*
X289679Y344922D01*
X289804Y344844D01*
X289928Y344764D01*
X290050Y344680D01*
X290169Y344593D01*
X285399Y340191D02*
X285308Y340247D01*
X285219Y340306D01*
X285132Y340368D01*
X285048Y340433D01*
X284965Y340501D01*
X284886Y340572D01*
X284809Y340646D01*
X284735Y340723D01*
X284663Y340802D01*
X284595Y340884D01*
X284529Y340968D01*
X284466Y341055D01*
X284407Y341143D01*
X284351Y341234D01*
X284298Y341327D01*
X284248Y341421D01*
X284202Y341517D01*
X284159Y341615D01*
X284120Y341714D01*
X284084Y341815D01*
X284052Y341917D01*
X284024Y342020D01*
X284000Y342124D01*
X283979Y342228D01*
X283962Y342334D01*
X283948Y342439D01*
X283939Y342546D01*
X283933Y342652D01*
X283931Y342759D01*
X289434Y337989D02*
X289525Y337933D01*
X289614Y337874D01*
X289701Y337812D01*
X289785Y337747D01*
X289868Y337679D01*
X289947Y337608D01*
X290024Y337534D01*
X290098Y337457D01*
X290170Y337378D01*
X290238Y337296D01*
X290304Y337212D01*
X290367Y337125D01*
X290426Y337037D01*
X290482Y336946D01*
X290535Y336853D01*
X290585Y336759D01*
X290631Y336663D01*
X290674Y336565D01*
X290713Y336466D01*
X290749Y336365D01*
X290781Y336263D01*
X290809Y336160D01*
X290833Y336056D01*
X290854Y335952D01*
X290871Y335846D01*
X290885Y335741D01*
X290894Y335634D01*
X290900Y335528D01*
X290902Y335421D01*
X289435Y337989D02*
X285399Y340191D01*
X299975Y345694D02*
X300088Y345692D01*
X300200Y345686D01*
X300313Y345677D01*
X300425Y345663D01*
X300536Y345646D01*
X300647Y345625D01*
X300757Y345600D01*
X300866Y345572D01*
X300974Y345539D01*
X301081Y345503D01*
X301186Y345464D01*
X301291Y345421D01*
X301393Y345374D01*
X301494Y345324D01*
X301593Y345270D01*
X301691Y345213D01*
X301786Y345153D01*
X301879Y345090D01*
X301970Y345023D01*
X302059Y344953D01*
X302145Y344881D01*
X302229Y344805D01*
X302310Y344727D01*
X302388Y344646D01*
X302464Y344562D01*
X302536Y344476D01*
X302606Y344387D01*
X302673Y344296D01*
X302736Y344203D01*
X302796Y344108D01*
X302853Y344010D01*
X302907Y343911D01*
X302957Y343810D01*
X303004Y343708D01*
X303047Y343603D01*
X303086Y343498D01*
X303122Y343391D01*
X303155Y343283D01*
X303183Y343174D01*
X303208Y343064D01*
X303229Y342953D01*
X303246Y342842D01*
X303260Y342730D01*
X303269Y342617D01*
X303275Y342505D01*
X303277Y342392D01*
X299975Y345694D02*
X299848Y345692D01*
X299721Y345686D01*
X299594Y345677D01*
X299468Y345664D01*
X299342Y345647D01*
X299217Y345626D01*
X299092Y345601D01*
X298969Y345573D01*
X298846Y345541D01*
X298724Y345505D01*
X298603Y345466D01*
X298483Y345423D01*
X298365Y345377D01*
X298248Y345327D01*
X298133Y345273D01*
X298020Y345216D01*
X297908Y345156D01*
X297798Y345093D01*
X297690Y345026D01*
X297584Y344956D01*
X297480Y344883D01*
X297378Y344806D01*
X297279Y344727D01*
X297182Y344645D01*
X297088Y344560D01*
X296996Y344472D01*
X296907Y344382D01*
X296821Y344288D01*
X296737Y344193D01*
X296657Y344095D01*
X296579Y343994D01*
X296504Y343891D01*
X296433Y343786D01*
X296365Y343679D01*
X296300Y343570D01*
X296238Y343459D01*
X296179Y343346D01*
X296124Y343232D01*
X296073Y343116D01*
X296025Y342998D01*
X295980Y342879D01*
X295939Y342759D01*
X302176Y339824D02*
X302258Y339904D01*
X302337Y339987D01*
X302414Y340073D01*
X302488Y340161D01*
X302558Y340252D01*
X302626Y340344D01*
X302691Y340439D01*
X302753Y340536D01*
X302811Y340635D01*
X302867Y340736D01*
X302919Y340838D01*
X302967Y340942D01*
X303012Y341048D01*
X303054Y341155D01*
X303093Y341263D01*
X303127Y341373D01*
X303159Y341483D01*
X303186Y341595D01*
X303210Y341707D01*
X303231Y341820D01*
X303247Y341934D01*
X303260Y342048D01*
X303270Y342162D01*
X303275Y342277D01*
X303277Y342392D01*
X302176Y339824D02*
X295939Y332486D01*
X303277Y332486D01*
D10*
X88900Y647700D02*
X88900Y730250D01*
X88900Y793750D01*
X88900Y876300D01*
X622300Y876300D01*
X622300Y647700D01*
X88900Y647700D01*
X88900Y793750D02*
X101600Y793750D01*
X114300Y793750D01*
X139700Y793750D01*
X152400Y793750D01*
X165100Y793750D01*
X165100Y730250D01*
X152400Y730250D01*
X139700Y730250D01*
X114300Y730250D01*
X101600Y730250D01*
X88900Y730250D01*
X101600Y793750D02*
X101600Y806450D01*
X114300Y806450D01*
X114300Y793750D01*
X139700Y793750D02*
X139700Y806450D01*
X152400Y806450D01*
X152400Y793750D01*
X101600Y730250D02*
X101600Y717550D01*
X114300Y717550D01*
X114300Y730250D01*
X139700Y730250D02*
X139700Y717550D01*
X152400Y717550D01*
X152400Y730250D01*
X565150Y812800D02*
X577850Y812800D01*
X577850Y787400D01*
X577850Y762000D01*
X577850Y736600D01*
X577850Y711200D01*
X565150Y711200D01*
X565150Y736600D01*
X565150Y762000D01*
X565150Y787400D01*
X565150Y812800D01*
X565150Y787400D02*
X577850Y787400D01*
X577850Y762000D02*
X565150Y762000D01*
X565150Y736600D02*
X577850Y736600D01*
D16*
X558800Y800100D02*
X641350Y800100D01*
X641350Y774700D02*
X558800Y774700D01*
X558800Y749300D02*
X641350Y749300D01*
X641350Y723900D02*
X558800Y723900D01*
D13*
X116022Y759404D02*
X116022Y767842D01*
X116021Y759404D02*
X116023Y759291D01*
X116029Y759178D01*
X116039Y759065D01*
X116053Y758952D01*
X116070Y758840D01*
X116092Y758729D01*
X116117Y758619D01*
X116147Y758509D01*
X116180Y758401D01*
X116217Y758294D01*
X116257Y758188D01*
X116302Y758084D01*
X116350Y757981D01*
X116401Y757880D01*
X116456Y757781D01*
X116514Y757684D01*
X116576Y757589D01*
X116641Y757496D01*
X116709Y757406D01*
X116780Y757318D01*
X116855Y757232D01*
X116932Y757149D01*
X117012Y757069D01*
X117095Y756992D01*
X117181Y756917D01*
X117269Y756846D01*
X117359Y756778D01*
X117452Y756713D01*
X117547Y756651D01*
X117644Y756593D01*
X117743Y756538D01*
X117844Y756487D01*
X117947Y756439D01*
X118051Y756394D01*
X118157Y756354D01*
X118264Y756317D01*
X118372Y756284D01*
X118482Y756254D01*
X118592Y756229D01*
X118703Y756207D01*
X118815Y756190D01*
X118928Y756176D01*
X119041Y756166D01*
X119154Y756160D01*
X119267Y756158D01*
X119380Y756160D01*
X119493Y756166D01*
X119606Y756176D01*
X119719Y756190D01*
X119831Y756207D01*
X119942Y756229D01*
X120052Y756254D01*
X120162Y756284D01*
X120270Y756317D01*
X120377Y756354D01*
X120483Y756394D01*
X120587Y756439D01*
X120690Y756487D01*
X120791Y756538D01*
X120890Y756593D01*
X120987Y756651D01*
X121082Y756713D01*
X121175Y756778D01*
X121265Y756846D01*
X121353Y756917D01*
X121439Y756992D01*
X121522Y757069D01*
X121602Y757149D01*
X121679Y757232D01*
X121754Y757318D01*
X121825Y757406D01*
X121893Y757496D01*
X121958Y757589D01*
X122020Y757684D01*
X122078Y757781D01*
X122133Y757880D01*
X122184Y757981D01*
X122232Y758084D01*
X122277Y758188D01*
X122317Y758294D01*
X122354Y758401D01*
X122387Y758509D01*
X122417Y758619D01*
X122442Y758729D01*
X122464Y758840D01*
X122481Y758952D01*
X122495Y759065D01*
X122505Y759178D01*
X122511Y759291D01*
X122513Y759404D01*
X122513Y767842D01*
X133942Y758754D02*
X133940Y758655D01*
X133934Y758555D01*
X133925Y758456D01*
X133912Y758358D01*
X133895Y758260D01*
X133874Y758162D01*
X133849Y758066D01*
X133821Y757971D01*
X133789Y757877D01*
X133754Y757784D01*
X133715Y757692D01*
X133672Y757602D01*
X133627Y757514D01*
X133577Y757427D01*
X133525Y757343D01*
X133469Y757260D01*
X133411Y757180D01*
X133349Y757102D01*
X133284Y757027D01*
X133216Y756954D01*
X133146Y756884D01*
X133073Y756816D01*
X132998Y756751D01*
X132920Y756689D01*
X132840Y756631D01*
X132757Y756575D01*
X132673Y756523D01*
X132586Y756473D01*
X132498Y756428D01*
X132408Y756385D01*
X132316Y756346D01*
X132223Y756311D01*
X132129Y756279D01*
X132034Y756251D01*
X131938Y756226D01*
X131840Y756205D01*
X131742Y756188D01*
X131644Y756175D01*
X131545Y756166D01*
X131445Y756160D01*
X131346Y756158D01*
X131202Y756160D01*
X131057Y756166D01*
X130913Y756175D01*
X130770Y756188D01*
X130626Y756205D01*
X130483Y756226D01*
X130341Y756251D01*
X130200Y756279D01*
X130059Y756311D01*
X129919Y756347D01*
X129780Y756386D01*
X129642Y756429D01*
X129506Y756476D01*
X129370Y756526D01*
X129236Y756580D01*
X129104Y756637D01*
X128973Y756698D01*
X128844Y756762D01*
X128716Y756830D01*
X128590Y756900D01*
X128466Y756975D01*
X128345Y757052D01*
X128225Y757133D01*
X128107Y757216D01*
X127992Y757303D01*
X127879Y757393D01*
X127768Y757486D01*
X127660Y757581D01*
X127554Y757680D01*
X127451Y757781D01*
X127777Y765246D02*
X127779Y765345D01*
X127785Y765445D01*
X127794Y765544D01*
X127807Y765642D01*
X127824Y765740D01*
X127845Y765838D01*
X127870Y765934D01*
X127898Y766029D01*
X127930Y766123D01*
X127965Y766216D01*
X128004Y766308D01*
X128047Y766398D01*
X128092Y766486D01*
X128142Y766573D01*
X128194Y766657D01*
X128250Y766740D01*
X128308Y766820D01*
X128370Y766898D01*
X128435Y766973D01*
X128503Y767046D01*
X128573Y767116D01*
X128646Y767184D01*
X128721Y767249D01*
X128799Y767311D01*
X128879Y767369D01*
X128962Y767425D01*
X129046Y767477D01*
X129133Y767527D01*
X129221Y767572D01*
X129311Y767615D01*
X129403Y767654D01*
X129496Y767689D01*
X129590Y767721D01*
X129685Y767749D01*
X129782Y767774D01*
X129879Y767795D01*
X129977Y767812D01*
X130075Y767825D01*
X130174Y767834D01*
X130274Y767840D01*
X130373Y767842D01*
X130509Y767840D01*
X130645Y767834D01*
X130781Y767825D01*
X130917Y767812D01*
X131052Y767794D01*
X131186Y767774D01*
X131320Y767749D01*
X131454Y767721D01*
X131586Y767688D01*
X131717Y767653D01*
X131848Y767613D01*
X131977Y767570D01*
X132105Y767524D01*
X132231Y767473D01*
X132357Y767420D01*
X132480Y767362D01*
X132602Y767302D01*
X132722Y767238D01*
X132841Y767170D01*
X132957Y767100D01*
X133071Y767026D01*
X133184Y766949D01*
X133294Y766868D01*
X129074Y762974D02*
X128988Y763027D01*
X128904Y763084D01*
X128822Y763143D01*
X128742Y763206D01*
X128665Y763272D01*
X128590Y763340D01*
X128518Y763412D01*
X128449Y763486D01*
X128383Y763563D01*
X128320Y763642D01*
X128260Y763724D01*
X128203Y763808D01*
X128149Y763894D01*
X128099Y763982D01*
X128052Y764072D01*
X128008Y764163D01*
X127969Y764257D01*
X127932Y764351D01*
X127900Y764447D01*
X127871Y764545D01*
X127846Y764643D01*
X127825Y764742D01*
X127807Y764842D01*
X127794Y764942D01*
X127784Y765043D01*
X127778Y765145D01*
X127776Y765246D01*
X132645Y761026D02*
X132731Y760973D01*
X132815Y760916D01*
X132897Y760857D01*
X132977Y760794D01*
X133054Y760728D01*
X133129Y760660D01*
X133201Y760588D01*
X133270Y760514D01*
X133336Y760437D01*
X133399Y760358D01*
X133459Y760276D01*
X133516Y760192D01*
X133570Y760106D01*
X133620Y760018D01*
X133667Y759928D01*
X133711Y759837D01*
X133750Y759743D01*
X133787Y759649D01*
X133819Y759553D01*
X133848Y759455D01*
X133873Y759357D01*
X133894Y759258D01*
X133912Y759158D01*
X133925Y759058D01*
X133935Y758957D01*
X133941Y758855D01*
X133943Y758754D01*
X132644Y761026D02*
X129074Y762974D01*
X139051Y762649D02*
X142296Y762649D01*
X142296Y762650D02*
X142409Y762648D01*
X142522Y762642D01*
X142635Y762632D01*
X142748Y762618D01*
X142860Y762601D01*
X142971Y762579D01*
X143081Y762554D01*
X143191Y762524D01*
X143299Y762491D01*
X143406Y762454D01*
X143512Y762414D01*
X143616Y762369D01*
X143719Y762321D01*
X143820Y762270D01*
X143919Y762215D01*
X144016Y762157D01*
X144111Y762095D01*
X144204Y762030D01*
X144294Y761962D01*
X144382Y761891D01*
X144468Y761816D01*
X144551Y761739D01*
X144631Y761659D01*
X144708Y761576D01*
X144783Y761490D01*
X144854Y761402D01*
X144922Y761312D01*
X144987Y761219D01*
X145049Y761124D01*
X145107Y761027D01*
X145162Y760928D01*
X145213Y760827D01*
X145261Y760724D01*
X145306Y760620D01*
X145346Y760514D01*
X145383Y760407D01*
X145416Y760299D01*
X145446Y760189D01*
X145471Y760079D01*
X145493Y759968D01*
X145510Y759856D01*
X145524Y759743D01*
X145534Y759630D01*
X145540Y759517D01*
X145542Y759404D01*
X145540Y759291D01*
X145534Y759178D01*
X145524Y759065D01*
X145510Y758952D01*
X145493Y758840D01*
X145471Y758729D01*
X145446Y758619D01*
X145416Y758509D01*
X145383Y758401D01*
X145346Y758294D01*
X145306Y758188D01*
X145261Y758084D01*
X145213Y757981D01*
X145162Y757880D01*
X145107Y757781D01*
X145049Y757684D01*
X144987Y757589D01*
X144922Y757496D01*
X144854Y757406D01*
X144783Y757318D01*
X144708Y757232D01*
X144631Y757149D01*
X144551Y757069D01*
X144468Y756992D01*
X144382Y756917D01*
X144294Y756846D01*
X144204Y756778D01*
X144111Y756713D01*
X144016Y756651D01*
X143919Y756593D01*
X143820Y756538D01*
X143719Y756487D01*
X143616Y756439D01*
X143512Y756394D01*
X143406Y756354D01*
X143299Y756317D01*
X143191Y756284D01*
X143081Y756254D01*
X142971Y756229D01*
X142860Y756207D01*
X142748Y756190D01*
X142635Y756176D01*
X142522Y756166D01*
X142409Y756160D01*
X142296Y756158D01*
X139051Y756158D01*
X139051Y767842D01*
X142296Y767842D01*
X142397Y767840D01*
X142497Y767834D01*
X142597Y767824D01*
X142697Y767811D01*
X142796Y767793D01*
X142895Y767772D01*
X142992Y767747D01*
X143089Y767718D01*
X143184Y767685D01*
X143278Y767649D01*
X143370Y767609D01*
X143461Y767566D01*
X143550Y767519D01*
X143637Y767469D01*
X143723Y767415D01*
X143806Y767358D01*
X143886Y767298D01*
X143965Y767235D01*
X144041Y767168D01*
X144114Y767099D01*
X144184Y767027D01*
X144252Y766953D01*
X144317Y766876D01*
X144378Y766796D01*
X144437Y766714D01*
X144492Y766630D01*
X144544Y766544D01*
X144593Y766456D01*
X144638Y766366D01*
X144680Y766274D01*
X144718Y766181D01*
X144752Y766086D01*
X144783Y765991D01*
X144810Y765894D01*
X144833Y765796D01*
X144853Y765697D01*
X144868Y765597D01*
X144880Y765497D01*
X144888Y765397D01*
X144892Y765296D01*
X144892Y765196D01*
X144888Y765095D01*
X144880Y764995D01*
X144868Y764895D01*
X144853Y764795D01*
X144833Y764696D01*
X144810Y764598D01*
X144783Y764501D01*
X144752Y764406D01*
X144718Y764311D01*
X144680Y764218D01*
X144638Y764126D01*
X144593Y764036D01*
X144544Y763948D01*
X144492Y763862D01*
X144437Y763778D01*
X144378Y763696D01*
X144317Y763616D01*
X144252Y763539D01*
X144184Y763465D01*
X144114Y763393D01*
X144041Y763324D01*
X143965Y763257D01*
X143886Y763194D01*
X143806Y763134D01*
X143723Y763077D01*
X143637Y763023D01*
X143550Y762973D01*
X143461Y762926D01*
X143370Y762883D01*
X143278Y762843D01*
X143184Y762807D01*
X143089Y762774D01*
X142992Y762745D01*
X142895Y762720D01*
X142796Y762699D01*
X142697Y762681D01*
X142597Y762668D01*
X142497Y762658D01*
X142397Y762652D01*
X142296Y762650D01*
D11*
X307340Y590550D02*
X307340Y568960D01*
X307340Y590550D02*
X307498Y590552D01*
X307657Y590558D01*
X307815Y590568D01*
X307972Y590582D01*
X308130Y590599D01*
X308286Y590621D01*
X308443Y590646D01*
X308598Y590676D01*
X308753Y590709D01*
X308907Y590746D01*
X309060Y590787D01*
X309212Y590832D01*
X309362Y590881D01*
X309512Y590933D01*
X309660Y590989D01*
X309807Y591049D01*
X309952Y591112D01*
X310095Y591179D01*
X310237Y591249D01*
X310377Y591323D01*
X310515Y591401D01*
X310651Y591482D01*
X310785Y591566D01*
X310917Y591653D01*
X311047Y591744D01*
X311174Y591838D01*
X311299Y591935D01*
X311422Y592036D01*
X311542Y592139D01*
X311659Y592245D01*
X311774Y592354D01*
X311886Y592466D01*
X311995Y592581D01*
X312101Y592698D01*
X312204Y592818D01*
X312305Y592941D01*
X312402Y593066D01*
X312496Y593193D01*
X312587Y593323D01*
X312674Y593455D01*
X312758Y593589D01*
X312839Y593725D01*
X312917Y593863D01*
X312991Y594003D01*
X313061Y594145D01*
X313128Y594288D01*
X313191Y594433D01*
X313251Y594580D01*
X313307Y594728D01*
X313359Y594878D01*
X313408Y595028D01*
X313453Y595180D01*
X313494Y595333D01*
X313531Y595487D01*
X313564Y595642D01*
X313594Y595797D01*
X313619Y595954D01*
X313641Y596110D01*
X313658Y596268D01*
X313672Y596425D01*
X313682Y596583D01*
X313688Y596742D01*
X313690Y596900D01*
X313688Y597058D01*
X313682Y597217D01*
X313672Y597375D01*
X313658Y597532D01*
X313641Y597690D01*
X313619Y597846D01*
X313594Y598003D01*
X313564Y598158D01*
X313531Y598313D01*
X313494Y598467D01*
X313453Y598620D01*
X313408Y598772D01*
X313359Y598922D01*
X313307Y599072D01*
X313251Y599220D01*
X313191Y599367D01*
X313128Y599512D01*
X313061Y599655D01*
X312991Y599797D01*
X312917Y599937D01*
X312839Y600075D01*
X312758Y600211D01*
X312674Y600345D01*
X312587Y600477D01*
X312496Y600607D01*
X312402Y600734D01*
X312305Y600859D01*
X312204Y600982D01*
X312101Y601102D01*
X311995Y601219D01*
X311886Y601334D01*
X311774Y601446D01*
X311659Y601555D01*
X311542Y601661D01*
X311422Y601764D01*
X311299Y601865D01*
X311174Y601962D01*
X311047Y602056D01*
X310917Y602147D01*
X310785Y602234D01*
X310651Y602318D01*
X310515Y602399D01*
X310377Y602477D01*
X310237Y602551D01*
X310095Y602621D01*
X309952Y602688D01*
X309807Y602751D01*
X309660Y602811D01*
X309512Y602867D01*
X309362Y602919D01*
X309212Y602968D01*
X309060Y603013D01*
X308907Y603054D01*
X308753Y603091D01*
X308598Y603124D01*
X308443Y603154D01*
X308286Y603179D01*
X308130Y603201D01*
X307972Y603218D01*
X307815Y603232D01*
X307657Y603242D01*
X307498Y603248D01*
X307340Y603250D01*
X607060Y624840D02*
X607060Y568960D01*
X307340Y568960D01*
X307340Y624840D02*
X607060Y624840D01*
X307340Y624840D02*
X307340Y603250D01*
X281976Y614906D02*
X281976Y624078D01*
X281976Y614906D02*
X281978Y614788D01*
X281984Y614670D01*
X281994Y614553D01*
X282007Y614436D01*
X282025Y614319D01*
X282047Y614203D01*
X282072Y614088D01*
X282101Y613974D01*
X282134Y613861D01*
X282171Y613749D01*
X282212Y613638D01*
X282256Y613529D01*
X282304Y613421D01*
X282355Y613315D01*
X282410Y613211D01*
X282469Y613108D01*
X282530Y613008D01*
X282595Y612909D01*
X282664Y612813D01*
X282735Y612720D01*
X282810Y612628D01*
X282887Y612539D01*
X282968Y612453D01*
X283051Y612370D01*
X283137Y612289D01*
X283226Y612212D01*
X283318Y612137D01*
X283411Y612066D01*
X283507Y611997D01*
X283606Y611932D01*
X283706Y611871D01*
X283809Y611812D01*
X283913Y611757D01*
X284019Y611706D01*
X284127Y611658D01*
X284236Y611614D01*
X284347Y611573D01*
X284459Y611536D01*
X284572Y611503D01*
X284686Y611474D01*
X284801Y611449D01*
X284917Y611427D01*
X285034Y611409D01*
X285151Y611396D01*
X285268Y611386D01*
X285386Y611380D01*
X285504Y611378D01*
X285622Y611380D01*
X285740Y611386D01*
X285857Y611396D01*
X285974Y611409D01*
X286091Y611427D01*
X286207Y611449D01*
X286322Y611474D01*
X286436Y611503D01*
X286549Y611536D01*
X286661Y611573D01*
X286772Y611614D01*
X286881Y611658D01*
X286989Y611706D01*
X287095Y611757D01*
X287199Y611812D01*
X287302Y611871D01*
X287402Y611932D01*
X287501Y611997D01*
X287597Y612066D01*
X287690Y612137D01*
X287782Y612212D01*
X287871Y612289D01*
X287957Y612370D01*
X288040Y612453D01*
X288121Y612539D01*
X288198Y612628D01*
X288273Y612720D01*
X288344Y612813D01*
X288413Y612909D01*
X288478Y613008D01*
X288539Y613108D01*
X288598Y613211D01*
X288653Y613315D01*
X288704Y613421D01*
X288752Y613529D01*
X288796Y613638D01*
X288837Y613749D01*
X288874Y613861D01*
X288907Y613974D01*
X288936Y614088D01*
X288961Y614203D01*
X288983Y614319D01*
X289001Y614436D01*
X289014Y614553D01*
X289024Y614670D01*
X289030Y614788D01*
X289032Y614906D01*
X289032Y624078D01*
X299085Y624078D02*
X299196Y624076D01*
X299306Y624070D01*
X299417Y624061D01*
X299527Y624047D01*
X299636Y624030D01*
X299745Y624009D01*
X299853Y623984D01*
X299960Y623955D01*
X300066Y623923D01*
X300171Y623887D01*
X300274Y623847D01*
X300376Y623804D01*
X300477Y623757D01*
X300576Y623706D01*
X300673Y623653D01*
X300767Y623596D01*
X300860Y623535D01*
X300951Y623472D01*
X301040Y623405D01*
X301126Y623335D01*
X301209Y623262D01*
X301291Y623187D01*
X301369Y623109D01*
X301444Y623027D01*
X301517Y622944D01*
X301587Y622858D01*
X301654Y622769D01*
X301717Y622678D01*
X301778Y622585D01*
X301835Y622491D01*
X301888Y622394D01*
X301939Y622295D01*
X301986Y622194D01*
X302029Y622092D01*
X302069Y621989D01*
X302105Y621884D01*
X302137Y621778D01*
X302166Y621671D01*
X302191Y621563D01*
X302212Y621454D01*
X302229Y621345D01*
X302243Y621235D01*
X302252Y621124D01*
X302258Y621014D01*
X302260Y620903D01*
X299085Y624078D02*
X298960Y624076D01*
X298835Y624070D01*
X298710Y624061D01*
X298586Y624047D01*
X298462Y624030D01*
X298339Y624009D01*
X298216Y623984D01*
X298094Y623956D01*
X297973Y623924D01*
X297853Y623888D01*
X297735Y623848D01*
X297617Y623805D01*
X297501Y623758D01*
X297387Y623708D01*
X297274Y623654D01*
X297163Y623597D01*
X297053Y623536D01*
X296946Y623472D01*
X296840Y623405D01*
X296737Y623334D01*
X296636Y623261D01*
X296537Y623184D01*
X296440Y623104D01*
X296346Y623022D01*
X296255Y622936D01*
X296166Y622848D01*
X296080Y622757D01*
X295997Y622664D01*
X295917Y622568D01*
X295839Y622470D01*
X295765Y622369D01*
X295694Y622266D01*
X295626Y622161D01*
X295561Y622054D01*
X295500Y621945D01*
X295442Y621834D01*
X295387Y621721D01*
X295336Y621607D01*
X295289Y621491D01*
X295245Y621374D01*
X295204Y621256D01*
X301202Y618434D02*
X301284Y618514D01*
X301363Y618598D01*
X301439Y618684D01*
X301513Y618773D01*
X301583Y618864D01*
X301650Y618957D01*
X301714Y619053D01*
X301775Y619150D01*
X301833Y619250D01*
X301887Y619351D01*
X301937Y619455D01*
X301984Y619560D01*
X302028Y619666D01*
X302068Y619774D01*
X302104Y619883D01*
X302137Y619994D01*
X302165Y620105D01*
X302190Y620217D01*
X302212Y620330D01*
X302229Y620444D01*
X302243Y620558D01*
X302252Y620673D01*
X302258Y620788D01*
X302260Y620903D01*
X301202Y618434D02*
X295204Y611378D01*
X302260Y611378D01*
D17*
X801000Y287476D02*
X800932Y286431D01*
X800795Y285392D01*
X800590Y284365D01*
X800319Y283353D01*
X799983Y282361D01*
X799582Y281393D01*
X799118Y280454D01*
X798595Y279546D01*
X798013Y278675D01*
X797375Y277844D01*
X796684Y277057D01*
X795943Y276316D01*
X795156Y275625D01*
X794325Y274988D01*
X793454Y274406D01*
X792546Y273882D01*
X791607Y273418D01*
X790639Y273017D01*
X789647Y272681D01*
X788635Y272410D01*
X787608Y272205D01*
X786569Y272069D01*
X785524Y272000D01*
X784476Y272000D01*
X783431Y272069D01*
X782392Y272205D01*
X781365Y272410D01*
X780353Y272681D01*
X779361Y273017D01*
X778393Y273418D01*
X777454Y273882D01*
X776546Y274406D01*
X775675Y274988D01*
X774844Y275625D01*
X774057Y276316D01*
X773316Y277057D01*
X772625Y277844D01*
X771988Y278675D01*
X771406Y279546D01*
X770882Y280454D01*
X770418Y281393D01*
X770017Y282361D01*
X769681Y283353D01*
X769410Y284365D01*
X769205Y285392D01*
X769069Y286431D01*
X769000Y287476D01*
X769000Y288524D01*
X769069Y289569D01*
X769205Y290608D01*
X769410Y291635D01*
X769681Y292647D01*
X770017Y293639D01*
X770418Y294607D01*
X770882Y295546D01*
X771406Y296454D01*
X771988Y297325D01*
X772625Y298156D01*
X773316Y298943D01*
X774057Y299684D01*
X774844Y300375D01*
X775675Y301013D01*
X776546Y301595D01*
X777454Y302118D01*
X778393Y302582D01*
X779361Y302983D01*
X780353Y303319D01*
X781365Y303590D01*
X782392Y303795D01*
X783431Y303932D01*
X784476Y304000D01*
X785524Y304000D01*
X786569Y303932D01*
X787608Y303795D01*
X788635Y303590D01*
X789647Y303319D01*
X790639Y302983D01*
X791607Y302582D01*
X792546Y302118D01*
X793454Y301595D01*
X794325Y301013D01*
X795156Y300375D01*
X795943Y299684D01*
X796684Y298943D01*
X797375Y298156D01*
X798013Y297325D01*
X798595Y296454D01*
X799118Y295546D01*
X799582Y294607D01*
X799983Y293639D01*
X800319Y292647D01*
X800590Y291635D01*
X800795Y290608D01*
X800932Y289569D01*
X801000Y288524D01*
X801000Y287476D01*
X801000Y617476D02*
X800932Y616431D01*
X800795Y615392D01*
X800590Y614365D01*
X800319Y613353D01*
X799983Y612361D01*
X799582Y611393D01*
X799118Y610454D01*
X798595Y609546D01*
X798013Y608675D01*
X797375Y607844D01*
X796684Y607057D01*
X795943Y606316D01*
X795156Y605625D01*
X794325Y604988D01*
X793454Y604406D01*
X792546Y603882D01*
X791607Y603418D01*
X790639Y603017D01*
X789647Y602681D01*
X788635Y602410D01*
X787608Y602205D01*
X786569Y602069D01*
X785524Y602000D01*
X784476Y602000D01*
X783431Y602069D01*
X782392Y602205D01*
X781365Y602410D01*
X780353Y602681D01*
X779361Y603017D01*
X778393Y603418D01*
X777454Y603882D01*
X776546Y604406D01*
X775675Y604988D01*
X774844Y605625D01*
X774057Y606316D01*
X773316Y607057D01*
X772625Y607844D01*
X771988Y608675D01*
X771406Y609546D01*
X770882Y610454D01*
X770418Y611393D01*
X770017Y612361D01*
X769681Y613353D01*
X769410Y614365D01*
X769205Y615392D01*
X769069Y616431D01*
X769000Y617476D01*
X769000Y618524D01*
X769069Y619569D01*
X769205Y620608D01*
X769410Y621635D01*
X769681Y622647D01*
X770017Y623639D01*
X770418Y624607D01*
X770882Y625546D01*
X771406Y626454D01*
X771988Y627325D01*
X772625Y628156D01*
X773316Y628943D01*
X774057Y629684D01*
X774844Y630375D01*
X775675Y631013D01*
X776546Y631595D01*
X777454Y632118D01*
X778393Y632582D01*
X779361Y632983D01*
X780353Y633319D01*
X781365Y633590D01*
X782392Y633795D01*
X783431Y633932D01*
X784476Y634000D01*
X785524Y634000D01*
X786569Y633932D01*
X787608Y633795D01*
X788635Y633590D01*
X789647Y633319D01*
X790639Y632983D01*
X791607Y632582D01*
X792546Y632118D01*
X793454Y631595D01*
X794325Y631013D01*
X795156Y630375D01*
X795943Y629684D01*
X796684Y628943D01*
X797375Y628156D01*
X798013Y627325D01*
X798595Y626454D01*
X799118Y625546D01*
X799582Y624607D01*
X799983Y623639D01*
X800319Y622647D01*
X800590Y621635D01*
X800795Y620608D01*
X800932Y619569D01*
X801000Y618524D01*
X801000Y617476D01*
X211000Y287476D02*
X210932Y286431D01*
X210795Y285392D01*
X210590Y284365D01*
X210319Y283353D01*
X209983Y282361D01*
X209582Y281393D01*
X209118Y280454D01*
X208595Y279546D01*
X208013Y278675D01*
X207375Y277844D01*
X206684Y277057D01*
X205943Y276316D01*
X205156Y275625D01*
X204325Y274988D01*
X203454Y274406D01*
X202546Y273882D01*
X201607Y273418D01*
X200639Y273017D01*
X199647Y272681D01*
X198635Y272410D01*
X197608Y272205D01*
X196569Y272069D01*
X195524Y272000D01*
X194476Y272000D01*
X193431Y272069D01*
X192392Y272205D01*
X191365Y272410D01*
X190353Y272681D01*
X189361Y273017D01*
X188393Y273418D01*
X187454Y273882D01*
X186546Y274406D01*
X185675Y274988D01*
X184844Y275625D01*
X184057Y276316D01*
X183316Y277057D01*
X182625Y277844D01*
X181988Y278675D01*
X181406Y279546D01*
X180882Y280454D01*
X180418Y281393D01*
X180017Y282361D01*
X179681Y283353D01*
X179410Y284365D01*
X179205Y285392D01*
X179069Y286431D01*
X179000Y287476D01*
X179000Y288524D01*
X179069Y289569D01*
X179205Y290608D01*
X179410Y291635D01*
X179681Y292647D01*
X180017Y293639D01*
X180418Y294607D01*
X180882Y295546D01*
X181406Y296454D01*
X181988Y297325D01*
X182625Y298156D01*
X183316Y298943D01*
X184057Y299684D01*
X184844Y300375D01*
X185675Y301013D01*
X186546Y301595D01*
X187454Y302118D01*
X188393Y302582D01*
X189361Y302983D01*
X190353Y303319D01*
X191365Y303590D01*
X192392Y303795D01*
X193431Y303932D01*
X194476Y304000D01*
X195524Y304000D01*
X196569Y303932D01*
X197608Y303795D01*
X198635Y303590D01*
X199647Y303319D01*
X200639Y302983D01*
X201607Y302582D01*
X202546Y302118D01*
X203454Y301595D01*
X204325Y301013D01*
X205156Y300375D01*
X205943Y299684D01*
X206684Y298943D01*
X207375Y298156D01*
X208013Y297325D01*
X208595Y296454D01*
X209118Y295546D01*
X209582Y294607D01*
X209983Y293639D01*
X210319Y292647D01*
X210590Y291635D01*
X210795Y290608D01*
X210932Y289569D01*
X211000Y288524D01*
X211000Y287476D01*
X211000Y617476D02*
X210932Y616431D01*
X210795Y615392D01*
X210590Y614365D01*
X210319Y613353D01*
X209983Y612361D01*
X209582Y611393D01*
X209118Y610454D01*
X208595Y609546D01*
X208013Y608675D01*
X207375Y607844D01*
X206684Y607057D01*
X205943Y606316D01*
X205156Y605625D01*
X204325Y604988D01*
X203454Y604406D01*
X202546Y603882D01*
X201607Y603418D01*
X200639Y603017D01*
X199647Y602681D01*
X198635Y602410D01*
X197608Y602205D01*
X196569Y602069D01*
X195524Y602000D01*
X194476Y602000D01*
X193431Y602069D01*
X192392Y602205D01*
X191365Y602410D01*
X190353Y602681D01*
X189361Y603017D01*
X188393Y603418D01*
X187454Y603882D01*
X186546Y604406D01*
X185675Y604988D01*
X184844Y605625D01*
X184057Y606316D01*
X183316Y607057D01*
X182625Y607844D01*
X181988Y608675D01*
X181406Y609546D01*
X180882Y610454D01*
X180418Y611393D01*
X180017Y612361D01*
X179681Y613353D01*
X179410Y614365D01*
X179205Y615392D01*
X179069Y616431D01*
X179000Y617476D01*
X179000Y618524D01*
X179069Y619569D01*
X179205Y620608D01*
X179410Y621635D01*
X179681Y622647D01*
X180017Y623639D01*
X180418Y624607D01*
X180882Y625546D01*
X181406Y626454D01*
X181988Y627325D01*
X182625Y628156D01*
X183316Y628943D01*
X184057Y629684D01*
X184844Y630375D01*
X185675Y631013D01*
X186546Y631595D01*
X187454Y632118D01*
X188393Y632582D01*
X189361Y632983D01*
X190353Y633319D01*
X191365Y633590D01*
X192392Y633795D01*
X193431Y633932D01*
X194476Y634000D01*
X195524Y634000D01*
X196569Y633932D01*
X197608Y633795D01*
X198635Y633590D01*
X199647Y633319D01*
X200639Y632983D01*
X201607Y632582D01*
X202546Y632118D01*
X203454Y631595D01*
X204325Y631013D01*
X205156Y630375D01*
X205943Y629684D01*
X206684Y628943D01*
X207375Y628156D01*
X208013Y627325D01*
X208595Y626454D01*
X209118Y625546D01*
X209582Y624607D01*
X209983Y623639D01*
X210319Y622647D01*
X210590Y621635D01*
X210795Y620608D01*
X210932Y619569D01*
X211000Y618524D01*
X211000Y617476D01*
X712950Y838028D02*
X712883Y837690D01*
X712751Y837371D01*
X712559Y837084D01*
X712316Y836841D01*
X712029Y836649D01*
X711710Y836517D01*
X711372Y836450D01*
X711028Y836450D01*
X710690Y836517D01*
X710371Y836649D01*
X710084Y836841D01*
X709841Y837084D01*
X709649Y837371D01*
X709517Y837690D01*
X709450Y838028D01*
X709450Y838372D01*
X709517Y838710D01*
X709649Y839029D01*
X709841Y839316D01*
X710084Y839559D01*
X710371Y839751D01*
X710690Y839883D01*
X711028Y839950D01*
X711372Y839950D01*
X711710Y839883D01*
X712029Y839751D01*
X712316Y839559D01*
X712559Y839316D01*
X712751Y839029D01*
X712883Y838710D01*
X712950Y838372D01*
X712950Y838028D01*
X166850Y190328D02*
X166783Y189990D01*
X166651Y189671D01*
X166459Y189384D01*
X166216Y189141D01*
X165929Y188949D01*
X165610Y188817D01*
X165272Y188750D01*
X164928Y188750D01*
X164590Y188817D01*
X164271Y188949D01*
X163984Y189141D01*
X163741Y189384D01*
X163549Y189671D01*
X163417Y189990D01*
X163350Y190328D01*
X163350Y190672D01*
X163417Y191010D01*
X163549Y191329D01*
X163741Y191616D01*
X163984Y191859D01*
X164271Y192051D01*
X164590Y192183D01*
X164928Y192250D01*
X165272Y192250D01*
X165610Y192183D01*
X165929Y192051D01*
X166216Y191859D01*
X166459Y191616D01*
X166651Y191329D01*
X166783Y191010D01*
X166850Y190672D01*
X166850Y190328D01*
M02*
