G04 EAGLE Gerber RS-274X export*
G75*
%MOMM*%
%FSLAX34Y34*%
%LPD*%
%INSoldermask Bottom*%
%IPPOS*%
%AMOC8*
5,1,8,0,0,1.08239X$1,22.5*%
G01*
%ADD10C,3.403200*%
%ADD11C,0.553200*%
%ADD12P,1.539592X8X202.500000*%
%ADD13C,1.422400*%
%ADD14R,1.611200X1.611200*%
%ADD15C,1.611200*%
%ADD16C,1.727200*%
%ADD17P,1.649562X8X112.500000*%
%ADD18C,1.524000*%
%ADD19C,1.611200*%
%ADD20C,1.553200*%


D10*
X195000Y618000D03*
X195000Y288000D03*
X785000Y618000D03*
X785000Y288000D03*
D11*
X723900Y850900D03*
X165100Y177800D03*
X812800Y177800D03*
X88900Y850900D03*
D12*
X769620Y241300D03*
D13*
X787400Y241300D03*
D14*
X330200Y381000D03*
D15*
X355600Y381000D03*
X381000Y381000D03*
X406400Y381000D03*
X431800Y381000D03*
X457200Y381000D03*
X482600Y381000D03*
X482600Y533400D03*
X457200Y533400D03*
X431800Y533400D03*
X406400Y533400D03*
X381000Y533400D03*
X355600Y533400D03*
X330200Y533400D03*
D14*
X355600Y228600D03*
D15*
X381000Y228600D03*
X406400Y228600D03*
X431800Y228600D03*
X457200Y228600D03*
X457200Y330200D03*
X431800Y330200D03*
X406400Y330200D03*
X381000Y330200D03*
X355600Y330200D03*
D16*
X716280Y406400D02*
X731520Y406400D01*
X731520Y381000D02*
X716280Y381000D01*
X728980Y495300D02*
X744220Y495300D01*
X744220Y520700D02*
X728980Y520700D01*
X728980Y546100D02*
X744220Y546100D01*
X609600Y325120D02*
X609600Y309880D01*
X635000Y309880D02*
X635000Y325120D01*
D17*
X685800Y533400D03*
X685800Y660400D03*
D18*
X330200Y565404D02*
X330200Y552196D01*
X355600Y552196D02*
X355600Y565404D01*
X381000Y565404D02*
X381000Y552196D01*
X406400Y552196D02*
X406400Y565404D01*
X431800Y565404D02*
X431800Y552196D01*
X457200Y552196D02*
X457200Y565404D01*
X482600Y565404D02*
X482600Y552196D01*
X508000Y552196D02*
X508000Y565404D01*
X533400Y565404D02*
X533400Y552196D01*
X558800Y552196D02*
X558800Y565404D01*
X584200Y565404D02*
X584200Y552196D01*
X609600Y552196D02*
X609600Y565404D01*
X609600Y628396D02*
X609600Y641604D01*
X584200Y641604D02*
X584200Y628396D01*
X558800Y628396D02*
X558800Y641604D01*
X533400Y641604D02*
X533400Y628396D01*
X508000Y628396D02*
X508000Y641604D01*
X482600Y641604D02*
X482600Y628396D01*
X457200Y628396D02*
X457200Y641604D01*
X431800Y641604D02*
X431800Y628396D01*
X406400Y628396D02*
X406400Y641604D01*
X381000Y641604D02*
X381000Y628396D01*
X355600Y628396D02*
X355600Y641604D01*
X330200Y641604D02*
X330200Y628396D01*
D15*
X508000Y254000D03*
X508000Y228600D03*
D14*
X723900Y254000D03*
D15*
X723900Y228600D03*
D19*
X127000Y672410D02*
X127000Y686490D01*
X152400Y686490D02*
X152400Y672410D01*
X177800Y672410D02*
X177800Y686490D01*
X203200Y686490D02*
X203200Y672410D01*
X228600Y672410D02*
X228600Y686490D01*
X254000Y686490D02*
X254000Y672410D01*
X279400Y672410D02*
X279400Y686490D01*
X304800Y686490D02*
X304800Y672410D01*
X330200Y672410D02*
X330200Y686490D01*
X355600Y686490D02*
X355600Y672410D01*
X381000Y672410D02*
X381000Y686490D01*
X406400Y686490D02*
X406400Y672410D01*
X431800Y672410D02*
X431800Y686490D01*
X457200Y686490D02*
X457200Y672410D01*
X482600Y672410D02*
X482600Y686490D01*
X508000Y686490D02*
X508000Y672410D01*
X533400Y672410D02*
X533400Y686490D01*
X558800Y686490D02*
X558800Y672410D01*
X584200Y672410D02*
X584200Y686490D01*
X609600Y686490D02*
X609600Y672410D01*
X127000Y824810D02*
X127000Y838890D01*
X152400Y838890D02*
X152400Y824810D01*
X177800Y824810D02*
X177800Y838890D01*
X203200Y838890D02*
X203200Y824810D01*
X228600Y824810D02*
X228600Y838890D01*
X254000Y838890D02*
X254000Y824810D01*
X279400Y824810D02*
X279400Y838890D01*
X304800Y838890D02*
X304800Y824810D01*
X330200Y824810D02*
X330200Y838890D01*
X355600Y838890D02*
X355600Y824810D01*
X381000Y824810D02*
X381000Y838890D01*
X406400Y838890D02*
X406400Y824810D01*
X431800Y824810D02*
X431800Y838890D01*
X457200Y838890D02*
X457200Y824810D01*
X482600Y824810D02*
X482600Y838890D01*
X508000Y838890D02*
X508000Y824810D01*
X533400Y824810D02*
X533400Y838890D01*
X558800Y838890D02*
X558800Y824810D01*
X584200Y824810D02*
X584200Y838890D01*
X609600Y838890D02*
X609600Y824810D01*
D20*
X330200Y513080D03*
X355600Y427990D03*
X388620Y207010D03*
X406400Y499110D03*
X304800Y381000D03*
X416560Y309880D03*
X304800Y546100D03*
X381000Y445770D03*
X279400Y228600D03*
X518160Y533400D03*
X431800Y482600D03*
X533400Y406400D03*
X570230Y657860D03*
X482600Y730250D03*
X457200Y749300D03*
X571500Y279400D03*
X596900Y266700D03*
X457200Y464820D03*
X393700Y464820D03*
X381000Y248086D03*
X381000Y414020D03*
X482600Y414020D03*
X469900Y514350D03*
M02*
