M48
;GenerationSoftware,Autodesk,EAGLE,9.5.2*%
;CreationDate,2019-12-15T15:09:11Z*%
FMAT,2
ICI,OFF
METRIC,TZ,000.000
T9C0.350
T8C0.600
T7C0.610
T6C0.711
T5C0.813
T4C0.900
T3C0.910
T2C1.016
T1C3.200
%
G90
M71
T1
X19500Y28800
X78500Y28800
X19500Y61800
X78500Y61800
T2
X63500Y31750
X60960Y31750
X73660Y52070
X73660Y49530
X73660Y38100
X73660Y40640
X73660Y54610
T3
X43180Y22860
X45720Y22860
X45720Y33020
X43180Y33020
X40640Y33020
X38100Y33020
X35560Y33020
X40640Y53340
X33020Y38100
X35560Y38100
X38100Y38100
X40640Y38100
X43180Y38100
X45720Y38100
X48260Y38100
X48260Y53340
X45720Y53340
X43180Y53340
X38100Y53340
X35560Y53340
X33020Y53340
X35560Y22860
X38100Y22860
X40640Y22860
T4
X15240Y83185
X12700Y83185
X60960Y67945
X58420Y67945
X55880Y67945
X53340Y67945
X50800Y67945
X38100Y67945
X40640Y67945
X43180Y67945
X33020Y67945
X35560Y67945
X45720Y67945
X48260Y67945
X27940Y67945
X30480Y67945
X12700Y67945
X15240Y67945
X17780Y67945
X20320Y67945
X22860Y67945
X25400Y67945
X17780Y83185
X20320Y83185
X22860Y83185
X25400Y83185
X27940Y83185
X30480Y83185
X33020Y83185
X35560Y83185
X38100Y83185
X40640Y83185
X43180Y83185
X45720Y83185
X48260Y83185
X50800Y83185
X53340Y83185
X55880Y83185
X58420Y83185
X60960Y83185
T5
X68580Y53340
X68580Y66040
X58420Y63500
X33020Y55880
X35560Y55880
X38100Y55880
X40640Y55880
X43180Y55880
X45720Y55880
X48260Y55880
X50800Y55880
X53340Y55880
X55880Y55880
X58420Y55880
X60960Y55880
X60960Y63500
X55880Y63500
X53340Y63500
X50800Y63500
X48260Y63500
X45720Y63500
X43180Y63500
X40640Y63500
X38100Y63500
X35560Y63500
X33020Y63500
T6
X77470Y25019
X77470Y23241
T7
X33655Y65564
X30639Y56991
X50324Y71914
X50800Y59214
X45085Y50641
X35560Y50959
X63341Y72708
X45879Y51752
T8
X50800Y25400
X50800Y22860
X73660Y25400
X73660Y22860
T9
X8890Y85090
X16510Y17780
X72390Y85090
X81280Y17780
M30