M48
;GenerationSoftware,Autodesk,EAGLE,9.5.2*%
;CreationDate,2019-12-12T12:05:30Z*%
FMAT,2
ICI,OFF
METRIC,TZ,000.000
T8C0.350
T7C0.600
T6C0.711
T5C0.813
T4C0.900
T3C0.910
T2C1.016
T1C3.200
%
G90
M71
T1
X78500Y28800
X78500Y61800
X19500Y28800
X19500Y61800
T2
X71120Y50800
X71120Y39370
X71120Y36830
X71120Y45720
X71120Y48260
X62230Y31750
X64770Y31750
T3
X36830Y38100
X39370Y38100
X41910Y38100
X46990Y38100
X46990Y53340
X44450Y53340
X41910Y53340
X39370Y53340
X36830Y53340
X34290Y53340
X31750Y53340
X34290Y22860
X36830Y22860
X39370Y22860
X41910Y22860
X44450Y38100
X31750Y38100
X34290Y38100
X44450Y22860
X44450Y33020
X41910Y33020
X39370Y33020
X36830Y33020
X34290Y33020
T4
X36830Y83820
X39370Y83820
X41910Y83820
X44450Y83820
X46990Y83820
X49530Y83820
X52070Y83820
X54610Y83820
X57150Y83820
X59690Y83820
X11430Y68580
X13970Y68580
X16510Y68580
X19050Y68580
X21590Y68580
X24130Y68580
X26670Y68580
X29210Y68580
X31750Y68580
X34290Y68580
X36830Y68580
X39370Y68580
X41910Y68580
X44450Y68580
X46990Y68580
X49530Y68580
X52070Y68580
X54610Y68580
X57150Y68580
X59690Y68580
X11430Y83820
X13970Y83820
X16510Y83820
X19050Y83820
X21590Y83820
X24130Y83820
X26670Y83820
X29210Y83820
X31750Y83820
X34290Y83820
T5
X49530Y55880
X49530Y63500
X46990Y63500
X44450Y63500
X67310Y54610
X67310Y67310
X41910Y63500
X39370Y63500
X36830Y63500
X34290Y63500
X31750Y55880
X34290Y55880
X36830Y55880
X39370Y55880
X41910Y55880
X44450Y55880
X46990Y55880
X31750Y63500
X52070Y55880
X54610Y55880
X57150Y55880
X59690Y55880
X59690Y63500
X57150Y63500
X54610Y63500
X52070Y63500
T6
X76327Y24638
X76327Y22860
T7
X49530Y25400
X49530Y22860
X72390Y25400
X72390Y22860
T8
X16510Y19050
X71120Y83820
M30